<?xml version="1.0" standalone="no"?>
<!DOCTYPE svg PUBLIC "-//W3C//DTD SVG 20010904//EN"
 "http://www.w3.org/TR/2001/REC-SVG-20010904/DTD/svg10.dtd">
<svg version="1.0" xmlns="http://www.w3.org/2000/svg"
 width="776.000000pt" height="572.000000pt" viewBox="0 0 776.000000 572.000000"
 preserveAspectRatio="xMidYMid meet">

<g transform="translate(0.000000,572.000000) scale(0.100000,-0.100000)"
fill="#000000" stroke="none">
<path d="M650 5205 l0 -365 295 0 c256 0 295 -2 295 -15 0 -8 5 -15 10 -15 6
0 10 7 10 15 0 13 31 15 220 15 211 0 220 -1 220 -19 0 -11 5 -23 10 -26 6 -4
10 5 10 19 l0 26 300 0 300 0 0 365 0 365 -835 0 -835 0 0 -365z m1660 0 l1
-355 -826 0 -825 0 0 355 0 355 824 0 824 0 2 -355z"/>
<path d="M1073 5273 c-6 -27 -15 -57 -19 -68 -7 -18 -6 -18 9 -6 18 14 16 16
32 -34 2 -9 -6 -22 -21 -31 -13 -9 -22 -19 -20 -22 3 -2 17 3 31 12 18 12 30
14 39 7 6 -5 34 -15 61 -21 40 -9 51 -8 64 5 14 13 11 15 -24 16 -90 2 -96 9
-81 98 l8 44 -27 -7 c-24 -6 -27 -5 -21 11 12 30 12 37 -4 40 -11 3 -19 -10
-27 -44z m47 -52 c0 -34 -15 -49 -24 -25 -11 28 -6 54 9 54 10 0 15 -10 15
-29z"/>
<path d="M1180 5230 c0 -53 4 -90 10 -90 6 0 10 23 10 52 0 49 1 50 18 35 22
-20 32 -21 32 -4 0 8 -12 19 -26 26 -22 9 -25 17 -22 41 3 20 0 30 -9 30 -10
0 -13 -22 -13 -90z"/>
<path d="M1469 5316 c-2 -2 -44 -6 -93 -10 -49 -3 -92 -8 -94 -11 -3 -3 2 -5
10 -5 24 0 23 -119 0 -136 -30 -22 -4 -27 30 -6 41 25 98 20 98 -8 0 -13 -9
-20 -27 -23 -16 -2 0 -4 35 -3 62 0 83 8 61 22 -6 3 -15 1 -19 -6 -9 -15 -30
-4 -30 16 0 8 10 14 25 14 14 0 25 5 25 11 0 7 -10 9 -26 5 -21 -6 -25 -4 -22
11 2 12 11 17 26 15 20 -3 22 1 22 47 0 28 0 54 1 58 1 9 -15 15 -22 9z m-49
-36 c0 -11 -7 -20 -15 -20 -8 0 -15 9 -15 20 0 11 7 20 15 20 8 0 15 -9 15
-20z m50 0 c0 -11 -7 -20 -15 -20 -8 0 -15 9 -15 20 0 11 7 20 15 20 8 0 15
-9 15 -20z m-100 -14 c0 -31 -34 -29 -38 2 -3 17 2 22 17 22 16 0 21 -6 21
-24z m50 -31 c0 -8 -7 -15 -15 -15 -8 0 -15 7 -15 15 0 8 7 15 15 15 8 0 15
-7 15 -15z m50 0 c0 -8 -7 -15 -15 -15 -8 0 -15 7 -15 15 0 8 7 15 15 15 8 0
15 -7 15 -15z m-100 -25 c0 -21 15 -27 25 -10 10 17 25 11 25 -10 0 -21 -9
-24 -59 -14 -29 6 -42 30 -24 47 13 14 33 6 33 -13z"/>
<path d="M1583 5312 c-29 -3 -33 -7 -33 -32 0 -24 4 -28 28 -26 46 2 40 -19
-8 -25 l-45 -5 40 -5 40 -4 -45 -27 c-36 -22 -40 -28 -22 -28 18 0 22 -6 22
-31 0 -25 3 -29 13 -21 7 6 23 8 36 5 21 -5 22 -3 19 33 -2 33 -6 38 -23 35
-20 -3 -20 -3 -1 18 24 26 40 27 66 1 l20 -20 -20 0 c-16 0 -20 -7 -20 -33 0
-31 2 -33 35 -33 28 0 35 4 35 19 0 11 8 26 18 33 16 12 16 13 -3 19 -11 4
-31 12 -45 18 -24 11 -23 11 20 17 32 4 40 8 28 14 -9 4 -21 5 -27 2 -5 -4
-12 -2 -16 4 -3 5 -13 10 -21 10 -8 0 -12 -4 -9 -10 3 -5 -1 -10 -10 -10 -9 0
-13 5 -10 10 3 6 -1 13 -10 16 -11 5 -15 14 -11 30 7 27 2 31 -41 26z m17 -27
c0 -8 -7 -15 -15 -15 -8 0 -15 7 -15 15 0 8 7 15 15 15 8 0 15 -7 15 -15z m0
-135 c0 -11 -4 -20 -10 -20 -5 0 -10 9 -10 20 0 11 5 20 10 20 6 0 10 -9 10
-20z m98 3 c-5 -25 -28 -28 -28 -4 0 12 6 21 16 21 9 0 14 -7 12 -17z"/>
<path d="M1650 5286 c0 -19 6 -25 33 -29 17 -2 32 -4 33 -3 1 0 4 13 8 29 6
26 5 27 -34 27 -36 0 -40 -3 -40 -24z m50 -1 c0 -8 -7 -15 -15 -15 -8 0 -15 7
-15 15 0 8 7 15 15 15 8 0 15 -7 15 -15z"/>
<path d="M1802 5220 c-36 -76 -37 -80 -17 -80 16 0 21 6 21 23 -1 19 4 22 34
22 30 0 35 -3 34 -22 0 -19 5 -23 29 -23 28 0 29 1 15 18 -8 9 -26 45 -39 80
-13 34 -27 62 -31 62 -4 0 -25 -36 -46 -80z m48 21 c0 -5 3 -16 6 -25 4 -12 0
-16 -15 -16 -22 0 -25 8 -15 34 7 17 24 22 24 7z"/>
<path d="M5460 5205 l0 -365 775 0 775 0 0 365 0 365 -775 0 -775 0 0 -365z
m1540 0 l0 -355 -765 0 -765 0 0 355 0 355 765 0 765 0 0 -355z"/>
<path d="M5825 5256 c-14 -44 -16 -61 -8 -54 16 13 18 11 27 -24 5 -21 1 -31
-20 -47 -30 -24 -21 -27 16 -7 20 12 29 12 50 1 41 -20 93 -26 113 -11 15 12
9 14 -44 19 -73 6 -82 13 -70 53 22 69 23 86 4 82 -10 -2 -18 -12 -19 -23 -2
-53 -5 -65 -13 -65 -14 0 -25 61 -13 69 14 8 19 63 7 68 -6 2 -19 -26 -30 -61z"/>
<path d="M5930 5229 c0 -68 3 -90 13 -87 6 3 14 27 18 54 3 35 7 44 13 32 9
-19 36 -25 36 -8 0 5 -11 17 -25 26 -17 11 -25 25 -25 45 0 19 -5 29 -15 29
-12 0 -15 -17 -15 -91z"/>
<path d="M6229 5316 c-2 -2 -44 -6 -93 -10 -49 -3 -91 -8 -94 -11 -3 -3 2 -5
11 -5 24 0 25 -125 1 -134 -8 -3 -12 -10 -9 -16 4 -6 20 -3 43 8 46 22 92 18
92 -8 0 -14 -9 -20 -32 -23 -18 -2 -1 -5 39 -5 39 -1 74 2 78 7 8 15 -15 25
-28 12 -17 -17 -27 -13 -27 9 0 15 7 20 26 20 15 0 23 4 19 10 -4 6 -15 8 -26
5 -15 -5 -19 -1 -19 15 0 17 4 20 20 15 18 -6 20 -2 22 39 0 25 1 51 2 58 1
11 -17 22 -25 14z m-49 -36 c0 -11 -4 -20 -10 -20 -5 0 -10 9 -10 20 0 11 5
20 10 20 6 0 10 -9 10 -20z m50 0 c0 -11 -4 -20 -10 -20 -5 0 -10 9 -10 20 0
11 5 20 10 20 6 0 10 -9 10 -20z m-90 -14 c0 -19 -5 -24 -20 -23 -14 1 -20 8
-20 24 0 16 6 23 20 23 15 0 20 -7 20 -24z m40 -31 c0 -8 -4 -15 -10 -15 -5 0
-10 7 -10 15 0 8 5 15 10 15 6 0 10 -7 10 -15z m50 0 c0 -8 -4 -15 -10 -15 -5
0 -10 7 -10 15 0 8 5 15 10 15 6 0 10 -7 10 -15z m-90 -25 c0 -11 5 -20 10
-20 6 0 10 5 10 10 0 6 5 10 10 10 6 0 10 -9 10 -20 0 -18 -6 -20 -40 -18 -36
3 -40 6 -40 31 0 20 5 27 20 27 13 0 20 -7 20 -20z"/>
<path d="M6338 5312 c-23 -3 -28 -8 -28 -32 0 -24 4 -28 24 -27 40 3 30 -17
-11 -24 l-38 -6 33 -2 c38 -1 35 -13 -12 -43 -17 -11 -23 -18 -13 -14 14 4 17
-1 17 -31 0 -30 2 -34 15 -23 8 6 23 9 33 6 17 -6 20 -1 24 29 4 32 2 35 -20
35 l-25 0 26 20 c14 11 29 20 35 20 5 0 17 -9 27 -20 18 -19 17 -20 -3 -20
-18 0 -22 -6 -22 -33 0 -33 1 -34 38 -32 30 1 36 5 34 19 -2 10 5 24 14 31 16
11 14 15 -27 33 l-44 20 43 1 c27 1 41 5 37 11 -4 6 -15 8 -26 5 -11 -4 -19
-2 -19 4 0 6 -7 11 -16 11 -8 0 -12 -4 -9 -10 3 -6 -4 -10 -16 -10 -12 0 -19
3 -16 7 4 3 2 12 -4 20 -6 7 -9 22 -6 32 5 22 -6 28 -45 23z m22 -27 c0 -8 -7
-15 -15 -15 -8 0 -15 7 -15 15 0 8 7 15 15 15 8 0 15 -7 15 -15z m-2 -132 c-4
-22 -22 -20 -26 1 -2 10 3 16 13 16 10 0 15 -7 13 -17z m92 -3 c0 -11 -7 -20
-15 -20 -8 0 -15 9 -15 20 0 11 7 20 15 20 8 0 15 -9 15 -20z"/>
<path d="M6407 5297 c-8 -21 5 -33 39 -40 29 -6 32 -4 36 23 4 29 3 30 -33 30
-22 0 -39 -6 -42 -13z m53 -12 c0 -8 -7 -15 -15 -15 -8 0 -15 7 -15 15 0 8 7
15 15 15 8 0 15 -7 15 -15z"/>
<path d="M6548 5229 c3 -52 0 -74 -10 -80 -8 -5 11 -9 48 -9 33 0 65 5 72 12
15 15 16 54 2 63 -7 4 -7 12 0 25 13 24 13 26 -6 44 -10 10 -33 16 -62 16
l-47 0 3 -71z m81 47 c18 -22 2 -46 -30 -46 -26 0 -29 4 -29 30 0 25 4 30 24
30 13 0 29 -6 35 -14z m-1 -68 c21 -21 14 -47 -14 -54 -29 -7 -44 7 -44 44 0
16 6 22 23 22 13 0 28 -5 35 -12z"/>
<path d="M6450 4766 c0 -20 5 -36 10 -36 6 0 10 13 10 29 0 17 -4 33 -10 36
-6 4 -10 -8 -10 -29z"/>
<path d="M2567 4784 c-6 -6 16 -34 27 -34 3 0 6 9 6 20 0 19 -20 27 -33 14z"/>
<path d="M6012 4760 c0 -19 2 -27 5 -17 2 9 2 25 0 35 -3 9 -5 1 -5 -18z"/>
<path d="M2455 4750 l-20 -9 20 0 c11 0 29 4 40 9 l20 9 -20 0 c-11 0 -29 -4
-40 -9z"/>
<path d="M1247 4743 c-11 -10 -8 -53 3 -53 6 0 10 14 10 30 0 31 -2 35 -13 23z"/>
<path d="M5156 4724 c-4 -9 -3 -20 0 -23 4 -3 9 0 11 7 3 6 11 12 19 12 9 0
12 5 9 10 -10 16 -32 12 -39 -6z"/>
<path d="M1700 4700 c0 -16 5 -30 10 -30 6 0 10 14 10 30 0 17 -4 30 -10 30
-5 0 -10 -13 -10 -30z"/>
<path d="M2343 4720 c-13 -5 -23 -12 -23 -16 0 -8 53 5 65 17 12 12 -12 11
-42 -1z"/>
<path d="M5255 4702 c6 -6 24 -14 40 -18 21 -4 27 -3 20 4 -5 6 -23 14 -40 18
-21 4 -27 3 -20 -4z"/>
<path d="M2220 4680 c-12 -8 -12 -10 5 -10 11 0 27 5 35 10 12 8 12 10 -5 10
-11 0 -27 -5 -35 -10z"/>
<path d="M2610 4678 c0 -24 11 -48 22 -48 5 0 6 10 3 23 -10 30 -25 46 -25 25z"/>
<path d="M5376 4661 c5 -5 20 -12 34 -15 24 -7 24 -6 6 8 -21 17 -57 23 -40 7z"/>
<path d="M6013 4635 c0 -22 2 -30 4 -17 2 12 2 30 0 40 -3 9 -5 -1 -4 -23z"/>
<path d="M6450 4640 c0 -16 5 -30 10 -30 6 0 10 14 10 30 0 17 -4 30 -10 30
-5 0 -10 -13 -10 -30z"/>
<path d="M2146 4633 c8 -32 24 -55 24 -32 0 26 -12 59 -21 59 -5 0 -6 -12 -3
-27z"/>
<path d="M5121 4618 c-5 -13 -7 -25 -5 -27 6 -7 22 9 27 29 7 27 -12 25 -22
-2z"/>
<path d="M5505 4615 c17 -7 32 -11 35 -9 7 8 -24 24 -45 23 -15 0 -13 -4 10
-14z"/>
<path d="M1240 4596 c0 -14 5 -28 10 -31 6 -4 10 7 10 24 0 17 -4 31 -10 31
-5 0 -10 -11 -10 -24z"/>
<path d="M1700 4580 c0 -16 5 -30 10 -30 6 0 10 14 10 30 0 17 -4 30 -10 30
-5 0 -10 -13 -10 -30z"/>
<path d="M5586 4574 c-3 -9 -6 -23 -6 -32 0 -21 15 -5 25 26 7 25 -9 31 -19 6z"/>
<path d="M2644 4560 c3 -14 6 -28 6 -32 0 -5 5 -8 10 -8 15 0 12 24 -6 46 -15
18 -15 18 -10 -6z"/>
<path d="M6450 4520 c0 -16 5 -30 10 -30 6 0 10 14 10 30 0 17 -4 30 -10 30
-5 0 -10 -13 -10 -30z"/>
<path d="M2180 4526 c0 -21 11 -46 20 -46 10 0 0 49 -11 56 -5 3 -9 -1 -9 -10z"/>
<path d="M6012 4510 c0 -19 2 -27 5 -17 2 9 2 25 0 35 -3 9 -5 1 -5 -18z"/>
<path d="M5081 4500 c-13 -37 5 -41 19 -4 12 31 12 34 1 34 -5 0 -14 -13 -20
-30z"/>
<path d="M1240 4470 c0 -16 5 -30 10 -30 6 0 10 14 10 30 0 17 -4 30 -10 30
-5 0 -10 -13 -10 -30z"/>
<path d="M1707 4483 c-11 -10 -8 -53 3 -53 6 0 10 14 10 30 0 31 -2 35 -13 23z"/>
<path d="M5546 4454 c-3 -9 -6 -23 -6 -32 0 -21 15 -5 25 26 7 25 -9 31 -19 6z"/>
<path d="M2679 4433 c4 -15 12 -28 19 -31 9 -3 9 4 1 27 -13 38 -30 41 -20 4z"/>
<path d="M6450 4400 c0 -16 5 -30 10 -30 6 0 10 14 10 30 0 17 -4 30 -10 30
-5 0 -10 -13 -10 -30z"/>
<path d="M2216 4393 c8 -32 12 -39 19 -31 9 8 -6 58 -16 58 -5 0 -6 -12 -3
-27z"/>
<path d="M6012 4390 c0 -19 2 -27 5 -17 2 9 2 25 0 35 -3 9 -5 1 -5 -18z"/>
<path d="M5041 4380 c-12 -36 1 -40 17 -5 14 31 15 35 3 35 -5 0 -14 -13 -20
-30z"/>
<path d="M895 4386 c-11 -9 -14 -16 -7 -16 8 0 12 -20 12 -64 0 -42 -4 -66
-12 -69 -7 -3 3 -6 22 -6 20 0 30 3 23 7 -7 5 -13 39 -15 85 -3 76 -3 78 -23
63z"/>
<path d="M734 4335 c-13 -31 -24 -60 -24 -65 0 -5 -7 -16 -16 -24 -14 -15 -13
-16 9 -16 18 0 23 5 23 23 -1 19 4 22 34 22 30 0 35 -3 34 -22 0 -19 5 -23 29
-23 28 0 29 1 15 18 -8 9 -26 45 -39 80 -13 34 -28 62 -32 62 -4 0 -19 -25
-33 -55z m36 -4 c0 -5 3 -16 6 -25 4 -12 0 -16 -15 -16 -22 0 -25 8 -15 34 7
17 24 22 24 7z"/>
<path d="M6648 4319 c3 -52 0 -74 -10 -80 -8 -5 11 -9 48 -9 33 0 65 5 72 12
15 15 16 54 2 63 -7 4 -7 12 0 25 13 24 13 26 -6 44 -10 10 -33 16 -62 16
l-47 0 3 -71z m82 46 c16 -20 -3 -45 -34 -45 -17 0 -22 7 -24 30 -2 26 1 30
22 30 13 0 29 -7 36 -15z m-2 -67 c26 -26 8 -58 -34 -58 -15 0 -30 43 -19 59
8 15 38 14 53 -1z"/>
<path d="M6815 4380 c-3 -5 -1 -10 5 -10 8 0 11 -22 8 -70 -3 -64 -1 -70 17
-70 19 0 20 6 17 80 -3 70 -6 80 -22 80 -10 0 -22 -4 -25 -10z"/>
<path d="M1240 4350 c0 -16 5 -30 10 -30 6 0 10 14 10 30 0 17 -4 30 -10 30
-5 0 -10 -13 -10 -30z"/>
<path d="M1387 4355 c-9 -13 -13 -26 -9 -29 11 -6 27 6 35 26 3 9 18 18 34 21
25 3 24 4 -7 5 -26 1 -39 -5 -53 -23z"/>
<path d="M1513 4373 c41 -5 42 -6 27 -34 -14 -25 -93 -29 -84 -4 4 9 0 15 -9
15 -13 0 -30 -48 -27 -77 0 -5 27 -6 60 -5 63 4 66 2 54 -45 -4 -15 -14 -23
-27 -23 -21 0 -21 0 2 -16 31 -22 48 -4 53 56 l3 45 -57 -3 c-48 -3 -58 -1
-58 12 0 13 11 16 56 16 45 0 55 3 50 15 -3 8 3 20 14 28 28 20 14 27 -44 25
-43 -1 -45 -2 -13 -5z"/>
<path d="M6140 4355 c-7 -14 -10 -28 -7 -31 9 -10 34 13 40 36 7 29 -17 25
-33 -5z"/>
<path d="M6243 4373 c37 -3 57 -8 57 -16 0 -23 -23 -37 -58 -37 -26 0 -33 3
-28 15 3 9 0 15 -10 15 -16 0 -22 -11 -26 -55 l-3 -30 58 3 57 4 0 -31 c0 -23
-6 -34 -21 -39 -18 -7 -19 -10 -6 -20 23 -19 46 -3 53 36 11 71 15 67 -55 63
-50 -2 -62 0 -59 10 3 9 25 15 62 17 48 3 56 5 46 17 -9 11 -7 16 9 25 40 21
21 30 -56 28 -70 -2 -72 -2 -20 -5z"/>
<path d="M1700 4336 c0 -14 5 -28 10 -31 6 -4 10 7 10 24 0 17 -4 31 -10 31
-5 0 -10 -11 -10 -24z"/>
<path d="M5506 4334 c-6 -24 -2 -44 8 -33 9 11 15 59 7 59 -5 0 -12 -12 -15
-26z"/>
<path d="M2715 4313 c8 -31 13 -39 20 -31 9 9 -6 58 -17 58 -6 0 -7 -11 -3
-27z"/>
<path d="M2250 4288 c0 -24 11 -48 22 -48 5 0 6 10 3 23 -10 30 -25 46 -25 25z"/>
<path d="M5006 4274 c-9 -36 1 -43 14 -10 12 33 12 36 1 36 -5 0 -12 -12 -15
-26z"/>
<path d="M6012 4270 c0 -19 2 -27 5 -17 2 9 2 25 0 35 -3 9 -5 1 -5 -18z"/>
<path d="M6450 4270 c0 -16 5 -30 10 -30 6 0 10 14 10 30 0 17 -4 30 -10 30
-5 0 -10 -13 -10 -30z"/>
<path d="M1247 4253 c-11 -10 -8 -53 3 -53 6 0 10 14 10 30 0 31 -2 35 -13 23z"/>
<path d="M1495 4251 c-6 -6 -37 -12 -70 -14 -52 -3 -49 -3 24 -5 73 -2 82 0
71 13 -15 18 -14 17 -25 6z"/>
<path d="M6244 4250 c-5 -5 -34 -11 -64 -13 -47 -3 -44 -4 23 -5 42 -1 77 2
77 7 0 13 -26 21 -36 11z"/>
<path d="M1700 4210 c0 -16 5 -30 10 -30 6 0 10 14 10 30 0 17 -4 30 -10 30
-5 0 -10 -13 -10 -30z"/>
<path d="M5466 4214 c-9 -36 1 -43 14 -10 12 33 12 36 1 36 -5 0 -12 -12 -15
-26z"/>
<path d="M2749 4194 c4 -15 12 -29 18 -31 8 -3 9 5 4 23 -4 15 -12 29 -18 31
-8 3 -9 -5 -4 -23z"/>
<path d="M2280 4176 c0 -14 21 -58 26 -54 8 8 -7 58 -17 58 -5 0 -9 -2 -9 -4z"/>
<path d="M4961 4150 c-13 -37 5 -41 19 -4 12 31 12 34 1 34 -5 0 -14 -13 -20
-30z"/>
<path d="M6013 4145 c0 -22 2 -30 4 -17 2 12 2 30 0 40 -3 9 -5 -1 -4 -23z"/>
<path d="M6450 4150 c0 -16 5 -30 10 -30 6 0 10 14 10 30 0 17 -4 30 -10 30
-5 0 -10 -13 -10 -30z"/>
<path d="M1240 4106 c0 -14 5 -28 10 -31 6 -4 10 7 10 24 0 17 -4 31 -10 31
-5 0 -10 -11 -10 -24z"/>
<path d="M1700 4090 c0 -16 5 -30 10 -30 6 0 10 14 10 30 0 17 -4 30 -10 30
-5 0 -10 -13 -10 -30z"/>
<path d="M5426 4094 c-9 -36 1 -43 14 -10 12 33 12 36 1 36 -5 0 -12 -12 -15
-26z"/>
<path d="M2780 4088 c0 -17 18 -44 24 -37 8 7 -5 49 -15 49 -5 0 -9 -6 -9 -12z"/>
<path d="M2321 4048 c-1 -15 4 -30 10 -33 17 -11 18 -2 4 30 l-13 30 -1 -27z"/>
<path d="M4926 4044 c-3 -9 -6 -23 -6 -32 0 -21 15 -5 25 26 7 25 -9 31 -19 6z"/>
<path d="M6013 4025 c0 -22 2 -30 4 -17 2 12 2 30 0 40 -3 9 -5 -1 -4 -23z"/>
<path d="M6450 4030 c0 -16 5 -30 10 -30 6 0 10 14 10 30 0 17 -4 30 -10 30
-5 0 -10 -13 -10 -30z"/>
<path d="M1240 3980 c0 -16 5 -30 10 -30 6 0 10 14 10 30 0 17 -4 30 -10 30
-5 0 -10 -13 -10 -30z"/>
<path d="M5389 3984 c-11 -30 -3 -46 11 -24 10 16 13 50 5 50 -3 0 -10 -12
-16 -26z"/>
<path d="M1707 3993 c-11 -10 -8 -51 3 -58 6 -4 10 8 10 29 0 37 -2 41 -13 29z"/>
<path d="M2815 3968 c10 -31 25 -47 25 -26 0 24 -11 48 -22 48 -5 0 -6 -10 -3
-22z"/>
<path d="M2355 3923 c7 -30 13 -39 19 -32 8 8 -6 59 -16 59 -6 0 -7 -11 -3
-27z"/>
<path d="M4886 3924 c-6 -24 -2 -43 8 -33 11 10 17 59 8 59 -5 0 -13 -12 -16
-26z"/>
<path d="M6450 3910 c0 -16 5 -30 10 -30 6 0 10 14 10 30 0 17 -4 30 -10 30
-5 0 -10 -13 -10 -30z"/>
<path d="M6012 3900 c0 -19 2 -27 5 -17 2 9 2 25 0 35 -3 9 -5 1 -5 -18z"/>
<path d="M1240 3861 c0 -17 5 -33 10 -36 6 -4 10 8 10 29 0 20 -4 36 -10 36
-5 0 -10 -13 -10 -29z"/>
<path d="M5350 3864 c-12 -31 -12 -34 -1 -34 5 0 14 14 20 30 13 37 -5 41 -19
4z"/>
<path d="M1700 3840 c0 -16 5 -30 10 -30 6 0 10 14 10 30 0 17 -4 30 -10 30
-5 0 -10 -13 -10 -30z"/>
<path d="M2850 3858 c0 -24 11 -48 22 -48 5 0 6 10 3 23 -10 30 -25 46 -25 25z"/>
<path d="M5798 3843 c12 -2 32 -2 45 0 12 2 2 4 -23 4 -25 0 -35 -2 -22 -4z"/>
<path d="M5928 3843 c12 -2 30 -2 40 0 9 3 -1 5 -23 4 -22 0 -30 -2 -17 -4z"/>
<path d="M6508 3843 c12 -2 30 -2 40 0 9 3 -1 5 -23 4 -22 0 -30 -2 -17 -4z"/>
<path d="M6628 3843 c12 -2 30 -2 40 0 9 3 -1 5 -23 4 -22 0 -30 -2 -17 -4z"/>
<path d="M2392 3799 c6 -16 12 -28 15 -26 7 7 -8 57 -18 57 -4 0 -3 -14 3 -31z"/>
<path d="M4846 3804 c-6 -24 -2 -43 8 -33 11 10 17 59 8 59 -5 0 -13 -12 -16
-26z"/>
<path d="M1033 3813 c9 -2 25 -2 35 0 9 3 1 5 -18 5 -19 0 -27 -2 -17 -5z"/>
<path d="M1158 3813 c12 -2 30 -2 40 0 9 3 -1 5 -23 4 -22 0 -30 -2 -17 -4z"/>
<path d="M1788 3813 c12 -2 30 -2 40 0 9 3 -1 5 -23 4 -22 0 -30 -2 -17 -4z"/>
<path d="M1908 3809 c15 -6 30 -5 40 1 13 7 8 9 -23 9 -35 0 -37 -1 -17 -10z"/>
<path d="M6599 3800 c-13 -10 -19 -19 -13 -20 7 0 22 9 35 20 13 10 19 19 13
20 -7 0 -22 -9 -35 -20z"/>
<path d="M5870 3790 c27 -21 40 -25 40 -12 0 9 -44 32 -58 32 -4 0 4 -9 18
-20z"/>
<path d="M1074 3775 c11 -8 27 -15 35 -15 13 1 12 4 -3 15 -11 8 -27 15 -35
15 -13 -1 -12 -4 3 -15z"/>
<path d="M1843 3768 c-13 -6 -23 -15 -23 -20 0 -5 14 -2 30 7 45 23 38 35 -7
13z"/>
<path d="M5311 3749 c-8 -22 -7 -29 1 -27 15 5 29 46 19 53 -5 3 -14 -9 -20
-26z"/>
<path d="M6500 3740 c-14 -11 -20 -20 -14 -20 14 0 50 27 44 33 -3 3 -16 -3
-30 -13z"/>
<path d="M2885 3728 c10 -31 25 -47 25 -26 0 24 -11 48 -22 48 -5 0 -6 -10 -3
-22z"/>
<path d="M5960 3741 c0 -10 31 -31 45 -31 11 0 -5 20 -26 30 -12 7 -19 7 -19
1z"/>
<path d="M1170 3732 c0 -10 50 -35 57 -28 3 2 -9 12 -26 21 -17 8 -31 12 -31
7z"/>
<path d="M1724 3705 c-14 -11 -15 -14 -4 -14 8 0 24 6 34 14 15 11 16 15 5 15
-8 0 -24 -7 -35 -15z"/>
<path d="M4809 3694 c-11 -30 -3 -46 11 -24 10 16 13 50 5 50 -3 0 -10 -12
-16 -26z"/>
<path d="M2420 3698 c0 -24 11 -48 22 -48 5 0 6 10 3 23 -10 30 -25 46 -25 25z"/>
<path d="M6389 3670 c-13 -10 -19 -19 -13 -20 7 0 22 9 35 20 13 10 19 19 13
20 -7 0 -22 -9 -35 -20z"/>
<path d="M1280 3672 c0 -9 44 -32 58 -32 9 1 -41 39 -50 40 -5 0 -8 -4 -8 -8z"/>
<path d="M6080 3660 c33 -26 52 -25 21 0 -13 11 -28 20 -35 20 -6 0 0 -9 14
-20z"/>
<path d="M1627 3654 c-16 -9 -27 -18 -24 -20 7 -7 57 18 57 28 0 10 1 10 -33
-8z"/>
<path d="M5271 3630 c-13 -37 5 -41 19 -4 12 31 12 34 1 34 -5 0 -14 -13 -20
-30z"/>
<path d="M3378 3629 c-10 -5 -18 -14 -18 -20 0 -6 7 -6 18 -1 53 28 57 -37 6
-96 l-36 -42 50 0 c34 0 52 5 55 14 5 12 -1 13 -29 9 -19 -3 -34 -3 -34 -1 0
3 14 22 30 43 36 45 38 68 8 89 -26 19 -27 19 -50 5z"/>
<path d="M4548 3629 c-10 -5 -18 -14 -18 -20 0 -6 7 -6 18 -1 53 28 57 -37 6
-96 l-36 -42 50 0 c34 0 52 5 55 14 5 12 -1 13 -29 9 -42 -7 -42 0 -4 44 36
40 38 66 8 87 -26 19 -27 19 -50 5z"/>
<path d="M2920 3613 c0 -20 17 -50 24 -43 2 3 2 17 -1 33 -6 30 -23 37 -23 10z"/>
<path d="M3221 3573 c-13 -32 -30 -68 -38 -80 -12 -21 -12 -23 7 -23 12 0 19
4 16 9 -13 20 7 41 39 41 32 0 52 -21 39 -41 -3 -5 10 -9 28 -9 20 0 28 3 21
8 -7 4 -25 39 -41 77 -15 38 -33 70 -38 72 -6 2 -21 -23 -33 -54z m43 -34 c-7
-12 -34 -11 -34 0 0 5 3 17 7 27 6 16 7 16 19 -1 7 -10 11 -22 8 -26z"/>
<path d="M4378 3559 c3 -52 0 -74 -10 -80 -8 -5 11 -9 48 -9 46 0 65 4 77 18
21 23 21 36 2 52 -11 9 -12 16 -2 31 21 33 -2 54 -64 57 l-54 3 3 -72z m86 46
c9 -25 -4 -45 -30 -45 -20 0 -24 5 -24 30 0 25 4 30 24 30 13 0 26 -7 30 -15z
m-6 -64 c8 -4 12 -19 10 -32 -2 -18 -10 -25 -30 -27 -26 -3 -28 -1 -28 32 0
37 17 47 48 27z"/>
<path d="M6290 3610 c-14 -11 -20 -20 -14 -20 14 0 50 27 44 33 -3 3 -16 -3
-30 -13z"/>
<path d="M1400 3605 c33 -19 50 -18 26 0 -11 8 -27 15 -35 15 -10 -1 -7 -6 9
-15z"/>
<path d="M6170 3611 c0 -12 39 -35 46 -28 3 2 -7 12 -21 21 -14 9 -25 12 -25
7z"/>
<path d="M1510 3590 c-24 -19 -43 -20 -432 -20 l-408 0 0 -535 0 -535 815 0
815 0 0 535 0 535 -397 1 c-294 0 -392 3 -375 11 12 6 22 15 22 20 0 13 -13 9
-40 -12z m780 -555 l0 -525 -805 0 -805 0 0 525 0 525 805 0 805 0 0 -525z"/>
<path d="M1530 3340 c0 -31 -2 -32 -30 -27 -27 6 -32 3 -50 -33 -12 -23 -28
-40 -37 -40 -13 0 -14 -3 -5 -12 7 -7 12 -27 12 -46 0 -42 25 -39 26 4 1 45
15 104 27 111 6 4 8 -10 5 -41 -4 -35 -2 -46 8 -46 8 0 14 5 14 10 0 6 7 10
15 10 11 0 15 -12 15 -46 0 -27 4 -43 10 -39 6 3 10 24 10 46 0 28 4 39 15 39
8 0 15 -5 15 -11 0 -6 6 -9 13 -7 15 6 27 98 12 99 -5 1 -20 0 -33 -1 -20 -1
-23 2 -20 26 2 15 -2 29 -9 31 -9 3 -13 -6 -13 -27z m0 -70 c0 -20 -5 -30 -15
-30 -10 0 -15 10 -15 30 0 20 5 30 15 30 10 0 15 -10 15 -30z m50 0 c0 -20 -5
-30 -15 -30 -10 0 -15 10 -15 30 0 20 5 30 15 30 10 0 15 -10 15 -30z"/>
<path d="M1176 3317 c-21 -55 -20 -56 7 -49 21 5 21 4 5 -15 -25 -28 -23 -46
5 -38 12 4 27 12 32 17 6 6 4 7 -7 3 -23 -9 -23 3 1 39 24 36 15 58 -10 25
-25 -34 -35 -16 -10 19 19 27 19 42 1 42 -4 0 -15 -19 -24 -43z"/>
<path d="M1305 3355 c-5 -2 -22 -6 -38 -9 -24 -6 -26 -9 -16 -28 9 -16 8 -22
-2 -29 -11 -7 -10 -9 4 -9 25 0 21 -18 -5 -23 -22 -4 -23 -4 -1 -6 16 -1 20
-6 16 -21 -3 -11 -9 -20 -14 -20 -5 0 -9 -5 -9 -12 0 -6 -8 -20 -17 -31 -18
-20 -18 -20 9 -3 15 10 34 28 43 42 18 27 45 32 45 8 0 -11 -5 -14 -16 -10
-12 4 -15 2 -10 -9 3 -10 -7 -21 -32 -34 -44 -24 -36 -27 15 -6 27 11 39 12
49 4 8 -7 25 -8 41 -4 l28 8 -32 9 c-36 9 -41 19 -18 38 24 20 18 29 -22 33
-34 3 -33 4 10 5 30 1 46 6 42 12 -4 6 -21 8 -41 4 -22 -4 -34 -2 -34 5 0 6
16 11 36 11 22 0 33 4 29 11 -4 6 -14 8 -23 4 -13 -5 -12 -2 3 15 15 16 15 20
3 20 -8 0 -20 -10 -26 -22 -8 -18 -11 -19 -11 -6 -1 9 -6 20 -13 24 -8 5 -9 0
-6 -14 4 -12 2 -22 -3 -22 -5 0 -9 7 -9 15 0 8 -4 15 -10 15 -5 0 -10 5 -10
10 0 6 25 10 55 10 30 0 55 5 55 10 0 9 -42 13 -65 5z"/>
<path d="M1825 3350 c-3 -5 3 -10 15 -10 12 0 18 5 15 10 -3 6 -10 10 -15 10
-5 0 -12 -4 -15 -10z"/>
<path d="M927 3325 c-9 -13 -13 -26 -9 -29 11 -7 27 6 35 27 5 13 18 17 65 17
66 0 76 -5 61 -31 -13 -25 -95 -28 -85 -4 3 9 0 15 -8 15 -12 0 -28 -50 -26
-77 0 -5 27 -6 60 -5 51 3 60 1 60 -13 0 -26 -19 -55 -36 -55 -14 0 -14 -2 0
-15 31 -31 52 -11 57 55 l4 45 -57 -3 c-48 -3 -58 -1 -58 12 0 13 12 16 61 16
52 0 60 2 50 14 -9 11 -8 17 8 28 32 22 15 28 -78 28 -79 -1 -87 -3 -104 -25z"/>
<path d="M1420 3342 c0 -19 12 -42 22 -42 14 0 5 43 -9 48 -7 2 -13 -1 -13 -6z"/>
<path d="M1670 3249 c0 -100 0 -101 23 -95 12 3 57 6 101 6 70 0 77 2 66 15
-9 11 -16 13 -24 5 -5 -5 -38 -10 -73 -10 l-63 0 0 90 c0 73 -3 90 -15 90 -12
0 -15 -18 -15 -101z"/>
<path d="M1930 3274 c-17 -36 -30 -70 -30 -74 0 -5 -6 -11 -12 -13 -7 -3 -1
-6 13 -6 20 -1 25 4 25 22 -1 19 4 22 34 22 30 0 35 -3 34 -22 0 -19 5 -23 29
-23 28 0 29 1 15 18 -8 9 -26 45 -39 80 -13 34 -27 62 -32 62 -4 0 -21 -30
-37 -66z m40 7 c0 -5 3 -16 6 -25 4 -12 0 -16 -15 -16 -22 0 -25 8 -15 34 7
17 24 22 24 7z"/>
<path d="M1795 3300 c-8 -24 -23 -25 -55 -4 -24 16 -24 15 2 -12 l28 -28 -33
-35 c-33 -35 -19 -34 21 3 l23 20 24 -29 c20 -25 24 -27 25 -11 0 11 -7 28
-16 37 -15 17 -15 20 0 43 20 31 20 36 2 36 -8 0 -18 -9 -21 -20z"/>
<path d="M1035 3221 c-6 -6 -37 -12 -70 -14 -52 -3 -49 -3 24 -5 73 -2 82 0
71 13 -15 18 -14 17 -25 6z"/>
<path d="M1178 3193 c-20 -5 -24 -23 -5 -23 6 1 23 7 37 15 22 12 22 14 5 13
-11 0 -28 -2 -37 -5z"/>
<path d="M1715 2876 c-11 -9 -14 -16 -7 -16 8 0 12 -20 12 -64 0 -42 -4 -66
-12 -69 -7 -3 3 -6 22 -6 20 0 30 3 23 7 -7 5 -13 39 -15 85 -3 76 -3 78 -23
63z"/>
<path d="M1315 2820 c-4 -7 -2 -17 4 -23 8 -8 11 -6 11 6 0 9 7 17 15 17 22 0
18 -28 -5 -35 -24 -7 -41 -37 -32 -52 8 -12 90 -14 98 -2 3 5 1 9 -5 9 -5 0
-11 19 -13 43 -3 39 -5 42 -35 45 -17 2 -34 -2 -38 -8z m51 -55 c-1 -8 -7 -20
-14 -27 -9 -9 -13 -7 -18 6 -4 11 -1 22 7 27 20 13 28 11 25 -6z"/>
<path d="M1475 2820 c3 -5 30 -10 60 -10 30 0 57 5 60 10 4 6 -18 10 -60 10
-42 0 -64 -4 -60 -10z"/>
<path d="M1497 2783 c18 -2 50 -2 70 0 21 2 7 4 -32 4 -38 0 -55 -2 -38 -4z"/>
<path d="M2454 3580 c3 -14 6 -28 6 -32 0 -5 5 -8 10 -8 15 0 12 24 -6 46 -15
18 -15 18 -10 -6z"/>
<path d="M4770 3576 c-12 -33 -12 -36 -1 -36 10 0 25 50 17 58 -3 2 -10 -7
-16 -22z"/>
<path d="M5460 3035 l0 -535 775 0 775 0 0 535 0 535 -775 0 -775 0 0 -535z
m1540 0 l0 -525 -765 0 -765 0 0 525 0 525 765 0 765 0 0 -525z"/>
<path d="M6068 3356 c-27 -5 -48 -13 -48 -18 0 -5 -5 -6 -11 -2 -6 3 -3 -5 6
-20 16 -23 16 -26 1 -26 -9 0 -15 5 -13 11 4 21 -21 20 -28 0 -5 -18 -25 -30
-25 -16 0 13 24 55 32 55 5 0 6 5 3 10 -9 14 -35 12 -35 -2 0 -7 -7 -26 -15
-42 -17 -32 -12 -48 13 -39 16 7 16 6 0 -19 -19 -29 -16 -38 13 -31 14 4 17 8
9 13 -9 6 -8 14 4 32 12 19 23 24 41 20 31 -6 33 -22 3 -23 -17 -1 -19 -2 -5
-6 9 -2 17 -11 17 -18 0 -18 -24 -31 -73 -40 -23 -5 -35 -11 -30 -16 6 -6 26
-3 49 7 l39 16 -25 -27 c-21 -23 -22 -26 -5 -17 11 5 29 19 39 31 18 20 36 20
36 0 0 -5 -15 -19 -32 -30 -28 -17 -29 -19 -8 -14 14 4 31 11 39 15 8 4 25 3
37 -2 13 -6 31 -7 41 -3 15 6 12 9 -15 17 -31 8 -32 10 -17 31 19 27 19 37 1
37 -7 0 -16 -9 -19 -21 -7 -25 -27 -16 -27 12 0 16 7 19 41 19 22 0 38 4 34 9
-3 5 -22 7 -42 4 -26 -4 -34 -3 -29 6 4 6 0 14 -8 17 -9 3 -14 10 -11 14 3 5
-3 13 -12 19 -17 9 -17 10 -1 16 9 4 28 5 42 3 25 -3 25 -4 12 -30 l-15 -28
37 0 c26 0 33 3 22 9 -8 6 -18 7 -23 4 -5 -3 -4 4 2 16 7 11 8 21 4 21 -4 0
-1 5 7 10 27 17 -3 26 -52 16z"/>
<path d="M6290 3339 c0 -30 -2 -31 -30 -25 -28 5 -32 2 -46 -34 -9 -23 -23
-40 -32 -40 -12 0 -13 -3 -5 -11 6 -6 9 -26 6 -45 -4 -27 -2 -34 11 -34 12 0
16 10 17 38 0 20 6 55 14 77 l13 40 1 -47 c1 -27 6 -48 11 -48 6 0 10 5 10 10
0 6 7 10 15 10 11 0 15 -12 15 -46 0 -59 24 -55 28 4 3 41 24 59 35 30 8 -23
15 -4 18 47 4 49 4 50 -23 47 -25 -2 -28 0 -28 28 0 20 -5 30 -15 30 -10 0
-15 -10 -15 -31z m0 -69 c0 -39 -24 -39 -27 0 -2 21 2 30 12 30 10 0 15 -10
15 -30z m60 0 c0 -20 -5 -30 -15 -30 -10 0 -15 10 -15 30 0 20 5 30 15 30 10
0 15 -10 15 -30z"/>
<path d="M6585 3350 c-4 -6 6 -10 22 -10 22 0 25 2 13 10 -19 12 -27 12 -35 0z"/>
<path d="M5690 3325 c-7 -14 -10 -28 -7 -31 9 -9 37 15 37 32 0 11 16 14 65
14 66 0 81 -10 53 -38 -18 -18 -78 -16 -78 3 0 18 -19 20 -25 3 -2 -7 -6 -26
-7 -43 l-3 -30 58 3 57 4 0 -31 c0 -23 -6 -34 -21 -39 -19 -8 -20 -9 -4 -22
15 -13 20 -12 36 9 16 20 20 39 19 89 0 4 -28 5 -61 3 -48 -2 -60 0 -57 10 3
9 25 15 62 17 48 3 56 5 46 17 -10 12 -7 17 14 26 43 20 19 29 -78 29 -89 0
-93 -1 -106 -25z"/>
<path d="M6188 3325 c5 -26 16 -32 27 -15 7 11 -11 40 -25 40 -4 0 -5 -11 -2
-25z"/>
<path d="M6438 3254 c-2 -53 -1 -97 2 -98 16 -5 190 7 190 13 0 4 -39 5 -87 3
-54 -2 -84 -1 -78 5 6 5 27 21 47 36 l37 27 17 -25 c12 -18 20 -23 27 -16 8 8
4 18 -13 36 -20 21 -21 27 -9 42 8 10 18 21 23 24 4 4 3 10 -4 14 -8 5 -20 -1
-31 -16 l-18 -24 -33 19 -33 19 27 -29 c26 -28 27 -31 12 -52 -8 -12 -24 -26
-34 -32 -19 -10 -19 -7 -17 70 1 56 -2 80 -10 80 -8 0 -13 -31 -15 -96z"/>
<path d="M6668 3269 c3 -52 0 -74 -10 -80 -8 -5 11 -9 48 -9 33 0 65 5 72 12
15 15 16 54 2 63 -7 4 -7 12 0 25 13 24 13 26 -6 44 -10 10 -33 16 -62 16
l-47 0 3 -71z m82 46 c17 -20 -3 -45 -36 -45 -19 0 -23 5 -22 30 1 24 5 30 23
30 13 0 28 -7 35 -15z m-2 -67 c20 -20 14 -47 -12 -54 -33 -8 -43 0 -44 36 -1
25 3 30 22 30 12 0 27 -5 34 -12z"/>
<path d="M6050 3324 c0 -17 17 -36 24 -26 3 5 -1 15 -9 22 -8 7 -15 9 -15 4z"/>
<path d="M5795 3221 c-6 -6 -35 -12 -65 -14 -46 -3 -42 -4 24 -5 69 -2 77 0
66 13 -15 18 -14 17 -25 6z"/>
<path d="M5990 2850 c-9 -6 -10 -10 -3 -10 8 0 13 -24 15 -72 l3 -73 32 -3
c42 -4 71 35 57 76 -8 22 -16 27 -42 27 -29 0 -32 2 -32 32 0 35 -5 39 -30 23z
m75 -110 c0 -28 -4 -35 -20 -35 -13 0 -21 8 -23 23 -5 34 5 54 25 50 13 -2 18
-13 18 -38z"/>
<path d="M6387 2842 c-24 -26 -21 -36 5 -18 16 11 25 13 35 4 22 -18 15 -49
-23 -94 l-35 -44 50 0 c35 0 51 4 51 13 0 9 -11 12 -37 9 l-37 -5 31 36 c45
51 51 77 23 99 -28 23 -43 23 -63 0z"/>
<path d="M6170 2790 c0 -6 27 -10 60 -10 33 0 60 4 60 10 0 6 -27 10 -60 10
-33 0 -60 -4 -60 -10z"/>
<path d="M6198 2753 c17 -2 47 -2 65 0 17 2 3 4 -33 4 -36 0 -50 -2 -32 -4z"/>
<path d="M5234 3515 c-9 -37 2 -41 14 -6 7 18 7 31 2 31 -5 0 -12 -11 -16 -25z"/>
<path d="M2955 3493 c8 -31 13 -39 20 -31 9 9 -6 58 -17 58 -6 0 -7 -11 -3
-27z"/>
<path d="M2489 3453 c4 -15 12 -28 19 -31 9 -3 9 4 1 27 -13 38 -30 41 -20 4z"/>
<path d="M4730 3456 c-12 -33 -12 -36 -1 -36 10 0 25 50 17 58 -3 2 -10 -7
-16 -22z"/>
<path d="M5196 3404 c-9 -36 1 -43 14 -10 12 33 12 36 1 36 -5 0 -12 -12 -15
-26z"/>
<path d="M2788 3383 c0 -10 -1 -25 0 -35 1 -13 -11 -18 -58 -23 -33 -4 -60
-11 -60 -17 0 -5 4 -7 9 -4 14 9 20 -17 15 -73 -2 -28 0 -51 4 -51 5 0 19 11
33 26 18 19 19 24 6 18 -16 -6 -18 -1 -15 42 l3 49 43 3 c36 3 42 0 42 -17 0
-27 -10 -51 -22 -51 -5 0 -7 4 -3 9 3 6 -3 15 -14 20 -30 16 -36 13 -17 -8 17
-18 17 -19 -1 -24 -10 -3 -3 -5 15 -6 27 -1 31 -4 24 -17 -5 -8 -22 -24 -38
-35 -38 -25 -18 -25 24 1 41 25 50 25 79 -2 l23 -21 0 21 c0 15 -8 24 -25 28
-35 9 -31 24 6 24 19 0 28 4 23 11 -3 6 -17 8 -30 5 -23 -6 -24 -4 -22 29 2
35 13 46 21 23 3 -10 7 -10 20 1 24 20 12 30 -28 24 -30 -5 -35 -3 -34 13 4
34 -1 54 -11 54 -5 0 -11 -8 -12 -17z"/>
<path d="M2991 3371 c6 -17 15 -31 19 -31 12 0 -4 53 -18 58 -9 3 -9 -4 -1
-27z"/>
<path d="M4938 3383 c0 -10 -1 -25 0 -35 1 -13 -11 -18 -58 -23 -33 -4 -60
-11 -60 -16 0 -5 6 -9 14 -9 12 0 14 -12 10 -60 -3 -33 -1 -60 4 -60 4 0 19
11 33 26 18 19 19 24 6 18 -16 -6 -18 -1 -15 42 l3 49 43 3 c36 3 42 0 42 -17
0 -27 -10 -51 -22 -51 -5 0 -7 4 -3 9 5 9 -24 31 -40 31 -12 0 30 -49 43 -50
19 0 1 -28 -34 -51 -38 -25 -24 -24 27 1 22 12 42 27 46 35 3 9 18 15 35 15
18 0 27 4 22 11 -3 6 -17 8 -30 5 -23 -6 -24 -4 -22 29 2 35 13 46 21 23 3
-10 7 -10 20 1 24 20 12 30 -28 24 -30 -5 -35 -3 -34 13 4 34 -1 54 -11 54 -5
0 -11 -8 -12 -17z"/>
<path d="M2691 3373 c7 -10 14 -20 16 -22 1 -1 7 0 13 4 14 9 -6 35 -27 35
-13 0 -13 -3 -2 -17z"/>
<path d="M4841 3373 c7 -10 14 -20 16 -22 1 -1 7 0 13 4 14 9 -6 35 -27 35
-13 0 -13 -3 -2 -17z"/>
<path d="M2835 3370 c-3 -5 3 -10 15 -10 12 0 18 5 15 10 -3 6 -10 10 -15 10
-5 0 -12 -4 -15 -10z"/>
<path d="M4985 3370 c-3 -5 3 -10 15 -10 12 0 18 5 15 10 -3 6 -10 10 -15 10
-5 0 -12 -4 -15 -10z"/>
<path d="M4689 3344 c-11 -30 -3 -46 11 -24 10 16 13 50 5 50 -3 0 -10 -12
-16 -26z"/>
<path d="M2525 3333 c8 -31 13 -39 20 -31 9 9 -6 58 -17 58 -6 0 -7 -11 -3
-27z"/>
<path d="M2773 3293 c9 -9 19 -14 23 -11 10 10 -6 28 -24 28 -15 0 -15 -1 1
-17z"/>
<path d="M4923 3293 c9 -9 19 -14 23 -11 10 10 -6 28 -24 28 -15 0 -15 -1 1
-17z"/>
<path d="M5156 3294 c-3 -9 -6 -23 -6 -32 0 -21 15 -5 25 26 7 25 -9 31 -19 6z"/>
<path d="M3025 3253 c8 -31 13 -39 20 -31 9 9 -6 58 -17 58 -6 0 -7 -11 -3
-27z"/>
<path d="M4650 3224 c-12 -31 -12 -34 -1 -34 5 0 14 14 20 30 13 37 -5 41 -19
4z"/>
<path d="M2558 3215 c5 -28 22 -44 22 -21 0 21 -11 46 -20 46 -4 0 -5 -11 -2
-25z"/>
<path d="M5001 3194 c20 -22 25 -23 27 -9 4 19 -13 35 -37 35 -10 0 -7 -8 10
-26z"/>
<path d="M5115 3169 c-6 -19 0 -38 9 -28 10 12 16 49 7 49 -5 0 -13 -9 -16
-21z"/>
<path d="M3061 3131 c6 -17 15 -31 19 -31 12 0 -4 53 -18 58 -9 3 -9 -4 -1
-27z"/>
<path d="M4613 3113 c-3 -10 -8 -21 -10 -25 -2 -4 1 -9 6 -12 5 -3 14 8 20 24
6 19 6 30 0 30 -5 0 -12 -8 -16 -17z"/>
<path d="M2590 3107 c0 -15 29 -57 30 -42 0 6 -3 20 -6 33 -7 24 -24 31 -24 9z"/>
<path d="M5076 3054 c-6 -24 -2 -43 8 -33 11 10 17 59 8 59 -5 0 -13 -12 -16
-26z"/>
<path d="M3090 3027 c0 -15 29 -57 30 -42 0 6 -3 20 -6 33 -7 24 -24 31 -24 9z"/>
<path d="M4571 2990 c-13 -37 5 -41 19 -4 12 31 12 34 1 34 -5 0 -14 -13 -20
-30z"/>
<path d="M2626 2983 c8 -32 12 -39 19 -31 9 8 -6 58 -16 58 -5 0 -6 -12 -3
-27z"/>
<path d="M5036 2938 c-3 -13 -6 -27 -6 -33 1 -15 30 27 30 42 0 22 -17 15 -24
-9z"/>
<path d="M3125 2908 c10 -31 25 -47 25 -26 0 24 -11 48 -22 48 -5 0 -6 -10 -3
-22z"/>
<path d="M4531 2870 c-12 -36 1 -40 17 -5 14 31 15 35 3 35 -5 0 -14 -13 -20
-30z"/>
<path d="M2660 2878 c0 -24 11 -48 22 -48 5 0 6 10 3 23 -10 30 -25 46 -25 25z"/>
<path d="M4999 2824 c-11 -30 -3 -46 11 -24 10 16 13 50 5 50 -3 0 -10 -12
-16 -26z"/>
<path d="M3165 2783 c7 -30 13 -39 19 -32 8 8 -6 59 -16 59 -6 0 -7 -11 -3
-27z"/>
<path d="M4500 2770 c-6 -11 -9 -26 -7 -33 3 -7 10 1 16 17 14 35 7 47 -9 16z"/>
<path d="M2695 2748 c10 -31 25 -47 25 -26 0 24 -11 48 -22 48 -5 0 -6 -10 -3
-22z"/>
<path d="M4960 2706 c-12 -33 -12 -36 -1 -36 10 0 25 50 17 58 -3 2 -10 -7
-16 -22z"/>
<path d="M3195 2668 c10 -31 25 -47 25 -26 0 24 -11 48 -22 48 -5 0 -6 -10 -3
-22z"/>
<path d="M4451 2640 c-13 -37 5 -41 19 -4 12 31 12 34 1 34 -5 0 -14 -13 -20
-30z"/>
<path d="M2730 2638 c0 -24 11 -48 22 -48 5 0 6 10 3 23 -10 30 -25 46 -25 25z"/>
<path d="M4920 2586 c-12 -33 -12 -36 -1 -36 10 0 25 50 17 58 -3 2 -10 -7
-16 -22z"/>
<path d="M3230 2557 c0 -7 7 -22 16 -33 14 -17 15 -17 10 -1 -3 10 -6 25 -6
33 0 8 -4 14 -10 14 -5 0 -10 -6 -10 -13z"/>
<path d="M4416 2534 c-3 -9 -6 -23 -6 -32 0 -21 15 -5 25 26 7 25 -9 31 -19 6z"/>
<path d="M2765 2513 c8 -31 13 -39 20 -31 9 9 -6 58 -17 58 -6 0 -7 -11 -3
-27z"/>
<path d="M4880 2474 c-12 -31 -12 -34 -1 -34 5 0 14 14 20 30 13 37 -5 41 -19
4z"/>
<path d="M1192 2440 c0 -19 2 -27 5 -17 2 9 2 25 0 35 -3 9 -5 1 -5 -18z"/>
<path d="M3265 2433 c8 -31 13 -39 20 -31 9 9 -6 58 -17 58 -6 0 -7 -11 -3
-27z"/>
<path d="M5940 2430 c0 -16 5 -30 10 -30 6 0 10 14 10 30 0 17 -4 30 -10 30
-5 0 -10 -13 -10 -30z"/>
<path d="M6522 2430 c0 -19 2 -27 5 -17 2 9 2 25 0 35 -3 9 -5 1 -5 -18z"/>
<path d="M1760 2420 c0 -16 5 -30 10 -30 6 0 10 14 10 30 0 17 -4 30 -10 30
-5 0 -10 -13 -10 -30z"/>
<path d="M4381 2422 c-13 -25 -14 -42 -2 -42 10 0 25 50 17 57 -2 3 -9 -4 -15
-15z"/>
<path d="M2799 2394 c4 -15 12 -29 18 -31 8 -3 9 5 4 23 -4 15 -12 29 -18 31
-8 3 -9 -5 -4 -23z"/>
<path d="M4840 2354 c-12 -31 -12 -34 -1 -34 5 0 14 14 20 30 13 37 -5 41 -19
4z"/>
<path d="M1192 2310 c0 -19 2 -27 5 -17 2 9 2 25 0 35 -3 9 -5 1 -5 -18z"/>
<path d="M3300 2326 c0 -21 11 -46 20 -46 10 0 0 49 -11 56 -5 3 -9 -1 -9 -10z"/>
<path d="M5940 2310 c0 -16 5 -30 10 -30 6 0 10 14 10 30 0 17 -4 30 -10 30
-5 0 -10 -13 -10 -30z"/>
<path d="M6523 2305 c0 -22 2 -30 4 -17 2 12 2 30 0 40 -3 9 -5 -1 -4 -23z"/>
<path d="M1760 2300 c0 -16 5 -30 10 -30 6 0 10 14 10 30 0 17 -4 30 -10 30
-5 0 -10 -13 -10 -30z"/>
<path d="M4103 2315 c4 -9 7 -23 7 -31 0 -8 5 -14 10 -14 6 0 10 7 10 15 0 9
9 15 23 15 17 1 19 2 7 9 -8 5 -26 12 -39 16 -20 6 -23 4 -18 -10z"/>
<path d="M4336 2294 c-6 -24 -2 -43 8 -33 11 10 17 59 8 59 -5 0 -13 -12 -16
-26z"/>
<path d="M2835 2273 c8 -31 13 -39 20 -31 9 9 -6 58 -17 58 -6 0 -7 -11 -3
-27z"/>
<path d="M3483 2290 c-13 -5 -23 -12 -23 -16 0 -8 53 5 65 17 12 12 -12 11
-42 -1z"/>
<path d="M4230 2280 c0 -11 48 -25 56 -17 3 2 -9 9 -25 15 -18 7 -31 7 -31 2z"/>
<path d="M3538 2264 c-5 -4 -8 -19 -8 -33 0 -18 3 -22 11 -14 6 6 9 21 7 33
-1 12 -6 18 -10 14z"/>
<path d="M4801 2239 c-8 -22 -7 -29 1 -27 15 5 29 46 19 53 -5 3 -14 -9 -20
-26z"/>
<path d="M3355 2250 c-18 -8 -18 -9 5 -9 14 0 32 4 40 9 12 8 12 10 -5 9 -11
0 -29 -4 -40 -9z"/>
<path d="M1192 2190 c0 -19 2 -27 5 -17 2 9 2 25 0 35 -3 9 -5 1 -5 -18z"/>
<path d="M5940 2185 c0 -19 5 -35 10 -35 6 0 10 16 10 35 0 19 -4 35 -10 35
-5 0 -10 -16 -10 -35z"/>
<path d="M1767 2203 c-11 -10 -8 -53 3 -53 6 0 10 14 10 30 0 31 -2 35 -13 23z"/>
<path d="M4125 2183 c8 -31 13 -39 20 -31 9 9 -6 58 -17 58 -6 0 -7 -11 -3
-27z"/>
<path d="M6522 2180 c0 -19 2 -27 5 -17 2 9 2 25 0 35 -3 9 -5 1 -5 -18z"/>
<path d="M2871 2151 c6 -17 15 -31 19 -31 12 0 -4 53 -18 58 -9 3 -9 -4 -1
-27z"/>
<path d="M3507 2123 c-3 -16 -3 -30 -1 -33 7 -7 24 23 24 43 0 27 -17 20 -23
-10z"/>
<path d="M4764 2125 c-6 -23 0 -45 10 -34 10 12 15 59 6 59 -5 0 -12 -11 -16
-25z"/>
<path d="M1387 2045 c-3 -44 -8 -89 -12 -100 -4 -14 -2 -12 9 5 12 19 15 21
16 8 0 -38 20 -16 20 22 0 22 5 40 10 40 6 0 10 -25 10 -55 0 -30 5 -55 10
-55 6 0 10 9 10 19 0 12 7 18 18 17 14 -1 17 7 17 44 0 36 -3 44 -16 42 -10
-1 -19 6 -22 18 -4 17 -1 20 16 18 18 -2 22 2 22 25 0 28 -2 29 -51 31 l-51 1
-6 -80z m93 50 c0 -10 -11 -15 -35 -15 -24 0 -35 5 -35 15 0 10 11 15 35 15
24 0 35 -5 35 -15z m-40 -45 c0 -11 -7 -20 -15 -20 -8 0 -15 9 -15 20 0 11 7
20 15 20 8 0 15 -9 15 -20z m40 -60 c0 -16 -4 -30 -10 -30 -5 0 -10 14 -10 30
0 17 5 30 10 30 6 0 10 -13 10 -30z"/>
<path d="M1550 2035 c0 -64 -4 -95 -11 -95 -8 0 -8 -5 1 -15 10 -12 16 -13 26
-4 21 17 20 209 -1 209 -12 0 -15 -17 -15 -95z"/>
<path d="M6143 2045 c-6 -44 -14 -89 -18 -100 -4 -11 2 -6 14 10 19 28 21 28
21 8 0 -41 19 -24 23 20 3 36 4 34 5 -15 1 -32 7 -58 12 -58 6 0 10 9 10 19 0
14 5 18 20 14 18 -5 20 0 20 36 0 53 -2 56 -22 54 -11 -2 -16 4 -15 17 1 14 6
18 19 14 14 -4 18 0 18 20 0 14 1 29 3 33 1 4 -21 7 -49 8 l-51 0 -10 -80z
m87 50 c0 -10 -10 -15 -30 -15 -20 0 -30 5 -30 15 0 10 10 15 30 15 20 0 30
-5 30 -15z m-37 -45 c-3 -11 -9 -20 -14 -20 -5 0 -9 9 -9 20 0 11 6 20 14 20
9 0 12 -7 9 -20z m37 -61 c0 -17 -4 -28 -10 -24 -5 3 -10 17 -10 31 0 13 5 24
10 24 6 0 10 -14 10 -31z"/>
<path d="M6310 2035 c0 -81 -2 -95 -16 -95 -14 0 -14 -3 -4 -15 26 -31 35 -9
40 98 4 82 2 107 -7 107 -10 0 -13 -26 -13 -95z"/>
<path d="M1192 2070 c0 -19 2 -27 5 -17 2 9 2 25 0 35 -3 9 -5 1 -5 -18z"/>
<path d="M2808 2093 c-10 -2 -18 -9 -18 -14 0 -11 39 -2 55 12 9 9 -6 10 -37
2z"/>
<path d="M1518 2030 c-2 -37 1 -59 7 -57 13 5 19 117 6 117 -5 0 -11 -27 -13
-60z"/>
<path d="M4140 2073 c0 -20 17 -50 24 -43 2 3 2 17 -1 33 -6 30 -23 37 -23 10z"/>
<path d="M5940 2060 c0 -16 5 -30 10 -30 6 0 10 14 10 30 0 17 -4 30 -10 30
-5 0 -10 -13 -10 -30z"/>
<path d="M6270 2030 c0 -78 17 -78 22 0 2 43 -1 60 -9 60 -9 0 -13 -19 -13
-60z"/>
<path d="M6522 2060 c0 -19 2 -27 5 -17 2 9 2 25 0 35 -3 9 -5 1 -5 -18z"/>
<path d="M1760 2050 c0 -16 5 -30 10 -30 6 0 10 14 10 30 0 17 -4 30 -10 30
-5 0 -10 -13 -10 -30z"/>
<path d="M4836 2071 c15 -14 54 -23 54 -13 0 5 -10 12 -22 16 -33 8 -44 8 -32
-3z"/>
<path d="M2695 2055 c-23 -10 -25 -14 -10 -14 21 -1 52 15 45 23 -3 2 -18 -2
-35 -9z"/>
<path d="M4954 2024 c9 -8 20 -12 26 -9 15 9 2 25 -21 25 -19 0 -19 -1 -5 -16z"/>
<path d="M3484 2005 c-6 -23 0 -45 10 -34 10 12 15 59 6 59 -5 0 -12 -11 -16
-25z"/>
<path d="M2725 1980 c10 -11 23 -20 28 -20 6 0 2 9 -8 20 -10 11 -23 20 -28
20 -6 0 -2 -9 8 -20z"/>
<path d="M874 1958 c-15 -18 -16 -20 -2 -9 10 7 25 11 33 7 20 -7 19 -45 0
-53 -13 -5 -12 -8 5 -20 13 -9 20 -23 18 -36 -2 -18 -10 -22 -46 -23 -49 -1
-52 1 -83 84 -13 34 -28 61 -34 59 -5 -2 -23 -35 -39 -73 -17 -38 -35 -72 -41
-76 -5 -4 2 -8 16 -8 20 0 25 5 25 23 -1 19 4 22 34 22 30 0 35 -3 34 -22 -1
-22 4 -23 62 -23 44 0 67 5 78 16 18 17 21 60 6 69 -6 3 -7 17 -4 31 7 25 -10
54 -31 54 -6 0 -20 -10 -31 -22z m-104 -47 c0 -5 3 -16 6 -25 4 -12 0 -16 -15
-16 -22 0 -25 8 -15 34 7 17 24 22 24 7z"/>
<path d="M1193 1945 c0 -22 2 -30 4 -17 2 12 2 30 0 40 -3 9 -5 -1 -4 -23z"/>
<path d="M6919 1959 c-24 -20 -24 -20 -1 -9 12 6 27 8 32 5 16 -10 12 -43 -7
-53 -14 -9 -14 -10 6 -17 17 -5 21 -13 19 -33 -3 -24 -7 -27 -35 -24 -18 1
-33 -3 -33 -9 0 -6 16 -9 37 -7 28 2 41 9 52 30 14 24 14 28 -3 46 -15 17 -15
23 -4 42 11 18 10 23 -6 36 -26 18 -29 18 -57 -7z"/>
<path d="M4160 1953 c0 -20 17 -50 24 -43 2 3 2 17 -1 33 -6 30 -23 37 -23 10z"/>
<path d="M4889 1951 c-13 -11 -20 -23 -16 -27 4 -4 17 2 29 14 28 28 18 38
-13 13z"/>
<path d="M5940 1940 c0 -16 5 -30 10 -30 6 0 10 14 10 30 0 17 -4 30 -10 30
-5 0 -10 -13 -10 -30z"/>
<path d="M6523 1935 c0 -22 2 -30 4 -17 2 12 2 30 0 40 -3 9 -5 -1 -4 -23z"/>
<path d="M6758 1899 c3 -52 0 -74 -10 -80 -8 -5 11 -9 48 -9 33 0 65 5 72 12
15 15 16 54 2 63 -7 4 -7 12 0 25 13 24 13 26 -6 44 -10 10 -33 16 -62 16
l-47 0 3 -71z m82 46 c17 -20 -3 -45 -37 -45 -20 0 -23 4 -19 28 2 15 5 28 5
30 3 9 41 -1 51 -13z m0 -70 c20 -24 8 -50 -24 -50 -24 0 -30 5 -31 25 -2 14
-1 28 2 33 7 12 40 8 53 -8z"/>
<path d="M1760 1930 c0 -16 5 -30 10 -30 6 0 10 14 10 30 0 17 -4 30 -10 30
-5 0 -10 -13 -10 -30z"/>
<path d="M2805 1890 c10 -11 25 -20 33 -20 12 0 12 4 -3 20 -10 11 -25 20 -33
20 -12 0 -12 -4 3 -20z"/>
<path d="M3468 1904 c-5 -4 -8 -19 -8 -33 0 -18 3 -22 11 -14 6 6 9 21 7 33
-1 12 -6 18 -10 14z"/>
<path d="M4795 1860 c-23 -26 -8 -26 25 0 18 14 21 20 9 20 -9 0 -24 -9 -34
-20z"/>
<path d="M1193 1825 c0 -22 2 -30 4 -17 2 12 2 30 0 40 -3 9 -5 -1 -4 -23z"/>
<path d="M4182 1823 c2 -14 8 -28 14 -30 7 -2 9 8 6 27 -5 37 -25 40 -20 3z"/>
<path d="M5940 1820 c0 -16 5 -30 10 -30 6 0 10 14 10 30 0 17 -4 30 -10 30
-5 0 -10 -13 -10 -30z"/>
<path d="M6523 1815 c0 -22 2 -30 4 -17 2 12 2 30 0 40 -3 9 -5 -1 -4 -23z"/>
<path d="M1760 1810 c0 -16 5 -30 10 -30 6 0 10 14 10 30 0 17 -4 30 -10 30
-5 0 -10 -13 -10 -30z"/>
<path d="M2880 1823 c0 -12 38 -48 45 -41 3 2 -6 15 -20 28 -14 13 -25 19 -25
13z"/>
<path d="M1415 1790 c5 -15 2 -20 -14 -20 -18 0 -19 -2 -6 -27 13 -25 13 -29
-3 -35 -14 -5 -13 -7 6 -7 26 -1 30 -21 4 -21 -10 0 -18 -8 -19 -17 -1 -10 -5
-29 -9 -43 -7 -24 -7 -24 19 5 25 29 26 29 27 8 0 -15 -6 -23 -16 -23 -14 0
-14 -3 -4 -15 19 -22 40 0 40 41 0 27 4 34 20 34 11 0 20 5 20 11 0 7 -9 9
-21 6 -13 -3 -19 -1 -16 6 2 7 11 12 20 12 9 0 17 5 16 10 0 6 -8 8 -17 7 -13
-3 -14 -1 -4 11 6 7 9 17 5 20 -3 4 -1 7 5 7 7 0 12 5 12 11 0 6 -9 9 -20 6
-12 -3 -20 0 -20 8 0 7 -7 16 -16 19 -12 4 -14 1 -9 -14z m28 -50 c-8 -30 -17
-31 -30 -4 -10 22 -9 24 12 24 18 0 22 -4 18 -20z"/>
<path d="M6170 1791 c10 -19 8 -21 -15 -21 -15 0 -24 -4 -21 -8 3 -5 19 -7 36
-4 33 5 38 -5 15 -34 -15 -18 -15 -18 -13 0 2 10 -3 21 -11 24 -10 3 -12 0 -7
-13 4 -11 1 -22 -6 -27 -10 -6 -8 -8 5 -8 25 0 21 -20 -5 -21 -22 -1 -22 -1 2
-9 14 -4 18 -8 9 -9 -9 -1 -21 -12 -27 -26 -18 -40 -14 -43 13 -10 24 28 25
29 25 8 0 -13 -5 -23 -11 -23 -5 0 -7 -4 -4 -10 14 -22 35 -10 35 20 0 17 5
30 10 30 6 0 10 -7 10 -16 0 -11 5 -14 16 -10 15 6 15 4 0 -21 -16 -26 -15
-25 13 5 22 23 31 42 31 67 0 19 5 35 10 35 6 0 10 -28 10 -65 0 -51 3 -65 15
-65 12 0 15 14 15 65 0 52 3 65 16 65 8 0 13 4 9 9 -3 5 -21 7 -41 4 -33 -5
-36 -4 -32 17 2 17 12 26 37 33 19 5 30 12 25 17 -5 5 -25 4 -46 -3 l-38 -12
0 -62 c0 -68 -6 -78 -35 -57 -18 14 -18 14 4 14 13 0 19 4 16 10 -4 6 -15 8
-26 5 -11 -4 -19 -2 -19 4 0 10 21 16 43 12 9 -1 9 13 0 22 -3 4 -12 2 -20 -5
-12 -10 -12 -7 -2 15 7 15 16 27 21 27 5 0 6 5 3 11 -4 6 -13 8 -21 5 -8 -3
-14 -1 -14 4 0 5 -9 14 -21 20 -19 11 -20 10 -9 -9z"/>
<path d="M1533 1787 c-29 -10 -33 -16 -34 -47 -1 -19 -2 -39 -4 -45 -1 -5 -3
-23 -3 -38 -2 -26 -3 -27 -18 -13 -8 9 -17 16 -20 16 -10 0 -3 -20 12 -35 13
-13 14 -19 4 -33 -7 -9 -1 -4 14 11 14 16 29 46 32 68 10 61 24 46 24 -26 0
-37 4 -65 10 -65 6 0 10 28 10 65 0 59 2 65 21 65 11 0 17 5 14 10 -4 6 -21 8
-41 4 -32 -6 -34 -4 -34 20 0 19 5 26 19 26 28 0 52 11 45 21 -6 10 -7 10 -51
-4z"/>
<path d="M4710 1775 c-13 -14 -19 -25 -13 -25 5 0 20 11 33 25 13 14 19 25 13
25 -5 0 -20 -11 -33 -25z"/>
<path d="M3437 1763 c-3 -16 -3 -30 -1 -33 7 -7 24 23 24 43 0 27 -17 20 -23
-10z"/>
<path d="M2972 1718 c9 -13 24 -25 34 -27 17 -3 16 0 -5 23 -30 32 -49 34 -29
4z"/>
<path d="M1192 1700 c0 -19 2 -27 5 -17 2 9 2 25 0 35 -3 9 -5 1 -5 -18z"/>
<path d="M4200 1701 c0 -17 5 -31 10 -31 6 0 10 11 10 24 0 14 -4 28 -10 31
-6 4 -10 -7 -10 -24z"/>
<path d="M5940 1695 c0 -19 5 -35 10 -35 6 0 10 16 10 35 0 19 -4 35 -10 35
-5 0 -10 -16 -10 -35z"/>
<path d="M6522 1690 c0 -19 2 -27 5 -17 2 9 2 25 0 35 -3 9 -5 1 -5 -18z"/>
<path d="M1760 1686 c0 -14 5 -28 10 -31 6 -4 10 7 10 24 0 17 -4 31 -10 31
-5 0 -10 -11 -10 -24z"/>
<path d="M4615 1690 c-15 -16 -15 -20 -3 -20 8 0 23 9 33 20 15 16 15 20 3 20
-8 0 -23 -9 -33 -20z"/>
<path d="M3414 1645 c-6 -23 0 -45 10 -34 10 12 15 59 6 59 -5 0 -12 -11 -16
-25z"/>
<path d="M3050 1642 c0 -10 33 -42 44 -42 3 0 -1 11 -10 25 -16 25 -34 33 -34
17z"/>
<path d="M4530 1605 c-13 -14 -19 -25 -13 -25 5 0 20 11 33 25 13 14 19 25 13
25 -5 0 -20 -11 -33 -25z"/>
<path d="M1193 1575 c0 -22 2 -30 4 -17 2 12 2 30 0 40 -3 9 -5 -1 -4 -23z"/>
<path d="M4220 1581 c0 -16 5 -33 10 -36 6 -4 10 6 10 24 0 16 -4 33 -10 36
-6 4 -10 -6 -10 -24z"/>
<path d="M5940 1570 c0 -16 5 -30 10 -30 6 0 10 14 10 30 0 17 -4 30 -10 30
-5 0 -10 -13 -10 -30z"/>
<path d="M6522 1570 c0 -19 2 -27 5 -17 2 9 2 25 0 35 -3 9 -5 1 -5 -18z"/>
<path d="M1760 1560 c0 -16 5 -30 10 -30 6 0 10 14 10 30 0 17 -4 30 -10 30
-5 0 -10 -13 -10 -30z"/>
<path d="M3150 1535 c13 -14 26 -23 28 -20 7 7 -29 45 -41 45 -6 0 0 -11 13
-25z"/>
<path d="M3398 1544 c-5 -4 -8 -19 -8 -33 0 -18 3 -22 11 -14 6 6 9 21 7 33
-1 12 -6 18 -10 14z"/>
<path d="M4439 1520 c-18 -15 -20 -19 -8 -20 9 0 24 9 34 20 23 26 4 26 -26 0z"/>
<path d="M1170 1474 l-25 -14 28 0 c17 0 27 5 27 15 0 8 -1 15 -2 14 -2 -1
-14 -7 -28 -15z"/>
<path d="M4240 1456 c0 -14 5 -28 10 -31 6 -4 10 7 10 24 0 17 -4 31 -10 31
-5 0 -10 -11 -10 -24z"/>
<path d="M5928 1473 c-10 -2 -18 -9 -18 -14 0 -15 43 -7 48 9 4 12 0 13 -30 5z"/>
<path d="M6523 1466 c4 -14 47 -21 47 -8 0 5 -11 12 -25 15 -16 3 -24 0 -22
-7z"/>
<path d="M918 1463 c12 -2 30 -2 40 0 9 3 -1 5 -23 4 -22 0 -30 -2 -17 -4z"/>
<path d="M1043 1463 c9 -2 25 -2 35 0 9 3 1 5 -18 5 -19 0 -27 -2 -17 -5z"/>
<path d="M1778 1463 c12 -2 30 -2 40 0 9 3 -1 5 -23 4 -22 0 -30 -2 -17 -4z"/>
<path d="M1903 1463 c9 -2 25 -2 35 0 9 3 1 5 -18 5 -19 0 -27 -2 -17 -5z"/>
<path d="M2023 1463 c9 -2 25 -2 35 0 9 3 1 5 -18 5 -19 0 -27 -2 -17 -5z"/>
<path d="M3220 1462 c0 -14 39 -46 47 -39 3 4 -2 16 -12 27 -19 21 -35 26 -35
12z"/>
<path d="M5665 1460 c3 -5 13 -10 21 -10 8 0 14 -4 14 -8 0 -5 11 -14 25 -20
31 -14 35 -15 35 -3 0 5 -11 12 -25 15 -16 4 -22 11 -19 21 5 11 -2 15 -26 15
-18 0 -29 -4 -25 -10z"/>
<path d="M5785 1460 c3 -5 17 -10 30 -10 13 0 27 5 30 10 4 6 -8 10 -30 10
-22 0 -34 -4 -30 -10z"/>
<path d="M6635 1460 c3 -5 17 -10 31 -10 13 0 24 5 24 10 0 6 -14 10 -31 10
-17 0 -28 -4 -24 -10z"/>
<path d="M6755 1460 c3 -5 19 -10 35 -10 16 0 32 5 35 10 4 6 -10 10 -35 10
-25 0 -39 -4 -35 -10z"/>
<path d="M4357 1442 c-25 -27 -21 -35 8 -16 25 16 33 34 17 34 -5 0 -16 -8
-25 -18z"/>
<path d="M954 1435 c11 -8 27 -15 35 -15 13 1 12 4 -3 15 -11 8 -27 15 -35 15
-13 -1 -12 -4 3 -15z"/>
<path d="M1950 1420 c-14 -11 -22 -20 -18 -20 14 0 58 23 58 32 0 13 -13 9
-40 -12z"/>
<path d="M6723 1428 c-13 -6 -23 -15 -23 -20 0 -5 14 -2 30 7 45 23 38 35 -7
13z"/>
<path d="M3367 1403 c-5 -27 -2 -41 7 -32 11 10 17 59 8 59 -5 0 -12 -12 -15
-27z"/>
<path d="M1056 1391 c-3 -4 6 -13 20 -20 30 -13 34 -14 34 -3 0 13 -48 33 -54
23z"/>
<path d="M5830 1375 c33 -19 50 -18 26 0 -11 8 -27 15 -35 15 -10 -1 -7 -6 9
-15z"/>
<path d="M1836 1365 c-15 -11 -16 -15 -5 -15 8 0 24 7 35 15 14 11 15 14 4 14
-8 0 -24 -6 -34 -14z"/>
<path d="M3315 1360 c10 -11 23 -20 28 -20 6 0 2 9 -8 20 -10 11 -23 20 -28
20 -6 0 -2 -9 8 -20z"/>
<path d="M6600 1368 c-14 -6 -20 -12 -13 -15 6 -2 24 3 40 11 32 17 11 20 -27
4z"/>
<path d="M4265 1359 c-12 -19 5 -23 22 -6 16 16 16 17 1 17 -9 0 -20 -5 -23
-11z"/>
<path d="M1174 1325 c11 -8 27 -15 35 -15 13 1 12 4 -3 15 -11 8 -27 15 -35
15 -13 -1 -12 -4 3 -15z"/>
<path d="M5934 1326 c11 -9 27 -16 35 -16 21 0 2 16 -29 24 -24 7 -24 6 -6 -8z"/>
<path d="M1733 1318 c-20 -10 -32 -28 -18 -28 12 0 55 24 55 32 0 10 -9 9 -37
-4z"/>
<path d="M6490 1315 c-14 -8 -19 -14 -10 -14 8 0 26 6 40 14 14 8 19 14 10 14
-8 0 -26 -6 -40 -14z"/>
<path d="M1270 1285 c0 -2 14 -11 30 -20 17 -9 30 -12 30 -7 0 5 -11 14 -25
20 -28 13 -35 14 -35 7z"/>
<path d="M6039 1276 c13 -16 51 -28 51 -17 0 7 -44 31 -57 31 -3 0 0 -6 6 -14z"/>
<path d="M6390 1265 c-16 -9 -19 -14 -9 -15 8 0 24 7 35 15 24 18 7 19 -26 0z"/>
<path d="M1614 1255 c-15 -11 -16 -14 -3 -15 8 0 24 7 35 15 15 11 16 14 3 15
-8 0 -24 -7 -35 -15z"/>
<path d="M1400 1215 c33 -19 50 -18 26 0 -11 8 -27 15 -35 15 -10 -1 -7 -6 9
-15z"/>
<path d="M6163 1214 c16 -9 32 -13 35 -9 9 9 -19 25 -43 24 -16 0 -15 -2 8
-15z"/>
<path d="M6272 1210 c-32 -20 -51 -20 -2390 -20 -1457 0 -2351 4 -2342 10 27
17 2 22 -29 6 -26 -14 -108 -16 -676 -16 l-645 0 0 -545 0 -545 3715 0 3715 0
0 545 0 545 -677 1 c-495 0 -672 3 -655 11 12 6 22 15 22 20 0 11 0 11 -38
-12z m1338 -565 l0 -535 -3705 0 -3705 0 0 535 0 535 3705 0 3705 0 0 -535z"/>
<path d="M3600 884 c0 -25 -2 -26 -38 -20 l-39 6 3 -83 c2 -101 2 -97 14 -97
6 0 10 7 10 16 0 8 16 31 36 49 l36 34 29 -29 c35 -34 35 -38 8 -42 -21 -3
-21 -3 -2 -20 31 -28 41 -9 44 82 l3 85 -38 -3 c-35 -4 -38 -2 -34 16 4 13 0
23 -9 26 -22 9 -23 8 -23 -20z m0 -49 c0 -22 -26 -81 -39 -89 -8 -5 -11 10
-11 48 0 53 1 56 25 56 16 0 25 -6 25 -15z m78 -22 c2 -18 1 -33 -2 -33 -12 0
-56 24 -56 31 0 23 15 40 34 37 16 -2 22 -11 24 -35z"/>
<path d="M3840 890 c-7 -13 -22 -21 -43 -21 -30 -2 -30 -2 -4 -6 34 -5 34 -15
-3 -69 -28 -41 -29 -59 -2 -32 9 9 12 1 12 -36 0 -34 4 -46 13 -43 11 3 13 10
16 60 1 12 10 17 31 17 26 0 30 -4 30 -26 0 -20 -4 -25 -16 -20 -14 5 -15 4
-4 -9 7 -8 21 -15 31 -15 15 0 19 7 19 35 0 32 2 35 31 35 18 0 28 4 24 10 -3
6 -17 7 -31 4 -31 -8 -34 20 -3 37 33 17 9 27 -46 19 -47 -7 -47 -7 -12 -9
l38 -1 -18 -25 c-13 -17 -28 -24 -50 -25 -36 0 -38 10 -13 63 12 25 18 27 72
27 33 0 57 4 54 9 -3 4 -29 6 -58 3 -47 -4 -51 -3 -40 10 10 13 10 17 -3 21
-9 4 -19 -2 -25 -13z"/>
<path d="M3739 536 c-2 -2 -2 -40 1 -83 l5 -78 31 -3 c38 -4 64 19 64 57 0 33
-16 51 -47 51 -19 0 -23 5 -23 30 0 26 -16 40 -31 26z m69 -113 c-2 -27 -8
-39 -20 -41 -15 -3 -18 4 -18 37 0 35 3 41 21 41 17 0 20 -5 17 -37z"/>
<path d="M4135 515 c-46 -45 -25 -145 30 -145 52 0 76 103 35 148 -26 28 -35
28 -65 -3z m55 -67 c0 -44 -4 -60 -15 -65 -22 -8 -27 0 -33 55 -5 59 12 100
34 81 9 -7 14 -31 14 -71z"/>
<path d="M3377 473 c-4 -3 -7 -13 -7 -22 1 -14 2 -14 14 2 15 20 36 23 36 5 0
-7 -14 -21 -31 -30 -46 -27 -36 -52 23 -55 l46 -2 -5 42 c-2 23 -6 48 -9 55
-4 13 -56 17 -67 5z m43 -62 c0 -23 -16 -36 -25 -21 -9 14 1 40 15 40 5 0 10
-9 10 -19z"/>
<path d="M3535 470 c3 -5 30 -10 60 -10 30 0 57 5 60 10 4 6 -18 10 -60 10
-42 0 -64 -4 -60 -10z"/>
<path d="M3915 470 c3 -5 30 -10 60 -10 30 0 57 5 60 10 4 6 -18 10 -60 10
-42 0 -64 -4 -60 -10z"/>
<path d="M3557 433 c18 -2 50 -2 70 0 21 2 7 4 -32 4 -38 0 -55 -2 -38 -4z"/>
<path d="M3937 433 c18 -2 50 -2 70 0 21 2 7 4 -32 4 -38 0 -55 -2 -38 -4z"/>
</g>
</svg>
