<?xml version="1.0" standalone="no"?>
<!DOCTYPE svg PUBLIC "-//W3C//DTD SVG 20010904//EN"
 "http://www.w3.org/TR/2001/REC-SVG-20010904/DTD/svg10.dtd">
<svg version="1.0" xmlns="http://www.w3.org/2000/svg"
 width="814.000000pt" height="533.000000pt" viewBox="0 0 814.000000 533.000000"
 preserveAspectRatio="xMidYMid meet">

<g transform="translate(0.000000,533.000000) scale(0.100000,-0.100000)"
fill="#000000" stroke="none">
<path d="M8135 2665 c0 -1469 1 -2068 2 -1332 2 736 2 1938 0 2670 -1 733 -2
131 -2 -1338z"/>
<path d="M2508 5175 c-2 -35 1 -55 8 -55 6 0 9 14 7 33 -4 30 -3 31 11 13 9
-11 16 -26 16 -33 0 -24 18 -13 29 17 5 17 13 30 17 30 3 0 4 -13 2 -30 -3
-23 -1 -30 11 -30 13 0 15 10 13 54 -3 42 -7 53 -18 49 -8 -3 -14 -11 -14 -17
0 -7 -6 -21 -14 -31 -13 -18 -15 -17 -29 18 -9 20 -20 37 -26 37 -5 0 -11 -25
-13 -55z"/>
<path d="M2810 5220 c0 -5 5 -10 10 -10 6 0 10 5 10 10 0 6 -4 10 -10 10 -5 0
-10 -4 -10 -10z"/>
<path d="M3065 5175 l0 -55 40 2 c30 1 33 2 13 5 -20 3 -28 10 -28 25 0 15 5
19 20 15 11 -3 20 -1 20 4 0 5 -9 9 -20 9 -14 0 -20 7 -20 21 0 18 4 20 26 15
17 -5 23 -3 19 4 -3 5 -21 10 -38 10 l-32 0 0 -55z"/>
<path d="M2849 5196 c-3 -3 -3 -21 -1 -41 6 -47 27 -46 26 2 -1 34 -12 51 -25
39z"/>
<path d="M3228 5163 c-1 -37 -1 -37 -5 -5 -4 29 -8 32 -36 32 -30 0 -32 -2
-32 -35 0 -21 5 -35 13 -35 7 0 12 13 12 30 0 17 5 30 10 30 6 0 10 -13 10
-30 0 -27 3 -30 30 -30 28 0 30 2 30 40 0 29 -4 40 -15 40 -10 0 -15 -12 -17
-37z"/>
<path d="M2653 5183 c-20 -7 -15 -51 5 -62 14 -7 25 -6 40 5 13 9 22 11 22 5
0 -6 6 -11 14 -11 9 0 12 8 9 24 -3 13 0 27 6 30 7 5 11 -4 11 -23 0 -19 5
-31 13 -31 9 0 12 11 9 35 -4 31 -8 35 -33 35 -16 0 -29 -5 -29 -12 0 -9 -3
-9 -12 0 -12 12 -33 14 -55 5z m37 -29 c0 -31 -23 -28 -28 4 -2 15 2 22 12 22
11 0 16 -9 16 -26z"/>
<path d="M2805 5155 c0 -21 5 -35 13 -35 7 0 12 14 12 35 0 21 -5 35 -12 35
-8 0 -13 -14 -13 -35z"/>
<path d="M2897 5183 c-14 -13 -6 -53 11 -62 14 -7 25 -6 40 5 13 9 22 11 22 5
0 -6 6 -11 14 -11 10 0 12 7 9 21 -4 15 0 27 12 35 18 13 17 14 -8 14 -19 0
-27 -5 -27 -17 -1 -17 -1 -17 -11 0 -10 17 -49 23 -62 10z m43 -29 c0 -31 -23
-28 -28 4 -2 15 2 22 12 22 11 0 16 -9 16 -26z"/>
<path d="M3281 5176 c-23 -28 12 -78 42 -59 6 4 2 9 -11 14 -13 5 -20 16 -19
28 1 21 17 30 17 11 0 -5 7 -10 16 -10 22 0 11 24 -13 28 -11 2 -25 -4 -32
-12z"/>
<path d="M3350 5155 c0 -24 5 -35 15 -35 10 0 15 10 15 29 0 16 6 32 13 34 6
3 0 6 -15 6 -25 1 -28 -2 -28 -34z"/>
<path d="M3018 5123 c7 -3 16 -2 19 1 4 3 -2 6 -13 5 -11 0 -14 -3 -6 -6z"/>
<path d="M2818 4923 c6 -2 18 -2 25 0 6 3 1 5 -13 5 -14 0 -19 -2 -12 -5z"/>
<path d="M2898 4923 c6 -2 18 -2 25 0 6 3 1 5 -13 5 -14 0 -19 -2 -12 -5z"/>
<path d="M2983 4923 c9 -2 23 -2 30 0 6 3 -1 5 -18 5 -16 0 -22 -2 -12 -5z"/>
<path d="M3058 4923 c6 -2 18 -2 25 0 6 3 1 5 -13 5 -14 0 -19 -2 -12 -5z"/>
<path d="M3143 4923 c9 -2 23 -2 30 0 6 3 -1 5 -18 5 -16 0 -22 -2 -12 -5z"/>
<path d="M3218 4923 c6 -2 18 -2 25 0 6 3 1 5 -13 5 -14 0 -19 -2 -12 -5z"/>
<path d="M3308 4923 c7 -3 16 -2 19 1 4 3 -2 6 -13 5 -11 0 -14 -3 -6 -6z"/>
<path d="M145 4865 c0 -30 3 -55 8 -55 4 0 7 16 7 35 l0 35 35 -38 34 -37 1
58 c0 31 -4 57 -8 57 -4 0 -6 -17 -5 -37 l4 -38 -33 38 c-18 20 -35 37 -38 37
-3 0 -5 -25 -5 -55z"/>
<path d="M442 4908 c-16 -16 -16 -98 1 -98 8 0 12 16 11 50 -1 46 0 50 18 44
14 -4 18 -2 14 5 -9 14 -29 14 -44 -1z"/>
<path d="M560 4910 c0 -5 6 -9 13 -7 8 1 12 -13 12 -46 0 -35 4 -47 15 -47 11
0 15 12 15 47 0 41 3 48 19 45 11 -2 15 1 11 7 -8 14 -85 14 -85 1z"/>
<path d="M658 4865 c-2 -39 1 -55 10 -55 7 0 12 13 12 30 0 17 5 30 10 30 6 0
10 -13 10 -30 0 -18 5 -30 13 -30 9 0 12 11 9 35 -3 26 -9 35 -23 35 -12 0
-19 7 -19 20 0 11 -4 20 -9 20 -5 0 -11 -25 -13 -55z"/>
<path d="M979 4898 c-1 -13 0 -36 1 -52 1 -20 -2 -27 -12 -24 -7 3 -12 17 -11
32 2 23 0 26 -13 16 -33 -28 -6 -71 39 -63 20 4 22 10 19 59 -4 52 -21 77 -23
32z"/>
<path d="M2490 4910 c0 -5 6 -10 14 -10 8 0 18 5 21 10 3 6 -3 10 -14 10 -12
0 -21 -4 -21 -10z"/>
<path d="M2578 4913 c7 -3 16 -2 19 1 4 3 -2 6 -13 5 -11 0 -14 -3 -6 -6z"/>
<path d="M2658 4913 c6 -2 18 -2 25 0 6 3 1 5 -13 5 -14 0 -19 -2 -12 -5z"/>
<path d="M2738 4913 c7 -3 16 -2 19 1 4 3 -2 6 -13 5 -11 0 -14 -3 -6 -6z"/>
<path d="M3383 4913 c9 -2 23 -2 30 0 6 3 -1 5 -18 5 -16 0 -22 -2 -12 -5z"/>
<path d="M3460 4916 c0 -9 30 -14 35 -6 4 6 -3 10 -14 10 -12 0 -21 -2 -21 -4z"/>
<path d="M2178 4903 c6 -2 18 -2 25 0 6 3 1 5 -13 5 -14 0 -19 -2 -12 -5z"/>
<path d="M2253 4903 c9 -2 23 -2 30 0 6 3 -1 5 -18 5 -16 0 -22 -2 -12 -5z"/>
<path d="M2338 4903 c6 -2 18 -2 25 0 6 3 1 5 -13 5 -14 0 -19 -2 -12 -5z"/>
<path d="M2418 4903 c7 -3 16 -2 19 1 4 3 -2 6 -13 5 -11 0 -14 -3 -6 -6z"/>
<path d="M3548 4903 c6 -2 18 -2 25 0 6 3 1 5 -13 5 -14 0 -19 -2 -12 -5z"/>
<path d="M1845 4890 c-8 -13 5 -13 25 0 13 8 13 10 -2 10 -9 0 -20 -4 -23 -10z"/>
<path d="M1928 4893 c6 -2 18 -2 25 0 6 3 1 5 -13 5 -14 0 -19 -2 -12 -5z"/>
<path d="M2013 4893 c9 -2 23 -2 30 0 6 3 -1 5 -18 5 -16 0 -22 -2 -12 -5z"/>
<path d="M2098 4893 c7 -3 16 -2 19 1 4 3 -2 6 -13 5 -11 0 -14 -3 -6 -6z"/>
<path d="M3628 4893 c7 -3 16 -2 19 1 4 3 -2 6 -13 5 -11 0 -14 -3 -6 -6z"/>
<path d="M334 4874 c3 -9 6 -27 6 -40 0 -16 6 -24 18 -24 14 0 14 2 3 9 -9 6
-12 19 -8 40 5 24 3 31 -9 31 -11 0 -14 -6 -10 -16z"/>
<path d="M816 4883 c-4 -4 -22 -6 -41 -5 -34 3 -35 1 -35 -33 0 -22 5 -35 13
-35 9 0 12 10 9 30 -3 23 0 30 12 30 10 0 16 -9 16 -25 0 -25 34 -53 44 -36 3
5 -1 11 -9 15 -8 3 -15 15 -15 26 0 20 16 28 22 10 4 -12 48 -1 48 12 0 5 -6
8 -12 5 -7 -2 -20 -1 -29 4 -9 5 -19 5 -23 2z"/>
<path d="M1520 4880 c0 -5 6 -10 14 -10 8 0 18 5 21 10 3 6 -3 10 -14 10 -12
0 -21 -4 -21 -10z"/>
<path d="M1608 4883 c6 -2 18 -2 25 0 6 3 1 5 -13 5 -14 0 -19 -2 -12 -5z"/>
<path d="M1688 4883 c6 -2 18 -2 25 0 6 3 1 5 -13 5 -14 0 -19 -2 -12 -5z"/>
<path d="M1768 4883 c6 -2 18 -2 25 0 6 3 1 5 -13 5 -14 0 -19 -2 -12 -5z"/>
<path d="M3705 4880 c3 -5 10 -10 16 -10 5 0 9 5 9 10 0 6 -7 10 -16 10 -8 0
-12 -4 -9 -10z"/>
<path d="M260 4865 c-18 -21 -3 -55 24 -55 13 0 29 7 36 15 15 18 4 55 -18 55
-12 0 -13 -3 -4 -12 19 -19 15 -50 -5 -46 -13 3 -17 12 -16 31 2 31 0 33 -17
12z"/>
<path d="M380 4845 c0 -22 5 -35 13 -35 9 0 12 11 9 35 -2 19 -8 35 -13 35 -5
0 -9 -16 -9 -35z"/>
<path d="M490 4840 l21 -40 -22 -9 c-13 -4 -18 -11 -12 -14 12 -8 38 20 45 48
3 11 9 29 13 40 4 14 1 12 -9 -5 l-16 -25 -6 23 c-3 12 -13 22 -20 22 -11 0
-10 -9 6 -40z"/>
<path d="M894 4855 c2 -14 -1 -28 -5 -31 -5 -3 -9 2 -9 12 0 13 -3 14 -15 4
-21 -17 -9 -30 26 -30 28 0 30 2 27 32 -2 17 -8 33 -15 35 -7 3 -10 -6 -9 -22z"/>
<path d="M1205 4870 c-3 -6 1 -7 9 -4 18 7 21 14 7 14 -6 0 -13 -4 -16 -10z"/>
<path d="M1283 4873 c9 -2 23 -2 30 0 6 3 -1 5 -18 5 -16 0 -22 -2 -12 -5z"/>
<path d="M1368 4873 c7 -3 16 -2 19 1 4 3 -2 6 -13 5 -11 0 -14 -3 -6 -6z"/>
<path d="M1448 4873 c7 -3 16 -2 19 1 4 3 -2 6 -13 5 -11 0 -14 -3 -6 -6z"/>
<path d="M1058 4863 c7 -3 16 -2 19 1 4 3 -2 6 -13 5 -11 0 -14 -3 -6 -6z"/>
<path d="M1128 4863 c7 -3 16 -2 19 1 4 3 -2 6 -13 5 -11 0 -14 -3 -6 -6z"/>
<path d="M3785 4860 c28 -12 37 -12 30 0 -3 6 -16 10 -28 9 -21 0 -21 -1 -2
-9z"/>
<path d="M3860 4840 c8 -5 20 -10 25 -10 6 0 3 5 -5 10 -8 5 -19 10 -25 10 -5
0 -3 -5 5 -10z"/>
<path d="M6837 4829 c-43 -25 -36 -94 10 -105 54 -14 87 68 41 100 -26 19 -27
19 -51 5z m41 -11 c31 -31 0 -105 -33 -78 -25 21 -14 90 15 90 3 0 11 -5 18
-12z"/>
<path d="M6930 4785 c0 -61 13 -75 50 -55 29 16 24 64 -7 68 -15 2 -23 10 -23
23 0 10 -4 19 -10 19 -5 0 -10 -25 -10 -55z m50 -25 c0 -25 -18 -36 -26 -16
-8 21 3 49 16 41 5 -3 10 -15 10 -25z"/>
<path d="M7010 4830 c0 -5 5 -10 10 -10 6 0 10 5 10 10 0 6 -4 10 -10 10 -5 0
-10 -4 -10 -10z"/>
<path d="M7495 4830 c-3 -5 -1 -10 4 -10 6 0 11 5 11 10 0 6 -2 10 -4 10 -3 0
-8 -4 -11 -10z"/>
<path d="M7552 4828 c-16 -16 -16 -111 0 -106 8 3 12 24 11 57 -2 48 0 52 19
45 14 -4 18 -2 14 5 -9 14 -29 14 -44 -1z"/>
<path d="M3930 4811 c0 -10 30 -24 37 -17 3 2 -5 9 -16 16 -12 6 -21 7 -21 1z"/>
<path d="M7666 4804 c-10 -26 -7 -69 7 -87 10 -15 12 -8 12 43 0 59 -7 75 -19
44z"/>
<path d="M7735 4760 c0 -51 2 -58 13 -43 13 18 16 61 6 87 -12 31 -19 15 -19
-44z"/>
<path d="M7196 4801 c-3 -5 -15 -7 -26 -4 -24 6 -50 -13 -50 -37 0 -24 26 -44
47 -35 16 6 16 8 -4 16 -13 5 -23 17 -23 28 0 15 6 19 28 18 21 -2 28 -8 32
-30 7 -40 23 -33 23 10 0 35 -15 54 -27 34z"/>
<path d="M7446 4803 c-3 -4 -6 -19 -6 -33 0 -30 24 -58 35 -40 3 5 1 10 -4 10
-14 0 -14 33 0 47 7 7 6 12 -4 16 -8 3 -18 3 -21 0z"/>
<path d="M7010 4749 c0 -31 -4 -48 -10 -44 -5 3 -10 1 -10 -5 0 -7 7 -9 16 -6
9 3 18 6 20 6 2 0 4 23 4 50 0 28 -4 50 -10 50 -5 0 -10 -23 -10 -51z"/>
<path d="M7063 4793 c-19 -7 -16 -60 4 -67 9 -4 21 -2 27 4 7 7 5 10 -6 10 -9
0 -18 6 -20 13 -7 16 1 37 13 37 6 0 7 -4 4 -10 -3 -5 1 -10 10 -10 9 0 15 6
13 13 -5 13 -26 18 -45 10z"/>
<path d="M7280 4761 c0 -23 5 -41 10 -41 6 0 10 16 10 35 0 19 5 35 10 35 6 0
10 -16 10 -35 0 -19 5 -35 11 -35 6 0 9 16 7 38 -3 32 -7 37 -30 40 -27 3 -28
1 -28 -37z"/>
<path d="M7367 4785 c-18 -17 -12 -51 10 -59 37 -15 69 34 41 62 -16 16 -33
15 -51 -3z m38 -23 c0 -31 -19 -28 -23 4 -3 18 0 25 10 22 7 -3 13 -14 13 -26z"/>
<path d="M7490 4759 c0 -25 4 -39 11 -37 6 2 10 7 10 11 -1 4 -1 21 -1 37 0
17 -4 30 -10 30 -5 0 -10 -18 -10 -41z"/>
<path d="M7595 4770 c19 -37 19 -60 0 -60 -8 0 -15 -4 -15 -10 0 -5 6 -10 14
-10 7 0 23 22 35 49 24 57 27 78 6 41 l-15 -25 -6 23 c-3 12 -13 22 -20 22
-12 0 -12 -5 1 -30z"/>
<path d="M4000 4755 c7 -8 17 -15 22 -15 6 0 5 7 -2 15 -7 8 -17 15 -22 15 -6
0 -5 -7 2 -15z"/>
<path d="M7240 4730 c0 -5 5 -10 10 -10 6 0 10 5 10 10 0 6 -4 10 -10 10 -5 0
-10 -4 -10 -10z"/>
<path d="M5510 4705 c0 -10 -10 -15 -30 -15 -29 0 -30 -1 -30 -49 0 -48 0 -48
31 -45 20 3 28 0 23 -7 -5 -8 -2 -9 12 -1 13 7 24 6 41 -5 20 -14 23 -14 23 0
0 8 -7 17 -15 21 -12 4 -13 11 -5 32 12 30 4 47 -10 24 -8 -13 -10 -12 -10 3
0 11 8 17 23 17 l22 1 -24 19 c-28 24 -51 26 -51 5z m0 -35 c0 -5 -7 -10 -15
-10 -8 0 -15 5 -15 10 0 6 7 10 15 10 8 0 15 -4 15 -10z m-20 -40 c0 -11 -4
-20 -9 -20 -5 0 -7 9 -4 20 3 11 7 20 9 20 2 0 4 -9 4 -20z m33 0 c3 -11 1
-23 -4 -26 -5 -3 -9 6 -9 20 0 31 6 34 13 6z"/>
<path d="M5689 4698 c-1 -13 -1 -28 0 -35 1 -7 -5 -27 -12 -45 l-14 -33 33 0
c41 0 42 1 45 54 2 30 -1 46 -9 49 -8 2 -13 -2 -11 -9 5 -42 -2 -79 -16 -79
-11 0 -12 5 -5 26 13 33 13 94 0 94 -5 0 -11 -10 -11 -22z"/>
<path d="M4540 4655 c0 -30 5 -55 10 -55 6 0 10 12 10 28 l1 27 16 -29 c15
-28 16 -29 29 -11 8 10 14 26 14 34 0 14 -2 14 -10 1 -10 -17 -12 -16 -34 28
-24 47 -36 39 -36 -23z"/>
<path d="M4632 4693 c-13 -26 -3 -93 14 -93 10 0 14 15 14 55 0 55 -11 70 -28
38z"/>
<path d="M4845 4700 c3 -5 8 -10 11 -10 2 0 4 5 4 10 0 6 -5 10 -11 10 -5 0
-7 -4 -4 -10z"/>
<path d="M5100 4655 l0 -55 43 2 c36 1 38 2 10 5 -43 6 -47 40 -5 46 l27 4
-28 2 c-21 1 -28 5 -25 19 3 11 12 16 26 15 12 -2 22 2 22 7 0 6 -16 10 -35
10 l-35 0 0 -55z"/>
<path d="M5635 4699 c-16 -3 -24 -7 -17 -8 7 -1 12 -15 12 -35 0 -19 -6 -36
-12 -39 -7 -2 -10 -8 -6 -12 5 -5 20 -2 35 5 16 7 23 15 16 17 -19 7 -16 50 3
61 23 13 5 20 -31 11z"/>
<path d="M4030 4691 c0 -6 5 -13 10 -16 6 -3 10 1 10 9 0 9 -4 16 -10 16 -5 0
-10 -4 -10 -9z"/>
<path d="M4883 4643 c1 -25 7 -39 17 -41 12 -2 15 6 12 38 -5 53 -31 55 -29 3z"/>
<path d="M5274 4664 c3 -9 6 -27 6 -40 0 -13 6 -24 13 -24 9 0 11 12 9 40 -3
27 -9 40 -19 40 -10 0 -13 -6 -9 -16z"/>
<path d="M4680 4655 c-20 -24 0 -50 36 -50 26 0 29 4 29 30 0 25 -4 31 -26 33
-15 2 -31 -4 -39 -13z m48 -23 c2 -15 -2 -22 -12 -22 -11 0 -16 9 -16 26 0 31
23 28 28 -4z"/>
<path d="M4760 4636 c0 -25 4 -36 15 -36 8 0 14 3 14 8 -4 26 2 52 12 46 6 -3
9 -17 6 -30 -3 -16 0 -24 10 -24 10 0 13 10 11 33 -3 28 -7 32 -35 35 -32 3
-33 2 -33 -32z"/>
<path d="M4840 4635 c0 -24 5 -35 15 -35 10 0 15 11 15 35 0 24 -5 35 -15 35
-10 0 -15 -11 -15 -35z"/>
<path d="M4930 4655 c-19 -23 -3 -55 30 -55 30 0 44 21 35 51 -8 23 -47 25
-65 4z m48 -23 c2 -15 -2 -22 -12 -22 -11 0 -16 9 -16 26 0 31 23 28 28 -4z"/>
<path d="M5010 4635 c0 -23 5 -35 14 -35 10 0 12 7 9 21 -4 15 0 27 12 35 18
13 17 14 -8 14 -24 0 -27 -4 -27 -35z"/>
<path d="M5190 4636 c0 -23 5 -36 13 -36 7 0 13 10 12 23 0 12 5 22 10 22 6 0
10 -10 10 -22 -1 -13 5 -23 13 -23 9 0 12 10 10 33 -3 28 -7 32 -35 35 -32 3
-33 2 -33 -32z"/>
<path d="M5321 4652 c-15 -27 20 -74 40 -54 11 10 10 12 -3 12 -9 0 -18 6 -21
13 -5 16 3 37 15 37 5 0 6 -4 3 -10 -3 -5 1 -10 10 -10 24 0 13 24 -13 28 -13
2 -25 -4 -31 -16z"/>
<path d="M5390 4635 c0 -23 5 -35 14 -35 10 0 12 7 9 21 -4 15 0 27 12 35 18
13 17 14 -8 14 -24 0 -27 -4 -27 -35z"/>
<path d="M6839 4643 c-26 -6 -39 -46 -26 -73 7 -13 19 -25 27 -28 12 -4 13 -2
3 9 -32 33 -1 107 32 79 18 -15 20 -61 3 -78 -7 -7 -8 -12 -2 -12 36 0 48 82
15 100 -20 10 -25 11 -52 3z"/>
<path d="M6930 4596 c0 -37 4 -56 14 -59 10 -4 13 2 12 21 0 15 4 27 9 27 6 0
10 -10 10 -23 -1 -12 4 -21 10 -19 5 2 10 17 10 33 0 22 -5 30 -22 32 -15 2
-23 10 -23 23 0 10 -4 19 -10 19 -5 0 -10 -24 -10 -54z"/>
<path d="M7010 4640 c0 -5 5 -10 10 -10 6 0 10 5 10 10 0 6 -4 10 -10 10 -5 0
-10 -4 -10 -10z"/>
<path d="M7495 4640 c3 -5 8 -10 11 -10 2 0 4 5 4 10 0 6 -5 10 -11 10 -5 0
-7 -4 -4 -10z"/>
<path d="M7552 4638 c-16 -16 -16 -98 1 -98 8 0 11 16 10 51 -2 47 -1 50 19
44 14 -5 18 -4 14 4 -9 14 -29 14 -44 -1z"/>
<path d="M7790 4595 c0 -30 5 -55 10 -55 6 0 10 25 10 55 0 30 -4 55 -10 55
-5 0 -10 -25 -10 -55z"/>
<path d="M7830 4595 c0 -37 4 -55 13 -55 8 0 11 16 9 55 -5 71 -22 71 -22 0z"/>
<path d="M7683 4590 c-12 -28 -18 -50 -12 -50 5 0 9 7 9 15 0 8 6 15 14 15 10
0 12 7 8 22 -3 14 -1 19 6 14 6 -3 13 -20 17 -36 4 -17 13 -30 21 -30 11 0 10
9 -5 47 -10 26 -22 48 -27 50 -5 1 -19 -20 -31 -47z"/>
<path d="M7880 4621 c-14 -27 -13 -76 3 -89 9 -8 12 3 12 49 0 32 -1 59 -2 59
-1 0 -7 -9 -13 -19z"/>
<path d="M7941 4607 c7 -27 7 -48 0 -70 l-11 -32 20 24 c25 30 25 62 0 92
l-19 24 10 -38z"/>
<path d="M7199 4615 c-3 -2 -3 -20 -1 -40 6 -50 29 -46 24 5 -4 37 -11 48 -23
35z"/>
<path d="M7442 4583 c4 -50 23 -52 25 -3 1 29 -3 40 -14 40 -10 0 -13 -10 -11
-37z"/>
<path d="M7010 4559 c0 -31 -4 -48 -10 -44 -5 3 -10 1 -10 -4 0 -14 13 -14 28
1 14 14 16 98 2 98 -5 0 -10 -23 -10 -51z"/>
<path d="M7057 4604 c-22 -23 8 -85 33 -69 8 5 5 12 -9 21 -20 14 -19 44 1 44
5 0 6 -4 3 -10 -3 -5 1 -10 10 -10 9 0 15 6 13 13 -5 14 -40 21 -51 11z"/>
<path d="M7132 4598 c-28 -28 5 -79 37 -59 9 6 6 10 -9 14 -18 5 -22 11 -18
31 6 30 6 30 -10 14z"/>
<path d="M7160 4600 c0 -5 5 -10 10 -10 6 0 10 5 10 10 0 6 -4 10 -10 10 -5 0
-10 -4 -10 -10z"/>
<path d="M7280 4575 c0 -19 5 -35 10 -35 6 0 10 14 10 30 0 17 5 30 10 30 6 0
10 -13 10 -30 0 -16 5 -30 10 -30 6 0 10 16 10 35 0 32 -2 35 -30 35 -28 0
-30 -3 -30 -35z"/>
<path d="M7362 4594 c-12 -21 -5 -51 13 -58 10 -4 12 4 8 31 -5 28 -3 35 8 31
8 -3 14 -17 14 -32 -1 -14 4 -25 10 -23 5 2 10 17 10 33 0 24 -5 30 -27 32
-17 2 -30 -3 -36 -14z"/>
<path d="M7490 4575 c0 -22 5 -35 13 -35 9 0 12 11 9 35 -2 19 -8 35 -13 35
-5 0 -9 -16 -9 -35z"/>
<path d="M7595 4580 c19 -37 19 -60 0 -60 -8 0 -15 -4 -15 -10 0 -5 6 -10 14
-10 7 0 23 22 35 49 24 57 27 78 6 41 l-15 -25 -6 23 c-3 12 -13 22 -20 22
-12 0 -12 -5 1 -30z"/>
<path d="M4020 4525 c0 -8 5 -15 10 -15 6 0 10 7 10 15 0 8 -4 15 -10 15 -5 0
-10 -7 -10 -15z"/>
<path d="M5058 4493 c7 -3 16 -2 19 1 4 3 -2 6 -13 5 -11 0 -14 -3 -6 -6z"/>
<path d="M5128 4493 c6 -2 18 -2 25 0 6 3 1 5 -13 5 -14 0 -19 -2 -12 -5z"/>
<path d="M5208 4493 c6 -2 18 -2 25 0 6 3 1 5 -13 5 -14 0 -19 -2 -12 -5z"/>
<path d="M4968 4483 c6 -2 18 -2 25 0 6 3 1 5 -13 5 -14 0 -19 -2 -12 -5z"/>
<path d="M5288 4483 c6 -2 18 -2 25 0 6 3 1 5 -13 5 -14 0 -19 -2 -12 -5z"/>
<path d="M4890 4470 c-13 -8 -13 -10 2 -10 9 0 20 5 23 10 8 13 -5 13 -25 0z"/>
<path d="M5365 4470 c3 -5 14 -10 23 -10 15 0 15 2 2 10 -20 13 -33 13 -25 0z"/>
<path d="M6508 4473 c6 -2 18 -2 25 0 6 3 1 5 -13 5 -14 0 -19 -2 -12 -5z"/>
<path d="M6598 4473 c7 -3 16 -2 19 1 4 3 -2 6 -13 5 -11 0 -14 -3 -6 -6z"/>
<path d="M6678 4473 c7 -3 16 -2 19 1 4 3 -2 6 -13 5 -11 0 -14 -3 -6 -6z"/>
<path d="M6758 4463 c7 -3 16 -2 19 1 4 3 -2 6 -13 5 -11 0 -14 -3 -6 -6z"/>
<path d="M4010 4444 c0 -8 5 -12 10 -9 6 3 10 10 10 16 0 5 -4 9 -10 9 -5 0
-10 -7 -10 -16z"/>
<path d="M4815 4450 c-3 -5 -2 -10 4 -10 5 0 13 5 16 10 3 6 2 10 -4 10 -5 0
-13 -4 -16 -10z"/>
<path d="M5445 4450 c3 -5 14 -10 23 -10 15 0 15 2 2 10 -20 13 -33 13 -25 0z"/>
<path d="M6830 4450 c20 -13 33 -13 25 0 -3 6 -14 10 -23 10 -15 0 -15 -2 -2
-10z"/>
<path d="M6445 4439 c-11 -17 1 -21 15 -4 8 9 8 15 2 15 -6 0 -14 -5 -17 -11z"/>
<path d="M4740 4430 c-13 -8 -12 -10 3 -10 9 0 17 5 17 10 0 12 -1 12 -20 0z"/>
<path d="M5510 4426 c0 -2 9 -6 20 -9 11 -3 20 -1 20 4 0 5 -9 9 -20 9 -11 0
-20 -2 -20 -4z"/>
<path d="M6910 4420 c8 -5 20 -10 25 -10 6 0 3 5 -5 10 -8 5 -19 10 -25 10 -5
0 -3 -5 5 -10z"/>
<path d="M4660 4400 c-8 -5 -10 -10 -5 -10 6 0 17 5 25 10 8 5 11 10 5 10 -5
0 -17 -5 -25 -10z"/>
<path d="M5590 4400 c0 -5 7 -10 16 -10 8 0 12 5 9 10 -3 6 -10 10 -16 10 -5
0 -9 -4 -9 -10z"/>
<path d="M6400 4368 c-12 -22 -12 -22 6 -6 10 10 15 20 12 24 -4 3 -12 -5 -18
-18z"/>
<path d="M6970 4372 c6 -13 14 -21 18 -18 3 4 -2 14 -12 24 -18 16 -18 16 -6
-6z"/>
<path d="M4580 4370 c0 -5 7 -7 15 -4 8 4 15 8 15 10 0 2 -7 4 -15 4 -8 0 -15
-4 -15 -10z"/>
<path d="M5670 4370 c20 -13 33 -13 25 0 -3 6 -14 10 -23 10 -15 0 -15 -2 -2
-10z"/>
<path d="M4001 4354 c0 -11 3 -14 6 -6 3 7 2 16 -1 19 -3 4 -6 -2 -5 -13z"/>
<path d="M4510 4350 c-13 -8 -13 -10 2 -10 9 0 20 5 23 10 8 13 -5 13 -25 0z"/>
<path d="M5750 4340 c20 -13 33 -13 25 0 -3 6 -14 10 -23 10 -15 0 -15 -2 -2
-10z"/>
<path d="M4430 4320 c-8 -5 -10 -10 -5 -10 6 0 17 5 25 10 8 5 11 10 5 10 -5
0 -17 -5 -25 -10z"/>
<path d="M5820 4320 c0 -6 7 -10 15 -10 8 0 15 2 15 4 0 2 -7 6 -15 10 -8 3
-15 1 -15 -4z"/>
<path d="M6366 4304 c-4 -9 -4 -19 -1 -22 2 -3 7 3 11 12 4 9 4 19 1 22 -2 3
-7 -3 -11 -12z"/>
<path d="M6991 4294 c0 -11 3 -14 6 -6 3 7 2 16 -1 19 -3 4 -6 -2 -5 -13z"/>
<path d="M3990 4285 c0 -8 2 -15 4 -15 2 0 6 7 10 15 3 8 1 15 -4 15 -6 0 -10
-7 -10 -15z"/>
<path d="M4355 4290 c-8 -13 5 -13 25 0 13 8 13 10 -2 10 -9 0 -20 -4 -23 -10z"/>
<path d="M5895 4290 c3 -5 14 -10 23 -10 15 0 15 2 2 10 -20 13 -33 13 -25 0z"/>
<path d="M4280 4260 c-8 -5 -10 -10 -5 -10 6 0 17 5 25 10 8 5 11 10 5 10 -5
0 -17 -5 -25 -10z"/>
<path d="M5965 4260 c3 -5 14 -10 23 -10 15 0 15 2 2 10 -20 13 -33 13 -25 0z"/>
<path d="M4205 4230 c-8 -13 5 -13 25 0 13 8 13 10 -2 10 -9 0 -20 -4 -23 -10z"/>
<path d="M6045 4230 c3 -5 14 -10 23 -10 15 0 15 2 2 10 -20 13 -33 13 -25 0z"/>
<path d="M6336 4224 c-4 -9 -4 -19 -1 -22 2 -3 7 3 11 12 4 9 4 19 1 22 -2 3
-7 -3 -11 -12z"/>
<path d="M3946 4183 l5 -53 -205 0 c-200 0 -205 0 -220 -22 -13 -18 -16 -54
-16 -186 0 -158 -1 -162 -19 -152 -11 5 -32 15 -48 20 -26 9 -27 9 -9 -5 11
-8 24 -15 30 -15 5 0 6 -3 2 -7 -4 -5 -575 -10 -1269 -13 l-1262 -5 1265 -3
1265 -3 -235 -65 c-843 -232 -1654 -472 -1810 -537 -217 -90 -321 -190 -318
-307 l1 -45 6 50 c17 142 150 241 461 343 429 141 1824 537 1853 526 8 -3 25
-1 36 6 24 12 28 -2 6 -20 -9 -7 -13 -15 -10 -18 3 -3 16 8 30 24 l25 29 0
-162 c0 -150 2 -165 20 -183 19 -19 33 -20 433 -20 388 0 415 1 430 18 10 10
17 22 17 27 0 5 -9 -1 -20 -13 -21 -22 -22 -22 -421 -22 -257 0 -407 4 -420
10 -18 10 -19 25 -19 363 0 261 3 356 12 365 9 9 117 12 424 12 l413 0 15 -22
c11 -16 16 -18 16 -7 0 35 -20 39 -213 39 -135 0 -186 3 -181 11 4 7 0 9 -12
5 -27 -8 -40 4 -52 49 l-12 40 6 -52z"/>
<path d="M6960 4215 c0 -8 2 -15 4 -15 2 0 6 7 10 15 3 8 1 15 -4 15 -6 0 -10
-7 -10 -15z"/>
<path d="M3997 4184 c-11 -14 -17 -28 -14 -30 3 -3 15 9 27 25 12 17 18 31 13
31 -4 0 -16 -12 -26 -26z"/>
<path d="M4130 4200 c-13 -8 -13 -10 2 -10 9 0 20 5 23 10 8 13 -5 13 -25 0z"/>
<path d="M6115 4200 c3 -5 14 -10 23 -10 15 0 15 2 2 10 -20 13 -33 13 -25 0z"/>
<path d="M6255 4176 l25 -33 -67 -6 c-38 -4 -123 -7 -190 -7 -97 0 -125 -3
-137 -16 -13 -13 -16 -44 -16 -185 0 -93 -2 -169 -5 -169 -3 0 -24 9 -45 20
-22 11 -40 16 -40 10 0 -5 6 -10 13 -10 7 0 22 -7 33 -15 17 -13 -64 -14 -704
-12 -572 2 -722 -1 -722 -10 0 -7 4 -13 9 -13 5 0 65 -42 134 -94 69 -52 170
-120 224 -152 125 -73 226 -171 243 -235 19 -67 6 -146 -33 -216 -89 -156
-318 -460 -571 -755 -95 -111 -130 -144 -106 -99 5 11 10 26 10 33 -1 7 -9 -3
-19 -21 l-19 -35 -26 57 c-31 64 -93 124 -163 157 -105 49 -110 50 -1159 50
-566 0 -1002 -4 -1030 -9 -147 -28 -260 -111 -301 -219 l-19 -53 -54 78 c-90
131 -190 263 -276 366 -45 53 -93 121 -107 150 -14 28 -26 45 -26 36 -1 -25
62 -123 141 -216 95 -114 116 -141 232 -307 78 -110 97 -144 93 -164 -9 -46
24 -121 77 -179 57 -63 136 -106 221 -122 75 -14 2004 -15 2088 -1 141 23 267
122 302 238 13 43 -11 21 -27 -26 -33 -92 -150 -178 -273 -201 -82 -15 -1998
-15 -2081 0 -82 15 -160 54 -212 106 -60 60 -82 112 -82 196 0 117 64 209 190
270 l65 32 1080 0 1080 0 67 -33 c115 -56 188 -160 188 -269 0 -24 4 -43 9
-43 5 0 13 -9 16 -20 3 -11 11 -20 16 -20 6 0 5 8 -1 21 -16 29 -3 37 16 10 9
-12 61 -73 116 -134 138 -155 230 -271 246 -312 12 -29 12 -41 2 -65 -31 -75
-136 -109 -465 -151 -168 -21 -182 -21 -1210 -15 -890 5 -1057 4 -1160 -9
-169 -21 -289 -58 -389 -118 -50 -31 -106 -98 -106 -126 1 -9 10 0 20 20 49
93 187 161 415 206 83 16 171 17 1189 14 991 -3 1111 -2 1230 14 319 41 444
80 481 148 37 69 9 116 -225 382 -175 200 -185 213 -121 180 17 -8 31 -13 31
-10 0 2 -21 15 -47 29 l-48 24 42 11 c23 6 45 17 49 23 5 8 1 9 -12 4 -56 -24
-56 -16 6 50 130 139 446 538 559 708 184 273 154 396 -141 576 -85 52 -307
208 -342 241 -6 5 292 9 700 9 634 -1 705 -2 675 -16 -19 -8 -32 -17 -29 -19
3 -3 21 2 41 10 20 8 39 15 42 15 3 0 5 -76 5 -169 0 -164 1 -170 22 -185 19
-13 58 -16 230 -16 l208 0 -6 -47 c-3 -27 -12 -97 -20 -156 -8 -59 -13 -124
-13 -145 1 -24 5 -13 10 33 5 39 16 121 24 183 8 63 15 118 15 123 0 5 94 9
218 9 199 0 220 2 235 18 14 16 17 45 17 190 l0 172 493 0 c490 -1 492 -1 457
-20 -50 -28 -14 -24 40 4 l44 24 -42 21 c-49 25 -80 28 -37 3 29 -16 9 -17
-450 -20 -264 -1 -485 0 -492 2 -21 9 -7 36 35 67 62 46 55 52 -8 8 -30 -20
-26 -38 -36 148 -4 82 -11 137 -19 143 -7 5 -109 11 -241 12 -223 3 -229 4
-226 23 3 19 3 19 -11 1 -13 -18 -15 -17 -43 18 -36 45 -54 48 -19 2z m533
-68 c9 -9 12 -103 12 -359 0 -303 -2 -350 -16 -363 -14 -14 -68 -16 -444 -16
-376 0 -430 2 -444 16 -14 13 -16 60 -16 363 0 256 3 350 12 359 17 17 879 17
896 0z"/>
<path d="M6290 3910 c0 -13 -7 -20 -20 -20 -11 0 -20 5 -20 10 0 19 -18 10
-23 -11 -3 -12 -10 -18 -16 -14 -7 3 -8 0 -5 -9 3 -8 0 -25 -7 -38 -11 -21
-11 -22 5 -9 15 13 19 13 26 1 13 -21 23 -5 12 17 -13 26 -4 43 24 43 21 0 24
-5 24 -34 0 -19 -6 -36 -12 -39 -10 -4 -10 -7 0 -18 18 -19 32 4 32 53 0 20 6
39 13 42 10 5 10 7 0 12 -7 3 -13 12 -13 20 0 8 -4 14 -10 14 -5 0 -10 -9 -10
-20z"/>
<path d="M6377 3912 c-18 -20 -23 -52 -8 -52 5 0 8 -8 6 -17 -2 -10 -4 -18 -5
-18 -1 0 -3 -8 -5 -18 -2 -9 1 -14 6 -11 6 3 16 0 24 -6 17 -14 35 -5 35 18 0
12 3 13 12 4 7 -7 19 -12 28 -12 11 0 8 6 -9 19 -20 15 -21 19 -7 24 17 7 23
57 6 57 -5 0 -10 -11 -10 -25 0 -16 -6 -25 -15 -25 -20 0 -19 19 2 42 9 10 13
21 9 26 -4 4 -19 -6 -32 -22 -14 -15 -28 -26 -31 -22 -3 3 1 14 10 24 10 10
17 22 17 25 0 13 -17 7 -33 -11z m18 -92 c-3 -5 -1 -10 6 -10 7 0 10 -2 7 -5
-3 -3 -13 -2 -22 1 -14 5 -15 9 -4 15 17 11 20 11 13 -1z"/>
<path d="M6256 3846 c3 -9 11 -16 16 -16 13 0 5 23 -10 28 -7 2 -10 -2 -6 -12z"/>
<path d="M6146 3704 c-19 -18 -21 -65 -4 -82 7 -7 25 -12 40 -12 21 0 33 8 48
33 l20 32 0 -32 c0 -22 5 -33 14 -33 32 0 46 13 46 41 0 26 -9 34 -33 30 -5
-1 -11 8 -14 19 -3 11 -10 20 -15 20 -6 0 -8 -6 -5 -14 9 -23 -5 -27 -20 -6
-17 24 -56 26 -77 4z m59 -39 c0 -33 -4 -41 -22 -43 -25 -4 -38 26 -29 64 5
19 12 25 29 22 18 -3 22 -9 22 -43z m85 -20 c0 -16 -6 -25 -15 -25 -15 0 -21
31 -8 43 13 14 23 6 23 -18z"/>
<path d="M6517 3693 c-8 -15 5 -83 17 -83 7 0 10 16 8 45 -4 41 -14 57 -25 38z"/>
<path d="M6338 3684 c-5 -4 -8 -27 -8 -51 0 -23 -5 -43 -11 -43 -5 0 -7 -5 -3
-11 15 -24 35 17 32 65 -2 27 -6 44 -10 40z"/>
<path d="M6380 3676 c-28 -35 13 -88 44 -56 8 9 6 11 -9 8 -16 -2 -21 3 -23
27 l-2 30 33 -37 c33 -36 67 -50 67 -27 0 5 -4 8 -9 4 -14 -8 -31 28 -22 44 6
9 11 10 15 2 9 -13 26 -15 26 -2 0 15 -32 22 -46 10 -9 -7 -18 -7 -33 0 -25
14 -26 14 -41 -3z"/>
<path d="M4060 4170 c-13 -8 -13 -10 2 -10 9 0 20 5 23 10 8 13 -5 13 -25 0z"/>
<path d="M6190 4172 c0 -6 9 -12 20 -15 11 -3 20 -3 20 -1 0 2 -9 8 -20 14
-11 6 -20 7 -20 2z"/>
<path d="M6937 4153 c-4 -3 -7 -13 -7 -22 1 -13 3 -13 11 2 11 19 8 33 -4 20z"/>
<path d="M6907 4070 c-3 -11 -1 -20 4 -20 5 0 9 9 9 20 0 11 -2 20 -4 20 -2 0
-6 -9 -9 -20z"/>
<path d="M6877 3990 c-3 -11 -2 -20 3 -20 4 0 10 9 13 20 3 11 2 20 -3 20 -4
0 -10 -9 -13 -20z"/>
<path d="M5510 3946 c0 -9 -12 -16 -27 -18 -26 -3 -28 -7 -31 -51 -2 -32 0
-47 7 -42 6 3 19 2 29 -4 10 -5 24 -6 32 -1 8 5 22 2 37 -7 22 -14 23 -14 23
6 0 11 -6 20 -12 19 -14 -3 -14 4 -3 40 7 23 -9 32 -18 10 -3 -8 -6 -6 -6 5
-1 11 7 17 22 17 l22 1 -24 19 c-27 23 -51 26 -51 6z m0 -36 c0 -5 -7 -10 -15
-10 -8 0 -15 5 -15 10 0 6 7 10 15 10 8 0 15 -4 15 -10z m-20 -40 c0 -11 -4
-20 -9 -20 -5 0 -7 9 -4 20 3 11 7 20 9 20 2 0 4 -9 4 -20z m33 0 c3 -10 -1
-24 -7 -29 -10 -8 -11 -3 -8 19 5 35 8 37 15 10z"/>
<path d="M5689 3938 c-1 -13 -1 -28 0 -35 1 -7 -5 -27 -12 -45 l-14 -33 33 0
c41 0 42 1 45 55 3 38 0 45 -14 42 -11 -2 -17 4 -17 18 0 28 -20 26 -21 -2z
m37 -44 c-3 -9 -6 -24 -6 -35 0 -10 -6 -19 -14 -19 -12 0 -12 6 -3 35 6 19 15
35 20 35 5 0 6 -7 3 -16z"/>
<path d="M2459 3946 c-4 -37 0 -106 7 -107 5 -1 8 14 7 32 l-3 34 17 -32 c9
-18 19 -33 23 -33 4 0 14 15 23 33 l16 32 0 -38 c1 -23 5 -36 11 -32 6 3 10
31 10 61 0 62 -11 64 -36 6 l-16 -37 -19 37 c-17 34 -38 57 -40 44z"/>
<path d="M2760 3940 c0 -5 5 -10 11 -10 5 0 7 5 4 10 -3 6 -8 10 -11 10 -2 0
-4 -4 -4 -10z"/>
<path d="M3014 3936 c-3 -7 -4 -33 -2 -57 3 -42 5 -44 35 -46 18 -1 35 3 39 8
3 5 -6 9 -20 9 -20 0 -26 5 -26 21 0 16 4 19 20 14 11 -4 20 -2 20 4 0 6 -9
11 -20 11 -15 0 -20 7 -20 25 0 27 -17 34 -26 11z"/>
<path d="M3055 3940 c-3 -5 3 -10 15 -10 12 0 18 5 15 10 -3 6 -10 10 -15 10
-5 0 -12 -4 -15 -10z"/>
<path d="M4540 3895 c0 -30 5 -55 10 -55 6 0 10 12 10 28 l1 27 16 -29 c15
-28 16 -29 29 -11 8 10 15 24 15 29 1 6 4 -2 8 -18 10 -47 26 -31 29 29 4 67
-11 72 -38 14 l-18 -42 -21 42 c-12 22 -26 41 -31 41 -6 0 -10 -25 -10 -55z"/>
<path d="M4845 3940 c-3 -5 -1 -10 4 -10 6 0 11 5 11 10 0 6 -2 10 -4 10 -3 0
-8 -4 -11 -10z"/>
<path d="M5102 3894 c3 -57 4 -59 31 -59 15 -1 33 3 40 7 7 5 -1 8 -21 8 -26
0 -33 4 -30 18 2 9 11 17 20 17 9 0 20 4 24 8 4 4 -5 7 -20 7 -22 0 -27 4 -24
22 2 11 -3 23 -10 26 -10 3 -12 -10 -10 -54z"/>
<path d="M5145 3940 c-3 -5 3 -10 15 -10 12 0 18 5 15 10 -3 6 -10 10 -15 10
-5 0 -12 -4 -15 -10z"/>
<path d="M6910 3895 c0 -34 4 -55 11 -55 7 0 10 12 7 30 -6 39 4 38 20 -2 14
-35 12 -36 49 19 12 16 13 15 11 -12 -1 -16 2 -31 7 -33 6 -1 11 23 13 53 2
42 0 54 -10 50 -8 -3 -19 -19 -25 -35 -15 -39 -26 -38 -46 5 -24 50 -37 43
-37 -20z"/>
<path d="M7220 3940 c0 -5 5 -10 10 -10 6 0 10 5 10 10 0 6 -4 10 -10 10 -5 0
-10 -4 -10 -10z"/>
<path d="M7482 3894 c3 -58 3 -58 36 -60 18 -1 35 2 38 7 3 5 -9 9 -25 9 -25
0 -31 4 -31 21 0 16 5 20 20 16 11 -3 23 -1 26 4 3 5 -7 9 -21 9 -21 0 -26 4
-23 22 2 11 -3 23 -10 26 -10 3 -12 -10 -10 -54z"/>
<path d="M7525 3940 c-3 -5 1 -10 9 -10 9 0 16 5 16 10 0 6 -4 10 -9 10 -6 0
-13 -4 -16 -10z"/>
<path d="M7650 3940 c0 -5 5 -10 10 -10 6 0 10 5 10 10 0 6 -4 10 -10 10 -5 0
-10 -4 -10 -10z"/>
<path d="M5630 3900 c0 -27 -5 -43 -15 -46 -8 -4 -12 -10 -9 -15 3 -5 20 -1
37 8 18 9 26 18 20 20 -19 7 -16 50 5 62 14 9 13 10 -10 11 -26 0 -28 -3 -28
-40z"/>
<path d="M3780 3892 c0 -23 5 -42 10 -42 16 0 16 57 -1 75 -5 5 -9 -7 -9 -33z"/>
<path d="M3815 3910 c-4 -12 0 -26 9 -36 26 -25 19 -34 -28 -34 -39 0 -44 -3
-48 -25 -5 -25 -5 -25 66 -25 42 0 66 4 58 9 -7 4 -14 23 -14 40 -1 18 -7 35
-15 38 -10 4 -12 14 -9 29 8 29 -10 32 -19 4z m22 -102 c-3 -8 -6 -5 -6 6 -1
11 2 17 5 13 3 -3 4 -12 1 -19z"/>
<path d="M3909 3916 c10 -11 8 -15 -6 -19 -17 -4 -17 -5 0 -6 14 -1 16 -5 7
-20 -5 -11 -8 -30 -6 -43 3 -13 5 -29 5 -35 2 -28 21 -11 21 18 0 24 3 30 16
25 9 -3 18 -6 21 -6 4 0 -2 -9 -12 -20 -10 -11 -13 -20 -7 -20 6 0 14 5 17 11
5 7 13 5 26 -7 19 -17 49 -13 49 7 0 6 -7 9 -15 5 -17 -6 -22 29 -5 39 17 10
12 75 -5 75 -8 0 -15 -4 -15 -10 0 -5 -7 -10 -16 -10 -8 0 -12 5 -9 10 3 6 0
10 -9 10 -8 0 -17 -6 -20 -12 -3 -9 -8 -8 -16 5 -6 9 -16 17 -22 17 -7 0 -7
-5 1 -14z m41 -52 c0 -8 -5 -12 -10 -9 -6 4 -8 11 -5 16 9 14 15 11 15 -7z
m47 -6 c-3 -8 -6 -5 -6 6 -1 11 2 17 5 13 3 -3 4 -12 1 -19z"/>
<path d="M6855 3919 c-4 -6 -5 -12 -2 -15 2 -3 7 2 10 11 7 17 1 20 -8 4z"/>
<path d="M7697 3923 c-12 -11 -7 -70 6 -82 11 -8 13 -2 11 35 -3 48 -6 58 -17
47z"/>
<path d="M2798 3915 c-8 -8 7 -80 16 -77 13 3 12 75 0 79 -6 2 -13 1 -16 -2z"/>
<path d="M3188 3915 c-8 -8 7 -80 16 -77 13 3 12 75 0 79 -6 2 -13 1 -16 -2z"/>
<path d="M3747 3913 c-8 -13 -1 -58 9 -58 13 0 18 45 6 57 -5 5 -12 6 -15 1z"/>
<path d="M4060 3900 c0 -25 17 -27 22 -2 3 13 5 12 10 -7 5 -17 1 -29 -15 -45
-26 -24 -26 -71 0 -62 8 3 18 6 23 6 5 0 11 8 13 18 4 13 5 12 6 -4 1 -17 7
-22 26 -20 16 0 25 7 25 18 0 9 6 18 13 21 15 5 9 13 -21 22 -20 6 -22 4 -19
-17 2 -13 2 -18 0 -12 -2 7 -13 14 -24 17 -18 5 -19 8 -7 26 14 23 30 29 22 8
-4 -10 3 -12 28 -9 32 5 32 6 8 13 -14 4 -18 7 -10 8 9 1 16 10 17 21 1 16 -4
20 -27 20 -19 0 -30 -6 -33 -17 -4 -17 -5 -17 -6 0 -2 26 -51 23 -51 -3z m100
0 c0 -5 -4 -10 -10 -10 -5 0 -10 5 -10 10 0 6 5 10 10 10 6 0 10 -4 10 -10z
m-73 -92 c-3 -8 -6 -5 -6 6 -1 11 2 17 5 13 3 -3 4 -12 1 -19z"/>
<path d="M4880 3886 c0 -18 7 -39 15 -46 13 -11 15 -6 15 34 0 34 -4 46 -15
46 -10 0 -15 -10 -15 -34z"/>
<path d="M5278 3915 c-7 -8 6 -80 15 -77 4 1 7 4 7 7 0 3 0 21 0 40 0 32 -8
43 -22 30z"/>
<path d="M7260 3887 c0 -19 6 -39 13 -45 11 -9 13 -3 11 30 -2 52 -24 65 -24
15z"/>
<path d="M2603 3904 c-18 -8 -16 -49 1 -63 24 -20 58 4 54 37 -3 27 -27 38
-55 26z m32 -32 c0 -31 -19 -28 -23 4 -3 18 0 25 10 22 7 -3 13 -14 13 -26z"/>
<path d="M2674 3876 c1 -45 26 -49 26 -5 0 17 4 28 10 24 6 -3 10 -17 10 -31
0 -13 5 -24 11 -24 6 0 9 14 7 33 -3 28 -7 32 -34 35 -29 3 -31 1 -30 -32z"/>
<path d="M2752 3873 c2 -21 8 -38 13 -38 6 0 11 17 13 38 3 29 0 37 -13 37
-13 0 -16 -8 -13 -37z"/>
<path d="M2847 3896 c-8 -9 -13 -24 -10 -35 12 -46 77 -30 71 17 -4 32 -37 42
-61 18z m38 -24 c0 -31 -19 -28 -23 4 -3 18 0 25 10 22 7 -3 13 -14 13 -26z"/>
<path d="M2923 3873 c2 -41 20 -48 25 -11 2 13 9 29 14 36 8 9 4 12 -15 12
-23 0 -25 -4 -24 -37z"/>
<path d="M3104 3876 c1 -45 26 -49 26 -5 0 19 4 28 11 24 5 -4 9 -18 7 -30 -2
-13 2 -24 7 -25 6 0 10 15 10 33 0 28 -3 32 -31 35 -29 3 -31 1 -30 -32z"/>
<path d="M3243 3903 c-18 -7 -16 -60 2 -67 8 -3 22 -3 32 1 14 5 13 8 -5 14
-22 8 -31 49 -11 49 5 0 7 -4 4 -10 -3 -5 1 -10 10 -10 9 0 15 6 13 13 -5 13
-26 18 -45 10z"/>
<path d="M3302 3873 c2 -21 8 -37 13 -35 6 2 9 12 7 23 -2 11 5 27 15 35 17
12 16 13 -10 14 -27 0 -28 -2 -25 -37z"/>
<path d="M3855 3900 c-3 -5 -1 -10 4 -10 6 0 11 5 11 10 0 6 -2 10 -4 10 -3 0
-8 -4 -11 -10z"/>
<path d="M4680 3891 c-12 -23 -5 -47 16 -55 22 -8 54 11 54 32 0 41 -51 57
-70 23z m45 -19 c0 -31 -19 -28 -23 4 -3 18 0 25 10 22 7 -3 13 -14 13 -26z"/>
<path d="M4760 3876 c0 -25 4 -36 15 -36 8 0 14 3 14 8 -4 25 2 52 12 47 5 -4
9 -18 7 -30 -2 -13 2 -24 7 -25 6 0 10 15 10 33 0 29 -3 32 -32 35 -32 3 -33
2 -33 -32z"/>
<path d="M4842 3874 c2 -22 8 -38 13 -36 15 3 12 65 -3 70 -10 3 -13 -6 -10
-34z"/>
<path d="M4930 3895 c-14 -17 -5 -51 16 -59 22 -8 54 11 54 32 0 38 -46 56
-70 27z m45 -15 c7 -23 -2 -43 -16 -35 -12 8 -12 55 0 55 5 0 12 -9 16 -20z"/>
<path d="M5012 3873 c2 -21 8 -37 13 -35 6 2 9 12 7 23 -2 11 5 27 15 35 17
12 16 13 -10 14 -27 0 -28 -2 -25 -37z"/>
<path d="M5190 3876 c0 -23 5 -36 13 -36 7 0 13 10 12 23 0 12 5 22 10 22 6 0
10 -11 10 -25 1 -14 5 -24 10 -22 6 1 10 17 10 35 0 29 -3 32 -32 35 -32 3
-33 2 -33 -32z"/>
<path d="M5348 3904 c6 -3 10 -10 6 -15 -3 -5 2 -9 11 -9 23 0 13 24 -11 27
-10 2 -13 0 -6 -3z"/>
<path d="M5390 3875 c0 -19 5 -35 10 -35 6 0 10 10 10 21 0 12 8 28 18 35 15
12 14 13 -10 14 -25 0 -28 -3 -28 -35z"/>
<path d="M7063 3904 c-18 -8 -16 -49 1 -63 24 -20 58 4 54 37 -3 27 -27 38
-55 26z m32 -32 c0 -31 -19 -28 -23 4 -3 18 0 25 10 22 7 -3 13 -14 13 -26z"/>
<path d="M7135 3875 c3 -45 19 -50 23 -7 4 44 22 41 22 -5 0 -26 3 -34 11 -26
6 6 9 23 7 39 -2 24 -8 30 -34 32 -30 3 -31 2 -29 -33z"/>
<path d="M7220 3877 c0 -34 7 -50 19 -42 10 6 0 75 -10 75 -5 0 -9 -15 -9 -33z"/>
<path d="M7312 3898 c-16 -16 -15 -33 4 -52 19 -20 29 -20 47 -1 13 13 16 13
21 -1 9 -24 24 -7 18 21 -3 18 0 25 12 25 9 0 16 5 16 10 0 6 -11 10 -25 10
-14 0 -25 -5 -25 -12 0 -9 -3 -9 -12 0 -7 7 -19 12 -28 12 -9 0 -21 -5 -28
-12z m43 -19 c9 -28 -8 -45 -25 -25 -13 17 -7 46 9 46 5 0 13 -9 16 -21z"/>
<path d="M7580 3889 c18 -32 43 -58 51 -53 11 6 -33 73 -49 74 -10 0 -10 -5
-2 -21z"/>
<path d="M7610 3899 c0 -5 5 -7 10 -4 6 3 10 8 10 11 0 2 -4 4 -10 4 -5 0 -10
-5 -10 -11z"/>
<path d="M7650 3877 c0 -34 7 -50 19 -42 10 6 0 75 -10 75 -5 0 -9 -15 -9 -33z"/>
<path d="M5317 3885 c-13 -32 24 -68 47 -45 7 7 5 10 -7 10 -9 0 -18 5 -18 10
-1 6 -2 14 -3 19 -2 18 -14 22 -19 6z"/>
<path d="M5060 3839 c0 -5 5 -7 10 -4 6 3 10 8 10 11 0 2 -4 4 -10 4 -5 0 -10
-5 -10 -11z"/>
<path d="M7430 3839 c0 -5 5 -7 10 -4 6 3 10 8 10 11 0 2 -4 4 -10 4 -5 0 -10
-5 -10 -11z"/>
<path d="M146 3788 c3 -13 13 -39 21 -58 14 -31 16 -33 23 -15 12 27 12 37 1
31 -10 -7 -21 17 -21 45 0 11 -7 19 -16 19 -11 0 -14 -6 -8 -22z"/>
<path d="M196 3783 c9 -35 34 -86 40 -80 9 9 13 47 4 42 -5 -3 -12 10 -16 30
-3 20 -12 35 -20 35 -11 0 -13 -7 -8 -27z"/>
<path d="M254 3784 c-2 -28 -1 -28 15 4 9 17 9 22 -1 22 -7 0 -14 -12 -14 -26z"/>
<path d="M440 3800 c0 -5 7 -7 16 -3 14 5 16 -2 13 -46 -3 -40 -1 -51 11 -51
12 0 14 11 12 49 -4 48 -3 49 23 47 25 -1 26 -3 23 -49 -2 -33 1 -47 10 -47 7
0 12 13 12 30 0 17 5 30 10 30 6 0 10 -13 10 -30 0 -27 3 -30 33 -30 32 0 33
2 29 30 -3 22 0 30 11 30 10 0 17 -11 19 -27 3 -27 5 -28 65 -30 l62 -3 -6 33
c-3 17 -9 36 -13 40 -8 9 -40 -2 -40 -14 0 -14 18 -11 23 4 2 6 4 -3 5 -21 0
-18 -4 -30 -9 -26 -5 3 -6 10 -3 16 4 6 -1 6 -14 -1 -35 -19 -52 -14 -52 16 0
25 0 26 20 8 17 -15 20 -16 20 -3 0 20 -29 31 -45 18 -8 -7 -15 -7 -19 -1 -3
5 -15 7 -26 4 -14 -4 -20 -14 -20 -34 0 -40 -18 -37 -22 4 -2 23 -8 32 -20 31
-11 -1 -18 5 -18 17 0 17 -8 19 -60 19 -33 0 -60 -4 -60 -10z"/>
<path d="M860 3799 c0 -6 -11 -20 -26 -31 -36 -29 -29 -62 14 -66 l32 -3 0 55
c0 31 -4 56 -10 56 -5 0 -10 -5 -10 -11z m0 -65 c0 -26 -17 -33 -26 -9 -8 20
3 48 16 40 5 -3 10 -17 10 -31z"/>
<path d="M397 3783 c-2 -5 -2 -25 0 -45 7 -52 30 -50 25 2 -4 38 -16 59 -25
43z"/>
<path d="M290 3770 c-8 -5 -11 -12 -7 -17 5 -4 13 -1 18 7 9 13 10 13 6 -1 -3
-9 -1 -21 5 -27 6 -6 6 -12 -1 -16 -6 -4 -11 0 -11 9 0 9 -4 13 -10 10 -22
-14 -10 -35 20 -35 26 0 30 4 30 28 0 25 -15 52 -29 52 -4 0 -13 -4 -21 -10z"/>
<path d="M357 3773 c-13 -12 -8 -73 6 -73 9 0 11 12 9 40 -4 42 -5 44 -15 33z"/>
<path d="M3710 3665 c0 -58 19 -78 21 -22 l1 32 11 -27 c13 -32 32 -37 40 -9
3 12 0 18 -7 15 -7 -3 -17 11 -25 31 -20 56 -41 45 -41 -20z"/>
<path d="M3800 3700 c-6 -11 -7 -26 -3 -33 4 -6 6 -22 4 -34 -1 -16 3 -23 13
-23 13 0 16 12 16 55 0 57 -11 70 -30 35z"/>
<path d="M4018 3713 c7 -3 16 -2 19 1 4 3 -2 6 -13 5 -11 0 -14 -3 -6 -6z"/>
<path d="M4057 3693 c-2 -5 -2 -25 0 -45 7 -52 30 -50 25 2 -4 38 -16 59 -25
43z"/>
<path d="M3856 3668 c-24 -34 -5 -56 49 -56 43 1 45 3 45 30 0 15 5 28 11 28
7 0 10 -12 7 -30 -3 -20 0 -30 9 -30 17 0 18 67 1 72 -25 9 -57 -4 -51 -20 4
-10 -1 -8 -15 6 -27 27 -37 28 -56 0z m38 -4 c10 -27 7 -44 -9 -44 -10 0 -15
10 -15 30 0 32 14 40 24 14z"/>
<path d="M4016 3683 c-3 -3 -6 -21 -6 -40 0 -23 5 -33 15 -33 10 0 15 10 15
34 0 34 -11 52 -24 39z"/>
<path d="M4104 3669 c-35 -39 18 -78 58 -42 20 17 21 17 15 1 -4 -12 -1 -18 8
-18 10 0 15 10 15 30 0 17 5 30 10 30 6 0 10 4 10 9 0 4 -11 6 -25 3 -14 -2
-22 -9 -18 -15 3 -6 -4 -3 -18 6 -30 21 -32 21 -55 -4z m40 -5 c10 -27 7 -44
-9 -44 -10 0 -15 10 -15 30 0 32 14 40 24 14z"/>
<path d="M6270 2843 c-7 -71 -11 -141 -8 -158 2 -16 9 39 17 123 7 85 11 155
9 158 -3 2 -10 -53 -18 -123z"/>
<path d="M2073 2806 c-39 -9 -43 -13 -43 -40 0 -17 -3 -42 -6 -56 -5 -24 -5
-24 10 -6 16 20 16 20 16 0 0 -17 6 -20 43 -19 39 1 42 3 42 28 0 15 -4 27
-10 27 -5 0 -10 -8 -10 -18 0 -10 -9 -18 -22 -20 -18 -3 -23 2 -23 17 0 12 -4
21 -10 21 -5 0 -10 11 -10 25 0 21 5 25 28 25 29 0 60 15 46 22 -5 2 -28 -1
-51 -6z"/>
<path d="M2240 2811 c-27 -5 -31 -8 -17 -13 9 -4 17 -15 17 -25 0 -15 -2 -16
-10 -3 -12 20 -17 12 -22 -42 -5 -47 -5 -48 27 -54 35 -6 84 4 69 15 -5 3 -9
26 -9 51 0 31 -4 44 -12 43 -7 -2 -13 2 -13 7 0 6 7 10 16 10 8 0 12 5 9 10
-3 6 -9 9 -13 9 -4 -1 -23 -4 -42 -8z m10 -111 c5 0 11 12 13 28 4 25 4 25 6
-5 1 -28 -2 -33 -22 -33 -21 0 -23 4 -18 33 5 31 6 31 9 5 2 -16 7 -28 12 -28z"/>
<path d="M2350 2795 c-15 -38 -12 -52 5 -29 14 18 15 16 9 -21 -4 -22 -12 -47
-18 -55 -6 -8 0 -6 12 5 22 18 24 18 33 2 12 -20 35 -22 43 -4 5 10 7 10 12 0
14 -30 24 -9 24 48 l0 61 -50 -5 c-28 -3 -48 -2 -45 3 3 5 1 11 -5 15 -5 3
-15 -6 -20 -20z m100 -45 c0 -22 -4 -40 -10 -40 -5 0 -10 18 -10 40 0 22 5 40
10 40 6 0 10 -18 10 -40z m-40 21 c0 -6 -4 -13 -10 -16 -5 -3 -10 1 -10 9 0 9
5 16 10 16 6 0 10 -4 10 -9z m0 -47 c0 -14 -3 -14 -15 -4 -8 7 -15 14 -15 16
0 2 7 4 15 4 8 0 15 -7 15 -16z"/>
<path d="M2707 2813 c-13 -12 -8 -123 6 -123 8 0 12 20 12 65 0 62 -3 73 -18
58z"/>
<path d="M3011 2812 c-21 -2 -30 -7 -23 -11 9 -5 10 -15 4 -32 -7 -18 -5 -27
7 -35 13 -10 13 -14 2 -28 -9 -11 -10 -16 -2 -16 13 0 51 58 51 78 0 6 -7 12
-15 12 -24 0 -17 18 8 22 35 5 6 14 -32 10z"/>
<path d="M3090 2762 c0 -32 -5 -63 -12 -70 -9 -9 -7 -12 10 -12 21 0 22 5 22
70 0 40 -4 70 -10 70 -6 0 -10 -26 -10 -58z"/>
<path d="M1182 2756 c3 -60 17 -78 19 -23 l1 32 15 -35 c16 -37 13 -38 51 17
11 16 12 14 9 -14 -2 -23 1 -33 10 -33 9 0 13 16 13 55 0 30 -4 55 -10 55 -5
0 -18 -19 -28 -42 l-19 -43 -19 39 c-30 62 -46 59 -42 -8z"/>
<path d="M1495 2800 c3 -5 8 -10 11 -10 2 0 4 5 4 10 0 6 -5 10 -11 10 -5 0
-7 -4 -4 -10z"/>
<path d="M1740 2755 l0 -55 40 0 c22 0 40 4 40 8 0 5 -13 7 -30 4 -26 -4 -30
-1 -30 18 0 18 4 21 25 18 14 -3 25 -1 25 3 0 5 -12 9 -26 9 -19 0 -25 4 -22
18 3 12 12 16 31 15 15 -1 25 2 22 8 -4 5 -22 9 -41 9 l-34 0 0 -55z"/>
<path d="M1925 2800 c3 -5 8 -10 11 -10 2 0 4 5 4 10 0 6 -5 10 -11 10 -5 0
-7 -4 -4 -10z"/>
<path d="M2176 2795 c4 -8 10 -15 15 -15 5 0 9 7 9 15 0 8 -7 15 -15 15 -9 0
-12 -6 -9 -15z"/>
<path d="M2820 2745 c0 -37 4 -65 10 -65 6 0 10 7 10 15 0 8 7 15 16 15 14 0
14 -3 4 -15 -8 -9 -8 -15 -2 -15 6 0 20 12 31 28 14 19 20 22 21 11 0 -17 27
-45 35 -37 3 2 -4 22 -15 43 -11 22 -20 50 -20 62 0 36 -17 27 -24 -13 -6 -28
-10 -33 -21 -24 -10 9 -14 7 -18 -7 -4 -17 -5 -17 -6 0 0 10 6 25 14 33 17 17
20 34 6 34 -5 0 -12 -8 -14 -17 -4 -17 -5 -17 -6 0 0 9 -5 17 -11 17 -6 0 -10
-28 -10 -65z"/>
<path d="M2660 2775 c0 -14 5 -25 10 -25 6 0 10 11 10 25 0 14 -4 25 -10 25
-5 0 -10 -11 -10 -25z"/>
<path d="M2750 2775 c0 -14 5 -25 10 -25 6 0 10 11 10 25 0 14 -4 25 -10 25
-5 0 -10 -11 -10 -25z"/>
<path d="M1534 2777 c-8 -22 -1 -70 11 -74 6 -2 10 15 10 36 -1 43 -11 63 -21
38z"/>
<path d="M1964 2777 c-8 -22 -1 -70 11 -74 6 -2 10 15 10 36 -1 43 -11 63 -21
38z"/>
<path d="M3060 2755 c0 -19 5 -35 10 -35 6 0 10 16 10 35 0 19 -4 35 -10 35
-5 0 -10 -16 -10 -35z"/>
<path d="M2130 2770 c0 -5 5 -10 10 -10 6 0 10 5 10 10 0 6 -4 10 -10 10 -5 0
-10 -4 -10 -10z"/>
<path d="M1324 2756 c-12 -31 0 -51 31 -51 27 0 30 3 30 30 0 25 -4 30 -28 33
-17 2 -29 -2 -33 -12z m44 -24 c2 -15 -2 -22 -12 -22 -11 0 -16 9 -16 26 0 31
23 28 28 -4z"/>
<path d="M1404 2736 c1 -44 26 -50 26 -6 0 17 5 30 11 30 7 0 10 -12 7 -30 -3
-21 0 -30 9 -30 10 0 13 10 11 33 -3 28 -7 32 -34 35 -29 3 -31 1 -30 -32z"/>
<path d="M1490 2735 c0 -22 5 -35 13 -35 9 0 12 11 9 35 -2 19 -8 35 -13 35
-5 0 -9 -16 -9 -35z"/>
<path d="M1573 2755 c-15 -27 1 -55 32 -55 18 0 26 7 31 24 7 30 -1 46 -24 46
-12 0 -13 -3 -4 -12 17 -17 15 -48 -2 -48 -9 0 -16 12 -18 33 -3 30 -4 30 -15
12z"/>
<path d="M1652 2735 c1 -19 7 -35 14 -35 7 0 10 8 7 21 -4 15 0 27 12 35 18
13 17 14 -8 14 -25 0 -27 -3 -25 -35z"/>
<path d="M1842 2750 c9 -14 9 -22 -1 -34 -8 -9 -9 -16 -3 -16 6 0 13 6 16 13
5 10 7 10 12 0 3 -7 12 -13 20 -13 13 0 13 3 0 22 -10 14 -12 26 -6 33 7 9 2
12 -20 13 -26 1 -28 -1 -18 -18z"/>
<path d="M1920 2735 c0 -22 5 -35 13 -35 9 0 12 11 9 35 -2 19 -8 35 -13 35
-5 0 -9 -16 -9 -35z"/>
<path d="M2178 2734 c3 -16 -1 -29 -9 -35 -7 -4 -10 -11 -6 -15 3 -4 13 -1 22
6 19 16 20 70 1 70 -9 0 -12 -8 -8 -26z"/>
<path d="M2657 2733 c-13 -13 -7 -53 8 -53 10 0 15 10 15 30 0 29 -9 38 -23
23z"/>
<path d="M2757 2712 c-6 -30 0 -45 14 -37 12 8 12 52 0 59 -5 3 -11 -7 -14
-22z"/>
<path d="M2516 2723 c-3 -3 -6 -17 -6 -31 0 -21 2 -22 15 -12 8 7 15 18 15 26
0 15 -15 26 -24 17z"/>
<path d="M6253 2585 c0 -33 2 -45 4 -27 2 18 2 45 0 60 -2 15 -4 0 -4 -33z"/>
<path d="M5730 2520 c0 -33 -3 -40 -20 -40 -24 0 -25 4 -4 35 14 21 14 25 2
25 -8 0 -19 -16 -25 -35 -11 -33 -10 -35 13 -35 30 0 30 -7 2 -38 -23 -26 -8
-21 25 6 15 14 19 13 40 -6 16 -15 27 -18 37 -12 13 8 13 10 -1 10 -9 0 -24 9
-34 20 -18 20 -17 20 14 20 18 0 30 4 27 9 -3 4 -17 6 -31 3 -23 -4 -25 -2
-25 37 0 22 -4 41 -10 41 -5 0 -10 -18 -10 -40z"/>
<path d="M5905 2529 c-9 -39 1 -50 15 -15 12 34 13 46 1 46 -5 0 -12 -14 -16
-31z"/>
<path d="M5070 2540 c0 -5 5 -10 10 -10 6 0 10 5 10 10 0 6 -4 10 -10 10 -5 0
-10 -4 -10 -10z"/>
<path d="M5832 2486 c3 -57 5 -63 18 -51 12 11 17 11 27 0 6 -7 9 -16 5 -20
-4 -4 3 -2 16 4 18 9 27 10 37 1 8 -7 19 -8 26 -4 8 5 7 9 -5 16 -20 11 -20
25 -1 62 17 33 15 39 -9 30 -9 -3 -16 -17 -16 -31 0 -16 -4 -22 -12 -17 -8 5
-9 0 -6 -14 4 -12 2 -25 -4 -28 -13 -8 -29 16 -20 30 6 11 4 77 -3 84 -6 6
-32 -21 -38 -39 -2 -8 -3 -2 -1 14 2 15 -1 27 -7 27 -6 0 -9 -24 -7 -64z"/>
<path d="M4765 2485 c0 -37 4 -55 12 -55 9 0 11 11 7 33 -5 30 -5 31 10 13 9
-11 16 -23 16 -28 0 -20 21 -5 34 25 l14 32 1 -37 c1 -23 6 -38 14 -38 8 0 12
18 12 55 0 66 -17 73 -41 18 l-16 -38 -19 38 c-28 54 -44 48 -44 -18z"/>
<path d="M5325 2485 l0 -55 37 0 c20 0 40 5 43 11 4 6 -4 9 -22 7 -23 -2 -29
1 -31 20 -3 20 0 23 17 17 12 -4 21 -2 21 4 0 6 -10 11 -21 11 -16 0 -20 5
-16 20 4 14 0 20 -11 20 -14 0 -17 -11 -17 -55z"/>
<path d="M5378 2533 c7 -3 16 -2 19 1 4 3 -2 6 -13 5 -11 0 -14 -3 -6 -6z"/>
<path d="M5108 2515 c-8 -9 6 -78 18 -82 6 -2 10 13 8 39 -2 39 -12 56 -26 43z"/>
<path d="M5502 2479 c4 -57 25 -63 22 -7 -1 23 -7 44 -14 46 -8 3 -10 -9 -8
-39z"/>
<path d="M5778 2513 c7 -3 16 -2 19 1 4 3 -2 6 -13 5 -11 0 -14 -3 -6 -6z"/>
<path d="M4912 2498 c-23 -23 -7 -68 24 -68 7 0 20 7 28 16 15 14 16 14 16 0
0 -9 7 -16 15 -16 11 0 13 7 9 29 -3 16 -2 31 4 35 13 8 24 -22 17 -45 -5 -13
-1 -19 10 -19 13 0 16 8 13 38 -3 34 -6 37 -35 39 -25 1 -33 -3 -33 -15 -1
-15 -2 -15 -11 1 -12 20 -40 22 -57 5z m38 -28 c0 -16 -4 -30 -9 -30 -12 0
-24 37 -16 50 12 20 25 10 25 -20z"/>
<path d="M5070 2470 c0 -22 5 -40 10 -40 6 0 10 18 10 40 0 22 -4 40 -10 40
-5 0 -10 -18 -10 -40z"/>
<path d="M5160 2495 c-15 -18 -10 -45 12 -59 14 -8 22 -6 39 10 17 18 19 25
10 43 -13 24 -43 28 -61 6z m40 -26 c0 -38 -24 -35 -28 4 -2 19 1 27 12 27 11
0 16 -10 16 -31z"/>
<path d="M5240 2470 c0 -22 5 -40 10 -40 6 0 10 12 10 26 0 15 8 33 18 40 15
12 14 13 -10 14 -26 0 -28 -3 -28 -40z"/>
<path d="M5420 2470 c0 -22 5 -40 10 -40 6 0 10 13 10 29 0 17 5 33 10 36 6 4
10 -9 10 -30 0 -25 4 -35 13 -32 7 2 11 16 8 33 -4 39 -8 44 -37 44 -21 0 -24
-4 -24 -40z"/>
<path d="M5552 2498 c-28 -28 1 -78 35 -62 16 7 15 8 -4 11 -17 3 -22 11 -21
29 3 26 13 32 21 12 2 -7 8 -10 12 -6 9 9 -3 28 -19 28 -6 0 -17 -5 -24 -12z"/>
<path d="M5610 2470 c0 -29 4 -40 15 -40 11 0 13 8 9 30 -5 23 -3 30 10 30 9
0 16 5 16 10 0 6 -11 10 -25 10 -22 0 -25 -4 -25 -40z"/>
<path d="M6242 2265 c-1 -137 -4 -308 -7 -380 -4 -116 -3 -122 6 -55 5 41 8
212 6 380 l-2 305 -3 -250z"/>
<path d="M5285 2440 c4 -6 11 -8 16 -5 14 9 11 15 -7 15 -8 0 -12 -5 -9 -10z"/>
<path d="M2669 2253 c-1 -5 -1 -11 0 -15 0 -5 -6 -8 -14 -8 -8 0 -15 -5 -15
-11 0 -6 7 -9 15 -5 12 4 15 -3 15 -32 0 -21 -5 -43 -12 -50 -9 -9 -7 -12 10
-12 21 0 22 5 22 70 0 40 -4 70 -10 70 -5 0 -11 -3 -11 -7z"/>
<path d="M2789 2233 c-3 -81 -4 -88 -29 -101 -25 -14 -25 -14 7 -8 36 6 83 33
83 47 0 13 -14 11 -28 -3 -9 -9 -12 -4 -12 25 0 31 4 37 21 37 11 0 18 4 14
10 -3 5 -12 7 -20 3 -8 -3 -15 0 -15 6 0 25 -20 9 -21 -16z"/>
<path d="M2953 2218 c-3 -24 -8 -37 -11 -30 -6 18 -20 15 -25 -5 -4 -14 -5
-14 -6 3 0 12 6 27 14 34 23 19 18 30 -15 30 l-30 0 0 -65 c0 -62 1 -65 24
-65 15 0 34 12 50 31 22 26 26 27 26 11 0 -19 26 -49 35 -40 3 2 -4 22 -15 43
-11 22 -20 52 -20 67 0 43 -19 33 -27 -14z m-28 -67 c3 -5 1 -12 -5 -16 -5 -3
-10 1 -10 9 0 18 6 21 15 7z"/>
<path d="M3085 2252 c-11 -4 -21 -11 -21 -17 -1 -5 -5 -21 -9 -34 -4 -15 -3
-21 3 -17 16 10 22 -22 6 -35 -8 -6 -12 -14 -9 -17 8 -8 55 40 56 57 0 10 4 8
9 -6 14 -34 30 -28 30 11 0 35 -13 55 -25 36 -8 -13 -35 -13 -35 0 0 6 7 10
15 10 8 0 15 5 15 10 0 11 -5 11 -35 2z"/>
<path d="M3160 2201 c0 -38 -4 -61 -12 -64 -7 -2 -10 -8 -6 -12 4 -4 14 -5 23
-2 11 5 15 22 15 72 0 37 -4 65 -10 65 -6 0 -10 -26 -10 -59z"/>
<path d="M2560 2185 c0 -51 3 -65 15 -65 8 0 15 7 15 15 0 8 6 14 13 13 7 -2
13 9 15 25 2 19 -1 27 -12 27 -10 0 -16 9 -16 25 0 16 -6 25 -15 25 -12 0 -15
-14 -15 -65z"/>
<path d="M2748 2225 c-4 -17 -1 -25 8 -25 8 0 14 11 14 25 0 14 -4 25 -9 25
-5 0 -11 -11 -13 -25z"/>
<path d="M2840 2210 c-12 -8 -10 -10 8 -10 13 0 20 4 17 10 -7 12 -6 12 -25 0z"/>
<path d="M2633 2175 c0 -15 5 -25 13 -25 8 0 14 10 14 25 0 15 -6 25 -14 25
-8 0 -13 -10 -13 -25z"/>
<path d="M2742 2170 c-7 -11 -9 -20 -4 -20 10 0 32 22 32 32 0 15 -15 8 -28
-12z"/>
<path d="M2226 2045 c-5 -14 29 -55 46 -55 4 0 8 -7 8 -16 0 -12 -6 -15 -25
-10 -15 4 -25 2 -25 -4 0 -7 14 -10 33 -8 46 4 50 41 7 63 -32 17 -31 40 1 32
11 -3 19 -1 19 4 0 15 -57 10 -64 -6z"/>
<path d="M2548 2005 c4 -57 22 -78 22 -25 0 17 5 30 10 30 6 0 10 -13 10 -30
0 -27 3 -30 33 -30 32 0 33 2 29 30 -3 22 0 30 11 30 10 0 17 -11 19 -27 4
-34 32 -42 60 -16 20 17 21 17 15 1 -4 -12 -1 -18 8 -18 10 0 15 10 15 30 0
17 5 30 10 30 6 0 10 -13 10 -30 0 -18 5 -30 13 -30 10 0 12 10 8 38 -6 33 -9
37 -36 36 -20 0 -29 -5 -27 -15 3 -10 -1 -10 -15 2 -12 11 -34 16 -63 15 -43
-2 -45 -4 -48 -34 -4 -42 -20 -41 -24 1 -2 23 -8 32 -20 31 -11 -1 -18 5 -18
17 0 11 -6 19 -12 19 -9 0 -12 -16 -10 -55z m180 -19 c3 -20 0 -27 -10 -24 -7
3 -14 17 -16 32 -3 20 0 27 10 24 7 -3 14 -17 16 -32z"/>
<path d="M3070 2047 c0 -22 -38 -39 -59 -25 -25 15 -51 -4 -51 -39 0 -28 25
-41 51 -25 11 7 20 8 24 2 3 -6 20 -10 37 -10 23 0 29 4 24 16 -3 9 -6 33 -6
55 0 21 -4 39 -10 39 -5 0 -10 -6 -10 -13z m-75 -37 c-3 -5 1 -10 9 -10 9 0
16 -7 16 -15 0 -8 -9 -15 -20 -15 -15 0 -20 7 -20 25 0 14 5 25 11 25 5 0 7
-4 4 -10z m75 -21 c0 -17 -4 -28 -10 -24 -5 3 -10 17 -10 31 0 13 5 24 10 24
6 0 10 -14 10 -31z"/>
<path d="M3122 2048 c-23 -23 -14 -73 16 -94 36 -27 69 -39 55 -22 -7 9 -3 23
14 47 l23 34 0 -32 c0 -28 3 -31 30 -31 28 0 30 3 30 34 0 19 -4 38 -10 41 -6
4 -10 -6 -10 -24 0 -16 -4 -33 -10 -36 -6 -4 -10 7 -10 24 0 19 -5 31 -13 31
-8 0 -22 9 -32 20 -20 22 -64 27 -83 8z m63 -43 c0 -33 -4 -41 -22 -43 -25 -4
-38 26 -29 64 5 19 12 25 29 22 18 -3 22 -9 22 -43z"/>
<path d="M2318 2025 c-4 -4 2 -21 13 -38 19 -32 19 -32 -4 -49 -19 -15 -20
-18 -4 -18 12 0 24 16 37 46 22 51 27 86 5 39 -7 -16 -14 -25 -14 -19 -1 17
-26 46 -33 39z"/>
<path d="M2405 2022 c-9 -10 -5 -72 5 -72 6 0 10 14 10 30 0 17 5 30 10 30 6
0 10 -13 10 -30 0 -18 5 -30 13 -30 10 0 12 10 8 38 -5 29 -11 37 -28 38 -13
1 -25 -1 -28 -4z"/>
<path d="M2492 2018 c-17 -17 -15 -57 3 -64 8 -4 23 -3 33 2 15 7 14 8 -5 11
-17 3 -23 11 -23 29 0 27 9 30 29 12 11 -11 13 -10 9 2 -6 20 -30 24 -46 8z"/>
<path d="M2846 2023 c-3 -3 -6 -21 -6 -40 0 -23 5 -33 15 -33 10 0 15 10 15
34 0 34 -11 52 -24 39z"/>
<path d="M2884 2019 c-4 -8 1 -9 16 -4 19 6 21 5 11 -13 -6 -12 -16 -24 -21
-27 -22 -13 -8 -25 28 -24 23 1 28 3 15 6 -27 5 -29 16 -8 33 8 7 15 19 15 26
0 17 -46 19 -56 3z"/>
<path d="M3336 2015 c4 -8 12 -15 20 -15 19 0 18 16 -2 24 -22 9 -24 8 -18 -9z"/>
<path d="M3420 1996 c0 -20 -4 -36 -10 -36 -5 0 -10 14 -10 30 0 17 -4 30 -10
30 -5 0 -10 -16 -10 -35 0 -32 2 -35 30 -35 28 0 30 3 30 34 0 19 -4 38 -10
41 -6 4 -10 -8 -10 -29z"/>
<path d="M3466 2014 c-19 -19 -20 -36 -4 -52 15 -15 48 -16 48 -2 0 6 -6 10
-14 10 -21 0 -29 17 -17 37 6 10 11 12 11 6 0 -15 30 -18 30 -4 0 7 -23 21
-35 21 -2 0 -11 -7 -19 -16z"/>
<path d="M3303 2004 c-8 -22 9 -48 36 -52 27 -4 28 14 0 21 -14 4 -20 11 -16
21 3 8 2 18 -4 21 -5 4 -12 -1 -16 -11z"/>
<path d="M6211 1638 c-32 -261 -120 -522 -222 -663 -64 -88 -152 -166 -234
-206 -105 -52 -358 -113 -695 -168 -308 -50 -750 -101 -750 -87 0 3 14 13 31
21 17 9 28 19 25 22 -3 3 -23 -6 -45 -20 l-40 -26 -16 57 c-29 98 -105 177
-215 224 l-55 23 -1044 3 c-1154 3 -1110 5 -1220 -61 -60 -36 -113 -94 -137
-153 l-17 -39 -55 115 c-30 63 -81 174 -113 245 -32 72 -59 123 -59 114 0 -19
93 -226 170 -379 45 -89 54 -115 56 -170 7 -122 73 -212 203 -274 l66 -31
1080 0 1080 0 58 27 c115 54 171 116 202 221 l16 56 41 -15 c48 -17 48 -17 48
-5 0 5 -15 12 -32 16 -24 5 21 13 172 30 231 26 380 46 555 76 66 11 145 24
175 29 104 18 335 71 415 95 99 30 165 68 239 136 142 130 241 331 299 614 24
113 44 275 35 275 -2 0 -10 -46 -17 -102z m-2171 -855 c173 -71 256 -224 204
-376 -32 -94 -143 -180 -264 -206 -41 -9 -323 -11 -1090 -9 l-1035 3 -58 24
c-266 111 -279 430 -21 548 29 13 72 28 96 32 24 5 509 8 1078 8 l1035 -2 55
-22z"/>
<path d="M2623 644 c-11 -23 -1 -35 12 -14 3 5 12 7 20 3 8 -3 15 -1 15 5 0 6
9 8 20 5 11 -3 20 -12 20 -19 0 -8 7 -14 15 -14 9 0 12 6 8 16 -3 9 0 20 8 25
12 7 12 9 -1 10 -106 7 -106 7 -117 -17z"/>
<path d="M2780 649 c-11 -19 -10 -20 9 -9 12 6 21 15 21 20 0 18 -19 11 -30
-11z"/>
<path d="M2840 640 c0 -16 5 -30 11 -30 6 0 9 -16 8 -37 -3 -42 14 -62 19 -23
2 13 11 30 20 37 14 10 15 12 2 13 -13 0 -13 1 0 10 12 8 9 10 -12 10 -34 0
-37 17 -5 23 l22 4 -23 2 c-13 0 -20 6 -17 11 3 6 -1 10 -9 10 -11 0 -16 -9
-16 -30z"/>
<path d="M3010 651 c0 -31 -11 -50 -25 -45 -7 3 -15 -3 -18 -13 -4 -14 -5 -14
-6 5 0 12 2 22 7 22 4 0 13 9 20 20 11 18 10 20 -18 20 l-30 0 0 -65 c0 -37 4
-65 10 -65 6 0 10 8 10 18 0 10 7 19 14 19 11 0 13 -5 5 -18 -7 -14 -6 -17 4
-13 8 3 20 16 27 30 l14 24 12 -30 c7 -16 18 -30 24 -30 14 0 13 5 -10 50 -11
22 -20 51 -20 65 0 14 -4 25 -10 25 -5 0 -10 -9 -10 -19z"/>
<path d="M3144 663 c-28 -5 -49 -69 -26 -78 12 -4 13 -8 4 -17 -17 -17 -15
-28 3 -21 16 5 45 53 45 73 0 5 -7 10 -15 10 -8 0 -15 5 -15 10 0 6 6 10 14
10 8 0 18 5 21 10 3 6 3 9 -2 9 -4 -1 -17 -4 -29 -6z"/>
<path d="M3210 616 c0 -30 -3 -61 -6 -70 -4 -11 -1 -16 10 -16 13 0 16 12 16
70 0 40 -4 70 -10 70 -5 0 -10 -24 -10 -54z"/>
<path d="M3180 611 c0 -23 5 -41 10 -41 6 0 10 15 10 34 0 19 -4 38 -10 41 -6
4 -10 -10 -10 -34z"/>
<path d="M2788 623 c-10 -12 -14 -31 -11 -55 6 -48 23 -50 23 -2 0 19 5 44 10
55 13 24 -2 25 -22 2z"/>
<path d="M2666 622 c-2 -4 0 -14 5 -22 8 -13 10 -13 18 0 10 15 6 30 -9 30 -5
0 -11 -4 -14 -8z"/>
<path d="M2738 593 c7 -3 16 -2 19 1 4 3 -2 6 -13 5 -11 0 -14 -3 -6 -6z"/>
<path d="M2699 588 c-1 -2 -2 -18 -4 -36 -3 -37 18 -40 23 -4 2 12 11 22 20
23 14 0 13 2 -3 9 -21 9 -34 12 -36 8z"/>
<path d="M2820 570 c0 -13 18 -22 24 -11 3 5 -1 11 -9 15 -8 3 -15 1 -15 -4z"/>
<path d="M2650 555 c7 -8 16 -15 21 -15 5 0 6 7 3 15 -4 8 -13 15 -21 15 -13
0 -13 -3 -3 -15z"/>
<path d="M2576 448 c3 -13 13 -39 21 -58 14 -34 15 -34 25 -13 8 17 7 26 -6
38 -9 9 -16 25 -16 36 0 11 -7 19 -16 19 -11 0 -14 -6 -8 -22z"/>
<path d="M2625 448 c4 -13 14 -39 22 -58 16 -34 16 -34 26 -12 8 17 7 26 0 30
-6 4 -15 20 -18 35 -4 15 -14 27 -22 27 -10 0 -12 -6 -8 -22z"/>
<path d="M2686 455 c4 -8 7 -15 9 -15 2 0 5 7 9 15 3 9 0 15 -9 15 -9 0 -12
-6 -9 -15z"/>
<path d="M2876 447 c-20 -29 -11 -59 22 -84 35 -26 69 -38 54 -21 -7 9 -5 19
8 36 22 27 30 28 30 2 0 -16 7 -20 30 -20 28 0 30 3 30 34 0 19 -4 38 -10 41
-6 4 -10 -6 -10 -24 0 -39 -18 -49 -26 -15 -16 64 -99 97 -128 51z m69 -32 c0
-33 -4 -41 -22 -43 -25 -4 -38 26 -29 64 5 19 12 25 29 22 18 -3 22 -9 22 -43z"/>
<path d="M2827 443 c-8 -15 5 -83 17 -83 7 0 10 16 8 45 -4 41 -14 57 -25 38z"/>
<path d="M2711 431 c-9 -6 -10 -11 -2 -15 6 -4 11 -2 11 3 0 6 4 11 9 11 5 0
9 -11 9 -25 0 -14 -4 -28 -9 -31 -5 -3 -9 3 -9 12 0 13 -3 15 -11 7 -16 -16
-2 -33 27 -33 23 0 25 3 22 37 -3 39 -20 51 -47 34z"/>
<path d="M2786 433 c-3 -3 -6 -21 -6 -40 0 -23 5 -33 15 -33 10 0 15 10 15 34
0 34 -11 52 -24 39z"/>
<path d="M3072 428 c-28 -28 0 -77 35 -63 16 6 16 8 -4 15 -14 6 -21 17 -20
29 1 21 17 30 17 11 0 -5 9 -10 20 -10 15 0 20 -7 20 -25 0 -21 5 -25 30 -25
28 0 30 3 30 34 0 19 -4 38 -10 41 -6 4 -10 -6 -10 -24 0 -16 -4 -33 -10 -36
-10 -6 -14 6 -10 39 1 14 -3 18 -19 13 -12 -3 -24 -1 -27 4 -7 13 -28 11 -42
-3z"/>
<path d="M3222 428 c-28 -28 0 -77 35 -63 16 6 16 8 -4 15 -14 6 -21 17 -20
29 1 21 17 30 17 11 0 -5 7 -10 16 -10 14 0 14 3 4 15 -15 18 -32 19 -48 3z"/>
<path d="M2060 1291 c0 -16 -6 -21 -25 -21 -24 0 -25 -3 -25 -55 0 -30 5 -55
10 -55 6 0 10 23 10 51 0 36 4 49 13 46 7 -2 11 -20 11 -45 -1 -30 2 -42 12
-42 10 0 14 13 14 45 0 32 4 45 14 45 11 0 14 -11 13 -42 -1 -24 3 -45 8 -48
6 -3 11 17 13 48 3 50 2 52 -22 52 -16 0 -26 6 -26 14 0 8 -4 18 -10 21 -5 3
-10 -3 -10 -14z"/>
<path d="M2389 1295 c-1 -11 -2 -27 -3 -35 0 -8 2 -17 6 -20 13 -10 17 -60 5
-60 -8 0 -8 -3 0 -11 16 -16 33 -2 33 27 0 13 6 24 13 24 8 0 7 4 -3 10 -10 6
-11 10 -2 10 6 0 12 4 12 9 0 5 -9 7 -20 4 -11 -3 -20 0 -20 6 0 6 7 11 15 11
8 0 15 5 15 11 0 6 -6 9 -12 6 -7 -2 -18 3 -25 12 -11 14 -13 14 -14 -4z"/>
<path d="M3038 1290 c-7 -11 -19 -20 -27 -20 -11 0 -11 3 -1 15 10 12 10 15
-1 14 -20 -1 -57 -17 -41 -18 12 -1 11 -28 -3 -63 -4 -11 -3 -18 4 -18 6 0 11
-9 11 -20 0 -11 5 -20 10 -20 6 0 10 12 10 26 0 20 4 25 16 20 9 -3 20 -6 25
-6 17 0 9 -17 -13 -28 -18 -8 -19 -11 -6 -11 23 -1 86 55 75 66 -5 4 -15 0
-22 -10 -8 -12 -15 -14 -20 -8 -3 6 -1 11 4 11 6 0 11 6 11 14 0 7 7 19 15 26
8 7 15 16 15 21 0 5 -7 9 -15 9 -8 0 -15 -4 -15 -10 0 -5 -4 -10 -9 -10 -5 0
-7 9 -4 20 3 11 3 20 -1 20 -3 0 -11 -9 -18 -20z m5 -42 c-4 -7 -8 -16 -9 -20
-1 -5 -2 -11 -3 -15 0 -4 -7 2 -15 13 -11 14 -11 21 -3 26 20 12 39 9 30 -4z"/>
<path d="M3507 1304 c-4 -4 -7 -33 -7 -65 0 -53 -2 -58 -27 -68 -28 -11 -28
-11 5 -6 40 6 95 42 86 56 -4 6 -14 3 -25 -7 -19 -17 -19 -16 -17 19 3 31 7
37 26 37 14 0 21 4 17 11 -4 5 -12 8 -18 6 -7 -2 -17 3 -22 10 -6 8 -14 11
-18 7z"/>
<path d="M2169 1278 c-13 -24 -11 -32 4 -19 8 6 17 8 21 4 4 -4 11 -1 15 6 7
10 13 11 30 2 12 -7 19 -16 16 -22 -4 -5 1 -9 9 -9 9 0 16 -4 16 -10 0 -5 5
-10 10 -10 6 0 3 12 -7 27 -13 19 -14 28 -5 31 28 9 8 17 -44 17 -42 0 -58 -4
-65 -17z"/>
<path d="M2323 1280 c-11 -17 -10 -18 4 -13 15 6 15 4 2 -15 -9 -12 -13 -35
-11 -56 5 -47 22 -47 22 0 0 19 5 44 10 55 8 14 7 19 -1 19 -8 0 -8 4 1 15 10
12 10 15 -1 15 -8 0 -20 -9 -26 -20z"/>
<path d="M2480 1231 c0 -41 4 -71 10 -71 6 0 10 9 10 20 0 11 7 20 15 20 18 0
19 -12 3 -29 -10 -10 -8 -10 10 0 12 8 25 23 29 34 6 18 7 17 15 -7 6 -18 17
-28 30 -28 19 0 19 0 -1 27 -12 14 -24 43 -27 65 -9 51 -24 49 -24 -4 0 -39
-1 -41 -16 -26 -13 12 -14 20 -5 36 7 14 8 23 1 27 -14 8 -23 -20 -17 -50 2
-14 0 -28 -4 -31 -5 -3 -9 13 -9 35 0 22 -4 43 -10 46 -6 4 -10 -20 -10 -64z"/>
<path d="M2679 1293 c-10 -2 -19 -12 -22 -21 -3 -9 -8 -26 -13 -36 -5 -13 -4
-17 3 -13 18 11 22 -16 5 -35 -8 -10 -11 -18 -5 -18 12 0 48 39 58 65 8 18 9
17 13 -7 5 -43 22 -33 22 12 0 22 -4 40 -10 40 -5 0 -10 -4 -10 -10 0 -5 -9
-10 -20 -10 -27 0 -25 18 3 30 22 9 6 11 -24 3z"/>
<path d="M2750 1240 c0 -40 -4 -60 -12 -60 -9 0 -9 -3 -1 -11 6 -6 16 -8 22
-5 14 9 15 136 1 136 -6 0 -10 -27 -10 -60z"/>
<path d="M2806 1286 c3 -9 11 -16 16 -16 13 0 5 23 -10 28 -7 2 -10 -2 -6 -12z"/>
<path d="M2875 1294 c-6 -2 -8 -29 -7 -60 4 -50 2 -55 -15 -52 -12 2 -19 14
-21 36 -2 18 -9 32 -16 32 -9 0 -12 -9 -8 -27 3 -18 -1 -30 -13 -39 -16 -12
-15 -13 11 -13 16 0 48 -3 70 -7 26 -4 44 -2 48 5 4 7 -1 11 -13 11 -17 0 -21
6 -21 30 0 23 4 30 20 30 11 0 20 4 20 9 0 5 -9 7 -20 4 -26 -7 -27 22 -2 36
16 10 15 10 -3 10 -11 0 -24 -2 -30 -5z"/>
<path d="M3230 1290 c0 -5 5 -10 10 -10 6 0 10 5 10 10 0 6 -4 10 -10 10 -5 0
-10 -4 -10 -10z"/>
<path d="M3280 1230 c0 -40 4 -70 10 -70 6 0 10 23 10 50 l0 50 41 0 42 0 -5
-50 c-4 -43 -3 -50 11 -48 23 5 30 138 6 138 -8 0 -15 -7 -15 -15 0 -11 -11
-15 -40 -15 -29 0 -40 4 -40 15 0 8 -4 15 -10 15 -6 0 -10 -30 -10 -70z"/>
<path d="M3623 1292 c-21 -3 -23 -9 -23 -68 0 -36 4 -64 10 -64 6 0 10 9 10
20 0 11 7 20 15 20 9 0 12 -6 9 -15 -10 -26 15 -17 29 11 l13 25 12 -25 c6
-14 18 -26 26 -26 12 0 11 7 -6 37 -12 20 -21 49 -20 65 3 41 -26 37 -30 -4
-2 -26 -7 -32 -22 -30 -10 2 -15 -1 -12 -7 4 -5 2 -12 -4 -16 -5 -3 -9 9 -8
32 1 21 3 32 6 25 5 -16 19 -15 25 3 7 18 -1 22 -30 17z"/>
<path d="M3800 1294 c-8 -3 -20 -20 -26 -39 -6 -19 -7 -32 -3 -30 12 8 17 -19
7 -38 -8 -17 -7 -17 12 -7 12 6 28 26 35 43 l14 32 1 -27 c0 -16 5 -28 10 -28
6 0 10 18 10 40 0 22 -4 40 -10 40 -5 0 -10 -4 -10 -10 0 -5 -9 -10 -20 -10
-27 0 -25 18 3 30 22 9 6 11 -23 4z m10 -54 c0 -5 -4 -10 -10 -10 -5 0 -10 5
-10 10 0 6 5 10 10 10 6 0 10 -4 10 -10z"/>
<path d="M3870 1246 c0 -30 -3 -61 -6 -70 -4 -11 -1 -16 10 -16 13 0 16 12 16
70 0 40 -4 70 -10 70 -5 0 -10 -24 -10 -54z"/>
<path d="M3143 1264 c-23 -24 -17 -39 11 -28 13 5 16 -1 16 -30 0 -23 5 -36
13 -36 8 0 13 9 11 23 -1 12 -3 30 -3 40 -1 9 -9 17 -18 17 -17 1 -17 1 0 14
9 7 17 16 17 20 0 13 -26 3 -47 -20z"/>
<path d="M3467 1283 c-13 -12 -7 -43 8 -43 9 0 15 9 15 25 0 24 -10 32 -23 18z"/>
<path d="M2213 1259 c-14 -14 -6 -39 12 -39 9 0 12 8 10 21 -6 28 -9 31 -22
18z"/>
<path d="M3203 1256 c0 -8 9 -17 19 -19 21 -6 23 4 6 21 -16 16 -25 15 -25 -2z"/>
<path d="M3555 1250 c-3 -5 1 -10 9 -10 9 0 16 5 16 10 0 6 -4 10 -9 10 -6 0
-13 -4 -16 -10z"/>
<path d="M3316 1243 c-3 -3 -6 -16 -6 -28 0 -17 6 -22 30 -22 25 0 30 4 30 24
0 13 -4 23 -10 23 -5 0 -10 -7 -10 -15 0 -8 -5 -15 -11 -15 -6 0 -9 7 -6 15 7
15 -6 29 -17 18z"/>
<path d="M2246 1221 c-4 -6 -23 -11 -42 -11 l-34 0 20 -20 c24 -24 34 -26 26
-5 -3 9 0 15 10 15 9 0 14 -7 12 -17 -1 -10 2 -20 7 -23 6 -3 11 5 13 18 2 12
11 22 20 23 14 0 14 2 2 6 -8 3 -18 10 -21 16 -4 5 -9 5 -13 -2z"/>
<path d="M3462 1218 c-19 -19 -14 -29 8 -16 20 13 27 28 12 28 -4 0 -13 -5
-20 -12z"/>
<path d="M2366 1205 c4 -8 11 -15 16 -15 6 0 5 6 -2 15 -7 8 -14 15 -16 15 -2
0 -1 -7 2 -15z"/>
<path d="M3210 1210 c0 -5 5 -10 10 -10 6 0 10 5 10 10 0 6 -4 10 -10 10 -5 0
-10 -4 -10 -10z"/>
<path d="M6313 1183 c21 -24 23 -81 2 -89 -36 -14 -62 55 -33 84 7 7 8 12 2
12 -18 0 -34 -24 -34 -52 0 -55 75 -74 101 -26 16 29 4 63 -28 77 -27 12 -27
12 -10 -6z"/>
<path d="M6369 1195 c-9 -8 6 -109 17 -112 6 -2 8 10 6 33 -3 26 -1 35 7 30 6
-4 11 -19 11 -34 1 -26 1 -26 15 -8 16 22 4 56 -20 56 -8 0 -15 6 -15 14 0 15
-14 29 -21 21z"/>
<path d="M6455 1190 c-3 -5 -1 -10 4 -10 6 0 11 5 11 10 0 6 -2 10 -4 10 -3 0
-8 -4 -11 -10z"/>
<path d="M6915 1190 c-3 -5 -1 -10 4 -10 6 0 11 5 11 10 0 6 -2 10 -4 10 -3 0
-8 -4 -11 -10z"/>
<path d="M7010 1175 c-16 -19 -15 -84 2 -101 11 -11 13 -3 13 51 0 36 -1 65
-1 65 -1 0 -7 -7 -14 -15z"/>
<path d="M7065 1120 c0 -51 2 -58 13 -43 13 18 16 61 6 87 -12 31 -19 15 -19
-44z"/>
<path d="M6638 1165 c-8 -8 7 -80 16 -77 13 3 12 75 0 79 -6 2 -13 1 -16 -2z"/>
<path d="M6956 1161 c-7 -11 4 -70 13 -75 4 -3 8 15 9 40 1 40 -9 57 -22 35z"/>
<path d="M6450 1109 c0 -31 -4 -48 -10 -44 -5 3 -10 1 -10 -5 0 -6 8 -10 18
-8 13 2 18 15 20 56 2 32 -1 52 -7 52 -6 0 -11 -22 -11 -51z"/>
<path d="M6502 1148 c-27 -27 -2 -75 33 -61 17 6 16 7 -3 14 -13 5 -20 16 -19
28 1 21 17 30 17 11 0 -5 7 -10 15 -10 8 0 15 -9 15 -19 0 -22 29 -36 44 -21
7 7 5 10 -6 10 -9 0 -18 6 -21 13 -8 22 8 38 29 31 15 -6 17 -4 7 6 -10 11
-18 11 -37 2 -16 -7 -28 -8 -31 -2 -8 14 -29 12 -43 -2z"/>
<path d="M6720 1150 c0 -16 23 -60 32 -60 11 0 10 11 -4 43 -13 26 -28 36 -28
17z"/>
<path d="M6760 1143 c1 -18 22 -53 32 -53 3 0 8 9 11 20 3 11 1 18 -3 15 -5
-3 -11 4 -15 15 -8 25 -25 26 -25 3z"/>
<path d="M6835 1150 c-5 -9 0 -10 16 -6 l24 7 -24 -20 c-26 -23 -22 -57 5 -47
9 3 20 6 25 6 6 0 9 15 7 33 -2 24 -8 33 -25 35 -11 2 -24 -2 -28 -8z m35 -40
c0 -5 -4 -10 -10 -10 -5 0 -10 5 -10 10 0 6 5 10 10 10 6 0 10 -4 10 -10z"/>
<path d="M6910 1127 c0 -34 7 -50 19 -42 10 6 0 75 -10 75 -5 0 -9 -15 -9 -33z"/>
<path d="M6685 1090 c3 -5 8 -10 11 -10 2 0 4 5 4 10 0 6 -5 10 -11 10 -5 0
-7 -4 -4 -10z"/>
<path d="M1341 1074 c0 -11 3 -14 6 -6 3 7 2 16 -1 19 -3 4 -6 -2 -5 -13z"/>
</g>
</svg>
