<?xml version="1.0" standalone="no"?>
<!DOCTYPE svg PUBLIC "-//W3C//DTD SVG 20010904//EN"
 "http://www.w3.org/TR/2001/REC-SVG-20010904/DTD/svg10.dtd">
<svg version="1.0" xmlns="http://www.w3.org/2000/svg"
 width="807.000000pt" height="550.000000pt" viewBox="0 0 807.000000 550.000000"
 preserveAspectRatio="xMidYMid meet">

<g transform="translate(0.000000,550.000000) scale(0.100000,-0.100000)"
fill="#000000" stroke="none">
<path d="M3793 5361 c-96 -60 -77 -192 34 -229 45 -15 95 1 132 44 45 50 44
110 -2 160 -28 31 -41 37 -83 41 -37 3 -57 -1 -81 -16z"/>
<path d="M3996 5056 c5 -14 0 -23 -34 -61 -11 -13 -10 -15 7 -15 26 0 27 -15
4 -29 -10 -6 -13 -11 -5 -11 7 0 21 6 32 12 15 10 22 10 32 0 14 -14 28 -16
28 -3 0 5 -10 13 -22 17 -22 8 -22 8 7 15 l30 7 -28 1 c-22 1 -27 5 -26 24 4
41 -1 57 -16 57 -8 0 -12 -6 -9 -14z"/>
<path d="M4111 5046 c-10 -25 -3 -106 9 -106 4 0 8 6 7 13 -1 33 4 48 14 41 6
-3 8 -16 5 -28 l-5 -21 17 21 c15 17 20 18 30 8 7 -7 11 -17 10 -21 -2 -4 2
-10 7 -13 6 -3 11 23 13 65 l3 70 -21 -23 c-11 -12 -26 -22 -33 -22 -7 0 -3 8
8 16 20 15 19 15 -5 12 -17 -2 -26 -10 -28 -25 -2 -13 -8 -23 -13 -23 -12 0
-12 27 1 35 13 8 13 25 0 25 -6 0 -15 -11 -19 -24z"/>
<path d="M4258 5030 c-9 -22 -12 -38 -7 -35 5 4 9 -8 9 -24 0 -29 20 -46 20
-18 1 6 2 36 4 65 2 28 0 52 -3 52 -3 0 -14 -18 -23 -40z"/>
<path d="M4309 5028 c-7 -73 -1 -88 31 -88 16 0 32 5 36 11 4 7 -2 9 -17 7
-33 -4 -37 27 -8 58 22 24 14 35 -9 12 -9 -9 -12 -6 -12 15 0 44 -18 31 -21
-15z"/>
<path d="M3950 5035 c-8 -9 -8 -15 -2 -15 12 0 26 19 19 26 -2 2 -10 -2 -17
-11z"/>
<path d="M4045 5040 c4 -6 11 -8 16 -5 14 9 11 15 -7 15 -8 0 -12 -5 -9 -10z"/>
<path d="M3821 4943 c-1 -6 8 -33 20 -60 l21 -48 12 30 c7 17 16 44 19 60 l7
30 -15 -27 c-9 -16 -21 -28 -28 -28 -7 0 -18 12 -24 28 -6 15 -11 22 -12 15z"/>
<path d="M3585 4807 c-39 -22 -99 -107 -76 -107 6 0 11 6 11 14 0 23 51 78 87
92 41 17 466 20 510 3 35 -13 82 -57 94 -88 5 -13 12 -21 15 -18 11 10 -27 66
-63 94 l-36 28 -251 3 c-246 2 -252 2 -291 -21z"/>
<path d="M3740 4795 c0 -5 4 -17 9 -24 6 -8 6 -22 1 -31 -10 -18 -2 -70 11
-70 5 0 9 9 9 20 0 11 5 20 11 20 6 0 8 -9 4 -22 -7 -22 -6 -22 10 -6 10 9 22
34 26 55 8 35 8 34 5 -14 -2 -40 0 -53 10 -53 10 0 14 14 14 44 0 24 3 51 6
60 4 11 -2 15 -25 14 -28 -1 -31 -4 -31 -35 0 -18 -4 -33 -10 -33 -5 0 -7 6
-4 13 2 7 -7 26 -21 43 -14 16 -25 25 -25 19z"/>
<path d="M3884 4763 c-4 -21 -2 -43 4 -53 6 -11 7 -21 1 -27 -5 -5 6 -9 30
-10 36 -2 38 0 37 28 -1 33 -10 37 -26 12 -11 -17 -11 -17 -6 0 3 10 6 21 6
23 0 2 15 4 33 4 17 0 28 -4 22 -8 -13 -9 -13 -53 0 -49 6 1 9 5 8 9 -2 4 1
18 7 32 6 18 5 28 -6 36 -10 9 -14 9 -14 1 0 -6 -8 -11 -17 -11 -13 0 -14 3
-5 12 14 14 16 38 3 38 -5 0 -11 -9 -14 -20 -6 -23 -37 -17 -37 6 0 29 -19 12
-26 -23z m23 -35 c-3 -8 -6 -5 -6 6 -1 11 2 17 5 13 3 -3 4 -12 1 -19z"/>
<path d="M4220 4615 c0 -48 4 -74 10 -70 6 3 10 35 10 70 0 35 -4 67 -10 70
-6 4 -10 -22 -10 -70z"/>
<path d="M3700 4582 c0 -10 74 -92 83 -92 4 0 7 23 7 51 0 27 -4 48 -9 45 -4
-3 -6 -17 -3 -31 6 -33 -4 -32 -35 5 -24 29 -43 39 -43 22z"/>
<path d="M3817 4583 c-4 -3 -7 -28 -7 -55 l0 -48 34 0 c19 0 38 5 42 11 4 8
-1 9 -16 4 -15 -5 -25 -2 -31 6 -14 22 -11 29 14 30 16 1 18 2 5 6 -10 2 -19
9 -19 14 -1 5 -2 13 -3 18 -2 14 -12 22 -19 14z"/>
<path d="M3860 4580 c0 -5 5 -10 11 -10 5 0 7 5 4 10 -3 6 -8 10 -11 10 -2 0
-4 -4 -4 -10z"/>
<path d="M3900 4580 c0 -19 32 -90 41 -90 14 0 11 19 -8 61 -17 37 -33 51 -33
29z"/>
<path d="M3950 4563 c0 -32 34 -81 44 -65 3 5 -1 23 -9 38 -8 16 -15 35 -15
42 0 6 -4 12 -10 12 -5 0 -10 -12 -10 -27z"/>
<path d="M4005 4581 c-3 -5 -1 -12 5 -16 5 -3 10 1 10 9 0 18 -6 21 -15 7z"/>
<path d="M3656 4554 c-10 -26 -7 -61 7 -72 9 -8 12 1 12 39 0 49 -8 63 -19 33z"/>
<path d="M4051 4520 c0 -51 1 -53 14 -36 8 11 15 27 15 36 0 9 -7 25 -15 36
-13 17 -14 15 -14 -36z"/>
<path d="M3711 4524 c0 -11 3 -14 6 -6 3 7 2 16 -1 19 -3 4 -6 -2 -5 -13z"/>
<path d="M3522 4488 c14 -25 39 -52 63 -65 38 -22 49 -23 277 -23 245 0 274 4
316 43 26 24 56 76 49 83 -3 3 -13 -12 -24 -33 -13 -25 -34 -46 -63 -60 -42
-22 -56 -23 -272 -23 -171 0 -237 3 -261 14 -36 14 -87 69 -87 92 0 8 -5 14
-11 14 -6 0 0 -19 13 -42z"/>
<path d="M3710 4490 c0 -5 5 -10 11 -10 5 0 7 5 4 10 -3 6 -8 10 -11 10 -2 0
-4 -4 -4 -10z"/>
<path d="M4973 4293 c16 -4 18 -13 15 -49 -2 -31 1 -44 9 -44 9 0 13 16 13 45
0 38 3 45 20 45 17 0 20 -7 20 -45 0 -31 4 -45 14 -45 9 0 12 8 9 24 -3 13 0
27 6 30 7 5 11 -4 11 -23 0 -27 3 -31 29 -31 25 0 28 3 23 25 -3 19 0 25 12
25 10 0 14 -5 11 -10 -10 -16 15 -40 39 -39 17 1 17 2 4 6 -10 2 -19 9 -19 14
-1 5 -2 14 -3 19 -1 14 -27 30 -48 30 -13 0 -18 -9 -19 -32 -2 -32 -2 -32 -6
-4 -3 17 -12 30 -24 33 -10 3 -19 12 -19 19 0 10 -15 14 -57 13 -32 -1 -50 -3
-40 -6z"/>
<path d="M5340 4286 c0 -8 -9 -18 -20 -21 -11 -3 -20 -12 -20 -18 0 -7 -5 -4
-11 6 -11 20 -34 22 -45 5 -5 -8 -2 -9 9 -5 24 9 21 -6 -3 -21 -27 -17 -17
-32 21 -32 21 0 28 4 23 13 -6 10 -4 10 7 0 7 -7 24 -13 39 -13 24 0 25 2 22
50 -2 27 -8 50 -13 50 -5 0 -9 -6 -9 -14z m0 -51 c0 -14 -4 -25 -10 -25 -5 0
-10 11 -10 25 0 14 5 25 10 25 6 0 10 -11 10 -25z m-70 -15 c0 -5 -4 -10 -10
-10 -5 0 -10 5 -10 10 0 6 5 10 10 10 6 0 10 -4 10 -10z"/>
<path d="M5480 4250 c0 -27 5 -50 10 -50 6 0 10 23 10 50 0 28 -4 50 -10 50
-5 0 -10 -22 -10 -50z"/>
<path d="M5770 4250 c0 -27 5 -50 10 -50 6 0 10 23 10 50 0 28 -4 50 -10 50
-5 0 -10 -22 -10 -50z"/>
<path d="M5723 4277 c-4 -7 -21 -13 -38 -13 -16 1 -31 -2 -32 -6 -7 -20 -2
-88 6 -88 5 0 8 18 6 40 -3 31 -1 40 12 40 11 0 14 -7 10 -26 -3 -19 -1 -24
11 -19 8 3 20 -2 26 -10 9 -12 11 -3 11 40 0 30 -1 55 -2 55 -1 0 -6 -6 -10
-13z"/>
<path d="M6044 4236 c0 -50 2 -54 13 -34 16 30 16 50 0 72 -11 15 -13 9 -13
-38z"/>
<path d="M3915 4260 c-3 -6 3 -10 15 -10 19 0 21 -5 19 -42 -2 -26 1 -43 9
-46 8 -2 12 10 12 42 0 39 3 46 20 46 17 0 20 -7 20 -45 0 -25 5 -45 10 -45 6
0 10 14 10 30 0 17 5 30 10 30 6 0 10 -13 10 -30 0 -16 5 -30 10 -30 6 0 10
16 10 35 0 28 -4 35 -20 35 -13 0 -20 7 -20 18 0 15 -10 18 -54 20 -30 1 -57
-2 -61 -8z"/>
<path d="M4299 4248 c-1 -13 0 -36 1 -53 2 -26 0 -28 -14 -16 -11 9 -14 21
-10 35 6 18 5 19 -9 8 -9 -8 -18 -9 -21 -3 -4 5 -24 9 -46 9 -23 0 -37 -4 -34
-10 4 -6 18 -8 33 -5 21 5 27 2 28 -14 1 -10 -2 -19 -8 -19 -5 0 -9 5 -9 12 0
9 -3 9 -11 1 -19 -19 -3 -28 50 -27 28 1 56 2 61 3 6 0 10 24 10 51 0 48 -19
73 -21 28z"/>
<path d="M5196 4255 c4 -8 13 -15 21 -15 13 0 13 3 3 15 -7 8 -16 15 -21 15
-5 0 -6 -7 -3 -15z"/>
<path d="M5415 4259 c-4 -5 1 -19 10 -29 15 -17 15 -19 -2 -23 -15 -4 -14 -5
4 -6 32 -2 39 19 13 39 -22 17 -23 18 -4 23 15 4 16 5 2 6 -9 0 -20 -4 -23
-10z"/>
<path d="M5520 4255 c-17 -21 -3 -55 23 -55 18 0 19 2 7 10 -13 8 -24 50 -13
50 8 0 29 -25 36 -42 7 -19 42 -25 51 -9 3 5 -2 8 -11 7 -12 -1 -18 7 -19 22
-1 24 11 30 19 10 2 -7 8 -10 12 -5 5 4 3 13 -3 19 -10 10 -17 10 -32 0 -12
-7 -21 -8 -25 -2 -9 14 -31 12 -45 -5z"/>
<path d="M5811 4256 c-19 -23 -4 -56 25 -56 28 0 42 25 27 49 -14 22 -37 25
-52 7z m39 -22 c0 -31 -23 -28 -28 4 -2 15 2 22 12 22 11 0 16 -9 16 -26z"/>
<path d="M5880 4234 c0 -22 5 -34 14 -34 9 0 12 8 9 24 -3 13 0 27 6 30 7 5
11 -4 11 -23 0 -20 5 -31 14 -31 10 0 12 8 7 32 -5 26 -12 33 -34 35 -25 2
-27 -1 -27 -33z"/>
<path d="M5967 4263 c-3 -5 -5 -20 -5 -35 0 -23 5 -28 24 -28 13 0 24 -5 24
-11 0 -8 -11 -9 -32 -5 -24 5 -29 3 -21 -5 16 -16 57 -7 61 14 3 12 -3 17 -20
18 l-23 0 23 11 c31 15 29 48 -2 48 -14 0 -27 -3 -29 -7z m33 -18 c0 -8 -4
-15 -10 -15 -5 0 -10 7 -10 15 0 8 5 15 10 15 6 0 10 -7 10 -15z"/>
<path d="M4630 4228 c-11 -24 -11 -32 0 -55 l14 -28 4 28 c2 15 2 39 0 55 l-4
27 -14 -27z"/>
<path d="M4691 4200 c0 -51 1 -53 14 -36 8 11 15 27 15 36 0 9 -7 25 -15 36
-13 17 -14 15 -14 -36z"/>
<path d="M4430 4206 c0 -19 6 -36 13 -39 9 -3 12 7 12 34 0 25 -4 39 -12 39
-8 0 -13 -13 -13 -34z"/>
<path d="M4559 4233 c-22 -3 -25 -9 -23 -31 4 -27 4 -27 -4 -2 -5 17 -16 26
-35 28 -16 2 -27 -2 -27 -8 0 -7 7 -10 15 -6 11 4 15 -1 15 -17 0 -16 -3 -18
-9 -8 -6 10 -10 10 -16 1 -11 -17 1 -24 45 -25 37 -1 40 1 40 27 0 18 5 28 15
28 9 0 15 -9 15 -24 0 -14 5 -28 10 -31 6 -4 10 10 10 34 0 27 -4 40 -12 40
-7 -1 -25 -4 -39 -6z"/>
<path d="M4080 4195 c0 -19 5 -35 10 -35 6 0 10 13 10 29 0 16 6 32 13 34 6 3
2 6 -10 6 -20 1 -23 -4 -23 -34z"/>
<path d="M4130 4201 c0 -26 27 -48 42 -33 9 9 8 12 -5 12 -10 0 -17 8 -17 20
0 11 -4 20 -10 20 -5 0 -10 -8 -10 -19z"/>
<path d="M4370 4210 c0 -6 7 -13 15 -16 8 -4 15 -10 15 -15 0 -4 -7 -6 -15 -3
-8 4 -15 1 -15 -5 0 -13 20 -14 40 -1 12 7 12 12 -4 29 -21 23 -36 27 -36 11z"/>
<path d="M4340 4169 c0 -5 5 -7 10 -4 6 3 10 8 10 11 0 2 -4 4 -10 4 -5 0 -10
-5 -10 -11z"/>
<path d="M5150 4110 c0 -5 5 -10 11 -10 5 0 7 5 4 10 -3 6 -8 10 -11 10 -2 0
-4 -4 -4 -10z"/>
<path d="M5570 4110 c0 -5 5 -10 11 -10 5 0 7 5 4 10 -3 6 -8 10 -11 10 -2 0
-4 -4 -4 -10z"/>
<path d="M4972 4098 c-7 -7 -12 -24 -12 -38 0 -52 46 -66 88 -27 23 21 24 21
20 2 -2 -15 3 -20 21 -20 28 0 47 25 38 49 -4 9 -16 16 -27 16 -11 0 -20 7
-20 15 0 8 -5 15 -11 15 -6 0 -8 -10 -4 -22 l6 -23 -17 23 c-9 12 -24 22 -33
22 -12 0 -13 -2 -3 -9 8 -5 12 -22 10 -42 -2 -26 -8 -34 -23 -34 -24 0 -34 48
-14 71 14 17 -2 19 -19 2z m138 -59 c0 -20 -15 -26 -25 -9 -9 15 3 43 15 35 5
-3 10 -15 10 -26z"/>
<path d="M5700 4060 c0 -27 5 -50 10 -50 6 0 10 23 10 50 0 28 -4 50 -10 50
-5 0 -10 -22 -10 -50z"/>
<path d="M5971 4091 c6 -14 9 -41 5 -65 -6 -40 -5 -40 9 -16 20 34 19 54 -6
81 l-20 24 12 -24z"/>
<path d="M3821 4093 c-1 -6 8 -32 18 -56 11 -25 17 -48 14 -51 -4 -3 -2 -6 4
-6 11 0 37 79 29 88 -3 3 -6 0 -6 -6 0 -24 -38 -12 -48 16 -6 15 -11 22 -11
15z"/>
<path d="M5650 4081 c-13 -26 -12 -52 3 -73 11 -14 13 -8 13 38 -1 30 -2 54
-3 54 -1 0 -7 -9 -13 -19z"/>
<path d="M5319 4085 c-8 -8 3 -75 12 -75 5 0 9 18 9 40 0 36 -8 49 -21 35z"/>
<path d="M5609 4085 c-7 -7 2 -75 10 -75 3 0 7 18 7 40 1 36 -5 48 -17 35z"/>
<path d="M5147 4044 c5 -29 2 -40 -12 -50 -15 -11 -15 -14 -4 -14 25 0 39 22
39 62 0 26 -4 38 -14 38 -11 0 -13 -9 -9 -36z"/>
<path d="M5189 4064 c-16 -20 -6 -49 19 -52 12 -2 22 1 22 7 0 6 -7 11 -15 11
-8 0 -15 9 -15 20 0 11 3 20 6 20 9 0 44 -41 44 -52 0 -4 9 -8 20 -8 11 0 20
5 20 10 0 6 -7 10 -15 10 -8 0 -15 9 -15 21 0 16 4 19 23 13 12 -3 18 -3 14 2
-14 14 -95 13 -108 -2z"/>
<path d="M5395 4058 c9 -27 22 -44 30 -36 8 7 -16 58 -27 58 -5 0 -6 -10 -3
-22z"/>
<path d="M5430 4063 c1 -23 26 -57 34 -45 6 11 -15 62 -26 62 -5 0 -8 -8 -8
-17z"/>
<path d="M5481 4069 c8 -5 23 -6 34 -2 17 5 18 4 6 -11 -9 -11 -10 -16 -2 -16
7 0 9 -5 5 -11 -4 -8 -9 -7 -15 2 -4 7 -11 10 -14 7 -12 -12 6 -28 31 -28 22
0 25 4 22 33 -3 30 -6 32 -42 34 -26 1 -34 -2 -25 -8z"/>
<path d="M5568 4045 c-3 -24 0 -35 9 -35 8 0 13 13 13 35 0 19 -4 35 -9 35 -5
0 -11 -16 -13 -35z"/>
<path d="M5741 4066 c-26 -31 14 -71 45 -45 8 7 14 22 12 33 -4 26 -40 33 -57
12z m39 -22 c0 -31 -23 -28 -28 4 -2 15 2 22 12 22 11 0 16 -9 16 -26z"/>
<path d="M5808 4045 c-3 -24 0 -35 9 -35 8 0 13 12 13 30 0 17 5 30 11 30 7 0
10 -12 7 -30 -3 -21 0 -30 10 -30 9 0 12 6 8 16 -3 9 -6 24 -6 35 0 13 -7 19
-24 19 -20 0 -25 -6 -28 -35z"/>
<path d="M5889 4078 c-1 -2 -2 -24 -4 -50 -3 -44 -1 -48 20 -48 12 0 28 7 35
15 10 12 8 16 -11 24 -21 8 -22 10 -6 16 27 11 22 45 -8 45 -14 0 -25 -1 -26
-2z m31 -23 c0 -8 -4 -15 -10 -15 -5 0 -10 7 -10 15 0 8 5 15 10 15 6 0 10 -7
10 -15z m10 -55 c0 -5 -6 -10 -14 -10 -8 0 -18 5 -21 10 -3 6 3 10 14 10 12 0
21 -4 21 -10z"/>
<path d="M5360 4020 c0 -5 5 -10 10 -10 6 0 10 5 10 10 0 6 -4 10 -10 10 -5 0
-10 -4 -10 -10z"/>
<path d="M1613 3998 c-19 -25 -21 -46 -7 -67 8 -11 20 -21 26 -21 7 0 6 5 -1
14 -20 23 -10 71 14 71 15 0 21 -8 23 -34 2 -20 -2 -37 -10 -42 -9 -6 -9 -9
-1 -9 15 0 43 28 43 43 0 42 -64 75 -87 45z"/>
<path d="M1704 3994 c3 -9 6 -31 6 -50 0 -33 2 -35 28 -32 21 2 27 8 27 28 0
16 -8 28 -22 35 -13 5 -23 15 -23 22 0 7 -5 13 -11 13 -6 0 -8 -7 -5 -16z m46
-54 c0 -11 -7 -20 -15 -20 -8 0 -15 9 -15 20 0 11 7 20 15 20 8 0 15 -9 15
-20z"/>
<path d="M2354 3947 c0 -57 9 -66 20 -22 4 14 1 37 -7 52 -14 25 -14 24 -13
-30z"/>
<path d="M1957 3983 c-6 -11 4 -73 12 -73 8 0 8 67 -1 75 -3 3 -8 3 -11 -2z"/>
<path d="M2255 3984 c-15 -6 -6 -74 9 -74 7 0 10 14 8 40 -2 22 -5 40 -6 39 0
0 -6 -3 -11 -5z"/>
<path d="M2289 3966 c-8 -18 -8 -30 4 -52 15 -28 15 -28 14 24 0 29 -2 52 -4
52 -2 0 -8 -11 -14 -24z"/>
<path d="M1789 3973 c-1 -5 0 -24 1 -45 1 -28 -3 -37 -17 -41 -14 -4 -13 -5 5
-6 20 -1 22 3 22 49 0 28 -2 50 -5 50 -3 0 -5 -3 -6 -7z"/>
<path d="M1832 3968 c-7 -7 -12 -20 -12 -30 0 -21 36 -43 45 -28 3 5 -1 10 -9
10 -11 0 -16 9 -15 28 0 15 3 21 6 15 2 -7 11 -13 19 -13 8 0 14 -7 14 -15 0
-17 36 -39 44 -26 3 5 -1 11 -9 15 -8 3 -15 15 -15 26 0 17 4 20 23 15 18 -6
20 -5 9 6 -10 10 -17 11 -31 2 -11 -7 -23 -8 -32 -2 -19 12 -23 11 -37 -3z"/>
<path d="M2030 3976 c0 -15 24 -66 31 -66 12 0 11 6 -6 40 -13 26 -25 38 -25
26z"/>
<path d="M2070 3962 c0 -13 7 -30 15 -38 12 -13 15 -12 25 6 6 12 7 19 1 18
-5 -2 -17 6 -25 17 -15 20 -15 20 -16 -3z"/>
<path d="M2144 3969 c-5 -8 -2 -10 8 -6 12 4 15 -1 15 -21 0 -15 -2 -21 -4
-14 -6 17 -23 15 -23 -3 0 -11 12 -15 45 -15 45 0 45 0 45 35 0 19 -4 35 -10
35 -5 0 -10 -13 -10 -30 0 -38 -18 -40 -22 -3 -3 30 -31 43 -44 22z"/>
<path d="M3030 3961 c-7 -13 -10 -301 -10 -864 0 -773 1 -846 17 -858 13 -11
114 -15 522 -20 278 -3 573 -11 654 -18 82 -7 154 -10 160 -8 7 2 -40 9 -103
14 -110 10 -103 10 148 11 248 2 263 3 282 22 11 11 20 24 20 30 0 5 -11 -2
-25 -15 l-24 -25 -804 0 c-767 0 -805 1 -821 18 -15 17 -16 88 -14 863 l3 843
25 13 c24 12 24 13 3 13 -12 0 -27 -9 -33 -19z"/>
<path d="M3730 3960 c11 -20 30 -28 30 -12 0 11 -22 32 -32 32 -5 0 -4 -9 2
-20z"/>
<path d="M3880 3971 c0 -5 -3 -18 -7 -28 -6 -17 -5 -17 15 1 26 22 28 36 7 36
-8 0 -15 -4 -15 -9z"/>
<path d="M4670 3974 c8 -4 23 -16 34 -28 l18 -21 -14 25 c-9 14 -24 26 -34 27
-13 2 -14 1 -4 -3z"/>
<path d="M3815 3960 c-3 -5 -1 -10 4 -10 6 0 11 5 11 10 0 6 -2 10 -4 10 -3 0
-8 -4 -11 -10z"/>
<path d="M3945 3960 c-30 -8 -30 -8 8 -9 23 -1 36 3 32 9 -3 6 -7 9 -8 9 -1
-1 -15 -5 -32 -9z"/>
<path d="M3828 3933 c7 -3 16 -2 19 1 4 3 -2 6 -13 5 -11 0 -14 -3 -6 -6z"/>
<path d="M3884 3922 c-12 -19 -7 -82 7 -82 5 0 9 15 9 34 0 19 3 41 6 50 8 22
-9 20 -22 -2z"/>
<path d="M3770 3903 c-13 -27 -14 -27 -18 -5 -5 32 -22 27 -22 -7 0 -16 -6
-32 -12 -34 -7 -3 -2 -6 12 -6 14 -1 44 -4 68 -7 28 -4 42 -2 42 5 0 6 -19 11
-42 12 -38 0 -40 1 -19 10 13 5 33 7 44 3 14 -4 18 -2 15 7 -3 9 -16 13 -34
11 -28 -3 -28 -3 -10 17 15 17 16 21 4 21 -8 0 -21 -12 -28 -27z"/>
<path d="M3960 3922 c-20 -9 -23 -82 -4 -82 9 0 14 12 14 31 0 19 7 37 18 45
14 11 14 13 2 13 -8 0 -22 -3 -30 -7z"/>
<path d="M4973 3923 c16 -4 18 -13 15 -49 -2 -31 1 -44 9 -44 9 0 13 16 13 45
0 38 3 45 20 45 17 0 20 -7 20 -45 0 -31 4 -45 14 -45 9 0 12 8 9 24 -3 13 0
27 6 30 7 5 11 -4 11 -23 0 -27 3 -31 28 -31 24 0 28 4 27 27 0 14 5 28 12 30
7 3 10 -3 7 -15 -7 -24 20 -47 43 -37 17 7 16 8 -2 15 -11 4 -20 11 -20 16 0
20 -17 34 -41 34 -20 0 -24 -5 -25 -32 -2 -32 -2 -32 -6 -4 -3 17 -12 30 -24
33 -10 3 -19 12 -19 19 0 10 -15 14 -57 13 -32 -1 -50 -3 -40 -6z"/>
<path d="M5340 3916 c0 -8 -9 -18 -20 -21 -11 -3 -20 -12 -20 -18 0 -7 -5 -4
-11 6 -11 19 -49 24 -49 6 0 -6 7 -9 15 -5 22 8 18 -7 -5 -22 -32 -20 -15 -30
50 -30 l60 0 0 49 c0 27 -4 49 -10 49 -5 0 -10 -6 -10 -14z m0 -51 c0 -14 -4
-25 -10 -25 -5 0 -10 11 -10 25 0 14 5 25 10 25 6 0 10 -11 10 -25z m-70 -15
c0 -5 -2 -10 -4 -10 -3 0 -8 5 -11 10 -3 6 -1 10 4 10 6 0 11 -4 11 -10z"/>
<path d="M5700 3880 c0 -27 5 -50 10 -50 6 0 10 23 10 50 0 28 -4 50 -10 50
-5 0 -10 -22 -10 -50z"/>
<path d="M5971 3911 c6 -14 9 -41 5 -65 -6 -40 -5 -40 9 -16 20 34 19 54 -6
81 l-20 24 12 -24z"/>
<path d="M5650 3899 c-11 -20 -5 -75 9 -83 4 -3 7 20 7 50 -1 30 -2 54 -3 54
-1 0 -7 -9 -13 -21z"/>
<path d="M5196 3885 c4 -9 11 -14 16 -13 15 5 11 23 -6 26 -11 2 -14 -2 -10
-13z"/>
<path d="M5419 3893 c-1 -5 0 -25 1 -45 1 -31 -2 -38 -17 -39 -11 0 -13 -3 -5
-6 22 -9 42 18 42 58 0 22 -4 39 -10 39 -5 0 -10 -3 -11 -7z"/>
<path d="M5462 3891 c-8 -4 -12 -19 -10 -32 4 -29 45 -34 61 -7 19 30 -19 60
-51 39z m36 -30 c3 -16 -1 -22 -10 -19 -7 3 -15 15 -16 27 -3 16 1 22 10 19 7
-3 15 -15 16 -27z"/>
<path d="M5530 3865 c0 -22 5 -35 13 -35 9 0 12 11 9 35 -2 19 -8 35 -13 35
-5 0 -9 -16 -9 -35z"/>
<path d="M5570 3866 c0 -20 5 -36 10 -36 6 0 10 14 10 30 0 17 5 30 10 30 6 0
10 -13 10 -30 0 -16 5 -30 11 -30 6 0 9 14 7 33 -2 27 -8 33 -30 35 -26 3 -28
1 -28 -32z"/>
<path d="M5741 3886 c-26 -31 14 -71 45 -45 8 7 14 22 12 33 -4 26 -40 33 -57
12z m39 -22 c0 -31 -23 -28 -28 4 -2 15 2 22 12 22 11 0 16 -9 16 -26z"/>
<path d="M5808 3865 c-3 -24 0 -35 9 -35 8 0 13 12 13 31 0 19 4 28 11 23 6
-3 9 -17 6 -30 -3 -17 0 -24 10 -24 10 0 13 6 9 16 -3 9 -6 24 -6 35 0 13 -7
19 -24 19 -20 0 -25 -6 -28 -35z"/>
<path d="M5887 3893 c-3 -5 -4 -19 -2 -33 1 -17 8 -26 23 -28 12 -2 22 -8 22
-14 0 -6 -10 -8 -25 -4 -14 4 -25 2 -25 -4 0 -15 46 -12 60 5 10 12 8 16 -11
24 -21 8 -22 10 -6 16 27 11 22 45 -7 45 -14 0 -27 -3 -29 -7z m33 -18 c0 -8
-4 -15 -10 -15 -5 0 -10 7 -10 15 0 8 5 15 10 15 6 0 10 -7 10 -15z"/>
<path d="M5380 3840 c0 -5 5 -10 10 -10 6 0 10 5 10 10 0 6 -4 10 -10 10 -5 0
-10 -4 -10 -10z"/>
<path d="M1613 3808 c-19 -25 -21 -46 -7 -67 27 -38 94 -18 94 29 0 21 -25 50
-43 50 -8 0 -7 -4 1 -12 7 -7 12 -27 12 -46 0 -29 -3 -33 -22 -30 -27 4 -37
50 -17 74 6 8 7 14 1 14 -5 0 -14 -6 -19 -12z"/>
<path d="M1706 3773 c2 -39 6 -49 21 -51 11 -2 25 4 32 12 17 20 4 56 -20 56
-10 0 -19 7 -19 15 0 8 -4 15 -8 15 -4 0 -7 -21 -6 -47z m44 -24 c0 -10 -7
-19 -15 -19 -15 0 -21 31 -9 43 11 10 24 -3 24 -24z"/>
<path d="M2272 3798 c-16 -16 -15 -73 1 -86 9 -8 12 2 12 44 0 30 0 54 0 54
-1 0 -6 -5 -13 -12z"/>
<path d="M2324 3754 c0 -48 2 -53 13 -38 16 23 17 55 1 77 -11 15 -13 9 -14
-39z"/>
<path d="M1958 3795 c-7 -8 4 -75 13 -75 10 0 9 69 -1 75 -4 3 -9 2 -12 0z"/>
<path d="M1791 3785 c-2 -5 -2 -26 -1 -47 1 -28 -3 -37 -17 -41 -17 -4 -17 -5
0 -6 22 -1 29 17 24 65 -2 22 -5 35 -6 29z"/>
<path d="M1832 3781 c-23 -14 -10 -56 18 -59 22 -2 23 -1 8 8 -19 12 -25 50
-7 50 5 0 7 -4 4 -10 -3 -5 0 -10 8 -10 8 0 17 -9 20 -20 3 -13 13 -20 29 -20
20 1 21 2 6 11 -10 5 -18 19 -18 30 0 16 4 19 23 14 18 -6 20 -5 9 6 -10 11
-16 11 -32 1 -12 -7 -21 -8 -25 -2 -8 12 -25 13 -43 1z"/>
<path d="M2039 3783 c-1 -4 0 -25 1 -45 1 -31 -2 -38 -17 -39 -13 0 -14 -2 -4
-6 19 -8 41 24 41 58 0 25 -19 53 -21 32z"/>
<path d="M2082 3781 c-8 -4 -12 -19 -10 -32 4 -29 45 -34 61 -7 19 30 -19 60
-51 39z m36 -29 c2 -15 -2 -22 -12 -22 -11 0 -16 9 -16 26 0 31 23 28 28 -4z"/>
<path d="M2150 3755 c0 -22 5 -35 13 -35 9 0 12 11 9 35 -2 19 -8 35 -13 35
-5 0 -9 -16 -9 -35z"/>
<path d="M2190 3755 c0 -19 5 -35 10 -35 6 0 10 16 10 35 0 19 -4 35 -10 35
-5 0 -10 -16 -10 -35z"/>
<path d="M2228 3755 c2 -19 8 -35 14 -35 13 0 6 63 -8 67 -6 2 -8 -10 -6 -32z"/>
<path d="M3465 3710 c0 -33 4 -50 13 -50 6 0 12 10 12 22 l0 22 16 -22 c8 -12
23 -22 32 -22 14 0 15 2 2 10 -8 5 -15 25 -15 47 0 35 -2 38 -30 41 -30 3 -30
3 -30 -48z m37 8 c-9 -9 -12 -7 -12 12 0 19 3 21 12 12 9 -9 9 -15 0 -24z"/>
<path d="M3560 3726 c0 -19 3 -41 6 -50 7 -19 63 -22 69 -3 11 32 14 87 5 87
-6 0 -10 -21 -10 -46 0 -41 -2 -45 -22 -42 -20 3 -23 9 -23 46 0 27 -4 42 -12
42 -8 0 -13 -14 -13 -34z"/>
<path d="M3670 3752 c0 -16 77 -95 83 -85 3 5 -11 28 -32 51 -36 41 -51 51
-51 34z"/>
<path d="M3740 3750 c0 -5 5 -10 10 -10 6 0 10 5 10 10 0 6 -4 10 -10 10 -5 0
-10 -4 -10 -10z"/>
<path d="M3776 3745 c6 -15 72 -85 80 -85 16 0 -2 36 -33 65 -41 37 -56 44
-47 20z"/>
<path d="M3845 3750 c3 -5 8 -10 11 -10 2 0 4 5 4 10 0 6 -5 10 -11 10 -5 0
-7 -4 -4 -10z"/>
<path d="M3994 3710 c0 -49 0 -50 32 -50 34 0 63 23 44 35 -6 4 -9 14 -6 22 9
22 -12 43 -43 43 -26 0 -27 -2 -27 -50z m53 23 c2 -6 -3 -13 -12 -16 -10 -5
-15 0 -15 14 0 21 21 22 27 2z m3 -48 c0 -8 -7 -15 -15 -15 -8 0 -15 7 -15 15
0 8 7 15 15 15 8 0 15 -7 15 -15z"/>
<path d="M4090 3710 l0 -50 38 1 c31 2 33 3 9 6 -27 4 -29 7 -25 49 2 30 -1
44 -9 44 -9 0 -13 -17 -13 -50z"/>
<path d="M4180 3710 l0 -50 38 1 c27 2 30 3 11 6 -23 4 -26 9 -26 44 0 37 2
40 23 36 13 -2 24 0 24 4 0 5 -16 9 -35 9 l-35 0 0 -50z"/>
<path d="M3422 3738 c-13 -13 -16 -56 -6 -82 12 -31 19 -16 19 39 0 30 0 55 0
55 -1 0 -6 -5 -13 -12z"/>
<path d="M3907 3733 c-2 -10 -8 -26 -12 -35 -5 -13 -2 -15 14 -11 14 3 23 0
27 -11 3 -9 12 -16 20 -16 10 0 9 9 -5 42 -19 46 -36 58 -44 31z m18 -23 c3
-5 1 -10 -4 -10 -6 0 -11 5 -11 10 0 6 2 10 4 10 3 0 8 -4 11 -10z"/>
<path d="M4278 3695 c4 -57 15 -63 27 -14 4 17 0 33 -12 48 -18 22 -18 21 -15
-34z"/>
<path d="M4969 3748 c0 -2 -1 -27 -2 -56 l-2 -52 32 0 c17 0 35 5 38 10 4 7
-2 9 -19 4 -25 -6 -26 -5 -26 45 0 28 -4 51 -10 51 -5 0 -10 -1 -11 -2z"/>
<path d="M5190 3695 c0 -30 5 -55 10 -55 6 0 10 5 10 11 0 8 5 7 15 -1 25 -21
30 -2 7 23 -12 13 -22 35 -22 50 0 15 -4 27 -10 27 -5 0 -10 -25 -10 -55z"/>
<path d="M5960 3730 c0 -15 -7 -20 -25 -20 -22 0 -25 -4 -25 -35 0 -19 5 -35
10 -35 6 0 10 14 10 30 0 20 5 30 15 30 10 0 15 -10 15 -30 0 -16 5 -30 10
-30 6 0 10 5 10 11 0 8 5 7 15 -1 25 -21 30 -2 7 23 -12 13 -22 35 -22 50 0
15 -4 27 -10 27 -5 0 -10 -9 -10 -20z"/>
<path d="M6035 3730 c4 -14 8 -25 9 -25 1 0 15 -13 32 -28 l32 -29 3 46 c3 25
1 46 -3 46 -5 0 -8 -12 -8 -27 l0 -27 -36 35 c-34 32 -36 33 -29 9z"/>
<path d="M5263 3724 c-4 -11 3 -23 20 -36 35 -26 35 -42 0 -33 -22 5 -25 4
-16 -6 17 -17 63 -3 63 20 0 9 -11 24 -25 31 -14 8 -23 20 -21 27 3 7 1 13 -5
13 -5 0 -12 -7 -16 -16z"/>
<path d="M5305 3730 c3 -5 8 -10 11 -10 2 0 4 5 4 10 0 6 -5 10 -11 10 -5 0
-7 -4 -4 -10z"/>
<path d="M6420 3721 c-14 -27 -13 -76 3 -89 9 -8 12 3 12 49 0 32 -1 59 -2 59
-1 0 -7 -9 -13 -19z"/>
<path d="M6471 3721 c6 -13 9 -40 6 -60 -6 -33 -5 -35 8 -17 20 27 19 50 -6
77 l-20 24 12 -24z"/>
<path d="M4220 3710 c0 -5 5 -10 10 -10 6 0 10 5 10 10 0 6 -4 10 -10 10 -5 0
-10 -4 -10 -10z"/>
<path d="M5668 3713 c-24 -4 -28 -9 -28 -39 0 -19 5 -34 10 -34 6 0 10 14 10
30 0 38 27 41 32 3 5 -41 23 -38 22 4 -1 40 -4 42 -46 36z"/>
<path d="M5057 3703 c-13 -12 -7 -54 7 -59 8 -3 23 -1 32 4 12 7 24 6 36 -1
13 -9 21 -8 30 1 9 9 8 12 -5 12 -16 0 -21 10 -18 35 1 11 -72 19 -82 8z m33
-29 c0 -14 -4 -23 -10 -19 -5 3 -10 15 -10 26 0 10 5 19 10 19 6 0 10 -12 10
-26z"/>
<path d="M5155 3700 c3 -5 8 -10 11 -10 2 0 4 5 4 10 0 6 -5 10 -11 10 -5 0
-7 -4 -4 -10z"/>
<path d="M5344 3683 c2 -16 5 -31 5 -35 1 -9 45 -11 53 -3 8 8 -3 65 -13 65
-5 0 -9 -14 -9 -31 0 -17 -4 -28 -10 -24 -5 3 -10 17 -10 31 0 13 -5 24 -10
24 -6 0 -9 -12 -6 -27z"/>
<path d="M5420 3660 c0 -27 5 -50 10 -50 6 0 10 6 10 14 0 8 9 17 19 21 43 13
35 65 -10 65 -28 0 -29 -2 -29 -50z m40 15 c0 -14 -4 -25 -10 -25 -5 0 -10 11
-10 25 0 14 5 25 10 25 6 0 10 -11 10 -25z"/>
<path d="M5498 3661 c2 -28 8 -51 14 -51 5 0 8 6 6 12 -7 21 40 40 62 25 26
-16 55 11 45 42 -9 29 -24 27 -22 -3 3 -33 -16 -38 -23 -6 -4 21 -12 26 -45
28 l-40 3 3 -50z m42 8 c0 -10 -4 -19 -10 -19 -5 0 -10 12 -10 26 0 14 4 23
10 19 6 -3 10 -15 10 -26z"/>
<path d="M5760 3661 c0 -28 5 -51 10 -51 6 0 10 6 10 13 0 7 10 17 23 22 14 7
22 19 22 35 0 21 -5 26 -32 28 l-33 3 0 -50z m50 8 c0 -20 -15 -26 -25 -9 -9
15 3 43 15 35 5 -3 10 -15 10 -26z"/>
<path d="M5840 3699 c0 -5 5 -7 10 -4 6 3 10 8 10 11 0 2 -4 4 -10 4 -5 0 -10
-5 -10 -11z"/>
<path d="M5870 3679 c0 -18 -4 -28 -10 -24 -6 4 -7 11 -4 17 4 7 2 8 -4 4 -21
-13 -13 -36 11 -36 31 0 34 4 29 40 -6 39 -22 39 -22 -1z"/>
<path d="M6140 3699 c0 -5 5 -7 10 -4 6 3 10 8 10 11 0 2 -4 4 -10 4 -5 0 -10
-5 -10 -11z"/>
<path d="M6158 3689 c-31 -33 -23 -49 22 -47 37 1 40 3 40 30 0 15 5 28 10 28
6 0 10 -13 10 -30 0 -16 5 -30 10 -30 6 0 10 16 10 35 0 32 -2 35 -29 35 -25
0 -30 -5 -34 -27 l-4 -28 -2 28 c-1 31 -9 33 -33 6z m12 -25 c0 -8 -5 -12 -10
-9 -6 4 -8 11 -5 16 9 14 15 11 15 -7z"/>
<path d="M6281 3696 c-9 -11 -10 -20 -1 -35 11 -22 35 -28 45 -11 4 6 13 5 25
-3 16 -9 23 -9 35 4 14 14 13 17 -8 35 -12 10 -32 20 -43 21 -17 2 -20 -2 -16
-27 2 -17 0 -30 -6 -30 -13 0 -23 27 -16 45 8 19 0 19 -15 1z m89 -31 c14 -16
10 -18 -14 -9 -9 3 -16 10 -16 15 0 14 16 11 30 -6z"/>
<path d="M3778 3663 c7 -3 16 -2 19 1 4 3 -2 6 -13 5 -11 0 -14 -3 -6 -6z"/>
<path d="M3878 3663 c7 -3 16 -2 19 1 4 3 -2 6 -13 5 -11 0 -14 -3 -6 -6z"/>
<path d="M5730 3650 c0 -5 5 -10 10 -10 6 0 10 5 10 10 0 6 -4 10 -10 10 -5 0
-10 -4 -10 -10z"/>
<path d="M6030 3650 c0 -5 5 -10 10 -10 6 0 10 5 10 10 0 6 -4 10 -10 10 -5 0
-10 -4 -10 -10z"/>
<path d="M1605 3580 c0 -50 0 -50 32 -50 17 0 35 5 39 11 4 8 9 8 17 0 16 -16
47 -13 54 4 5 14 8 14 24 -1 12 -11 24 -14 36 -8 16 7 16 8 -4 11 -15 3 -23
11 -23 24 0 16 5 19 20 14 11 -4 20 -2 20 4 0 15 -33 14 -48 -1 -9 -9 -15 -9
-24 0 -20 20 -46 13 -60 -15 -7 -16 -23 -29 -36 -31 -20 -3 -22 1 -22 42 0 30
-4 46 -12 46 -9 0 -13 -17 -13 -50z m129 -6 c7 -18 0 -34 -15 -34 -5 0 -9 11
-9 25 0 28 15 34 24 9z"/>
<path d="M1830 3580 c0 -27 5 -50 10 -50 6 0 10 5 10 11 0 8 5 7 15 -1 24 -20
27 -6 5 23 -11 14 -20 35 -20 46 0 12 -4 21 -10 21 -5 0 -10 -22 -10 -50z"/>
<path d="M1910 3610 c0 -11 11 -27 25 -36 27 -18 23 -39 -6 -31 -11 3 -19 1
-19 -4 0 -15 47 -10 61 7 11 14 8 20 -21 46 l-35 29 28 -4 c15 -2 27 0 27 4 0
5 -13 9 -30 9 -23 0 -30 -4 -30 -20z"/>
<path d="M2596 3615 c5 -11 -1 -15 -20 -15 -23 0 -26 -4 -26 -35 0 -19 5 -35
10 -35 6 0 10 14 10 30 0 20 5 30 15 30 10 0 15 -10 15 -30 0 -16 5 -30 10
-30 6 0 10 6 10 13 0 9 3 8 9 -2 5 -7 14 -12 21 -9 8 2 5 12 -9 30 -12 14 -21
36 -21 47 0 12 -6 21 -15 21 -9 0 -12 -6 -9 -15z"/>
<path d="M2682 3608 c-16 -16 -15 -60 1 -81 10 -15 12 -9 12 38 0 30 0 55 0
55 -1 0 -6 -5 -13 -12z"/>
<path d="M2735 3566 c0 -42 3 -52 13 -44 13 11 16 56 6 82 -12 30 -19 16 -19
-38z"/>
<path d="M2308 3603 c-16 -2 -28 -9 -28 -14 0 -5 -8 -4 -19 2 -26 17 -51 4
-51 -26 0 -30 25 -43 51 -26 12 7 19 7 19 1 0 -5 5 -10 10 -10 6 0 10 14 10
30 0 38 27 41 32 3 5 -41 23 -38 22 4 -1 40 -4 42 -46 36z m-50 -41 c2 -15 -2
-22 -12 -22 -11 0 -16 9 -16 26 0 31 23 28 28 -4z"/>
<path d="M3338 3581 c-44 -28 -88 -90 -88 -123 0 -7 10 8 23 32 12 24 39 58
60 74 l39 31 471 3 c260 2 487 0 505 -3 40 -7 96 -56 122 -104 11 -20 19 -29
20 -21 0 25 -36 76 -76 106 l-37 29 -496 3 -496 3 -47 -30z"/>
<path d="M1992 3568 c2 -28 8 -34 31 -36 25 -3 27 -1 27 32 0 20 -4 36 -10 36
-5 0 -10 -13 -10 -30 0 -16 -4 -30 -10 -30 -5 0 -10 14 -10 30 0 17 -5 30 -11
30 -6 0 -9 -14 -7 -32z"/>
<path d="M2060 3551 c0 -28 5 -51 10 -51 6 0 10 6 10 14 0 7 9 16 21 19 16 4
20 12 17 34 -2 22 -9 29 -30 31 -27 3 -28 2 -28 -47z m40 14 c0 -14 -4 -25
-10 -25 -5 0 -10 11 -10 25 0 14 5 25 10 25 6 0 10 -11 10 -25z"/>
<path d="M2135 3550 c0 -32 4 -50 12 -50 7 0 10 6 8 13 -3 6 5 17 17 22 15 7
23 19 23 35 0 20 -5 26 -30 28 -30 3 -30 3 -30 -48z m45 9 c0 -20 -15 -26 -25
-9 -9 15 3 43 15 35 5 -3 10 -15 10 -26z"/>
<path d="M2410 3549 c0 -27 5 -49 10 -49 6 0 10 6 10 13 0 6 11 17 25 24 14 6
25 7 25 3 0 -5 14 -8 30 -8 23 1 29 5 25 15 -3 8 -5 23 -5 32 0 15 -10 18 -60
19 l-60 1 0 -50z m50 10 c0 -10 -7 -19 -15 -19 -15 0 -21 31 -9 43 11 10 24
-3 24 -24z m51 -14 c-3 -5 -7 -2 -9 8 -2 9 -8 15 -13 12 -5 -4 -9 -2 -9 4 0 5
6 11 13 14 14 5 28 -23 18 -38z"/>
<path d="M3670 3571 c0 -5 5 -13 10 -16 6 -3 10 -2 10 4 0 5 -4 13 -10 16 -5
3 -10 2 -10 -4z"/>
<path d="M3745 3570 c-3 -5 1 -10 9 -10 9 0 16 5 16 10 0 6 -4 10 -9 10 -6 0
-13 -4 -16 -10z"/>
<path d="M3816 3565 c-3 -8 -1 -15 5 -15 6 0 6 -6 1 -17 -11 -20 -4 -83 8 -83
5 0 10 23 12 50 1 28 0 50 -4 50 -4 0 -5 7 -2 15 4 8 2 15 -4 15 -5 0 -12 -7
-16 -15z"/>
<path d="M3885 3570 l-30 -8 33 -1 c17 0 32 4 32 9 0 6 -1 9 -2 9 -2 -1 -16
-5 -33 -9z"/>
<path d="M4000 3565 c0 -10 -10 -15 -26 -15 -22 0 -25 -3 -20 -22 3 -13 6 -27
6 -31 0 -5 4 -6 9 -3 5 3 7 15 4 26 -4 14 0 20 11 20 12 0 16 -10 16 -45 0
-25 5 -45 10 -45 9 0 14 34 11 73 -2 10 5 17 15 17 11 0 15 -6 11 -20 -3 -13
0 -20 9 -20 8 0 14 10 14 25 0 20 -5 25 -25 25 -16 0 -25 6 -25 15 0 8 -4 15
-10 15 -5 0 -10 -7 -10 -15z"/>
<path d="M4970 3515 c0 -25 -1 -48 -2 -52 -5 -13 53 -16 65 -4 8 8 3 11 -16
11 -25 0 -27 3 -27 45 0 25 -4 45 -10 45 -5 0 -10 -20 -10 -45z"/>
<path d="M5190 3510 c0 -47 12 -66 23 -37 4 10 6 10 6 0 1 -7 8 -13 17 -13 13
0 12 5 -5 29 -12 16 -21 39 -21 50 0 12 -4 21 -10 21 -5 0 -10 -22 -10 -50z"/>
<path d="M5273 3553 c-21 -8 -15 -30 14 -51 23 -17 25 -22 14 -36 -16 -18 -1
-22 17 -4 19 19 14 37 -13 50 -14 6 -25 17 -25 25 0 16 12 17 29 1 11 -11 13
-10 9 2 -5 16 -25 22 -45 13z"/>
<path d="M5960 3540 c0 -11 -3 -19 -7 -19 -32 5 -43 -3 -43 -30 0 -17 5 -33
10 -36 6 -4 10 7 10 24 0 21 5 31 15 31 9 0 15 -9 15 -25 0 -14 5 -25 10 -25
6 0 10 5 10 12 0 6 6 4 13 -7 9 -11 16 -14 20 -8 4 6 0 16 -8 23 -12 10 -13
16 -3 28 11 13 10 15 -4 9 -14 -5 -18 -1 -18 18 0 14 -4 25 -10 25 -5 0 -10
-9 -10 -20z"/>
<path d="M6030 3521 c0 -56 41 -92 67 -58 14 16 23 97 12 97 -5 0 -9 -20 -9
-44 0 -49 -13 -65 -36 -45 -12 9 -15 24 -11 51 4 28 2 38 -9 38 -10 0 -14 -12
-14 -39z"/>
<path d="M6300 3505 c0 -35 4 -54 10 -50 6 3 10 26 10 50 0 24 -4 47 -10 50
-6 4 -10 -15 -10 -50z"/>
<path d="M2375 3540 c-3 -5 -1 -10 4 -10 6 0 11 5 11 10 0 6 -2 10 -4 10 -3 0
-8 -4 -11 -10z"/>
<path d="M6340 3531 c-14 -27 -13 -66 3 -79 9 -8 12 2 12 44 0 30 -1 54 -2 54
-1 0 -7 -9 -13 -19z"/>
<path d="M6395 3496 c0 -42 3 -52 13 -44 6 6 12 23 12 37 0 15 -6 35 -12 44
-11 15 -13 9 -13 -37z"/>
<path d="M3678 3534 c-5 -4 -8 -17 -8 -29 0 -11 -5 -26 -11 -32 -8 -8 -5 -11
12 -12 13 0 43 -3 67 -7 28 -4 42 -2 42 5 0 6 -20 11 -47 12 -42 0 -45 1 -23
10 13 6 35 7 48 4 17 -4 23 -2 19 7 -2 8 -16 12 -33 10 -28 -3 -28 -3 -10 17
16 18 17 21 3 21 -9 0 -19 -9 -22 -20 -8 -26 -23 -26 -27 1 -2 11 -6 17 -10
13z"/>
<path d="M3899 3533 c-11 -3 -14 -12 -11 -33 3 -19 0 -30 -7 -30 -7 0 -9 -4
-6 -10 15 -24 35 -9 35 25 0 19 5 35 10 35 6 0 10 5 10 10 0 10 -4 11 -31 3z"/>
<path d="M5673 3527 c-27 -8 -33 -15 -33 -38 0 -15 5 -31 10 -34 6 -4 10 7 10
24 0 21 5 31 15 31 9 0 15 -9 15 -24 0 -24 15 -44 22 -29 2 5 1 24 -2 43 -5
35 -6 36 -37 27z"/>
<path d="M6214 3527 c-8 -21 -1 -68 10 -67 10 0 13 66 3 76 -4 4 -9 0 -13 -9z"/>
<path d="M5056 3509 c-24 -35 5 -70 42 -50 11 6 24 5 36 -1 12 -7 21 -7 29 1
8 8 7 11 -5 11 -17 0 -32 26 -22 41 3 6 11 5 20 -2 9 -7 14 -8 14 -1 0 18 -20
25 -35 12 -10 -8 -19 -8 -34 -1 -26 15 -28 14 -45 -10z m34 -20 c0 -17 -4 -28
-10 -24 -5 3 -10 17 -10 31 0 13 5 24 10 24 6 0 10 -14 10 -31z"/>
<path d="M5438 3522 c-14 -3 -18 -14 -18 -53 0 -27 5 -49 10 -49 11 0 13 17
10 63 -1 15 3 27 9 27 6 0 11 -12 11 -27 0 -25 2 -26 15 -12 27 27 2 60 -37
51z"/>
<path d="M5515 3521 c-18 -5 -19 -12 -14 -56 7 -57 11 -57 14 -1 1 23 7 42 15
44 9 3 11 -3 8 -22 -4 -22 -2 -26 12 -21 10 3 21 1 25 -5 9 -14 21 -13 39 6
22 21 20 41 -5 54 -15 9 -24 8 -35 -1 -9 -7 -18 -8 -26 -2 -7 5 -22 7 -33 4z
m90 -29 c0 -31 -19 -28 -23 4 -3 18 0 25 10 22 7 -3 13 -14 13 -26z"/>
<path d="M5778 3523 c-14 -3 -18 -15 -18 -48 0 -24 5 -47 10 -50 11 -7 14 13
11 58 -2 19 2 27 15 27 12 0 15 -6 11 -25 -3 -16 0 -24 7 -22 24 8 12 70 -13
66 -3 -1 -14 -3 -23 -6z"/>
<path d="M5853 3523 c-7 -2 -13 -9 -13 -15 0 -7 5 -6 14 1 11 9 14 6 14 -14 0
-14 -5 -25 -10 -25 -5 0 -6 5 -3 10 3 6 1 10 -5 10 -6 0 -10 -8 -8 -17 2 -11
12 -17 28 -17 22 0 25 3 21 29 -5 45 -10 50 -38 38z"/>
<path d="M6158 3522 c-19 -4 -26 -62 -8 -62 6 0 10 11 10 25 0 14 5 25 10 25
6 0 10 -11 10 -25 0 -14 5 -25 10 -25 15 0 12 57 -2 62 -7 2 -21 3 -30 0z"/>
<path d="M6259 3527 c-4 -32 -1 -67 7 -67 5 0 7 15 5 33 -3 30 -10 49 -12 34z"/>
<path d="M5340 3496 c0 -30 20 -47 46 -40 16 4 19 12 16 35 -5 35 -22 39 -22
4 0 -14 -4 -25 -10 -25 -5 0 -10 11 -10 25 0 14 -4 25 -10 25 -5 0 -10 -11
-10 -24z"/>
<path d="M5260 3470 c0 -5 5 -10 11 -10 5 0 7 5 4 10 -3 6 -8 10 -11 10 -2 0
-4 -4 -4 -10z"/>
<path d="M2105 3443 c-90 -14 -170 -46 -407 -163 -144 -72 -264 -130 -266
-130 -3 0 3 9 13 20 10 11 14 20 9 20 -5 0 -22 -16 -37 -35 l-28 -35 31 0 c19
0 29 4 25 10 -8 13 522 274 587 289 26 6 91 11 146 11 131 0 230 -26 346 -91
50 -27 174 -91 276 -142 l185 -92 -50 -6 c-41 -5 -44 -6 -15 -8 31 -1 16 -11
-140 -94 -96 -51 -213 -114 -260 -139 -122 -66 -184 -82 -310 -81 -152 1 -231
25 -404 122 -178 100 -390 211 -402 211 -5 0 99 -59 231 -131 132 -71 249
-136 260 -143 70 -45 266 -82 375 -71 106 11 147 27 416 169 141 75 259 136
261 136 3 0 0 -7 -7 -15 -7 -9 -11 -18 -8 -21 7 -7 60 65 56 76 -2 4 -97 56
-213 114 -115 59 -239 122 -275 141 -104 56 -296 94 -395 78z"/>
<path d="M4489 3448 c-5 -25 -3 -88 3 -88 4 0 8 20 8 45 0 25 -2 45 -5 45 -3
0 -5 -1 -6 -2z"/>
<path d="M5385 3400 c-98 -14 -142 -32 -326 -131 -96 -52 -214 -112 -262 -134
-47 -22 -86 -44 -86 -50 0 -5 17 -23 37 -40 20 -16 31 -22 23 -12 -7 9 -10 17
-6 17 5 0 217 -113 420 -225 68 -37 136 -55 225 -60 l85 -4 -72 8 c-128 15
-164 29 -417 166 -209 113 -244 134 -220 138 25 3 23 4 -8 6 -21 0 -38 4 -38
9 0 4 53 33 118 64 64 31 174 88 243 126 145 80 193 97 302 113 143 19 186 7
480 -138 143 -71 261 -132 264 -136 2 -4 -8 -5 -24 -2 -23 4 -24 4 -8 -4 11
-5 32 -10 48 -10 26 -1 27 -3 27 -51 0 -87 39 -153 112 -191 36 -18 69 -19
723 -19 735 0 711 -2 769 49 21 18 56 84 56 103 0 7 -9 -5 -19 -27 -22 -47
-64 -89 -104 -104 -19 -7 -251 -11 -703 -11 -735 0 -716 -1 -770 57 -93 101
-64 261 58 324 35 18 68 19 710 19 636 0 675 -1 714 -19 44 -20 90 -72 104
-118 6 -21 8 -23 9 -7 2 37 -54 110 -101 133 -45 21 -45 21 -736 19 l-690 -3
-43 -30 c-23 -16 -52 -49 -64 -72 l-22 -41 -32 29 c-17 16 -26 24 -21 17 29
-35 -10 -19 -222 90 -128 65 -255 126 -283 135 -64 21 -173 28 -250 17z"/>
<path d="M3540 3320 c0 -36 4 -50 14 -50 10 0 12 7 9 23 l-6 22 25 -22 c31
-29 44 -30 24 -2 -12 17 -12 25 -3 41 14 22 -3 38 -40 38 -21 0 -23 -5 -23
-50z m45 10 c-5 -8 -11 -8 -17 -2 -6 6 -7 16 -3 22 5 8 11 8 17 2 6 -6 7 -16
3 -22z"/>
<path d="M3640 3323 c5 -47 6 -48 40 -48 34 0 35 1 38 43 2 23 6 42 10 42 3 0
25 -21 48 -46 22 -26 44 -42 47 -37 10 17 -67 93 -94 93 -22 0 -24 -4 -24 -42
0 -37 -3 -43 -22 -46 -21 -3 -23 1 -23 42 0 31 -4 46 -13 46 -10 0 -11 -12 -7
-47z"/>
<path d="M3810 3360 c0 -5 5 -10 10 -10 6 0 10 5 10 10 0 6 -4 10 -10 10 -5 0
-10 -4 -10 -10z"/>
<path d="M3850 3362 c0 -15 78 -94 83 -84 4 5 -10 27 -30 50 -34 40 -53 52
-53 34z"/>
<path d="M3920 3360 c0 -5 5 -10 10 -10 6 0 10 5 10 10 0 6 -4 10 -10 10 -5 0
-10 -4 -10 -10z"/>
<path d="M3960 3320 c0 -33 4 -50 13 -50 8 0 12 17 12 50 0 33 -4 50 -12 50
-9 0 -13 -17 -13 -50z"/>
<path d="M4006 3355 c6 -15 72 -85 80 -85 16 0 -2 36 -33 65 -41 37 -56 44
-47 20z"/>
<path d="M4075 3360 c3 -5 8 -10 11 -10 2 0 4 5 4 10 0 6 -5 10 -11 10 -5 0
-7 -4 -4 -10z"/>
<path d="M4126 3354 c-29 -28 -14 -84 22 -84 10 0 10 3 -2 16 -32 32 -8 82 34
69 11 -4 20 -2 20 4 0 17 -57 13 -74 -5z"/>
<path d="M4232 3305 c0 -53 2 -57 14 -40 18 24 18 56 0 81 -14 17 -15 14 -14
-41z"/>
<path d="M3250 3341 c0 -27 45 -91 83 -118 l40 -28 231 -3 231 -4 -35 -18
c-23 -13 -29 -19 -17 -20 16 0 15 -4 -9 -32 -33 -40 -75 -128 -67 -142 4 -5
12 9 18 32 7 23 29 63 49 90 19 27 32 53 28 57 -4 5 -1 5 6 0 8 -4 12 -16 9
-26 -8 -30 9 -13 23 23 8 18 15 35 16 37 2 2 30 -18 63 -43 37 -28 66 -61 78
-86 19 -41 35 -54 26 -21 -7 27 -61 89 -105 122 l-39 28 243 3 c236 3 244 4
281 27 38 23 87 88 87 113 -1 7 -8 0 -17 -17 -25 -48 -63 -83 -107 -100 -35
-14 -106 -15 -512 -13 l-470 3 -42 28 c-25 16 -51 46 -66 75 -14 26 -25 41
-26 33z"/>
<path d="M3491 3330 c-10 -21 -10 -31 0 -55 l13 -30 4 28 c2 15 2 39 0 55 l-4
27 -13 -25z"/>
<path d="M465 3314 c-16 -8 -40 -25 -52 -36 -34 -32 -74 -128 -54 -128 6 0 11
9 11 20 0 47 59 119 113 139 18 7 158 11 388 11 333 0 363 -1 397 -19 41 -21
62 -42 85 -86 9 -16 16 -24 17 -16 0 23 -40 76 -78 102 l-36 24 -380 3 c-331
2 -385 0 -411 -14z"/>
<path d="M4185 3316 c-3 -9 -7 -23 -10 -31 -2 -8 2 -15 9 -15 8 0 16 11 18 25
6 28 -9 46 -17 21z"/>
<path d="M741 3274 c-10 -23 -10 -25 10 -19 15 5 22 2 26 -14 6 -24 18 -27 27
-6 3 8 -2 19 -12 24 -15 9 -14 10 6 11 13 0 22 -6 22 -15 0 -8 5 -15 10 -15 6
0 10 7 10 15 0 8 5 15 10 15 6 0 10 5 10 11 0 6 -9 8 -20 4 -13 -4 -20 -2 -20
7 0 8 -3 9 -8 3 -9 -13 -42 -16 -42 -4 0 18 -17 8 -29 -17z"/>
<path d="M891 3286 c-7 -8 -10 -20 -6 -26 4 -6 1 -17 -5 -25 -8 -10 -9 -15 -2
-15 6 0 13 -15 15 -32 3 -29 4 -28 5 9 1 23 7 45 12 48 17 10 11 28 -6 21 -14
-5 -15 -4 -4 9 7 9 11 18 8 20 -3 3 -11 -1 -17 -9z"/>
<path d="M940 3270 c0 -16 4 -30 8 -30 5 0 9 -13 10 -30 0 -16 -4 -30 -11 -30
-8 0 -8 -3 0 -11 16 -16 33 -2 33 27 0 13 6 24 13 24 9 0 8 3 -2 9 -11 7 -11
9 0 14 8 3 4 6 -8 6 -18 1 -23 7 -23 26 0 14 -4 25 -10 25 -5 0 -10 -13 -10
-30z"/>
<path d="M978 3273 c7 -3 16 -2 19 1 4 3 -2 6 -13 5 -11 0 -14 -3 -6 -6z"/>
<path d="M4008 3273 c7 -3 16 -2 19 1 4 3 -2 6 -13 5 -11 0 -14 -3 -6 -6z"/>
<path d="M778 3211 l-36 -6 26 -19 c22 -17 25 -17 19 -3 -4 11 -1 17 9 17 11
0 13 -6 9 -20 -4 -12 -2 -20 5 -20 7 0 14 9 17 20 3 11 10 20 17 20 6 0 4 5
-4 10 -8 5 -17 9 -20 8 -3 0 -21 -4 -42 -7z"/>
<path d="M7249 3203 c-1 -10 0 -22 2 -28 2 -5 4 -28 5 -50 1 -43 24 -63 24
-21 0 14 5 26 12 26 6 0 8 3 5 7 -4 3 -2 12 4 20 9 11 7 13 -12 11 -19 -3 -23
1 -21 19 2 12 -2 24 -8 28 -5 3 -11 -2 -11 -12z"/>
<path d="M6759 3198 c-1 -7 0 -19 1 -27 1 -8 -3 -17 -8 -20 -5 -3 -12 -17 -15
-31 -5 -21 -2 -25 16 -27 12 -1 40 -5 62 -9 l40 -6 1 66 c0 36 -3 66 -7 66 -9
0 -18 -50 -14 -82 2 -17 -2 -28 -9 -28 -12 0 -13 52 -1 83 4 9 3 17 -3 17 -6
0 -13 -9 -17 -19 -4 -14 -11 -18 -23 -14 -9 4 -11 8 -5 10 13 5 6 33 -8 33 -5
0 -10 -6 -10 -12z m41 -83 c0 -8 -4 -15 -10 -15 -5 0 -10 7 -10 15 0 8 5 15
10 15 6 0 10 -7 10 -15z"/>
<path d="M6980 3195 c0 -8 -9 -15 -20 -15 -11 0 -20 5 -20 10 0 20 -19 10 -23
-12 l-4 -23 -2 23 c0 12 -5 22 -11 22 -5 0 -10 -26 -10 -57 0 -57 14 -64 23
-13 4 24 4 24 6 -2 2 -41 21 -34 21 7 0 29 4 35 21 35 20 0 21 -4 16 -45 -3
-32 -1 -45 7 -42 6 2 12 22 14 45 2 23 7 42 13 42 5 0 4 9 -3 20 -15 24 -28
26 -28 5z"/>
<path d="M7042 3182 c-9 -19 -8 -21 2 -13 17 14 46 4 46 -15 0 -8 5 -14 11
-14 7 0 10 -12 7 -30 -3 -20 0 -30 9 -30 7 0 13 7 13 15 0 7 7 18 16 23 14 8
13 10 -7 15 -28 8 -55 54 -31 54 8 0 17 -9 20 -19 2 -10 8 -15 13 -12 5 3 6
10 3 16 -4 6 0 14 7 19 16 10 17 9 -57 13 -34 2 -42 -2 -52 -22z"/>
<path d="M7190 3195 c-7 -8 -8 -15 -2 -15 5 0 15 7 22 15 7 8 8 15 2 15 -5 0
-15 -7 -22 -15z"/>
<path d="M7280 3190 c0 -5 5 -10 10 -10 6 0 10 5 10 10 0 6 -4 10 -10 10 -5 0
-10 -4 -10 -10z"/>
<path d="M1372 3128 c-3 -96 -38 -153 -117 -189 -36 -17 -71 -19 -388 -19
-373 0 -391 2 -445 53 -29 27 -52 69 -52 97 0 11 -5 20 -11 20 -14 0 -3 -36
29 -89 18 -29 42 -52 72 -68 45 -23 45 -23 417 -20 l371 2 44 30 c61 42 90
105 85 181 l-3 59 -2 -57z"/>
<path d="M7193 3165 c-11 -19 -4 -85 8 -85 5 0 9 15 9 34 0 19 3 41 6 50 8 20
-12 21 -23 1z"/>
<path d="M6950 3140 c0 -5 5 -10 10 -10 6 0 10 5 10 10 0 6 -4 10 -10 10 -5 0
-10 -4 -10 -10z"/>
<path d="M352 3120 c0 -14 2 -19 5 -12 2 6 2 18 0 25 -3 6 -5 1 -5 -13z"/>
<path d="M1468 3133 c7 -3 16 -2 19 1 4 3 -2 6 -13 5 -11 0 -14 -3 -6 -6z"/>
<path d="M7230 3114 c0 -8 5 -12 10 -9 6 4 8 11 5 16 -9 14 -15 11 -15 -7z"/>
<path d="M7060 3116 c0 -2 7 -9 15 -16 12 -10 15 -10 15 4 0 9 -7 16 -15 16
-8 0 -15 -2 -15 -4z"/>
<path d="M4370 3060 c0 -38 4 -50 15 -50 11 0 15 12 15 50 0 38 -4 50 -15 50
-11 0 -15 -12 -15 -50z"/>
<path d="M4450 3096 c0 -8 -9 -18 -21 -21 -15 -5 -19 -14 -17 -33 2 -22 9 -28
33 -30 l30 -3 -3 51 c-2 27 -8 50 -13 50 -5 0 -9 -6 -9 -14z m0 -51 c0 -14 -4
-25 -10 -25 -5 0 -10 11 -10 25 0 14 5 25 10 25 6 0 10 -11 10 -25z"/>
<path d="M4491 3076 c-12 -31 -8 -58 12 -74 10 -8 12 -1 9 31 -5 68 -8 74 -21
43z"/>
<path d="M4551 3050 c0 -51 1 -53 14 -36 8 11 15 27 15 36 0 9 -7 25 -15 36
-13 17 -14 15 -14 -36z"/>
<path d="M6065 3033 c-55 -30 -161 -90 -235 -133 -135 -77 -191 -100 -285
-119 l-50 -10 50 4 c81 6 138 31 350 150 110 62 219 122 243 134 39 20 53 32
35 30 -5 0 -53 -25 -108 -56z"/>
<path d="M554 3048 c7 -18 16 -42 20 -53 7 -19 8 -19 18 -1 7 13 7 20 0 25 -6
3 -14 19 -17 34 -4 15 -13 27 -21 27 -11 0 -11 -6 0 -32z"/>
<path d="M595 3058 c11 -37 29 -78 35 -78 3 0 12 17 19 38 8 20 16 43 18 50 3
6 0 12 -6 12 -6 0 -11 -10 -11 -22 0 -13 -4 -29 -9 -37 -7 -11 -11 -5 -16 22
-5 23 -13 37 -22 37 -10 0 -12 -6 -8 -22z"/>
<path d="M800 3030 c0 -27 5 -50 10 -50 6 0 10 23 10 50 0 28 -4 50 -10 50 -5
0 -10 -22 -10 -50z"/>
<path d="M840 3070 c0 -5 7 -7 15 -4 12 5 15 -3 15 -40 0 -25 5 -46 10 -46 6
0 10 21 10 46 0 42 2 45 21 39 15 -5 19 -4 15 4 -9 14 -86 15 -86 1z"/>
<path d="M940 3030 c0 -27 5 -50 10 -50 6 0 10 23 10 50 0 28 -4 50 -10 50 -5
0 -10 -22 -10 -50z"/>
<path d="M984 3064 c3 -9 7 -32 7 -52 l2 -37 6 35 6 35 24 -32 c14 -18 28 -33
33 -33 4 0 8 23 8 50 0 28 -4 50 -8 50 -4 0 -6 -17 -4 -37 l4 -38 -32 38 c-32
38 -57 49 -46 21z"/>
<path d="M1099 3061 c-20 -16 -22 -23 -14 -47 6 -15 16 -29 23 -32 11 -3 12 0
2 18 -19 35 2 74 36 66 17 -5 23 -3 19 4 -10 16 -40 12 -66 -9z"/>
<path d="M4190 3075 c0 -14 32 -66 37 -61 8 7 -17 66 -28 66 -5 0 -9 -2 -9 -5z"/>
<path d="M4270 3045 c0 -19 5 -35 10 -35 6 0 10 16 10 35 0 19 -4 35 -10 35
-5 0 -10 -16 -10 -35z"/>
<path d="M4310 3065 c-23 -28 17 -72 43 -46 8 8 6 11 -10 11 -16 0 -21 6 -20
20 1 22 13 27 20 8 2 -7 8 -10 12 -6 10 9 -3 28 -19 28 -8 0 -19 -7 -26 -15z"/>
<path d="M7852 3050 c0 -19 2 -27 5 -17 2 9 2 25 0 35 -3 9 -5 1 -5 -18z"/>
<path d="M703 3025 c-11 -25 -17 -45 -13 -45 4 0 10 7 14 15 3 8 12 15 21 15
9 0 18 -7 21 -15 4 -8 12 -15 19 -15 9 0 7 13 -8 45 -12 25 -24 45 -27 45 -3
0 -15 -20 -27 -45z m27 5 c0 -5 -5 -10 -11 -10 -5 0 -7 5 -4 10 3 6 8 10 11
10 2 0 4 -4 4 -10z"/>
<path d="M1214 3017 c0 -57 9 -66 20 -22 4 14 1 37 -7 52 -14 25 -14 24 -13
-30z"/>
<path d="M496 3044 c-11 -28 -6 -51 15 -75 l20 -24 -12 24 c-6 13 -9 39 -6 57
6 35 -6 47 -17 18z"/>
<path d="M3085 3040 c-17 -4 -22 -8 -11 -9 15 -1 16 -4 7 -15 -10 -11 -8 -15
6 -19 16 -4 15 -6 -4 -12 -24 -8 -31 -25 -11 -25 6 0 3 -7 -8 -15 -22 -17 -12
-20 16 -5 16 8 18 8 14 -5 -4 -10 0 -15 10 -15 11 0 16 9 16 26 0 23 3 25 25
20 14 -4 25 -2 25 3 0 13 -27 21 -47 15 -10 -2 -8 1 5 7 28 15 29 33 1 24 -15
-5 -19 -4 -15 4 4 6 13 11 21 11 8 0 17 5 20 10 7 11 -25 11 -70 0z"/>
<path d="M3201 3028 c-5 -13 -5 -25 1 -29 5 -3 6 -14 2 -24 -5 -13 -3 -16 7
-13 8 3 14 10 14 16 0 5 3 14 8 18 13 14 7 26 -10 19 -15 -5 -16 -4 -5 6 15
16 16 29 2 29 -6 0 -14 -10 -19 -22z"/>
<path d="M3260 3023 c-18 -38 -21 -96 -5 -83 9 8 14 6 19 -5 6 -17 41 -20 51
-5 3 6 -3 10 -14 10 -16 0 -20 6 -19 25 1 14 9 25 17 25 12 0 12 3 3 12 -9 9
-15 9 -24 0 -17 -17 -33 -15 -18 3 7 8 21 15 31 15 11 0 19 5 19 11 0 6 -7 9
-15 5 -8 -3 -15 -1 -15 4 0 20 -17 9 -30 -17z"/>
<path d="M3360 3041 c0 -5 5 -13 10 -16 6 -3 10 -2 10 4 0 5 -4 13 -10 16 -5
3 -10 2 -10 -4z"/>
<path d="M3389 3003 c-1 -30 -4 -37 -6 -20 -7 44 -29 33 -25 -12 3 -32 8 -39
23 -38 10 1 19 5 19 9 0 4 11 8 25 8 14 0 24 -5 23 -11 -2 -6 2 -13 9 -16 8
-3 12 17 15 61 l3 66 -42 0 -43 0 -1 -47z m34 17 c-6 -22 12 -28 20 -7 3 7 6
5 6 -5 1 -12 -6 -18 -19 -18 -15 0 -20 7 -20 25 0 14 4 25 9 25 5 0 7 -9 4
-20z"/>
<path d="M3542 3028 c-8 -18 -11 -19 -11 -5 -1 9 -8 17 -16 17 -12 0 -15 -13
-15 -57 0 -41 3 -54 10 -43 5 8 10 25 10 38 0 12 5 22 10 22 6 0 10 -7 10 -15
0 -9 6 -12 15 -9 10 4 15 0 15 -11 0 -9 -3 -14 -7 -12 -5 2 -15 -3 -23 -12
-14 -15 -12 -17 26 -16 23 0 46 3 50 8 4 4 -3 7 -16 7 -18 0 -20 3 -10 15 6 8
9 19 5 25 -4 6 1 18 11 25 11 8 14 15 7 15 -6 0 -18 3 -26 6 -10 3 -17 -1 -20
-13 -2 -10 -3 -6 -1 10 4 33 -9 35 -24 5z"/>
<path d="M1155 3005 c0 -30 19 -27 23 3 2 13 -2 22 -10 22 -7 0 -13 -11 -13
-25z"/>
<path d="M4022 2980 c0 -19 2 -27 5 -17 2 9 2 25 0 35 -3 9 -5 1 -5 -18z"/>
<path d="M4190 2990 c0 -5 4 -10 9 -10 6 0 13 5 16 10 3 6 -1 10 -9 10 -9 0
-16 -4 -16 -10z"/>
<path d="M6443 2993 c16 -4 18 -13 15 -49 -2 -34 0 -44 12 -44 12 0 14 10 11
47 -3 39 -1 45 13 40 9 -4 16 -2 16 3 0 6 -19 9 -42 9 -24 -1 -35 -3 -25 -6z"/>
<path d="M6528 2950 c-2 -39 0 -50 12 -50 12 0 14 11 12 50 -2 27 -8 50 -12
50 -4 0 -10 -23 -12 -50z"/>
<path d="M6575 2950 c0 -30 4 -50 11 -50 7 0 9 11 6 26 -3 19 -1 25 7 20 6 -4
11 -13 11 -21 0 -29 20 -25 34 7 l14 33 1 -32 c2 -56 26 -40 26 17 0 57 -16
66 -35 20 -7 -16 -16 -30 -20 -30 -4 0 -13 14 -20 30 -19 46 -35 37 -35 -20z"/>
<path d="M6708 2950 l-3 -50 38 0 c20 0 37 4 37 9 0 4 -11 6 -25 3 -21 -3 -25
0 -25 18 0 17 4 21 20 17 11 -3 20 -1 20 4 0 5 -9 9 -20 9 -30 0 -24 28 8 33
22 3 21 4 -10 6 l-36 1 -4 -50z"/>
<path d="M6798 2950 l-3 -50 32 0 c17 0 39 7 47 16 34 34 8 84 -44 84 -27 0
-28 -3 -32 -50z m66 18 c13 -21 -2 -51 -28 -56 -13 -3 -16 5 -16 38 0 33 3 41
16 38 9 -2 22 -11 28 -20z"/>
<path d="M6984 2968 c7 -18 16 -42 20 -53 6 -16 9 -17 16 -5 12 19 13 43 1 36
-5 -4 -12 7 -16 24 -4 16 -13 30 -20 30 -12 0 -12 -5 -1 -32z"/>
<path d="M7032 2968 c5 -18 12 -41 15 -50 8 -26 20 -22 25 7 3 13 1 22 -4 19
-4 -3 -11 8 -14 25 -4 17 -12 31 -20 31 -10 0 -10 -7 -2 -32z"/>
<path d="M7080 2985 c0 -8 2 -15 4 -15 2 0 6 7 10 15 3 8 1 15 -4 15 -6 0 -10
-7 -10 -15z"/>
<path d="M7133 2950 c-17 -39 -18 -50 -7 -50 8 0 11 6 8 15 -4 8 -1 15 5 15 6
0 10 3 10 8 -5 30 5 30 18 0 8 -21 21 -38 28 -38 9 0 6 15 -11 50 -13 28 -25
50 -27 50 -2 0 -13 -22 -24 -50z"/>
<path d="M7230 2950 c0 -33 4 -50 13 -50 8 0 12 17 12 50 0 33 -4 50 -12 50
-9 0 -13 -17 -13 -50z"/>
<path d="M7283 2993 c13 -3 17 -15 17 -49 0 -29 4 -44 13 -44 8 0 11 14 8 47
-3 39 -1 45 13 40 9 -4 16 -2 16 3 0 6 -19 9 -42 9 -24 -1 -35 -3 -25 -6z"/>
<path d="M7370 2950 c0 -33 4 -50 13 -50 8 0 12 17 12 50 0 33 -4 50 -12 50
-9 0 -13 -17 -13 -50z"/>
<path d="M7415 2950 c0 -29 5 -50 11 -50 6 0 9 13 6 33 l-4 32 31 -29 c45 -43
50 -24 5 24 -21 22 -41 40 -44 40 -3 0 -5 -22 -5 -50z"/>
<path d="M7485 2990 c3 -5 8 -10 11 -10 2 0 4 5 4 10 0 6 -5 10 -11 10 -5 0
-7 -4 -4 -10z"/>
<path d="M7525 2980 c-15 -16 -17 -26 -9 -48 8 -23 15 -27 49 -27 36 0 40 3
43 28 2 19 -1 27 -13 27 -11 0 -14 -6 -9 -25 5 -21 3 -25 -15 -25 -19 0 -41
26 -41 49 0 5 7 17 16 25 8 9 11 16 6 16 -5 0 -17 -9 -27 -20z"/>
<path d="M7570 2996 c0 -2 7 -6 15 -10 8 -3 15 -1 15 4 0 6 -7 10 -15 10 -8 0
-15 -2 -15 -4z"/>
<path d="M6392 2978 c-16 -16 -15 -60 1 -81 10 -15 12 -9 12 38 0 30 0 55 0
55 -1 0 -6 -5 -13 -12z"/>
<path d="M7643 2934 l0 -59 15 31 c12 27 12 34 0 59 -15 28 -15 27 -15 -31z"/>
<path d="M3143 2943 c9 -9 20 -13 24 -9 4 4 1 11 -7 16 -25 16 -35 11 -17 -7z"/>
<path d="M3707 2945 c-4 -8 -2 -17 3 -20 6 -4 10 3 10 14 0 25 -6 27 -13 6z"/>
<path d="M3190 2940 c0 -13 11 -13 30 0 12 8 11 10 -7 10 -13 0 -23 -4 -23
-10z"/>
<path d="M4006 2913 c-4 -16 -22 -48 -41 -72 -19 -24 -32 -48 -29 -53 4 -6 -3
-5 -14 1 -17 9 -22 8 -27 -9 -3 -11 -12 -20 -18 -20 -23 0 -112 76 -132 113
-11 20 -24 37 -28 37 -20 0 42 -86 81 -114 l44 -31 -229 -5 c-220 -5 -230 -6
-271 -30 -42 -24 -93 -90 -92 -121 1 -8 10 4 22 26 29 56 47 75 93 96 37 17
75 19 505 19 431 0 468 -2 505 -19 44 -20 74 -50 98 -96 9 -17 16 -23 17 -14
0 29 -58 96 -102 118 -41 19 -61 21 -254 21 -186 1 -206 2 -184 15 20 11 21
14 7 15 -15 0 -13 6 12 38 34 42 66 112 52 112 -5 0 -12 -12 -15 -27z"/>
<path d="M4596 2895 c-4 -14 -11 -23 -16 -20 -6 4 -8 11 -5 16 4 5 0 9 -8 9
-11 0 -16 -15 -19 -55 -3 -54 4 -71 16 -39 3 9 6 24 6 35 0 10 5 19 10 19 6 0
10 -8 10 -17 0 -26 17 -2 23 34 8 38 -8 54 -17 18z"/>
<path d="M4140 2900 c-14 -4 -18 -9 -10 -9 12 -1 12 -4 -3 -15 -16 -12 -15
-14 15 -20 23 -4 37 -2 47 10 15 14 13 15 -14 8 -35 -8 -32 -1 10 20 29 16 29
16 5 15 -14 -1 -36 -5 -50 -9z"/>
<path d="M4251 2888 c-5 -15 -4 -26 3 -30 8 -6 7 -10 -3 -17 -7 -5 -9 -11 -4
-14 5 -3 15 -2 23 4 8 5 11 9 7 9 -4 0 -3 10 4 22 10 19 9 20 -7 14 -15 -6
-17 -5 -6 5 15 16 16 29 2 29 -6 0 -14 -10 -19 -22z"/>
<path d="M4310 2883 c-7 -16 -13 -39 -14 -53 -1 -21 -5 -25 -28 -22 -16 2 -28
0 -28 -5 0 -10 51 -10 66 0 7 4 14 0 18 -8 6 -17 42 -20 51 -5 3 6 -3 10 -14
10 -16 0 -21 6 -21 25 0 17 6 25 17 25 12 0 14 3 6 11 -8 8 -17 7 -34 -2 -23
-12 -24 -11 -6 8 18 21 23 43 9 43 -5 0 -15 -12 -22 -27z"/>
<path d="M4400 2899 c0 -5 7 -9 15 -9 11 0 15 -10 13 -37 -1 -38 -1 -38 -5 -5
-6 44 -23 30 -23 -19 0 -42 11 -46 56 -22 12 7 25 8 35 2 12 -8 12 -9 0 -9
-11 0 -12 -3 -4 -11 21 -21 33 2 33 62 l0 60 -60 -2 c-33 -1 -60 -6 -60 -10z
m87 -45 c-3 -3 -12 -4 -19 -1 -8 3 -5 6 6 6 11 1 17 -2 13 -5z"/>
<path d="M4350 2890 c0 -5 5 -10 10 -10 6 0 10 5 10 10 0 6 -4 10 -10 10 -5 0
-10 -4 -10 -10z"/>
<path d="M4633 2893 c-7 -2 -13 -18 -13 -35 0 -19 -9 -39 -23 -52 l-23 -21 43
0 c43 1 75 15 33 15 -18 0 -20 3 -10 15 6 8 8 20 4 26 -4 7 1 18 11 26 18 13
18 13 -1 14 -18 0 -18 1 1 9 21 9 0 12 -22 3z"/>
<path d="M4122 2842 c-7 -2 -9 -8 -6 -13 3 -6 0 -16 -6 -24 -15 -17 -6 -19 20
-5 16 8 18 8 14 -5 -4 -10 0 -15 10 -15 11 0 16 9 16 26 0 21 4 25 20 21 11
-3 23 -1 26 4 3 5 2 9 -3 10 -32 4 -80 5 -91 1z"/>
<path d="M4193 2803 c9 -9 20 -13 24 -9 4 4 1 11 -7 16 -25 16 -35 11 -17 -7z"/>
<path d="M4871 2736 c-16 -19 -10 -66 10 -79 23 -15 68 0 79 26 8 21 9 21 9
-5 1 -28 13 -34 45 -22 24 9 20 55 -4 61 -11 3 -20 12 -20 19 0 8 -6 14 -14
14 -10 0 -12 -7 -9 -22 l5 -23 -16 23 c-20 25 -67 30 -85 8z m63 -20 c8 -33
-2 -56 -24 -56 -22 0 -34 31 -25 60 9 28 41 25 49 -4z m76 -37 c0 -10 -4 -19
-10 -19 -5 0 -10 12 -10 26 0 14 4 23 10 19 6 -3 10 -15 10 -26z"/>
<path d="M1107 2722 c-24 -27 -21 -59 8 -78 23 -15 27 -15 50 0 30 20 33 56 7
79 -24 22 -45 21 -65 -1z m57 -25 c8 -21 6 -31 -7 -44 -29 -30 -59 14 -41 62
10 24 37 14 48 -18z"/>
<path d="M1198 2735 c-8 -9 7 -98 18 -102 7 -2 9 8 6 27 -2 17 0 30 6 30 6 0
12 -12 14 -27 4 -25 5 -26 13 -9 9 21 -6 53 -24 49 -6 -2 -11 3 -11 11 0 15
-14 29 -22 21z"/>
<path d="M1772 2728 c-14 -14 -16 -98 -2 -98 6 0 10 23 10 51 0 41 3 50 15 45
8 -3 15 -1 15 4 0 14 -24 12 -38 -2z"/>
<path d="M5530 2695 c0 -53 16 -61 22 -11 4 39 0 56 -13 56 -5 0 -9 -20 -9
-45z"/>
<path d="M5650 2721 c-14 -26 -13 -54 3 -75 11 -15 13 -10 13 38 -1 31 -2 56
-3 56 -1 0 -7 -9 -13 -19z"/>
<path d="M5705 2686 c0 -42 3 -52 13 -44 13 11 16 56 6 82 -12 30 -19 16 -19
-38z"/>
<path d="M5219 2726 c-3 -3 -3 -21 -1 -41 6 -47 27 -46 26 2 -1 34 -12 51 -25
39z"/>
<path d="M5440 2715 c0 -14 -3 -15 -15 -5 -22 18 -55 3 -55 -26 0 -29 25 -42
51 -26 11 7 20 8 24 2 12 -20 20 -9 19 27 -1 36 -24 62 -24 28z m-30 -30 c0
-14 -4 -25 -10 -25 -5 0 -10 11 -10 25 0 14 5 25 10 25 6 0 10 -11 10 -25z"/>
<path d="M1455 2714 c-13 -5 -7 -72 6 -80 5 -3 9 15 9 40 0 25 -1 46 -2 45 -2
0 -8 -3 -13 -5z"/>
<path d="M1672 2700 c-6 -14 -11 -20 -11 -14 -1 18 -32 26 -47 13 -18 -15 -18
-55 0 -62 12 -5 13 1 9 29 -4 22 -2 34 6 34 10 0 15 -16 14 -48 -1 -9 3 -10
12 -2 9 8 14 8 17 -1 9 -28 23 -1 17 36 -5 39 -6 39 -17 15z"/>
<path d="M1880 2695 c-6 -16 -6 -34 0 -50 14 -37 18 -31 17 25 0 28 -2 50 -4
50 -2 0 -8 -11 -13 -25z"/>
<path d="M1944 2671 c0 -52 9 -57 21 -11 3 15 0 33 -8 43 -12 17 -13 13 -13
-32z"/>
<path d="M5050 2675 c0 -36 -4 -45 -17 -46 -12 0 -13 -2 -5 -6 22 -9 42 18 42
58 0 22 -4 39 -10 39 -5 0 -10 -20 -10 -45z"/>
<path d="M5090 2705 c-18 -22 -8 -50 20 -53 20 -2 22 -1 10 7 -15 10 -24 51
-11 51 3 0 17 -14 30 -30 13 -17 30 -30 38 -30 12 0 12 2 -1 16 -23 23 -21 47
4 39 11 -4 20 -2 20 4 0 14 -33 14 -47 0 -8 -8 -13 -8 -17 0 -10 15 -31 14
-46 -4z"/>
<path d="M5299 2718 c-7 -23 -1 -68 9 -68 7 0 12 13 12 33 0 24 3 28 10 17 5
-8 7 -23 4 -32 -3 -12 0 -18 10 -18 16 0 21 26 10 54 -5 13 -52 24 -55 14z"/>
<path d="M5489 2718 c-7 -23 -1 -68 9 -68 7 0 12 14 12 35 0 19 -4 35 -10 35
-5 0 -10 -1 -11 -2z"/>
<path d="M5570 2713 c1 -5 7 -19 15 -33 12 -22 11 -27 -2 -42 -11 -12 -12 -18
-4 -18 6 0 21 21 31 46 23 53 25 70 5 34 l-15 -25 -6 23 c-6 20 -24 32 -24 15z"/>
<path d="M1322 2698 c-17 -17 -15 -43 3 -58 12 -10 19 -10 27 -2 9 9 8 12 -5
12 -11 0 -17 8 -17 25 0 14 3 25 6 25 9 0 34 -28 34 -38 0 -20 28 -34 47 -23
17 10 17 10 0 11 -20 0 -32 23 -22 40 5 8 11 7 23 -2 13 -11 14 -11 10 2 -3 8
-14 14 -24 12 -31 -5 -38 -5 -54 2 -9 4 -21 1 -28 -6z"/>
<path d="M1545 2701 c-22 -7 -30 -61 -9 -61 7 0 9 10 6 26 -4 20 -1 25 9 22 8
-3 14 -15 13 -27 0 -11 5 -21 11 -21 7 0 10 11 7 30 -5 35 -10 39 -37 31z"/>
<path d="M1278 2660 c3 -25 0 -40 -7 -40 -6 0 -11 -5 -11 -10 0 -7 6 -7 20 0
15 8 20 21 20 50 0 26 -5 40 -13 40 -9 0 -11 -12 -9 -40z"/>
<path d="M1716 2673 c1 -40 18 -44 22 -5 2 21 -1 32 -10 32 -8 0 -13 -11 -12
-27z"/>
<path d="M1816 2668 c15 -30 15 -32 -2 -45 -9 -7 -14 -16 -10 -20 9 -9 36 25
36 45 0 19 -19 52 -31 52 -5 0 -2 -14 7 -32z"/>
<path d="M3450 2605 c0 -9 10 -16 28 -16 23 -2 24 -2 4 -6 -12 -2 -20 -9 -17
-14 4 -5 1 -9 -4 -9 -6 0 -11 5 -11 10 0 6 -5 10 -11 10 -7 0 -9 -9 -6 -22 3
-12 1 -31 -5 -42 -11 -20 -10 -20 7 -6 17 14 18 13 12 -2 -4 -12 -2 -18 8 -18
8 0 15 6 15 13 0 9 3 8 9 -2 6 -10 10 -10 16 -1 5 8 11 6 20 -6 13 -18 51 -12
40 6 -4 6 -11 8 -16 5 -5 -4 -9 9 -9 29 0 19 5 36 12 38 7 3 2 13 -12 26 -18
17 -26 19 -32 10 -6 -10 -11 -10 -28 0 -17 10 -20 10 -20 -3z m44 -60 c-4 -8
-11 -15 -16 -15 -6 0 -5 6 2 15 7 8 14 15 16 15 2 0 1 -7 -2 -15z"/>
<path d="M3577 2591 c-13 -26 -13 -30 2 -34 9 -2 22 -2 29 0 14 5 16 33 2 33
-5 0 -10 -5 -10 -12 0 -6 -3 -8 -6 -5 -4 4 -1 13 5 21 7 9 8 17 2 20 -5 4 -16
-7 -24 -23z"/>
<path d="M3634 2595 c-3 -13 -3 -28 0 -34 7 -11 -29 -25 -43 -16 -5 3 -12 1
-16 -5 -4 -6 5 -10 19 -10 14 0 27 -4 27 -10 1 -5 2 -14 3 -20 2 -20 21 -4 20
18 -1 12 4 22 11 22 8 0 12 -10 10 -25 -1 -16 3 -25 11 -25 21 0 18 57 -3 63
-13 3 -11 5 6 6 18 1 21 4 12 14 -6 8 -9 16 -7 18 3 2 -6 9 -20 16 -21 10 -25
9 -30 -12z"/>
<path d="M3770 2556 c0 -44 3 -56 16 -56 11 0 14 6 9 20 -8 26 2 25 25 -2 10
-13 22 -20 26 -15 4 4 1 15 -8 24 -13 12 -14 20 -5 34 14 22 4 35 -35 44 l-28
7 0 -56z m48 22 c-6 -18 -28 -21 -28 -4 0 9 7 16 16 16 9 0 14 -5 12 -12z"/>
<path d="M3870 2555 l0 -55 35 0 c19 0 35 5 35 10 0 6 -11 8 -25 4 -21 -5 -25
-3 -25 14 0 13 8 22 23 25 l22 4 -22 2 c-17 1 -23 7 -23 26 0 14 -4 25 -10 25
-5 0 -10 -25 -10 -55z"/>
<path d="M3915 2600 c3 -5 11 -10 16 -10 6 0 7 5 4 10 -3 6 -11 10 -16 10 -6
0 -7 -4 -4 -10z"/>
<path d="M4060 2556 c0 -53 1 -56 26 -56 44 0 64 17 64 55 0 39 -2 41 -53 50
l-37 7 0 -56z m68 6 c4 -23 -13 -52 -29 -52 -5 0 -9 18 -9 41 0 33 3 40 18 37
9 -2 18 -14 20 -26z"/>
<path d="M4170 2602 c0 -5 7 -17 15 -28 8 -10 15 -31 15 -46 0 -18 5 -28 15
-28 23 0 19 46 -7 80 -21 29 -38 39 -38 22z"/>
<path d="M4240 2594 c0 -8 5 -12 10 -9 6 3 10 10 10 16 0 5 -4 9 -10 9 -5 0
-10 -7 -10 -16z"/>
<path d="M3990 2590 c0 -22 35 -90 47 -90 8 0 5 16 -9 50 -19 45 -38 66 -38
40z"/>
<path d="M4285 2544 c0 -62 18 -68 23 -7 2 24 -2 44 -10 51 -10 8 -13 -1 -13
-44z"/>
<path d="M4486 2591 c-4 -5 -2 -20 3 -33 9 -21 10 -21 10 10 1 32 -3 39 -13
23z"/>
<path d="M3720 2568 c-11 -24 -11 -32 0 -55 l14 -28 4 28 c2 15 2 39 0 55 l-4
27 -14 -27z"/>
<path d="M4969 2565 c-2 -2 -3 -24 -1 -50 4 -49 22 -66 47 -45 22 18 19 51 -5
57 -11 3 -20 11 -20 19 0 13 -14 27 -21 19z m41 -76 c0 -10 -4 -19 -10 -19 -5
0 -10 12 -10 26 0 14 4 23 10 19 6 -3 10 -15 10 -26z"/>
<path d="M5490 2560 c0 -5 5 -10 11 -10 5 0 7 5 4 10 -3 6 -8 10 -11 10 -2 0
-4 -4 -4 -10z"/>
<path d="M5542 2558 c-14 -14 -16 -98 -2 -98 9 0 15 42 11 82 -2 13 2 16 15
11 12 -4 15 -3 10 5 -9 15 -19 15 -34 0z"/>
<path d="M5761 2570 c-8 -21 -4 -110 4 -110 6 0 9 18 7 43 -3 45 -9 75 -11 67z"/>
<path d="M5799 2568 c0 -2 -1 -27 -2 -56 -1 -36 2 -52 11 -52 15 0 17 96 2
105 -5 3 -10 5 -11 3z"/>
<path d="M4872 2548 c-28 -28 -2 -88 38 -88 40 0 66 60 38 88 -20 20 -28 13
-17 -14 12 -34 3 -64 -21 -64 -24 0 -36 40 -20 69 12 23 1 28 -18 9z"/>
<path d="M5677 2543 c-2 -10 -8 -26 -12 -35 -4 -11 -3 -18 4 -18 6 0 11 9 11
21 0 29 17 15 25 -21 4 -17 13 -30 22 -30 8 0 13 3 11 8 -2 4 -12 26 -22 50
-20 45 -31 52 -39 25z"/>
<path d="M1108 2539 c-21 -12 -24 -59 -6 -77 7 -7 24 -12 38 -12 32 0 50 17
50 46 0 44 -43 66 -82 43z m57 -19 c9 -30 -4 -60 -26 -60 -24 0 -33 21 -25 55
8 31 42 34 51 5z"/>
<path d="M1199 2499 c3 -48 4 -50 30 -47 20 2 27 9 29 31 3 22 -1 30 -17 34
-12 3 -21 12 -21 19 0 8 -6 14 -12 14 -9 0 -12 -15 -9 -51z m41 -19 c0 -11 -4
-20 -10 -20 -5 0 -10 9 -10 20 0 11 5 20 10 20 6 0 10 -9 10 -20z"/>
<path d="M1772 2538 c-14 -14 -16 -88 -2 -88 9 0 15 45 10 79 -1 9 4 12 14 8
9 -4 16 -2 16 3 0 14 -24 12 -38 -2z"/>
<path d="M1906 2515 c-9 -21 -16 -41 -16 -45 0 -5 -6 -11 -12 -13 -8 -3 -6 -6
5 -6 9 -1 17 6 17 14 0 8 9 15 20 15 11 0 20 -7 20 -15 0 -8 7 -15 15 -15 13
0 13 5 -2 43 -23 61 -30 64 -47 22z m24 -15 c0 -5 -4 -10 -10 -10 -5 0 -10 5
-10 10 0 6 5 10 10 10 6 0 10 -4 10 -10z"/>
<path d="M1985 2500 c0 -33 4 -50 13 -50 8 0 12 17 12 50 0 33 -4 50 -12 50
-9 0 -13 -17 -13 -50z"/>
<path d="M2030 2500 c0 -27 5 -50 10 -50 6 0 10 23 10 50 0 28 -4 50 -10 50
-5 0 -10 -22 -10 -50z"/>
<path d="M3970 2539 c0 -5 5 -7 10 -4 6 3 10 8 10 11 0 2 -4 4 -10 4 -5 0 -10
-5 -10 -11z"/>
<path d="M5842 2538 c-16 -16 -15 -60 1 -81 10 -15 12 -9 12 38 0 30 0 55 0
55 -1 0 -6 -5 -13 -12z"/>
<path d="M5895 2495 c0 -47 2 -53 13 -38 13 18 16 52 6 77 -12 31 -19 15 -19
-39z"/>
<path d="M2070 2521 c-14 -26 -13 -54 3 -75 11 -15 13 -10 13 38 -1 31 -2 56
-3 56 -1 0 -7 -9 -13 -19z"/>
<path d="M2129 2484 c2 -38 6 -52 12 -43 10 16 12 60 3 83 -12 32 -19 15 -15
-40z"/>
<path d="M5220 2501 c0 -26 5 -41 13 -41 15 0 14 73 -2 78 -7 2 -11 -11 -11
-37z"/>
<path d="M5440 2526 c0 -13 -3 -14 -19 -5 -26 17 -51 4 -51 -26 0 -30 25 -43
51 -27 11 7 20 8 24 2 13 -21 22 -8 20 27 -2 36 -25 62 -25 29z m-30 -31 c0
-14 -4 -25 -10 -25 -5 0 -10 11 -10 25 0 14 5 25 10 25 6 0 10 -11 10 -25z"/>
<path d="M1449 2525 c-3 -2 -3 -20 -1 -40 6 -50 29 -46 24 5 -4 37 -11 48 -23
35z"/>
<path d="M1673 2512 c-5 -20 -7 -21 -17 -6 -18 24 -56 10 -56 -22 0 -29 25
-42 51 -25 12 7 19 7 19 1 0 -5 6 -10 13 -10 7 0 12 13 11 35 -1 43 -13 57
-21 27z m-33 -17 c0 -8 0 -18 1 -22 0 -4 -4 -9 -10 -11 -6 -2 -11 8 -11 22 0
14 5 26 10 26 6 0 10 -7 10 -15z"/>
<path d="M4480 2521 c0 -6 5 -13 10 -16 6 -3 10 1 10 9 0 9 -4 16 -10 16 -5 0
-10 -4 -10 -9z"/>
<path d="M5050 2485 c0 -28 -5 -45 -12 -45 -6 0 -8 -3 -5 -6 4 -4 13 -1 22 6
17 14 21 90 5 90 -5 0 -10 -20 -10 -45z"/>
<path d="M5091 2517 c-27 -27 7 -69 39 -50 12 8 21 8 28 1 6 -6 19 -7 29 -3
16 6 16 8 -4 16 -29 11 -32 43 -3 34 11 -3 20 -2 20 3 0 13 -96 12 -109 -1z
m35 -11 c19 -20 18 -26 -6 -26 -13 0 -20 7 -20 20 0 24 6 25 26 6z"/>
<path d="M5294 2495 c0 -22 5 -35 13 -35 8 0 13 13 13 33 0 24 3 28 10 17 5
-8 7 -23 4 -32 -4 -12 0 -18 11 -18 12 0 16 8 13 33 -3 28 -7 32 -33 35 -29 3
-31 1 -31 -33z"/>
<path d="M5484 2495 c1 -47 26 -47 26 0 0 22 -5 35 -13 35 -9 0 -13 -12 -13
-35z"/>
<path d="M5570 2525 c0 -4 7 -19 15 -36 14 -26 14 -30 0 -35 -17 -7 -21 -24
-5 -24 6 0 20 21 30 46 23 52 26 71 6 35 l-14 -24 -6 21 c-6 19 -26 32 -26 17z"/>
<path d="M1280 2476 c0 -34 -4 -46 -17 -49 -14 -4 -13 -5 3 -6 12 0 25 6 28
15 10 25 7 84 -4 84 -5 0 -10 -20 -10 -44z"/>
<path d="M1320 2505 c-18 -22 -8 -50 20 -53 22 -2 23 -1 8 8 -19 12 -25 50 -7
50 5 0 7 -4 4 -10 -3 -5 1 -10 9 -10 8 0 18 -9 21 -20 4 -12 15 -20 28 -20 20
1 20 2 5 11 -10 5 -18 19 -18 30 0 16 4 19 23 14 18 -6 20 -5 9 6 -10 11 -16
11 -32 1 -12 -7 -21 -8 -25 -2 -9 14 -31 12 -45 -5z"/>
<path d="M1529 2516 c-7 -10 -1 -66 7 -66 6 0 9 10 7 24 -3 13 0 26 5 30 12 7
26 -29 17 -44 -3 -5 0 -10 8 -10 11 0 13 8 8 33 -5 24 -12 32 -29 33 -12 1
-22 1 -23 0z"/>
<path d="M1719 2518 c-6 -27 -1 -68 9 -68 14 0 17 56 2 65 -5 3 -10 5 -11 3z"/>
<path d="M1800 2515 c0 -4 7 -20 16 -37 15 -30 15 -32 -2 -45 -15 -11 -16 -13
-2 -13 23 0 32 36 18 71 -11 25 -30 40 -30 24z"/>
<path d="M3588 2513 c-10 -2 -18 -9 -18 -14 0 -6 8 -5 20 1 11 6 20 13 20 15
0 3 -1 4 -2 4 -2 -1 -11 -3 -20 -6z"/>
<path d="M3950 2510 c0 -5 5 -10 10 -10 6 0 10 5 10 10 0 6 -4 10 -10 10 -5 0
-10 -4 -10 -10z"/>
<path d="M4471 2462 c-16 -37 -67 -88 -104 -101 -19 -7 -191 -11 -498 -11
-447 0 -472 1 -508 20 -37 18 -84 65 -94 92 -2 7 -7 11 -10 8 -11 -10 51 -86
88 -107 40 -23 41 -23 523 -23 460 0 485 1 521 20 41 21 86 67 96 101 11 32
-1 33 -14 1z"/>
<path d="M5260 2470 c0 -5 5 -10 10 -10 6 0 10 5 10 10 0 6 -4 10 -10 10 -5 0
-10 -4 -10 -10z"/>
<path d="M5645 2470 c-3 -5 1 -10 10 -10 9 0 13 5 10 10 -3 6 -8 10 -10 10 -2
0 -7 -4 -10 -10z"/>
<path d="M4870 2325 c0 -54 0 -55 29 -55 17 0 33 5 37 11 4 7 -2 9 -17 7 -22
-3 -24 1 -27 45 -4 65 -22 59 -22 -8z"/>
<path d="M5090 2331 c0 -48 12 -72 25 -51 5 8 11 7 21 -1 20 -17 17 2 -6 31
-11 14 -20 35 -20 48 0 12 -4 22 -10 22 -5 0 -10 -22 -10 -49z"/>
<path d="M5183 2373 c-22 -8 -14 -39 12 -53 31 -16 27 -36 -6 -33 l-24 2 23
-11 c17 -9 26 -8 41 6 16 15 19 15 24 1 4 -9 15 -14 29 -12 18 3 24 11 26 35
2 24 -1 32 -12 32 -10 0 -16 -10 -17 -27 -1 -21 -2 -23 -6 -8 -7 28 -23 43
-23 21 0 -16 -1 -16 -30 1 -16 9 -30 23 -30 30 0 16 12 17 28 1 8 -8 12 -8 12
-1 0 9 -26 26 -33 22 -1 0 -8 -3 -14 -6z"/>
<path d="M6010 2325 c0 -30 5 -55 10 -55 6 0 10 5 10 11 0 8 4 8 14 0 23 -19
28 4 6 24 -11 10 -20 31 -20 47 0 15 -4 28 -10 28 -5 0 -10 -25 -10 -55z"/>
<path d="M6130 2370 c0 -5 7 -10 15 -10 11 0 15 -12 15 -45 0 -25 5 -45 10
-45 6 0 10 20 10 45 0 38 3 45 19 45 16 0 20 -8 23 -42 2 -24 7 -41 13 -38 5
3 8 15 7 28 -2 12 1 22 7 22 6 0 12 -7 12 -15 3 -28 4 -33 12 -41 4 -4 7 9 7
29 0 30 -4 37 -20 37 -13 0 -20 7 -20 18 0 16 -9 19 -55 21 -32 1 -55 -3 -55
-9z"/>
<path d="M6520 2329 c0 -45 -2 -50 -15 -39 -9 8 -13 21 -10 34 6 20 6 20 -9 2
-15 -19 -6 -56 14 -56 31 0 40 14 40 61 0 27 -4 49 -10 49 -5 0 -10 -23 -10
-51z"/>
<path d="M1098 2320 l-3 -50 40 1 c32 2 34 3 12 6 -27 4 -29 7 -25 49 2 29 -1
44 -8 44 -7 0 -14 -21 -16 -50z"/>
<path d="M1320 2320 c0 -39 4 -50 16 -50 9 0 12 5 8 13 -6 10 -4 10 7 0 16
-16 73 -18 64 -3 -4 6 -15 8 -25 5 -18 -6 -32 14 -26 38 1 6 1 9 -1 5 -10 -17
-23 -7 -23 17 0 14 -4 25 -10 25 -5 0 -10 -22 -10 -50z"/>
<path d="M1393 2354 c-4 -12 2 -24 22 -39 15 -13 24 -28 21 -34 -4 -6 -2 -11
4 -11 26 0 23 34 -5 56 -32 25 -26 46 7 25 17 -10 19 -10 16 1 -7 21 -57 22
-65 2z"/>
<path d="M2240 2351 c0 -13 -7 -18 -22 -17 -19 1 -24 -5 -26 -31 -2 -23 1 -33
11 -33 10 0 13 8 9 25 -3 18 0 25 12 25 10 0 16 -9 16 -25 0 -14 5 -25 10 -25
6 0 10 5 10 12 0 9 3 9 12 0 17 -17 33 -15 18 3 -7 8 -9 24 -5 37 7 23 7 23
-9 3 -15 -19 -15 -19 -16 13 0 17 -4 32 -10 32 -5 0 -10 -8 -10 -19z"/>
<path d="M2360 2360 c0 -5 7 -7 15 -4 12 5 15 -3 15 -40 0 -30 4 -46 13 -46 8
0 11 13 9 44 -4 42 -3 44 23 42 25 -1 26 -4 23 -43 -2 -30 1 -43 9 -43 7 0 13
11 13 25 0 14 5 25 11 25 7 0 9 -10 7 -25 -5 -22 -2 -25 22 -25 24 0 27 3 22
25 -3 18 0 25 12 25 9 0 16 -8 16 -20 0 -21 35 -46 44 -31 3 5 -1 11 -8 14 -8
3 -14 15 -13 26 1 23 13 28 19 9 4 -10 10 -10 30 -1 24 11 26 10 26 -13 0 -13
-4 -24 -9 -24 -5 0 -9 5 -9 11 0 5 -5 7 -10 4 -23 -14 5 -25 63 -25 l62 0 -3
50 c-2 27 -8 50 -13 50 -5 0 -9 -5 -9 -11 0 -6 -10 -19 -22 -29 -21 -16 -23
-16 -35 -1 -9 13 -15 14 -31 4 -15 -9 -22 -9 -31 0 -9 9 -16 9 -30 0 -13 -8
-22 -8 -29 -1 -19 19 -40 2 -36 -29 4 -27 4 -27 -6 -4 -22 51 -52 71 -107 71
-29 0 -53 -4 -53 -10z m380 -55 c0 -14 -4 -25 -10 -25 -5 0 -10 11 -10 25 0
14 5 25 10 25 6 0 10 -11 10 -25z"/>
<path d="M6090 2351 c-14 -27 -13 -66 3 -79 9 -8 12 2 12 44 0 30 -1 54 -2 54
-1 0 -7 -9 -13 -19z"/>
<path d="M2320 2341 c-14 -26 -13 -54 3 -75 11 -15 13 -9 13 38 0 31 -1 56 -3
56 -1 0 -7 -9 -13 -19z"/>
<path d="M2794 2306 c0 -49 2 -55 13 -40 17 23 16 55 -1 79 -12 16 -13 12 -12
-39z"/>
<path d="M5595 2351 c-3 -6 -16 -11 -28 -11 -18 0 -22 -6 -21 -30 1 -41 14
-51 14 -12 0 39 27 44 32 7 5 -39 22 -30 21 10 0 39 -7 52 -18 36z"/>
<path d="M6565 2310 c0 -43 2 -48 13 -33 6 9 12 24 12 33 0 9 -6 24 -12 33
-11 15 -13 10 -13 -33z"/>
<path d="M1829 2345 c-3 -2 -16 -6 -29 -8 -18 -3 -23 -10 -24 -35 -1 -18 4
-32 10 -32 6 0 10 10 10 21 -1 29 22 36 26 8 5 -37 23 -32 22 6 -1 35 -6 49
-15 40z"/>
<path d="M6376 2335 c7 -18 40 -20 50 -4 4 7 1 10 -7 7 -8 -3 -22 -1 -31 4
-14 6 -16 5 -12 -7z"/>
<path d="M1190 2325 c-6 -8 -10 -22 -8 -32 3 -15 14 -18 63 -19 33 0 52 1 43
3 -11 3 -18 14 -18 29 0 22 3 24 23 19 18 -6 20 -5 9 6 -10 11 -16 11 -33 0
-15 -9 -24 -10 -32 -2 -15 15 -32 14 -47 -4z m38 -23 c2 -15 -2 -22 -12 -22
-11 0 -16 9 -16 26 0 31 23 28 28 -4z"/>
<path d="M1481 2308 c-1 -35 1 -38 27 -38 26 0 28 2 24 36 -5 37 -14 39 -17 1
-2 -32 -19 -27 -26 8 -6 29 -7 29 -8 -7z"/>
<path d="M1555 2332 c-9 -10 -5 -92 5 -92 10 0 14 18 10 59 -1 16 3 22 12 19
7 -3 13 -15 12 -27 -1 -20 1 -21 15 -6 12 12 13 19 5 33 -11 16 -47 25 -59 14z"/>
<path d="M1627 2333 c-1 -1 -1 -22 1 -47 5 -57 22 -61 22 -6 0 23 5 40 11 40
7 0 9 -10 7 -25 -6 -27 1 -32 20 -13 9 9 12 9 12 -1 0 -8 10 -11 28 -9 21 2
28 9 30 29 4 31 -19 44 -48 29 -12 -7 -21 -7 -25 0 -5 8 -51 11 -58 3z m113
-34 c0 -20 -15 -26 -25 -9 -9 15 3 43 15 35 5 -3 10 -15 10 -26z"/>
<path d="M1900 2306 c0 -33 2 -36 30 -36 27 0 30 3 30 29 0 17 -4 33 -10 36
-6 4 -10 -7 -10 -24 0 -17 -4 -31 -10 -31 -5 0 -10 11 -10 24 0 14 -4 28 -10
31 -6 4 -10 -8 -10 -29z"/>
<path d="M1979 2336 c0 -1 -1 -16 -2 -34 -1 -20 3 -32 11 -32 6 0 12 11 12 25
0 14 5 25 11 25 7 0 9 -10 7 -25 -3 -16 -1 -25 7 -25 9 0 10 10 6 32 -5 23
-12 32 -29 33 -12 1 -22 1 -23 1z"/>
<path d="M2055 2331 c-10 -9 -5 -91 5 -91 10 0 14 18 10 59 -1 16 3 22 12 19
7 -3 13 -14 12 -24 0 -15 8 -20 41 -22 41 -3 42 -2 37 29 -5 34 -25 47 -46 30
-9 -8 -16 -8 -20 -2 -6 9 -43 11 -51 2z m93 -25 c0 -22 -2 -23 -16 -10 -13 14
-13 17 -1 25 8 5 15 9 15 9 1 0 2 -11 2 -24z"/>
<path d="M4957 2333 c-12 -11 -8 -40 7 -52 11 -9 20 -10 36 -1 16 9 25 8 36
-1 11 -9 18 -9 26 -1 9 9 8 12 -5 12 -11 0 -17 8 -17 23 0 16 -6 22 -24 23
-20 2 -24 -3 -23 -22 1 -12 -2 -22 -8 -21 -5 1 -10 12 -10 25 1 22 -6 28 -18
15z"/>
<path d="M5055 2330 c3 -5 10 -10 16 -10 5 0 9 5 9 10 0 6 -7 10 -16 10 -8 0
-12 -4 -9 -10z"/>
<path d="M5320 2291 c0 -28 5 -51 10 -51 11 0 14 20 11 64 -2 20 1 27 11 24 7
-3 13 -15 12 -27 0 -12 4 -20 10 -18 6 2 11 15 11 28 0 20 -6 25 -32 27 l-33
3 0 -50z"/>
<path d="M5398 2290 c5 -62 22 -66 22 -5 0 25 5 45 10 45 6 0 10 -12 10 -26 0
-14 4 -22 10 -19 5 3 19 1 30 -5 18 -10 19 -8 11 12 -4 13 -7 28 -5 33 2 6
-17 11 -44 13 l-47 3 3 -51z"/>
<path d="M5508 2309 c4 -28 6 -29 20 -15 13 12 13 18 2 30 -19 24 -27 19 -22
-15z"/>
<path d="M5672 2309 c2 -29 7 -34 28 -34 19 0 26 6 28 24 2 13 -1 28 -7 34 -8
8 -11 3 -11 -16 0 -15 -4 -27 -10 -27 -5 0 -10 9 -10 19 0 11 -5 23 -11 26 -7
5 -9 -5 -7 -26z"/>
<path d="M5742 2308 c2 -18 8 -32 13 -30 6 2 9 11 7 22 -2 10 2 21 8 25 5 3
11 -1 11 -9 3 -29 4 -34 12 -42 4 -4 7 9 7 29 0 35 -2 37 -31 37 -28 0 -30 -2
-27 -32z"/>
<path d="M5820 2290 c0 -27 5 -50 10 -50 6 0 10 6 10 13 0 18 39 40 53 30 7
-5 21 -8 32 -8 16 0 19 6 17 30 -2 17 -6 32 -9 35 -7 8 -21 -23 -16 -37 3 -7
-1 -13 -8 -13 -7 0 -10 3 -6 6 10 11 -33 44 -58 44 -23 0 -25 -3 -25 -50z m42
28 c6 -17 -1 -38 -13 -38 -5 0 -9 11 -9 25 0 26 14 34 22 13z"/>
<path d="M5890 2329 c0 -5 5 -7 10 -4 6 3 10 8 10 11 0 2 -4 4 -10 4 -5 0 -10
-5 -10 -11z"/>
<path d="M5960 2305 c0 -19 5 -35 10 -35 6 0 10 13 10 29 0 16 6 32 13 34 6 3
2 6 -10 6 -20 1 -23 -4 -23 -34z"/>
<path d="M6040 2329 c0 -5 5 -7 10 -4 6 3 10 8 10 11 0 2 -4 4 -10 4 -5 0 -10
-5 -10 -11z"/>
<path d="M6300 2305 c0 -19 5 -35 10 -35 6 0 10 13 10 29 0 16 6 32 13 34 6 3
2 6 -10 6 -20 1 -23 -4 -23 -34z"/>
<path d="M6347 2327 c-14 -35 29 -77 48 -47 5 8 11 7 20 0 11 -9 14 -7 12 9
-1 24 -8 26 -24 10 -17 -17 -41 -4 -45 23 -3 20 -4 21 -11 5z"/>
<path d="M6437 2328 c-6 -17 11 -61 21 -54 10 6 3 66 -8 66 -4 0 -10 -6 -13
-12z"/>
<path d="M5635 2280 c3 -5 8 -10 11 -10 2 0 4 5 4 10 0 6 -5 10 -11 10 -5 0
-7 -4 -4 -10z"/>
<path d="M5089 2213 c-1 -4 -3 -17 -4 -28 -1 -12 -7 -30 -14 -42 -21 -40 -22
-39 74 -47 28 -2 39 -2 25 0 -22 4 -25 10 -24 44 1 51 10 61 12 14 1 -35 8
-52 16 -43 2 2 6 25 8 52 5 46 5 47 -23 47 -16 0 -28 -3 -28 -7 4 -22 -3 -33
-17 -33 -12 0 -14 3 -6 13 7 8 6 16 -4 25 -8 7 -15 9 -15 5z m41 -93 c0 -5 -4
-10 -10 -10 -5 0 -10 5 -10 10 0 6 5 10 10 10 6 0 10 -4 10 -10z"/>
<path d="M5220 2206 c0 -9 5 -16 10 -16 6 0 10 4 10 9 0 6 -4 13 -10 16 -5 3
-10 -1 -10 -9z"/>
<path d="M5258 2170 c-3 -54 13 -64 23 -14 6 25 7 24 8 -13 0 -24 -3 -43 -8
-43 -27 0 -41 15 -41 41 0 16 -4 29 -10 29 -5 0 -10 -11 -10 -24 0 -14 -4 -28
-10 -31 -5 -3 -10 -11 -10 -18 0 -8 3 -8 12 1 6 6 16 8 22 3 17 -13 81 -20 97
-10 11 7 11 9 -3 9 -12 0 -18 8 -18 24 0 15 7 26 18 29 16 4 16 5 0 6 -21 1
-24 17 -5 24 10 4 10 6 0 6 -7 1 -13 8 -13 16 0 21 -18 19 -23 -2 -4 -17 -5
-17 -6 0 -2 38 -19 14 -23 -33z"/>
<path d="M5450 2205 c0 -8 -7 -15 -15 -15 -8 0 -15 5 -15 10 0 20 -29 9 -33
-12 l-4 -23 -2 23 c-3 47 -21 19 -21 -33 0 -30 5 -55 10 -55 6 0 10 4 10 9 0
5 9 7 20 4 15 -4 20 0 20 16 0 14 4 19 16 14 10 -4 14 -14 11 -29 -3 -16 0
-24 9 -24 9 0 14 13 14 38 0 21 5 43 12 50 9 9 9 12 -1 12 -8 0 -11 6 -7 15 3
9 0 15 -9 15 -8 0 -15 -7 -15 -15z m0 -40 c0 -9 -6 -12 -15 -9 -8 4 -15 10
-15 15 0 5 7 9 15 9 8 0 15 -7 15 -15z m-63 -27 c-3 -8 -6 -5 -6 6 -1 11 2 17
5 13 3 -3 4 -12 1 -19z"/>
<path d="M5530 2211 c0 -6 5 -13 10 -16 6 -3 10 1 10 9 0 9 -4 16 -10 16 -5 0
-10 -4 -10 -9z"/>
<path d="M5710 2210 c0 -5 5 -10 11 -10 5 0 7 5 4 10 -3 6 -8 10 -11 10 -2 0
-4 -4 -4 -10z"/>
<path d="M5750 2205 c0 -8 -4 -15 -10 -15 -5 0 -10 -9 -10 -20 0 -12 -7 -20
-17 -20 -15 0 -16 2 -3 10 13 8 12 12 -6 30 l-21 21 -17 -25 c-12 -19 -13 -26
-4 -26 7 0 14 -11 14 -25 1 -15 -3 -25 -12 -25 -8 0 -14 -4 -14 -10 0 -5 6
-10 13 -10 20 0 40 17 33 28 -3 5 3 12 14 15 11 3 20 1 20 -5 0 -5 5 -6 11 -2
7 4 9 -2 7 -14 -2 -12 2 -21 7 -22 6 0 11 29 13 65 2 40 -1 65 -8 65 -5 0 -10
-7 -10 -15z m-50 -25 c0 -5 -4 -10 -10 -10 -5 0 -10 5 -10 10 0 6 5 10 10 10
6 0 10 -4 10 -10z"/>
<path d="M5589 2203 c22 -4 23 -8 19 -59 -4 -41 -1 -54 9 -54 9 0 13 17 13 60
l0 60 -32 -1 c-26 -1 -28 -3 -9 -6z"/>
<path d="M3915 2169 c22 -43 29 -50 22 -21 l-5 23 31 -24 c264 -199 626 -436
808 -528 128 -64 174 -77 964 -272 l60 -15 -160 -1 c-132 -1 -167 -5 -200 -20
-41 -18 -105 -82 -105 -104 0 -6 11 5 25 25 13 20 41 47 62 59 l38 24 531 0
531 0 40 -28 c59 -41 83 -90 84 -173 1 -62 2 -65 10 -36 15 50 -5 130 -43 176
-60 73 -73 76 -421 76 -363 0 -325 -6 -887 136 -335 84 -386 100 -487 149
-193 92 -442 249 -738 465 -117 85 -127 95 -105 101 14 4 18 7 9 8 -9 1 -31 4
-49 7 l-32 7 17 -34z"/>
<path d="M4415 2183 c373 -44 627 -100 792 -174 148 -66 417 -316 646 -599 15
-19 27 -30 25 -23 -14 56 -321 379 -488 514 -132 106 -228 151 -438 203 -161
40 -460 87 -531 85 -33 -2 -33 -2 -6 -6z"/>
<path d="M5510 2140 c0 -27 5 -50 10 -50 6 0 10 23 10 50 0 28 -4 50 -10 50
-5 0 -10 -22 -10 -50z"/>
<path d="M5540 2145 c0 -19 5 -35 10 -35 6 0 10 16 10 35 0 19 -4 35 -10 35
-5 0 -10 -16 -10 -35z"/>
<path d="M5575 2151 c1 -44 12 -48 17 -7 2 22 0 36 -7 36 -6 0 -10 -13 -10
-29z"/>
<path d="M5670 1989 c-14 -25 -12 -33 3 -20 8 6 17 8 21 4 4 -4 11 -1 17 7 7
11 8 7 3 -14 -5 -22 -4 -27 7 -24 8 3 13 12 11 22 -2 9 2 16 8 16 5 0 10 -7
10 -15 0 -8 5 -15 10 -15 6 0 10 -4 10 -10 0 -5 -7 -7 -15 -4 -8 4 -15 1 -15
-5 0 -6 -17 -12 -37 -12 -21 -1 -30 -3 -20 -6 9 -2 17 -9 17 -14 0 -5 5 -9 11
-9 5 0 7 5 4 10 -3 6 1 10 10 10 12 0 15 -6 10 -20 -4 -12 -2 -20 5 -20 7 0
14 9 17 20 3 11 9 20 13 20 14 0 17 36 3 48 -18 17 -16 32 4 32 36 0 3 10 -45
13 -43 4 -55 1 -62 -14z"/>
<path d="M5812 1989 c-8 -12 -9 -19 -4 -15 5 3 7 -15 4 -44 -3 -33 -1 -50 7
-50 6 0 11 14 11 31 0 17 5 39 10 50 7 12 7 19 1 19 -6 0 -8 7 -5 15 9 23 -9
18 -24 -6z"/>
<path d="M5869 1998 c-2 -24 3 -43 13 -49 6 -4 9 -21 6 -38 -3 -21 0 -31 9
-31 7 0 13 11 13 25 0 14 6 25 13 25 8 0 7 4 -3 10 -10 6 -11 10 -2 10 6 0 12
5 12 11 0 6 -9 8 -20 4 -11 -4 -20 -2 -20 4 0 6 7 11 15 11 8 0 15 4 15 10 0
5 -7 7 -15 4 -8 -4 -15 -1 -15 5 0 15 -20 14 -21 -1z"/>
<path d="M5966 1996 c3 -9 11 -16 16 -16 13 0 5 23 -10 28 -7 2 -10 -2 -6 -12z"/>
<path d="M6009 1998 c-4 -68 -3 -88 3 -88 4 0 12 15 17 33 l9 32 1 -42 c1 -48
2 -47 -34 -33 -21 8 -24 14 -19 35 5 18 2 25 -9 25 -10 0 -13 -6 -10 -20 3
-11 -1 -28 -8 -37 -12 -15 -12 -16 3 -10 10 3 20 2 23 -3 8 -13 95 -13 95 0 0
6 -4 10 -10 10 -17 0 -11 38 8 43 16 4 16 5 0 6 -19 1 -26 21 -8 21 6 0 5 8
-2 20 -16 25 -25 25 -31 3 -4 -17 -5 -17 -6 0 -1 19 -21 24 -22 5z"/>
<path d="M6130 2000 c0 -5 5 -10 10 -10 16 0 11 -32 -10 -70 l-21 -35 30 34
c28 31 31 33 37 15 10 -28 35 -54 46 -48 5 3 -3 19 -17 36 -14 16 -25 35 -25
42 0 13 -31 46 -43 46 -4 0 -7 -4 -7 -10z"/>
<path d="M7085 1973 c-3 -21 -14 -51 -22 -68 -16 -28 -16 -29 1 -16 24 20 38
49 43 88 6 46 -15 42 -22 -4z"/>
<path d="M7200 2002 c0 -12 19 -26 26 -19 2 2 -2 10 -11 17 -9 8 -15 8 -15 2z"/>
<path d="M7260 1986 c0 -33 -20 -86 -33 -86 -6 0 -7 -3 -3 -7 12 -13 86 -10
86 3 0 6 -7 14 -15 18 -8 3 -15 1 -15 -4 0 -6 -7 -10 -17 -10 -14 0 -15 2 -1
18 16 18 21 92 6 92 -4 0 -8 -11 -8 -24z"/>
<path d="M6515 1950 c0 -30 4 -50 11 -50 6 0 11 10 10 23 -1 12 4 22 9 22 6 0
10 -10 10 -22 -1 -13 5 -23 12 -23 16 0 16 10 3 44 -5 14 -16 26 -25 26 -8 0
-15 7 -15 15 0 8 -3 15 -7 15 -5 0 -8 -22 -8 -50z"/>
<path d="M7000 1987 c0 -21 -42 -36 -62 -23 -14 8 -21 7 -34 -6 -22 -21 -10
-58 19 -58 18 0 19 2 7 10 -14 9 -24 50 -11 50 3 0 17 -14 30 -30 14 -18 33
-30 47 -30 22 0 24 4 24 50 0 28 -4 50 -10 50 -5 0 -10 -6 -10 -13z m0 -52 c0
-26 -14 -33 -25 -15 -9 14 1 40 15 40 5 0 10 -11 10 -25z"/>
<path d="M7145 1990 c-3 -5 1 -10 10 -10 9 0 13 5 10 10 -3 6 -8 10 -10 10 -2
0 -7 -4 -10 -10z"/>
<path d="M7290 1980 c0 -5 5 -10 11 -10 5 0 7 5 4 10 -3 6 -8 10 -11 10 -2 0
-4 -4 -4 -10z"/>
<path d="M7190 1965 c0 -8 5 -15 12 -15 9 0 9 -3 0 -12 -15 -15 -16 -58 -2
-58 6 0 10 6 10 14 0 7 3 27 6 43 4 22 2 32 -10 36 -10 4 -16 1 -16 -8z"/>
<path d="M6250 1960 c-12 -7 -11 -12 5 -31 18 -20 18 -22 3 -16 -10 4 -18 2
-18 -3 0 -14 37 -12 46 2 4 6 -1 17 -12 25 -16 12 -17 15 -4 23 8 5 11 10 5
10 -5 0 -17 -4 -25 -10z"/>
<path d="M6317 1934 c17 -34 17 -36 -2 -50 -15 -11 -15 -14 -4 -14 9 0 21 11
27 25 10 21 9 30 -4 50 -25 38 -36 30 -17 -11z"/>
<path d="M6357 1963 c-4 -3 -7 -11 -7 -17 0 -6 4 -4 10 4 8 12 10 12 16 -3 3
-9 4 -24 0 -32 -3 -9 0 -15 9 -15 10 0 15 10 15 31 0 19 4 28 11 23 6 -3 9
-17 6 -30 -2 -14 1 -24 7 -24 8 0 10 13 8 35 -4 32 -7 35 -36 35 -18 0 -36 -3
-39 -7z"/>
<path d="M6462 1961 c-22 -13 -11 -56 16 -59 12 -2 22 2 22 8 0 6 -4 9 -9 5
-6 -3 -15 3 -21 14 -12 23 0 34 26 24 12 -4 15 -3 10 5 -8 14 -26 15 -44 3z"/>
<path d="M6590 1935 c0 -23 5 -35 14 -35 9 0 12 8 8 25 -2 15 0 25 7 25 6 0
11 5 11 10 0 6 -9 10 -20 10 -16 0 -20 -7 -20 -35z"/>
<path d="M6646 1954 c-20 -19 -5 -54 24 -54 25 0 41 30 29 53 -12 21 -33 22
-53 1z m38 -10 c7 -18 0 -34 -15 -34 -5 0 -9 11 -9 25 0 28 15 34 24 9z"/>
<path d="M6718 1935 c-3 -24 0 -35 9 -35 8 0 13 12 13 31 0 19 4 28 11 23 6
-3 9 -17 6 -30 -4 -21 0 -24 24 -24 26 0 29 3 29 35 0 19 -4 35 -10 35 -5 0
-10 -14 -10 -31 0 -17 -4 -28 -10 -24 -5 3 -10 17 -10 31 0 19 -5 24 -24 24
-20 0 -25 -6 -28 -35z"/>
<path d="M6843 1963 c16 -4 16 -7 -4 -34 l-20 -29 33 1 c18 1 25 3 15 6 -15 4
-16 6 -2 26 21 30 19 37 -12 36 -18 -1 -21 -3 -10 -6z"/>
<path d="M7120 1930 c0 -17 -5 -30 -12 -30 -9 0 -9 -3 0 -12 16 -16 28 -2 35
40 5 24 3 32 -8 32 -10 0 -15 -10 -15 -30z"/>
<path d="M7295 1950 c-3 -5 1 -10 10 -10 9 0 13 5 10 10 -3 6 -8 10 -10 10 -2
0 -7 -4 -10 -10z"/>
<path d="M5850 1921 c0 -5 5 -13 10 -16 6 -3 10 -2 10 4 0 5 -4 13 -10 16 -5
3 -10 2 -10 -4z"/>
<path d="M5670 1780 c-13 -25 -13 -37 1 -23 14 14 39 6 39 -13 0 -8 5 -14 10
-14 6 0 10 8 10 18 0 29 12 34 24 10 6 -12 18 -24 26 -26 11 -4 10 -1 -3 12
-22 22 -22 36 0 36 37 0 2 11 -46 14 -42 3 -53 0 -61 -14z"/>
<path d="M5816 1791 c-4 -5 -3 -16 0 -24 3 -8 1 -17 -3 -20 -12 -7 -4 -77 8
-77 5 0 9 14 9 31 0 17 5 39 10 50 9 15 7 19 -7 20 -11 0 -13 3 -5 6 14 6 16
23 3 23 -6 0 -12 -4 -15 -9z"/>
<path d="M5870 1776 c0 -14 4 -27 9 -31 5 -3 8 -21 6 -41 -3 -39 18 -44 23 -6
2 12 9 22 15 22 7 0 6 4 -3 10 -10 6 -11 10 -2 10 6 0 12 5 12 11 0 6 -9 8
-20 4 -16 -5 -20 -2 -20 19 0 14 -4 26 -10 26 -5 0 -10 -11 -10 -24z"/>
<path d="M5966 1786 c3 -9 11 -16 16 -16 13 0 5 23 -10 28 -7 2 -10 -2 -6 -12z"/>
<path d="M6009 1783 c0 -10 -2 -31 -2 -47 -1 -16 -8 -31 -15 -34 -9 -3 -11 3
-6 22 5 19 2 26 -9 26 -10 0 -13 -6 -10 -20 3 -11 0 -27 -7 -34 -9 -12 -8 -15
7 -16 10 0 39 -3 66 -6 31 -4 47 -2 47 5 0 6 -4 11 -10 11 -17 0 -11 38 8 43
16 4 16 5 0 6 -21 1 -24 17 -6 23 9 3 8 9 -4 21 -21 21 -25 21 -31 0 -4 -17
-5 -17 -6 0 0 9 -5 17 -11 17 -5 0 -10 -8 -11 -17z m31 -58 c0 -28 -4 -35 -19
-35 -18 0 -18 2 -2 35 9 19 17 34 19 35 1 0 2 -16 2 -35z"/>
<path d="M6142 1780 c11 -17 9 -27 -11 -63 -23 -40 -23 -41 -3 -23 12 10 24
28 28 39 6 19 8 18 23 -13 9 -19 25 -36 35 -38 17 -4 16 0 -7 28 -15 17 -27
37 -27 44 0 13 -31 46 -43 46 -4 0 -2 -9 5 -20z"/>
<path d="M7058 1783 c0 -10 0 -29 1 -42 1 -13 -4 -28 -11 -32 -17 -11 -5 -21
16 -13 11 4 15 13 10 26 -4 12 -1 24 7 29 12 8 12 10 0 18 -7 5 -10 14 -7 20
4 6 2 11 -3 11 -6 0 -12 -8 -13 -17z"/>
<path d="M7109 1793 c-1 -5 -3 -25 -5 -47 -1 -21 -11 -48 -21 -59 l-18 -21 28
18 c27 17 30 17 48 0 10 -9 22 -14 25 -11 4 4 -2 14 -14 24 -24 22 -37 59 -22
68 6 3 10 -3 10 -14 0 -13 7 -21 17 -21 13 0 14 3 6 11 -6 6 -9 18 -6 25 3 9
-2 14 -17 14 -11 0 -18 5 -15 10 3 6 1 10 -4 10 -6 0 -11 -3 -12 -7z"/>
<path d="M5905 1780 c-3 -5 -1 -10 4 -10 6 0 11 5 11 10 0 6 -2 10 -4 10 -3 0
-8 -4 -11 -10z"/>
<path d="M6515 1740 c0 -28 5 -50 10 -50 6 0 11 10 10 23 0 12 5 22 10 22 6 0
10 -10 10 -22 -1 -13 5 -23 12 -23 14 0 16 13 7 48 -4 13 -14 22 -25 22 -11 0
-19 7 -19 15 0 8 -3 15 -7 15 -5 0 -8 -22 -8 -50z"/>
<path d="M7000 1778 c0 -20 -43 -36 -62 -24 -18 11 -48 -7 -48 -29 0 -24 30
-40 50 -27 12 7 21 8 25 2 3 -6 17 -10 31 -10 22 0 24 4 24 50 0 28 -4 50 -10
50 -5 0 -10 -6 -10 -12z m-64 -42 c19 -20 18 -26 -5 -26 -14 0 -19 6 -18 20 2
24 4 24 23 6z m64 -11 c0 -14 -4 -25 -9 -25 -12 0 -23 29 -15 41 10 18 24 9
24 -16z"/>
<path d="M3900 1732 c0 -15 -5 -33 -12 -40 -9 -9 -9 -12 1 -12 9 0 11 -8 7
-25 -5 -18 -2 -25 9 -25 14 0 20 26 18 78 -1 6 5 12 13 12 10 0 13 -11 9 -42
-2 -24 -1 -37 1 -30 8 16 29 15 44 -3 7 -8 16 -15 21 -15 5 0 9 7 9 15 0 8 -5
15 -11 15 -7 0 -10 14 -7 35 3 29 1 35 -15 35 -13 0 -17 5 -13 15 3 8 1 15 -4
15 -6 0 -10 -7 -10 -15 0 -8 -4 -15 -9 -15 -5 0 -16 7 -25 15 -21 21 -26 19
-26 -13z m77 -44 c-3 -7 -5 -2 -5 12 0 14 2 19 5 13 2 -7 2 -19 0 -25z"/>
<path d="M4049 1753 c-1 -14 -2 -67 0 -95 2 -47 19 -31 23 22 1 28 0 50 -4 50
-4 0 -5 7 -2 15 4 8 1 15 -5 15 -6 0 -11 -3 -12 -7z"/>
<path d="M4240 1745 c0 -8 5 -15 10 -15 6 0 10 7 10 15 0 8 -4 15 -10 15 -5 0
-10 -7 -10 -15z"/>
<path d="M4392 1735 c4 -19 1 -25 -13 -25 -11 0 -18 3 -16 8 1 4 -2 9 -8 12
-6 3 -11 -13 -13 -37 -3 -39 -1 -43 20 -44 30 -2 57 -6 88 -14 l25 -7 -24 20
c-20 17 -22 22 -11 42 11 20 10 22 -4 17 -11 -4 -16 -1 -16 9 0 10 6 14 14 11
8 -3 17 -3 20 0 8 9 -26 32 -48 33 -14 0 -17 -5 -14 -25z m-25 -67 c-3 -7 -5
-2 -5 12 0 14 2 19 5 13 2 -7 2 -19 0 -25z m36 7 c4 -8 2 -17 -3 -20 -6 -4
-10 3 -10 14 0 25 6 27 13 6z"/>
<path d="M4890 1751 c0 -5 -8 -12 -17 -14 -17 -4 -17 -5 0 -6 12 -1 15 -5 10
-13 -11 -18 -11 -58 0 -58 5 0 4 -7 -3 -15 -10 -12 -9 -15 7 -15 10 0 29 7 41
16 20 14 23 14 28 0 3 -9 13 -16 22 -16 13 0 12 3 -3 20 -11 12 -20 31 -21 43
-2 12 0 16 2 10 3 -7 13 -13 21 -13 12 0 10 5 -7 20 l-23 20 21 0 c12 0 22 5
22 11 0 6 -7 8 -17 5 -9 -4 -20 -1 -25 6 -6 10 -10 10 -19 -2 -8 -11 -12 -12
-16 -2 -5 14 -23 16 -23 3z m37 -57 c-5 -33 -16 -58 -18 -38 0 5 -2 17 -4 28
-4 23 4 46 17 46 5 0 7 -16 5 -36z"/>
<path d="M5040 1753 c-23 -4 -25 -8 -22 -43 3 -25 0 -40 -7 -40 -6 0 -11 -5
-11 -11 0 -7 10 -9 25 -5 18 5 25 2 25 -9 0 -8 5 -15 10 -15 6 0 10 22 10 49
0 27 3 56 6 65 3 9 2 15 -2 15 -5 -1 -20 -4 -34 -6z"/>
<path d="M5220 1749 c0 -5 5 -7 10 -4 6 3 10 8 10 11 0 2 -4 4 -10 4 -5 0 -10
-5 -10 -11z"/>
<path d="M5260 1746 c0 -9 -4 -16 -10 -16 -5 0 -10 -9 -10 -20 0 -12 -7 -20
-17 -20 -14 0 -15 2 -4 9 17 11 5 32 -14 24 -11 -4 -14 0 -9 13 4 14 0 12 -15
-6 -14 -17 -16 -27 -8 -30 18 -8 20 -50 2 -50 -8 0 -15 -5 -15 -11 0 -6 7 -8
16 -5 9 3 20 6 25 6 5 0 9 9 9 20 0 11 7 20 15 20 8 0 15 -5 15 -11 0 -5 5 -7
11 -3 8 4 9 0 4 -15 -4 -15 -2 -21 9 -21 19 0 28 34 24 85 -3 37 -28 64 -28
31z"/>
<path d="M5315 1738 c-3 -13 -3 -32 -1 -43 3 -11 5 -31 5 -44 1 -19 4 -21 15
-11 8 6 12 18 9 26 -3 8 -1 14 5 14 15 0 22 -26 9 -39 -6 -6 -7 -11 -1 -11 6
0 15 5 22 12 8 8 15 8 27 -2 8 -7 19 -10 23 -6 4 4 -1 12 -11 17 -9 6 -17 21
-17 34 0 13 -6 26 -12 28 -8 3 -6 6 5 6 12 1 17 -7 17 -29 0 -16 5 -30 10 -30
15 0 12 67 -2 73 -10 4 -10 6 0 6 6 1 12 5 12 9 0 10 -47 8 -72 -3 -11 -4 -18
-3 -18 4 0 20 -20 11 -25 -11z m51 -7 c-8 -12 -46 -21 -46 -11 0 5 10 11 23
13 12 2 23 5 25 6 2 0 1 -3 -2 -8z m-6 -31 c0 -5 -4 -10 -10 -10 -5 0 -10 5
-10 10 0 6 5 10 10 10 6 0 10 -4 10 -10z"/>
<path d="M6244 1748 c-4 -6 0 -16 9 -23 21 -15 22 -29 2 -21 -8 3 -15 1 -15
-4 0 -13 37 -13 45 1 4 5 -1 19 -10 29 -13 14 -13 19 -3 23 9 4 7 6 -4 6 -9 1
-20 -4 -24 -11z"/>
<path d="M6317 1725 c16 -34 16 -36 -3 -50 -15 -12 -16 -14 -3 -15 25 0 40 43
26 74 -7 14 -18 26 -24 26 -9 0 -8 -10 4 -35z"/>
<path d="M6355 1749 c-4 -6 -4 -13 -1 -16 3 -4 6 -1 6 5 0 7 5 12 11 12 7 0
10 -12 7 -30 -3 -20 0 -30 9 -30 8 0 13 12 13 31 0 19 4 28 11 23 6 -3 9 -17
6 -30 -2 -14 1 -24 7 -24 8 0 10 13 8 35 -4 32 -7 35 -38 35 -18 0 -36 -5 -39
-11z"/>
<path d="M6462 1751 c-22 -13 -11 -56 16 -59 12 -2 22 2 22 8 0 6 -4 9 -9 5
-6 -3 -15 3 -21 14 -12 23 0 34 26 24 12 -4 15 -3 10 5 -8 14 -26 15 -44 3z"/>
<path d="M6590 1724 c0 -21 5 -34 13 -34 7 0 13 11 12 27 0 14 6 28 14 31 8 3
12 -1 9 -9 -14 -39 41 -67 61 -32 18 32 -4 51 -59 51 l-50 1 0 -35z m94 10 c7
-18 0 -34 -15 -34 -5 0 -9 11 -9 25 0 28 15 34 24 9z"/>
<path d="M6718 1725 c-3 -24 0 -35 9 -35 8 0 13 12 13 30 0 17 5 30 11 30 7 0
10 -12 7 -30 -4 -27 -2 -30 24 -30 25 0 28 3 28 35 0 19 -4 35 -10 35 -5 0
-10 -14 -10 -31 0 -17 -4 -28 -10 -24 -5 3 -10 17 -10 31 0 19 -5 24 -24 24
-20 0 -25 -6 -28 -35z"/>
<path d="M6843 1753 c16 -4 16 -7 -4 -34 l-20 -29 33 1 c23 0 28 2 15 7 -16 7
-16 9 -3 27 22 29 20 35 -11 34 -18 -1 -21 -3 -10 -6z"/>
<path d="M4103 1743 c9 -2 25 -2 35 0 9 3 1 5 -18 5 -19 0 -27 -2 -17 -5z"/>
<path d="M4197 1733 c-10 -9 -9 -23 2 -23 5 0 11 7 15 15 5 15 -5 20 -17 8z"/>
<path d="M4282 1725 c-17 -19 -1 -19 24 0 14 11 15 14 4 14 -8 0 -21 -6 -28
-14z"/>
<path d="M5104 1723 c0 -10 -4 -17 -11 -16 -7 2 -11 -9 -11 -27 1 -17 4 -30 7
-30 3 0 17 -3 31 -7 25 -6 25 -6 7 15 -15 16 -16 25 -8 41 15 27 14 41 -3 41
-8 0 -13 -8 -12 -17z"/>
<path d="M5739 1728 c-1 -2 -2 -15 -3 -30 -2 -32 13 -38 21 -8 3 11 10 20 17
20 6 0 4 5 -4 10 -14 9 -29 13 -31 8z"/>
<path d="M4129 1713 c-11 -3 -14 -12 -11 -33 3 -19 0 -30 -7 -30 -7 0 -9 -4
-6 -10 15 -24 35 -9 35 25 0 19 5 35 10 35 6 0 10 5 10 10 0 10 -4 11 -31 3z"/>
<path d="M5850 1711 c0 -5 5 -13 10 -16 6 -3 10 -2 10 4 0 5 -4 13 -10 16 -5
3 -10 2 -10 -4z"/>
<path d="M5696 1696 c3 -9 11 -16 16 -16 13 0 5 23 -10 28 -7 2 -10 -2 -6 -12z"/>
<path d="M4240 1690 c-30 -4 -47 -7 -37 -8 20 -2 22 -23 5 -41 -11 -10 -9 -11
5 -5 10 4 23 16 27 28 8 19 9 19 9 -6 1 -25 5 -28 36 -28 19 0 35 5 35 11 0 7
-10 9 -25 5 -20 -5 -25 -3 -25 14 0 11 6 20 14 20 8 0 18 5 21 10 3 6 3 9 -2
8 -4 -1 -33 -4 -63 -8z"/>
<path d="M3820 1416 c0 -15 34 -106 41 -106 3 0 11 18 18 41 7 23 15 48 17 58
3 9 -2 4 -11 -11 -8 -16 -20 -28 -25 -28 -5 0 -16 12 -24 28 -8 15 -15 23 -16
18z"/>
<path d="M5890 1404 c0 -8 5 -12 10 -9 6 4 8 11 5 16 -9 14 -15 11 -15 -7z"/>
<path d="M5840 1375 c0 -5 56 -35 65 -35 8 0 6 30 -2 31 -5 0 -20 2 -35 4 -16
2 -28 2 -28 0z"/>
<path d="M3315 1296 c-42 -19 -135 -127 -109 -126 5 0 21 20 36 45 26 44 67
72 123 86 27 6 28 7 5 8 -14 0 -38 -6 -55 -13z"/>
<path d="M4384 1299 c51 -12 101 -51 126 -97 10 -20 19 -31 20 -23 1 49 -98
132 -156 130 -26 -1 -25 -2 10 -10z"/>
<path d="M5823 1272 c-21 -3 -23 -9 -23 -63 0 -33 4 -59 10 -59 6 0 10 6 10
14 0 8 7 17 16 20 23 9 27 8 20 -9 -3 -8 0 -15 7 -15 8 0 12 18 12 54 0 58 -7
65 -52 58z m37 -33 c0 -15 -4 -19 -16 -15 -12 4 -15 2 -10 -9 3 -8 1 -15 -4
-15 -15 0 -12 21 7 42 21 23 23 23 23 -3z"/>
<path d="M5899 1278 c0 -2 -1 -29 -2 -61 -2 -55 -1 -57 23 -57 21 1 22 2 8 10
-12 8 -16 21 -13 55 1 25 -1 48 -6 51 -5 3 -9 4 -10 2z"/>
<path d="M6003 1265 c-7 -8 -13 -24 -13 -36 0 -12 -7 -31 -17 -41 -9 -10 -12
-18 -6 -18 12 0 38 29 46 50 3 11 9 6 18 -15 8 -16 22 -31 32 -33 22 -4 22 7
0 24 -10 7 -14 16 -10 20 4 5 12 2 17 -6 6 -8 10 -10 10 -4 0 5 -5 15 -12 22
-9 9 -7 13 5 18 21 8 22 24 2 24 -8 0 -15 -5 -15 -12 0 -6 -7 -4 -18 5 -22 20
-23 20 -39 2z m27 -15 c0 -5 -4 -10 -10 -10 -5 0 -10 5 -10 10 0 6 5 10 10 10
6 0 10 -4 10 -10z"/>
<path d="M3733 1245 c-6 -15 -7 -25 -1 -25 5 0 6 -10 3 -22 -6 -17 -4 -20 10
-15 9 4 22 7 28 8 7 0 3 4 -8 8 -19 8 -18 9 7 21 25 12 44 38 34 47 -2 3 -14
-5 -25 -16 -12 -12 -26 -21 -33 -21 -9 0 -9 3 0 12 13 13 16 28 5 28 -5 0 -13
-11 -20 -25z"/>
<path d="M3940 1215 c0 -30 -4 -55 -10 -55 -5 0 -10 21 -10 46 0 27 -4 43 -10
39 -5 -3 -10 -24 -10 -45 0 -21 -6 -41 -12 -43 -7 -3 18 -6 55 -6 38 -1 66 3
63 8 -3 5 -15 7 -26 4 -17 -4 -20 0 -20 25 0 24 5 32 23 35 l22 4 -22 2 c-16
1 -23 7 -23 21 0 11 -4 20 -10 20 -5 0 -10 -25 -10 -55z"/>
<path d="M5960 1255 c-10 -12 -10 -15 4 -15 9 0 16 7 16 15 0 8 -2 15 -4 15
-2 0 -9 -7 -16 -15z"/>
<path d="M3808 1232 c-17 -29 -10 -52 17 -52 5 0 1 7 -9 15 -23 17 -14 20 14
5 11 -6 21 -6 24 -1 3 5 -1 12 -9 15 -13 4 -14 10 -5 26 17 33 -13 25 -32 -8z"/>
<path d="M6010 1175 c0 -14 5 -25 10 -25 6 0 10 11 10 25 0 14 -4 25 -10 25
-5 0 -10 -11 -10 -25z"/>
<path d="M3730 1160 c0 -5 4 -10 9 -10 6 0 13 5 16 10 3 6 -1 10 -9 10 -9 0
-16 -4 -16 -10z"/>
<path d="M3805 1156 c11 -8 24 -12 28 -9 11 7 -12 23 -32 23 -11 0 -9 -4 4
-14z"/>
<path d="M3201 1144 c0 -11 3 -14 6 -6 3 7 2 16 -1 19 -3 4 -6 -2 -5 -13z"/>
<path d="M5310 1120 c0 -22 5 -40 10 -40 6 0 10 18 10 40 0 22 -4 40 -10 40
-5 0 -10 -18 -10 -40z"/>
<path d="M4531 1054 c0 -11 3 -14 6 -6 3 7 2 16 -1 19 -3 4 -6 -2 -5 -13z"/>
<path d="M5605 1020 l0 -51 35 3 c33 3 35 5 36 38 1 44 -11 60 -45 60 -26 0
-27 -2 -26 -50z m53 22 c2 -7 -6 -12 -17 -12 -21 0 -27 11 -14 24 9 9 26 2 31
-12z m2 -48 c0 -8 -9 -14 -20 -14 -19 0 -27 19 -14 33 10 9 34 -4 34 -19z"/>
<path d="M5705 1020 l0 -50 38 0 c20 0 37 4 37 9 0 4 -12 6 -26 3 -26 -5 -26
-4 -23 42 3 36 1 46 -11 46 -11 0 -15 -12 -15 -50z"/>
<path d="M5808 1059 c-21 -12 -24 -59 -6 -77 18 -18 65 -15 78 6 10 16 10 16
20 0 7 -12 22 -17 43 -17 29 2 29 2 6 6 -31 5 -44 36 -28 66 8 13 18 18 35 14
13 -2 24 0 24 4 0 15 -53 10 -71 -7 -17 -15 -19 -15 -34 0 -19 18 -42 20 -67
5z m56 -23 c9 -35 -3 -58 -28 -54 -21 3 -33 36 -22 64 9 23 43 17 50 -10z"/>
<path d="M5998 1020 c-2 -41 0 -50 14 -50 12 0 15 6 11 23 l-5 22 20 -22 c11
-13 28 -23 37 -23 14 0 12 5 -9 21 -32 25 -33 44 -4 60 15 8 18 14 10 17 -7 2
-22 -7 -33 -20 l-21 -23 5 23 c3 14 0 22 -8 22 -9 0 -14 -17 -17 -50z"/>
<path d="M6110 1020 l0 -50 38 1 c31 2 32 3 9 6 -20 3 -27 9 -25 21 2 10 11
16 21 14 9 -2 17 2 17 8 0 5 -9 10 -20 10 -12 0 -20 7 -20 16 0 12 7 15 25 12
14 -3 25 -1 25 3 0 5 -16 9 -35 9 l-35 0 0 -50z"/>
<path d="M6200 1020 c0 -50 0 -50 33 -50 40 0 57 15 57 52 0 30 -23 48 -64 48
-24 0 -26 -3 -26 -50z m60 25 c18 -21 4 -65 -20 -65 -17 0 -20 7 -20 40 0 43
17 53 40 25z"/>
<path d="M3403 1053 c16 -4 18 -13 15 -49 -2 -31 1 -44 9 -44 9 0 13 15 13 44
0 34 4 46 18 49 9 3 -3 5 -28 5 -25 0 -37 -2 -27 -5z"/>
<path d="M3490 1010 l0 -50 35 0 c19 0 35 4 35 9 0 5 -9 7 -20 4 -15 -4 -20 0
-20 15 0 13 8 22 23 25 l22 4 -22 2 c-16 1 -23 7 -23 21 0 11 -7 20 -15 20
-11 0 -15 -12 -15 -50z"/>
<path d="M3538 1053 c7 -3 16 -2 19 1 4 3 -2 6 -13 5 -11 0 -14 -3 -6 -6z"/>
<path d="M3583 1010 c0 -34 5 -50 14 -50 7 0 13 10 14 23 l0 22 16 -22 c9 -14
26 -23 42 -23 25 0 27 3 24 33 l-4 32 16 -27 c18 -32 30 -35 39 -12 8 22 8 26
-4 19 -5 -3 -16 8 -25 25 -22 43 -35 37 -35 -15 0 -49 -8 -55 -33 -27 -12 14
-14 21 -6 29 19 19 2 43 -30 43 -29 0 -30 -1 -28 -50z m47 25 c0 -8 -4 -15
-10 -15 -5 0 -10 7 -10 15 0 8 5 15 10 15 6 0 10 -7 10 -15z"/>
<path d="M3757 1040 c-3 -11 -1 -23 5 -26 5 -3 7 -17 4 -30 -5 -17 -2 -24 9
-24 11 0 15 12 15 50 0 36 -4 50 -14 50 -7 0 -16 -9 -19 -20z"/>
<path d="M3810 1010 c0 -38 4 -50 15 -50 11 0 15 12 15 50 0 38 -4 50 -15 50
-11 0 -15 -12 -15 -50z"/>
<path d="M3850 1056 c0 -7 78 -86 84 -86 14 0 4 20 -26 54 -27 30 -58 47 -58
32z"/>
<path d="M3930 1049 c0 -5 5 -7 10 -4 6 3 10 8 10 11 0 2 -4 4 -10 4 -5 0 -10
-5 -10 -11z"/>
<path d="M3993 1044 c-3 -9 -1 -19 5 -23 6 -3 14 -19 17 -34 5 -16 14 -27 25
-27 15 0 15 5 -7 50 -26 54 -30 58 -40 34z"/>
<path d="M4083 1053 c16 -4 18 -13 15 -49 -2 -31 1 -44 9 -44 9 0 13 15 13 44
0 34 4 46 18 49 9 3 -3 5 -28 5 -25 0 -37 -2 -27 -5z"/>
<path d="M4165 1010 l0 -50 38 0 c20 0 37 4 37 9 0 4 -11 6 -25 3 -20 -3 -25
0 -25 16 0 13 8 22 23 25 l22 4 -22 2 c-33 2 -29 29 5 34 20 3 17 4 -13 6
l-40 1 0 -50z"/>
<path d="M4255 1010 c0 -49 0 -50 31 -50 43 0 71 32 58 68 -8 22 -16 27 -49
30 l-40 3 0 -51z m63 23 c12 -23 -3 -63 -23 -63 -11 0 -15 11 -15 40 0 43 21
55 38 23z"/>
<path d="M5320 1057 c-1 -20 30 -75 56 -99 61 -57 72 -58 603 -58 513 0 540 2
599 46 33 25 68 81 58 92 -3 3 -6 0 -6 -6 0 -18 -60 -81 -94 -100 -28 -15 -81
-17 -551 -17 -466 0 -523 2 -550 17 -36 20 -77 63 -98 103 -9 17 -16 26 -17
22z"/>
<path d="M5556 1044 c-9 -23 -7 -67 4 -84 7 -11 10 2 10 43 0 59 -3 69 -14 41z"/>
<path d="M6314 1004 c0 -48 2 -53 13 -38 16 23 17 55 1 77 -11 15 -13 9 -14
-39z"/>
<path d="M3346 1034 c-10 -26 -7 -71 7 -82 9 -8 12 2 12 44 0 54 -7 68 -19 38z"/>
<path d="M4371 1000 c0 -51 1 -53 14 -36 8 11 15 27 15 36 0 9 -7 25 -15 36
-13 17 -14 15 -14 -36z"/>
<path d="M3219 1003 c24 -48 56 -78 104 -98 32 -13 108 -15 546 -15 448 0 515
2 551 16 43 17 110 87 110 113 0 9 -14 -5 -31 -31 -20 -30 -46 -54 -73 -68
-41 -19 -59 -20 -554 -20 -407 0 -519 3 -545 13 -36 16 -107 89 -107 112 0 8
-5 15 -10 15 -6 0 -2 -17 9 -37z"/>
<path d="M3971 991 c-14 -25 -14 -31 -1 -31 6 0 10 6 10 14 0 8 5 16 12 18 9
3 9 6 1 11 -7 4 -17 -1 -22 -12z"/>
<path d="M3821 664 c-1 -6 6 -28 14 -47 21 -51 20 -55 -22 -66 -21 -6 -50 -21
-65 -33 -30 -25 -70 -97 -61 -112 3 -5 12 9 19 30 26 76 115 126 189 105 49
-13 90 -45 105 -81 7 -16 16 -30 21 -30 5 0 3 13 -6 29 -17 34 -83 91 -105 91
-35 1 -40 14 -25 65 8 26 13 50 11 53 -3 2 -8 -7 -11 -21 -10 -39 -33 -41 -49
-4 -8 18 -15 27 -15 21z"/>
<path d="M3793 490 c-82 -49 -82 -171 -1 -216 37 -21 111 -17 142 7 38 30 59
76 53 115 -16 94 -115 143 -194 94z"/>
<path d="M3688 354 c-11 -11 28 -79 62 -107 78 -66 218 -38 265 54 20 39 5 37
-20 -3 -47 -73 -136 -98 -213 -59 -41 21 -58 41 -77 94 -6 16 -14 25 -17 21z"/>
</g>
</svg>
