<?xml version="1.0" standalone="no"?>
<!DOCTYPE svg PUBLIC "-//W3C//DTD SVG 20010904//EN"
 "http://www.w3.org/TR/2001/REC-SVG-20010904/DTD/svg10.dtd">
<svg version="1.0" xmlns="http://www.w3.org/2000/svg"
 width="792.000000pt" height="630.000000pt" viewBox="0 0 792.000000 630.000000"
 preserveAspectRatio="xMidYMid meet">

<g transform="translate(0.000000,630.000000) scale(0.100000,-0.100000)"
fill="#000000" stroke="none">
<path d="M3405 6224 c-218 -26 -351 -73 -442 -157 -50 -46 -73 -84 -73 -119 1
-17 4 -14 14 15 30 84 123 154 266 202 104 34 184 45 331 45 267 0 483 -73
569 -192 39 -53 47 -98 26 -151 -35 -92 -149 -167 -325 -215 -86 -23 -114 -26
-271 -26 -157 0 -185 3 -273 27 -53 14 -125 41 -160 59 -74 39 -153 116 -162
158 -4 16 -11 30 -16 30 -12 0 14 -62 42 -101 11 -16 44 -45 71 -64 l51 -34
-54 -34 c-30 -18 -148 -94 -264 -167 -370 -235 -458 -291 -762 -483 -164 -104
-424 -269 -578 -367 l-280 -178 -18 21 c-16 18 -20 19 -28 7 -4 -8 -20 -34
-34 -57 l-26 -43 53 0 c66 0 84 10 69 38 -9 17 -7 23 14 36 13 9 320 203 682
432 362 229 681 431 708 449 28 18 158 102 290 185 l240 152 77 -26 c88 -30
229 -56 299 -56 l49 0 0 -545 0 -545 -26 0 c-14 0 -24 -4 -22 -8 14 -36 54
-112 59 -112 6 0 59 100 59 113 0 4 -11 7 -25 7 l-25 0 2 543 3 542 35 2 c98
7 215 28 296 55 l91 30 399 -287 c220 -158 422 -304 449 -325 28 -20 181 -131
340 -245 428 -308 505 -366 505 -379 0 -7 -5 -17 -11 -23 -8 -8 -1 -14 27 -22
38 -11 94 -15 94 -7 0 3 -50 97 -57 105 -1 2 -11 -4 -22 -13 -18 -17 -27 -12
-233 138 -117 86 -364 265 -548 397 -184 133 -469 338 -633 456 l-297 215 42
28 c231 149 133 375 -199 460 -121 32 -284 46 -388 34z"/>
<path d="M3480 5990 c0 -11 7 -20 15 -20 8 0 15 6 15 14 0 8 -7 16 -15 20 -10
4 -15 -1 -15 -14z"/>
<path d="M3223 5993 c-7 -2 -13 -16 -13 -29 0 -13 -6 -24 -12 -24 -10 0 -9 -3
1 -9 10 -6 11 -13 2 -29 -13 -25 -14 -35 -2 -27 5 3 11 -7 13 -22 5 -45 28
-40 28 6 0 32 3 39 15 35 21 -8 19 13 -2 25 -15 9 -13 10 13 11 27 0 32 4 36
30 3 17 2 30 -1 31 -52 6 -68 6 -78 2z m47 -28 c0 -8 -7 -15 -15 -15 -8 0 -15
7 -15 15 0 8 7 15 15 15 8 0 15 -7 15 -15z"/>
<path d="M3339 5998 c-8 -33 -4 -68 7 -68 9 0 14 12 14 35 0 19 -4 35 -10 35
-5 0 -10 -1 -11 -2z"/>
<path d="M3640 5969 c0 -25 2 -26 44 -22 26 3 46 1 50 -6 4 -6 3 -11 -2 -11
-13 0 1 -63 15 -67 6 -2 12 11 15 32 2 19 0 35 -5 35 -5 0 -7 14 -5 32 l3 31
-58 1 c-55 1 -57 0 -57 -25z m90 1 c0 -5 -16 -10 -35 -10 -19 0 -35 5 -35 10
0 6 16 10 35 10 19 0 35 -4 35 -10z"/>
<path d="M3405 5979 c-4 -5 -4 -17 -1 -27 4 -10 2 -42 -4 -72 -13 -67 -5 -76
18 -22 14 35 22 42 45 42 23 0 27 -4 27 -30 0 -22 -5 -30 -17 -30 -15 0 -16
-2 -3 -10 29 -19 40 -11 40 30 0 29 4 40 15 40 8 0 15 -5 15 -10 0 -7 7 -7 20
0 30 16 15 30 -23 23 -29 -6 -31 -5 -18 10 7 9 20 17 28 17 8 0 12 4 9 9 -3 5
-23 9 -43 8 -21 0 -30 -2 -20 -4 9 -3 17 -8 17 -13 0 -4 -10 -6 -22 -2 -21 5
-22 4 -9 -11 12 -15 10 -17 -19 -17 -31 0 -32 1 -28 35 4 33 -14 56 -27 34z"/>
<path d="M3535 5980 c-3 -5 3 -10 15 -10 12 0 18 5 15 10 -3 6 -10 10 -15 10
-5 0 -12 -4 -15 -10z"/>
<path d="M3630 5889 c0 -48 16 -44 22 6 3 24 0 35 -9 35 -9 0 -13 -14 -13 -41z"/>
<path d="M3348 5913 c7 -3 16 -2 19 1 4 3 -2 6 -13 5 -11 0 -14 -3 -6 -6z"/>
<path d="M3687 5913 c-2 -5 -7 -20 -11 -35 -3 -15 -18 -34 -34 -42 -23 -13
-24 -15 -7 -16 11 0 31 7 44 16 22 16 25 16 51 0 33 -19 40 -20 40 -5 0 5 -15
16 -34 24 -26 11 -33 19 -29 34 5 19 -12 38 -20 24z"/>
<path d="M3300 5870 c0 -29 4 -40 15 -40 8 0 15 9 15 20 0 14 7 20 21 20 11 0
18 4 14 10 -3 5 -12 7 -20 3 -9 -3 -15 1 -15 11 0 9 -7 16 -15 16 -11 0 -15
-11 -15 -40z"/>
<path d="M3355 5840 c-3 -5 1 -10 10 -10 9 0 13 5 10 10 -3 6 -8 10 -10 10 -2
0 -7 -4 -10 -10z"/>
<path d="M7577 4374 c-4 -4 -4 -18 -1 -30 6 -22 3 -24 -31 -24 -34 0 -37 2
-33 25 4 19 1 25 -13 25 -15 0 -19 -7 -19 -33 l0 -34 58 3 c54 2 57 4 60 29 4
28 -9 51 -21 39z"/>
<path d="M7741 4369 c-67 -8 -108 -19 -69 -19 23 0 22 -97 -1 -109 -31 -18 -3
-22 31 -5 18 9 27 19 21 21 -18 6 -16 43 2 43 8 0 15 -9 15 -21 0 -11 5 -17
10 -14 20 12 9 -16 -15 -40 -13 -14 -20 -25 -14 -25 5 0 21 11 34 24 24 24 24
24 27 2 2 -16 10 -21 31 -21 15 0 26 5 25 10 0 6 -9 9 -20 7 -22 -4 -25 26 -4
42 17 13 26 109 11 111 -6 1 -43 -2 -84 -6z m69 -49 c0 -22 -5 -40 -11 -40 -6
0 -9 13 -7 30 4 40 -15 39 -23 -2 -6 -32 -6 -31 -8 10 -1 39 1 42 24 42 23 0
25 -4 25 -40z m-70 9 c0 -24 -23 -21 -28 4 -2 10 3 17 12 17 10 0 16 -9 16
-21z"/>
<path d="M7029 4363 c0 -4 0 -34 1 -66 1 -55 0 -58 -19 -52 -13 4 -21 2 -21
-5 0 -18 30 -24 45 -9 18 18 23 131 7 137 -7 2 -12 0 -13 -5z"/>
<path d="M7096 4298 c1 -40 5 -73 10 -73 5 0 8 20 6 45 l-2 45 22 -42 c12 -24
25 -43 28 -43 8 0 40 67 40 83 -1 7 -8 -1 -16 -17 l-16 -29 -27 48 c-38 70
-47 67 -45 -17z"/>
<path d="M7213 4358 c-6 -7 -8 -41 -5 -76 6 -87 26 -76 30 16 3 69 -4 86 -25
60z"/>
<path d="M7279 4365 c-4 -38 1 -134 7 -132 4 1 7 21 5 45 -1 23 0 42 4 42 3 0
14 -20 25 -45 11 -25 23 -45 28 -45 5 0 15 18 22 41 19 58 32 59 29 3 -3 -36
0 -49 10 -49 10 0 13 18 13 70 0 53 -4 69 -14 67 -7 -2 -14 -7 -16 -10 -1 -4
-11 -25 -21 -47 l-18 -40 -27 53 c-22 44 -44 66 -47 47z"/>
<path d="M7538 4363 c7 -3 16 -2 19 1 4 3 -2 6 -13 5 -11 0 -14 -3 -6 -6z"/>
<path d="M6795 4318 c11 -6 23 -16 27 -22 4 -6 8 -72 8 -146 0 -107 3 -140 16
-158 13 -19 14 -25 2 -39 -9 -11 -15 -61 -18 -162 -5 -140 -6 -146 -28 -157
-14 -7 -19 -14 -13 -18 6 -4 22 4 36 18 24 24 25 29 25 165 0 133 1 141 22
155 l22 16 -22 16 c-21 14 -22 22 -22 160 0 131 -2 146 -20 164 -11 11 -28 20
-37 20 -16 -1 -15 -2 2 -12z"/>
<path d="M7545 4290 c-27 -4 -42 -8 -32 -8 28 -3 14 -26 -19 -33 l-29 -7 33
-1 c25 -1 32 -5 30 -18 -2 -11 3 -18 12 -18 9 0 14 7 12 18 -2 13 4 17 28 17
16 0 30 5 30 10 0 6 -12 9 -26 8 -15 -2 -29 3 -31 10 -3 8 7 12 31 12 20 0 36
5 36 10 0 6 -6 9 -12 8 -7 0 -35 -4 -63 -8z"/>
<path d="M1355 4220 c-13 -14 -19 -37 -19 -75 -1 -52 0 -55 24 -54 14 0 19 3
13 6 -7 2 -13 20 -13 38 0 18 6 36 13 38 9 4 9 8 -2 15 -19 13 -4 34 20 27 23
-8 26 10 3 19 -21 8 -18 9 -39 -14z"/>
<path d="M3848 4228 c-26 -21 -33 -45 -30 -92 3 -35 8 -46 21 -46 14 0 16 7
13 35 -2 19 1 42 8 50 9 10 9 15 1 15 -6 0 -11 7 -11 16 0 11 6 14 21 9 15 -5
20 -3 17 6 -6 19 -21 21 -40 7z"/>
<path d="M6095 4220 c-13 -14 -19 -37 -19 -75 -1 -51 1 -55 22 -55 19 0 21 3
12 19 -14 27 -13 58 3 64 9 4 9 8 -2 15 -19 13 -4 34 20 27 23 -8 26 10 3 19
-21 8 -18 9 -39 -14z"/>
<path d="M380 4160 c0 -60 2 -70 18 -70 14 0 17 7 14 40 -3 33 -1 40 13 40 14
0 16 -7 13 -40 -3 -31 0 -40 12 -40 13 0 15 9 10 48 -4 41 -8 47 -27 46 -18 0
-23 5 -23 23 0 14 -6 23 -15 23 -12 0 -15 -14 -15 -70z"/>
<path d="M1127 4173 c6 -77 8 -83 36 -83 30 0 47 18 47 51 0 31 -23 54 -45 45
-11 -4 -15 1 -15 19 0 14 -6 25 -13 25 -10 0 -13 -14 -10 -57z m58 -39 c0 -19
-6 -30 -17 -32 -14 -3 -18 3 -18 26 0 16 3 32 7 36 14 13 28 -1 28 -30z"/>
<path d="M2875 4160 c0 -56 3 -70 15 -70 12 0 15 9 12 40 -3 32 -1 40 12 40
12 0 16 -10 16 -40 0 -29 4 -40 15 -40 10 0 15 10 15 33 0 41 -21 73 -44 64
-12 -5 -16 0 -16 18 0 14 -6 25 -12 25 -9 0 -13 -21 -13 -70z"/>
<path d="M3620 4163 c5 -64 6 -68 31 -71 15 -2 34 4 43 14 16 15 18 15 30 -1
7 -10 22 -15 36 -13 30 4 38 25 8 24 -14 -1 -24 6 -26 17 -3 13 3 17 27 17 34
0 39 11 16 30 -18 15 -65 -1 -65 -22 0 -6 -9 -2 -21 11 -13 14 -27 20 -40 16
-15 -5 -19 -1 -19 19 0 14 -6 26 -12 26 -10 0 -12 -17 -8 -67z m145 7 c3 -5
-1 -10 -10 -10 -9 0 -13 5 -10 10 3 6 8 10 10 10 2 0 7 -4 10 -10z m-90 -36
c0 -19 -5 -29 -15 -29 -16 0 -25 28 -16 51 10 25 31 10 31 -22z"/>
<path d="M5125 4160 c0 -56 3 -70 15 -70 12 0 15 9 12 40 -3 33 -1 40 13 40
14 0 16 -7 13 -40 -3 -33 0 -40 14 -40 13 0 18 8 18 31 0 44 -17 71 -41 64
-15 -5 -19 -2 -19 19 0 14 -6 26 -12 26 -9 0 -13 -21 -13 -70z"/>
<path d="M5870 4163 c5 -65 6 -68 32 -71 20 -2 31 4 44 22 15 24 15 28 -1 52
-11 18 -23 24 -36 21 -15 -4 -19 0 -19 19 0 13 -6 24 -12 24 -10 0 -12 -17 -8
-67z m55 -29 c0 -19 -6 -30 -17 -32 -14 -3 -18 3 -18 26 0 16 3 32 7 36 14 13
28 -1 28 -30z"/>
<path d="M7606 4223 c-11 -11 -6 -23 9 -23 8 0 15 4 15 9 0 13 -16 22 -24 14z"/>
<path d="M491 4181 c-8 -5 -10 -14 -6 -21 6 -9 10 -8 17 4 5 9 13 14 19 11 15
-10 10 -21 -16 -33 -14 -7 -25 -20 -25 -31 0 -16 7 -20 39 -19 l39 0 -6 42
c-6 52 -27 68 -61 47z m39 -55 c0 -8 -4 -17 -9 -21 -12 -7 -24 12 -16 25 9 15
25 12 25 -4z"/>
<path d="M595 4183 c-18 -3 -20 -11 -18 -71 1 -37 6 -68 12 -70 6 -2 11 8 11
22 0 18 5 26 18 26 25 0 42 20 42 50 0 27 -17 51 -34 49 -6 -1 -20 -4 -31 -6z
m40 -49 c0 -19 -6 -30 -17 -32 -14 -3 -18 3 -18 26 0 16 3 32 7 36 14 13 28
-1 28 -30z"/>
<path d="M700 4181 c-23 -6 -25 -10 -25 -69 0 -34 3 -62 8 -62 4 0 10 0 15 0
4 1 6 10 4 20 -3 16 3 20 23 20 41 0 56 68 21 92 -6 4 -13 7 -16 7 -3 -1 -16
-4 -30 -8z m38 -50 c3 -27 0 -32 -15 -29 -19 3 -28 30 -19 54 10 26 31 10 34
-25z"/>
<path d="M797 4172 c-21 -23 -22 -56 -3 -72 18 -14 58 -10 64 8 2 7 -2 10 -12
6 -21 -8 -46 13 -43 37 4 25 13 33 27 24 9 -6 9 -10 -1 -16 -10 -6 -8 -9 9 -9
25 0 30 25 6 34 -24 9 -29 8 -47 -12z"/>
<path d="M879 4185 c0 0 -2 -21 -3 -47 -1 -38 2 -48 14 -48 12 0 15 9 12 40
-3 33 -1 40 13 40 14 0 16 -7 13 -40 -3 -31 0 -40 12 -40 13 0 15 9 10 48 -5
45 -6 47 -37 47 -18 1 -33 1 -34 0z"/>
<path d="M992 4178 c-18 -18 -15 -26 16 -53 19 -17 22 -24 11 -25 -8 0 -20 5
-27 12 -9 9 -12 8 -12 -5 0 -26 60 -23 67 3 4 14 14 20 34 20 16 0 29 5 29 10
0 13 -43 13 -56 0 -13 -13 -57 18 -50 36 7 17 4 18 -12 2z"/>
<path d="M1020 4181 c0 -5 5 -13 10 -16 6 -3 10 -2 10 4 0 5 -4 13 -10 16 -5
3 -10 2 -10 -4z"/>
<path d="M1246 4174 c-34 -34 -10 -89 35 -82 33 4 34 24 2 23 -18 0 -29 6 -31
18 -3 13 3 17 27 17 33 0 43 23 15 34 -24 9 -31 8 -48 -10z m39 -4 c3 -5 -3
-10 -15 -10 -12 0 -18 5 -15 10 3 6 10 10 15 10 5 0 12 -4 15 -10z"/>
<path d="M1405 4170 c-28 -31 -11 -75 29 -75 39 0 60 31 43 65 -16 32 -48 37
-72 10z m53 -38 c-4 -33 -24 -39 -38 -13 -15 30 5 68 26 50 8 -7 14 -24 12
-37z"/>
<path d="M1503 4181 c-4 -3 -8 -25 -8 -49 0 -31 4 -42 15 -42 12 0 15 8 12 35
-4 29 0 36 19 44 13 5 22 10 19 11 -18 5 -51 6 -57 1z"/>
<path d="M1576 4174 c-19 -18 -21 -55 -4 -72 16 -16 55 -15 61 1 3 8 -4 13
-21 12 -17 0 -28 6 -30 18 -3 13 3 17 27 17 33 0 43 23 15 34 -24 9 -31 8 -48
-10z m39 -4 c3 -5 -3 -10 -15 -10 -12 0 -18 5 -15 10 3 6 10 10 15 10 5 0 12
-4 15 -10z"/>
<path d="M2984 4175 c-17 -13 -17 -14 -1 -15 9 0 17 5 17 12 0 9 3 8 13 -1 8
-10 9 -15 1 -18 -56 -21 -56 -63 1 -63 34 0 35 1 35 38 0 57 -27 77 -66 47z
m36 -49 c0 -8 -4 -18 -10 -21 -5 -3 -10 3 -10 14 0 12 5 21 10 21 6 0 10 -6
10 -14z"/>
<path d="M3090 4183 c-24 -4 -25 -6 -22 -68 3 -46 8 -65 17 -65 8 0 11 7 8 20
-4 16 0 20 20 20 26 0 47 24 47 54 0 16 -27 47 -38 45 -4 -1 -18 -4 -32 -6z
m38 -51 c2 -24 -1 -32 -12 -32 -17 0 -32 42 -21 60 12 20 30 4 33 -28z"/>
<path d="M3192 4183 c-21 -4 -23 -9 -20 -69 2 -36 7 -63 13 -62 6 2 9 11 8 21
-2 12 4 17 21 17 13 0 29 7 37 16 11 14 13 14 21 0 11 -20 52 -21 68 -2 10 13
7 15 -16 13 -20 -1 -29 3 -32 16 -3 13 3 17 27 17 34 0 39 11 16 30 -12 10
-21 10 -40 2 -14 -7 -25 -16 -25 -22 0 -5 -9 -1 -20 10 -11 11 -23 19 -27 19
-5 -1 -18 -4 -31 -6z m123 -13 c3 -5 -1 -10 -10 -10 -9 0 -13 5 -10 10 3 6 8
10 10 10 2 0 7 -4 10 -10z m-87 -38 c2 -23 -1 -32 -11 -32 -19 0 -29 27 -21
52 9 28 29 16 32 -20z"/>
<path d="M3369 4185 c0 0 -1 -21 -2 -48 -2 -36 1 -47 13 -47 12 0 15 9 12 40
-3 33 -1 40 13 40 14 0 16 -7 13 -40 -3 -33 0 -40 14 -40 14 0 18 8 18 33 0
45 -14 62 -50 62 -16 0 -30 0 -31 0z"/>
<path d="M3502 4179 c2 -7 10 -15 17 -17 8 -3 12 1 9 9 -2 7 -10 15 -17 17 -8
3 -12 -1 -9 -9z"/>
<path d="M3890 4170 c-25 -25 -25 -42 -2 -63 51 -46 115 19 66 67 -21 21 -40
20 -64 -4z m49 -12 c10 -28 3 -58 -15 -58 -7 0 -16 11 -20 25 -12 48 18 77 35
33z"/>
<path d="M3995 4182 c-3 -3 -5 -25 -5 -49 0 -35 3 -43 18 -43 14 0 17 7 14 40
-3 33 -1 40 14 40 9 0 14 3 10 7 -8 8 -44 12 -51 5z"/>
<path d="M4069 4171 c-20 -16 -22 -23 -14 -47 8 -23 17 -29 39 -29 16 0 31 5
33 12 3 7 -3 9 -16 6 -13 -3 -23 2 -30 16 -11 19 -9 21 24 21 38 0 46 14 16
30 -25 13 -25 13 -52 -9z m36 -1 c3 -5 -1 -10 -10 -10 -9 0 -13 5 -10 10 3 6
8 10 10 10 2 0 7 -4 10 -10z"/>
<path d="M5235 4177 c-12 -9 -14 -16 -7 -21 6 -3 15 1 20 10 7 13 11 14 17 3
5 -7 4 -14 -2 -16 -55 -19 -54 -63 2 -63 32 0 35 2 35 31 0 60 -27 83 -65 56z
m35 -51 c0 -8 -4 -18 -10 -21 -5 -3 -10 3 -10 14 0 12 5 21 10 21 6 0 10 -6
10 -14z"/>
<path d="M5340 4183 c-24 -4 -25 -6 -20 -69 3 -36 9 -63 15 -62 6 2 9 11 8 21
-2 12 4 17 22 17 24 0 45 25 45 54 0 16 -27 47 -38 45 -4 -1 -18 -4 -32 -6z
m38 -51 c2 -24 -1 -32 -12 -32 -17 0 -32 42 -21 60 12 20 30 4 33 -28z"/>
<path d="M5424 4175 c-9 -22 1 -125 11 -126 6 0 11 9 13 21 2 11 11 20 21 20
9 0 22 5 29 12 15 15 16 65 0 74 -20 12 -70 12 -74 -1z m54 -43 c2 -23 -1 -32
-11 -32 -15 0 -27 36 -19 58 7 23 27 6 30 -26z"/>
<path d="M5537 4172 c-21 -23 -22 -56 -3 -72 18 -14 58 -10 64 8 2 7 -2 10
-12 6 -17 -6 -46 11 -46 27 0 5 14 9 30 9 32 0 42 23 14 34 -24 9 -29 8 -47
-12z m38 -2 c3 -5 -3 -10 -15 -10 -12 0 -18 5 -15 10 3 6 10 10 15 10 5 0 12
-4 15 -10z"/>
<path d="M5619 4180 c-1 -3 -2 -24 -3 -47 -1 -33 3 -43 14 -43 12 0 15 9 12
40 -3 33 -1 40 13 40 14 0 16 -7 13 -40 -3 -31 0 -40 12 -40 13 0 15 9 10 48
-5 45 -6 47 -37 47 -18 1 -33 -2 -34 -5z"/>
<path d="M5750 4186 c0 -2 7 -9 15 -16 12 -10 15 -10 15 4 0 9 -7 16 -15 16
-8 0 -15 -2 -15 -4z"/>
<path d="M5986 4174 c-20 -19 -21 -58 -2 -74 18 -14 58 -10 63 7 3 7 -3 9 -17
6 -13 -4 -26 0 -31 8 -15 23 -10 29 21 29 32 0 42 23 14 34 -24 9 -31 8 -48
-10z m39 -4 c3 -5 -3 -10 -15 -10 -12 0 -18 5 -15 10 3 6 10 10 15 10 5 0 12
-4 15 -10z"/>
<path d="M6149 4171 c-20 -16 -22 -23 -14 -47 14 -40 57 -45 81 -10 15 24 15
28 0 51 -20 30 -36 31 -67 6z m49 -39 c-4 -35 -25 -39 -39 -8 -9 20 -9 29 1
41 18 21 42 0 38 -33z"/>
<path d="M6245 4176 c-2 -6 -5 -28 -7 -48 -4 -35 -2 -38 21 -38 19 0 22 3 13
12 -20 20 -14 58 11 68 24 10 23 10 -11 14 -13 2 -25 -2 -27 -8z"/>
<path d="M6316 4174 c-34 -34 -10 -89 35 -82 33 5 34 24 2 23 -24 0 -28 4 -29
28 -1 30 9 42 27 31 8 -4 7 -9 -2 -15 -10 -6 -8 -9 9 -9 25 0 30 25 6 34 -24
9 -31 8 -48 -10z"/>
<path d="M3464 4168 c-4 -6 4 -20 19 -33 34 -26 34 -39 2 -31 -14 4 -25 2 -25
-4 0 -5 14 -10 30 -10 41 0 51 27 19 53 -13 11 -23 24 -21 28 3 13 -16 11 -24
-3z"/>
<path d="M5720 4162 c0 -10 11 -25 25 -32 14 -7 25 -17 25 -22 0 -12 -24 -10
-38 4 -9 9 -12 8 -12 -5 0 -26 60 -23 67 3 4 14 14 20 34 20 16 0 29 5 29 10
0 14 -43 13 -57 -1 -9 -9 -18 -5 -38 15 -31 31 -35 32 -35 8z"/>
<path d="M3550 4140 c0 -5 11 -10 25 -10 14 0 25 5 25 10 0 6 -11 10 -25 10
-14 0 -25 -4 -25 -10z"/>
<path d="M7117 4058 c-4 -13 -13 -32 -22 -43 -14 -17 -16 -17 -11 -2 6 18 -9
24 -19 7 -3 -5 -11 -10 -16 -10 -6 0 -1 14 11 30 17 24 18 30 6 30 -8 0 -22
-14 -30 -32 -20 -39 -20 -49 -1 -42 8 4 15 1 15 -6 0 -6 5 -8 12 -4 7 4 33 6
60 5 26 -1 57 0 68 4 19 6 18 8 -10 32 -17 13 -30 31 -30 39 0 23 -27 16 -33
-8z m36 -32 c7 -18 -1 -26 -25 -26 -16 0 -17 3 -8 20 13 23 26 26 33 6z"/>
<path d="M7520 4073 c1 -18 18 -35 24 -24 4 6 4 16 1 21 -7 12 -25 13 -25 3z"/>
<path d="M7255 4060 c-11 -5 -14 -9 -7 -9 19 -1 14 -31 -5 -31 -15 0 -15 -2
-4 -9 12 -8 13 -14 3 -36 -16 -34 -15 -40 3 -25 13 11 15 7 15 -24 0 -22 4
-35 10 -31 6 3 10 22 10 40 0 26 3 33 15 29 8 -4 15 -1 15 5 0 7 -7 14 -15 17
-26 10 -16 24 14 22 17 -2 30 0 30 5 4 51 1 57 -31 56 -18 0 -42 -4 -53 -9z
m55 -18 c0 -10 -7 -19 -15 -19 -27 0 -18 27 13 36 1 1 2 -7 2 -17z"/>
<path d="M7374 4043 c4 -40 20 -44 24 -5 2 23 -1 32 -11 32 -10 0 -14 -9 -13
-27z"/>
<path d="M7676 4024 c-9 -66 -8 -94 4 -94 6 0 10 14 10 30 0 23 5 30 19 30 17
0 19 -4 10 -32 -5 -18 -9 -34 -9 -35 0 -2 -15 -9 -32 -17 -25 -11 -28 -15 -13
-15 11 -1 34 8 52 18 32 20 32 20 58 -1 25 -20 49 -18 28 3 -6 6 -7 26 -3 50
4 23 3 42 -2 45 -6 4 -7 19 -4 35 l6 29 -59 0 -58 0 -7 -46z m92 19 c2 -9 -7
-13 -27 -13 -30 0 -46 11 -34 24 11 11 56 2 61 -11z m8 -71 c4 -37 2 -43 -13
-40 -19 4 -25 48 -8 60 6 4 -7 8 -28 8 -24 0 -36 4 -32 11 4 5 23 9 42 7 34
-3 36 -5 39 -46z"/>
<path d="M7450 4058 c0 -1 -2 -32 -4 -68 -2 -36 -7 -74 -11 -85 -4 -11 2 -7
14 10 11 17 21 36 21 43 0 7 13 12 30 12 27 0 30 -3 30 -30 0 -17 -5 -30 -12
-30 -9 0 -9 -3 -1 -11 18 -18 33 -1 33 37 0 24 5 34 15 34 8 0 15 -5 15 -10 0
-6 8 -5 19 2 28 17 16 28 -22 22 l-32 -5 28 24 c23 19 26 25 14 30 -9 3 -21
-1 -27 -9 -7 -8 -19 -14 -27 -14 -9 0 -13 -6 -9 -15 4 -11 -2 -15 -25 -15 -29
0 -30 2 -27 37 2 22 -2 38 -10 41 -6 2 -12 2 -12 0z"/>
<path d="M7580 4050 c0 -5 7 -10 15 -10 8 0 15 5 15 10 0 6 -7 10 -15 10 -8 0
-15 -4 -15 -10z"/>
<path d="M2632 3993 c-42 -4 -43 -5 -37 -32 5 -24 1 -31 -27 -48 -18 -11 -100
-63 -183 -115 -82 -52 -438 -276 -790 -498 -672 -423 -668 -420 -661 -427 2
-3 150 87 328 199 331 209 1221 770 1303 822 45 28 46 28 67 10 14 -13 22 -15
25 -7 2 6 17 30 34 52 16 23 29 43 29 46 0 5 -8 5 -88 -2z"/>
<path d="M4290 3992 c0 -17 52 -102 62 -102 6 0 16 7 22 15 12 17 -9 31 461
-300 132 -93 344 -241 470 -330 127 -89 296 -209 378 -266 l147 -104 -327 -5
c-253 -4 -173 -6 355 -8 l682 -2 0 -550 0 -550 -677 -2 c-373 -2 -528 -4 -345
-5 182 -2 332 -6 332 -8 0 -3 -11 -28 -25 -55 -14 -27 -25 -52 -25 -55 0 -3
11 -5 25 -5 l25 0 0 -290 0 -290 -342 -3 c-189 -1 -28 -2 357 -2 385 0 544 1
353 2 l-348 3 0 290 0 290 25 0 c14 0 25 2 25 5 0 3 -11 28 -25 55 -14 27 -25
52 -25 55 0 3 153 5 340 5 l340 0 0 560 0 560 -343 0 -344 0 -160 113 c-88 61
-216 152 -284 200 -119 85 -207 147 -729 512 -294 206 -299 210 -282 226 19
20 15 26 -25 33 -21 4 -50 9 -65 12 -16 3 -28 1 -28 -4z"/>
<path d="M7365 3991 c-28 -6 -30 -9 -30 -49 l0 -42 43 0 c27 0 41 4 37 10 -4
6 -15 8 -26 5 -13 -4 -19 -2 -19 9 0 9 9 16 21 16 12 0 17 4 14 11 -4 6 -13 8
-21 5 -8 -3 -14 1 -14 9 0 7 10 15 23 17 12 2 18 6 12 9 -5 3 -23 3 -40 0z"/>
<path d="M7029 3964 c-9 -11 -6 -14 20 -14 34 0 42 15 11 23 -10 3 -24 -1 -31
-9z"/>
<path d="M7093 3963 c12 -11 -14 -33 -39 -33 -12 0 -26 -5 -30 -11 -7 -11 6
-11 56 2 9 3 14 -3 14 -13 -1 -10 4 -18 12 -18 10 0 14 13 14 40 0 31 -4 40
-17 40 -9 0 -13 -3 -10 -7z"/>
<path d="M7156 3938 c1 -18 3 -37 3 -41 1 -5 6 -5 11 -2 16 10 12 75 -4 75 -9
0 -13 -10 -10 -32z"/>
<path d="M840 3920 c0 -11 -6 -20 -12 -20 -10 0 -10 -2 -1 -8 16 -10 11 -95
-7 -119 -7 -10 0 -5 15 11 21 23 29 26 35 15 5 -7 12 -10 16 -6 4 4 0 15 -9
25 -22 24 -21 32 3 32 11 0 20 -6 20 -14 0 -8 5 -16 11 -18 6 -2 1 -16 -13
-33 l-23 -30 27 17 c22 15 27 15 32 3 7 -20 66 -20 66 0 0 18 -12 19 -28 3 -9
-9 -12 -6 -12 14 0 15 5 30 10 33 16 10 13 105 -4 105 -9 0 -12 -13 -11 -47 1
-27 0 -33 -2 -15 -5 37 -20 43 -26 10 -3 -14 -5 -9 -6 15 0 20 -5 37 -11 37
-5 0 -10 -6 -10 -14 0 -9 -7 -12 -19 -9 -12 3 -17 11 -14 19 3 8 -1 14 -11 14
-9 0 -16 -8 -16 -20z m60 -39 c0 -10 -30 -24 -37 -17 -3 3 -2 9 2 15 8 13 35
15 35 2z"/>
<path d="M1170 3860 c0 -66 -3 -80 -16 -80 -14 0 -14 -1 0 -16 9 -8 20 -12 26
-9 13 8 13 185 0 185 -6 0 -10 -33 -10 -80z"/>
<path d="M3330 3921 c0 -11 -6 -22 -12 -24 -10 -4 -10 -6 0 -6 15 -1 16 -59 2
-95 -12 -32 4 -35 21 -4 8 14 14 18 17 10 2 -6 10 -12 18 -12 9 0 12 -4 9 -10
-3 -5 -2 -10 4 -10 5 0 13 5 16 10 9 15 25 12 25 -6 0 -11 8 -14 33 -12 17 2
30 8 28 13 -2 6 -12 9 -23 7 -12 -2 -18 3 -18 17 0 10 4 21 9 23 4 2 10 27 13
56 4 39 2 52 -8 52 -8 0 -14 -7 -14 -15 0 -8 -6 -15 -14 -15 -8 0 -17 -8 -19
-17 -2 -10 -3 -3 -1 15 2 23 -1 32 -12 32 -8 0 -14 -4 -14 -10 0 -5 -7 -10
-15 -10 -8 0 -15 7 -15 15 0 8 -7 15 -15 15 -8 0 -15 -9 -15 -19z m60 -40 c0
-5 -7 -11 -15 -15 -9 -3 -15 0 -15 9 0 8 7 15 15 15 8 0 15 -4 15 -9z m57 -38
c-3 -10 -5 -2 -5 17 0 19 2 27 5 18 2 -10 2 -26 0 -35z m-57 -7 c0 -8 5 -16
12 -18 6 -2 8 -10 4 -16 -6 -9 -14 -7 -31 10 -24 23 -24 38 1 38 8 0 14 -6 14
-14z"/>
<path d="M3660 3860 c0 -56 -4 -80 -12 -80 -8 0 -6 -7 5 -17 27 -27 37 -2 37
95 0 66 -3 82 -15 82 -12 0 -15 -16 -15 -80z"/>
<path d="M5580 3921 c0 -11 -6 -22 -12 -24 -10 -4 -10 -6 0 -6 17 -1 15 -69
-3 -106 l-15 -30 27 30 c16 19 28 25 31 17 5 -16 22 -15 22 2 0 8 -7 16 -15
20 -22 8 -18 26 5 26 11 0 20 -6 20 -14 0 -8 5 -16 11 -18 6 -2 1 -16 -13 -33
l-23 -30 27 17 c22 15 27 15 32 3 7 -21 66 -20 66 0 0 11 -7 14 -23 10 -18 -5
-24 -2 -24 12 0 10 6 23 13 28 6 6 14 32 17 58 4 40 2 48 -11 45 -12 -2 -16
-15 -16 -48 1 -31 0 -35 -3 -12 -5 37 -19 42 -26 10 -3 -13 -5 -8 -4 11 1 20
-3 36 -10 38 -7 3 -13 -2 -13 -10 0 -10 -7 -13 -19 -10 -12 3 -17 11 -14 19 3
8 -1 14 -11 14 -9 0 -16 -8 -16 -19z m60 -40 c0 -10 -30 -24 -37 -17 -3 3 -2
9 2 15 8 13 35 15 35 2z"/>
<path d="M5910 3860 c0 -66 -3 -80 -16 -80 -14 0 -14 -2 1 -16 25 -26 33 -7
37 89 2 65 0 87 -9 87 -9 0 -13 -23 -13 -80z"/>
<path d="M1030 3871 c0 -34 4 -61 10 -61 6 0 10 23 10 50 0 28 0 53 1 57 0 4
-4 9 -10 11 -7 2 -11 -18 -11 -57z"/>
<path d="M1094 3914 c3 -9 6 -36 6 -60 0 -24 5 -44 10 -44 6 0 10 27 10 60 0
48 -3 60 -16 60 -11 0 -14 -5 -10 -16z"/>
<path d="M3520 3870 c0 -49 3 -60 16 -60 15 0 15 -2 0 -25 -20 -31 -7 -33 21
-2 23 25 28 114 6 110 -7 -2 -13 6 -13 17 0 11 -7 20 -15 20 -12 0 -15 -13
-15 -60z"/>
<path d="M3589 3926 c-8 -8 3 -116 12 -116 5 0 9 27 9 60 0 53 -7 70 -21 56z"/>
<path d="M5770 3871 c0 -34 4 -61 10 -61 6 0 10 23 10 50 0 28 0 53 1 57 0 4
-4 9 -10 11 -7 2 -11 -18 -11 -57z"/>
<path d="M5839 3926 c-8 -8 3 -116 12 -116 5 0 9 27 9 60 0 53 -7 70 -21 56z"/>
<path d="M1130 3855 c0 -30 5 -55 10 -55 6 0 10 25 10 55 0 30 -4 55 -10 55
-5 0 -10 -25 -10 -55z"/>
<path d="M3622 3858 c4 -74 28 -77 28 -4 0 44 -3 56 -16 56 -12 0 -14 -10 -12
-52z"/>
<path d="M5870 3855 c0 -71 17 -71 22 0 2 39 -1 55 -9 55 -9 0 -13 -18 -13
-55z"/>
<path d="M1060 3850 c0 -37 -5 -55 -20 -70 -22 -22 -13 -27 14 -7 18 13 41
101 30 118 -14 22 -24 5 -24 -41z"/>
<path d="M5800 3853 c0 -29 -7 -58 -16 -72 -16 -22 -16 -23 5 -12 22 12 29 32
34 90 1 20 -3 36 -10 38 -9 3 -13 -9 -13 -44z"/>
<path d="M1100 3780 c6 -11 15 -20 20 -20 16 0 11 27 -6 34 -24 9 -26 8 -14
-14z"/>
<path d="M3590 3781 c13 -25 33 -28 28 -4 -2 10 -11 19 -21 21 -16 3 -17 1 -7
-17z"/>
<path d="M5842 3780 c13 -20 28 -27 28 -12 0 10 -22 32 -32 32 -5 0 -3 -9 4
-20z"/>
<path d="M7350 3780 c0 -5 5 -12 10 -15 16 -10 11 -45 -11 -76 -14 -19 -16
-29 -7 -27 8 2 14 -9 16 -29 4 -45 22 -42 22 3 0 34 2 36 25 30 24 -6 25 -5
25 44 0 47 2 50 25 50 23 0 25 -4 25 -40 0 -22 -4 -40 -9 -40 -5 0 -8 12 -7
28 0 15 -3 29 -9 32 -6 3 -11 -14 -13 -40 -2 -32 -11 -53 -30 -72 -31 -33 -22
-36 19 -7 l29 20 0 -20 c0 -17 6 -21 30 -21 30 0 42 21 20 35 -5 3 -10 1 -10
-4 0 -6 -4 -11 -10 -11 -13 0 -13 33 -1 46 5 5 11 31 12 59 l3 49 -47 1 -47 0
0 -49 c0 -41 -2 -47 -15 -36 -11 9 -12 16 -2 32 9 16 9 22 0 25 -7 3 -13 11
-13 18 0 7 -7 15 -15 19 -8 3 -15 1 -15 -4z"/>
<path d="M7160 3760 c0 -11 -4 -20 -10 -20 -6 0 -10 -29 -10 -66 0 -48 3 -65
13 -61 6 2 11 16 9 31 -2 18 2 26 13 26 10 0 15 -10 15 -30 0 -16 5 -30 10
-30 6 0 10 14 10 30 0 34 36 90 57 90 9 0 13 -16 13 -51 0 -42 -3 -52 -20 -56
-17 -5 -18 -7 -4 -21 25 -25 42 4 46 78 3 63 2 65 -20 62 -20 -3 -23 0 -17 17
5 15 2 21 -9 21 -9 0 -16 -8 -16 -18 0 -10 -7 -27 -15 -38 -13 -16 -14 -16 -9
-1 5 12 1 17 -14 17 -15 0 -19 5 -15 20 4 14 0 20 -11 20 -9 0 -16 -8 -16 -20z
m30 -50 c0 -11 -7 -20 -15 -20 -15 0 -21 21 -8 33 12 13 23 7 23 -13z"/>
<path d="M7550 3683 c0 -51 3 -93 8 -93 13 1 46 30 34 30 -7 0 -12 11 -12 24
0 26 27 43 44 26 5 -5 15 -10 21 -10 5 0 1 8 -10 17 -20 16 -16 16 30 -3 8 -3
15 -2 15 4 0 5 -7 13 -16 16 -16 6 -16 8 0 24 20 23 20 32 2 32 -8 0 -18 -9
-21 -21 -6 -16 -10 -18 -18 -9 -9 10 -9 14 1 17 6 3 10 9 6 14 -3 5 9 9 25 9
l31 0 0 -70 c0 -53 -3 -70 -14 -70 -8 0 -16 7 -20 15 -3 8 -18 15 -33 15 l-28
0 30 -18 c17 -10 42 -22 58 -25 l27 -7 2 75 c0 41 1 80 2 86 1 6 -30 11 -82
12 l-82 2 0 -92z m60 68 c0 -6 -4 -13 -10 -16 -12 -7 -14 -26 -2 -24 19 3 23
-2 12 -16 -21 -25 -30 -17 -30 25 0 29 4 40 15 40 8 0 15 -4 15 -9z"/>
<path d="M7240 3676 c0 -17 14 -29 23 -20 8 8 -3 34 -14 34 -5 0 -9 -6 -9 -14z"/>
<path d="M618 3593 c215 -2 569 -2 785 0 215 1 39 2 -393 2 -432 0 -608 -1
-392 -2z"/>
<path d="M2888 3593 c94 -2 250 -2 345 0 94 1 17 3 -173 3 -190 0 -267 -2
-172 -3z"/>
<path d="M3435 3590 c-3 -5 -19 -10 -36 -10 -33 0 -36 -6 -13 -31 14 -16 2
-26 -163 -145 -281 -202 -603 -434 -661 -477 -30 -21 -51 -41 -49 -44 3 -3
196 132 429 300 233 167 433 310 446 318 21 13 25 12 38 -6 17 -23 20 -19 52
47 9 21 19 38 23 38 3 0 13 -22 23 -50 10 -28 24 -50 32 -50 8 0 14 5 14 10 0
27 40 -2 197 -142 93 -84 225 -202 293 -263 68 -60 146 -130 173 -155 l50 -45
-339 -5 c-225 -4 -105 -5 356 -5 382 0 542 1 354 2 l-341 3 -109 98 c-60 54
-197 176 -304 272 -332 295 -305 268 -285 290 17 19 17 20 -9 30 -15 5 -33 10
-41 10 -8 0 -17 5 -20 10 -3 6 -28 10 -55 10 -27 0 -52 -4 -55 -10z"/>
<path d="M3738 3593 c100 -2 264 -2 365 0 100 1 18 2 -183 2 -201 0 -283 -1
-182 -2z"/>
<path d="M5343 3593 c214 -2 560 -2 770 0 210 1 36 2 -388 2 -423 0 -595 -1
-382 -2z"/>
<path d="M6823 2808 c30 -24 37 -68 37 -250 0 -155 2 -184 17 -200 15 -16 15
-19 0 -36 -13 -14 -16 -51 -19 -214 -3 -192 -4 -197 -27 -222 -26 -28 -17 -35
15 -12 17 13 19 31 24 221 5 200 6 207 28 225 l22 19 -25 25 -25 25 0 193 c0
159 -3 198 -16 216 -8 12 -22 22 -31 22 -16 0 -16 -1 0 -12z"/>
<path d="M6100 2738 c0 -13 -8 -18 -31 -18 -17 0 -28 4 -24 10 3 6 -1 10 -9
10 -9 0 -16 -4 -16 -10 0 -5 -7 -10 -15 -10 -8 0 -15 -4 -15 -10 0 -5 7 -10
15 -10 10 0 15 -10 15 -31 0 -26 3 -29 20 -24 11 4 20 2 20 -4 0 -6 -19 -12
-42 -13 -41 -1 -41 -1 -8 -5 l35 -5 -35 -30 -35 -30 38 21 c48 26 47 26 47 -4
0 -14 5 -25 10 -25 6 0 10 14 10 32 l0 31 23 -21 c23 -21 57 -30 57 -14 0 4
-15 14 -32 22 l-33 13 33 4 c17 3 32 9 32 14 0 5 -17 7 -40 3 -28 -5 -40 -3
-40 5 0 8 8 10 20 6 17 -5 20 -2 20 23 0 22 6 31 21 35 12 3 18 10 14 17 -4 6
-12 9 -18 7 -7 -2 -17 3 -24 12 -11 14 -12 14 -13 -1z m-12 -45 c-10 -2 -26
-2 -35 0 -10 3 -2 5 17 5 19 0 27 -2 18 -5z m12 -23 c0 -5 -11 -10 -25 -10
-14 0 -25 5 -25 10 0 6 11 10 25 10 14 0 25 -4 25 -10z"/>
<path d="M2660 2728 c0 -10 -8 -18 -17 -18 -17 -1 -17 -1 0 -11 10 -6 17 -22
17 -41 0 -23 4 -29 15 -24 8 3 15 1 15 -4 0 -6 -17 -11 -37 -11 -36 -1 -37 -2
-8 -8 l29 -6 -34 -28 c-35 -27 -16 -27 27 0 20 13 22 12 25 -9 4 -33 22 -29
29 7 4 17 7 25 8 18 2 -18 40 -36 59 -28 13 5 10 10 -18 23 l-35 16 33 4 c18
2 30 7 27 12 -3 5 -21 6 -40 3 -28 -4 -35 -2 -35 11 0 9 -8 16 -20 16 -11 0
-20 5 -20 10 0 6 11 10 24 10 16 0 26 -7 29 -21 8 -29 27 -14 27 22 0 19 5 29
15 29 8 0 15 5 15 11 0 6 -6 9 -14 6 -8 -3 -17 2 -21 11 -6 16 -7 16 -19 0 -7
-10 -21 -18 -31 -18 -10 0 -24 8 -31 18 -13 16 -13 16 -14 0z m70 -38 c0 -5
-12 -10 -26 -10 -14 0 -23 4 -19 10 3 6 15 10 26 10 10 0 19 -4 19 -10z"/>
<path d="M5605 2729 c4 -6 -3 -13 -15 -16 -16 -4 -18 -8 -9 -14 10 -6 9 -12
-5 -28 -11 -12 -14 -21 -8 -21 6 0 14 5 17 10 11 18 24 10 20 -12 l-4 -23 19
24 c11 13 20 17 20 10 0 -10 3 -10 12 -1 18 18 28 15 28 -8 0 -11 7 -20 16
-20 11 0 14 6 9 23 -6 18 -5 20 6 10 7 -7 20 -13 28 -13 10 0 8 7 -9 25 -19
21 -21 25 -7 25 9 0 17 5 17 11 0 6 -9 8 -20 4 -14 -5 -20 -2 -20 9 0 9 -4 16
-10 16 -5 0 -10 -7 -10 -15 0 -8 -6 -15 -14 -15 -8 0 -21 7 -30 15 -17 17 -41
20 -31 4z m60 -39 c-3 -5 -12 -7 -20 -3 -21 7 -19 13 6 13 11 0 18 -4 14 -10z"/>
<path d="M5860 2660 c0 -66 -3 -80 -16 -80 -13 0 -15 10 -12 60 2 43 -1 60 -9
60 -9 0 -13 -19 -13 -59 0 -54 -2 -60 -22 -64 -13 -2 21 -5 75 -6 59 0 96 3
92 8 -3 5 -20 7 -38 4 -32 -5 -32 -4 -32 36 0 38 2 41 28 41 15 0 27 5 27 11
0 7 -10 9 -25 5 -23 -6 -25 -4 -25 29 0 24 -5 35 -15 35 -12 0 -15 -16 -15
-80z"/>
<path d="M6222 2726 c-29 -17 -42 -31 -19 -23 11 4 17 1 17 -8 0 -7 -8 -16
-17 -18 -17 -4 -17 -5 0 -6 16 -1 16 -3 2 -31 -19 -37 -19 -46 0 -30 13 11 15
8 15 -20 0 -21 4 -30 13 -27 12 4 13 8 16 46 1 14 8 18 31 17 27 -1 30 -4 30
-33 0 -18 5 -33 10 -33 6 0 10 15 10 34 0 29 3 33 20 29 18 -5 20 0 20 36 0
34 -3 41 -20 41 -13 0 -20 7 -20 20 0 11 -4 20 -10 20 -5 0 -10 -9 -10 -19 0
-14 -9 -21 -31 -26 -36 -8 -52 2 -26 16 9 6 15 14 12 20 -8 11 -14 10 -43 -5z
m88 -63 c0 -20 -3 -24 -11 -16 -7 7 -9 19 -6 27 10 24 17 19 17 -11z m27 -10
c-3 -10 -5 -4 -5 12 0 17 2 24 5 18 2 -7 2 -21 0 -30z m-67 7 c0 -5 -2 -10 -4
-10 -3 0 -8 5 -11 10 -3 6 -1 10 4 10 6 0 11 -4 11 -10z"/>
<path d="M690 2718 c0 -12 -8 -18 -22 -19 -18 -1 -19 -2 -5 -6 17 -4 17 -6 2
-29 -16 -25 -8 -33 13 -12 9 9 12 8 12 -5 0 -9 5 -17 10 -17 6 0 10 7 10 16 0
13 3 14 13 5 8 -6 17 -8 21 -3 4 4 12 -1 17 -11 14 -24 28 -21 22 6 -4 21 -4
21 11 3 8 -10 19 -15 25 -12 6 4 2 15 -11 29 l-22 21 24 7 c25 7 25 7 -2 8
-16 1 -28 6 -28 11 0 22 -19 8 -29 -21 -9 -28 -13 -30 -27 -18 -14 12 -14 14
3 20 11 5 12 8 4 8 -8 1 -20 9 -27 19 -13 16 -13 16 -14 0z"/>
<path d="M936 2723 c-3 -3 -6 -42 -6 -85 0 -45 -4 -78 -10 -78 -9 0 -16 70
-11 108 1 6 -5 12 -14 12 -12 0 -15 -13 -15 -59 0 -54 -2 -60 -22 -64 -13 -2
23 -5 80 -6 69 -1 101 2 97 9 -4 6 -21 8 -41 4 l-34 -6 0 80 c0 74 -7 101 -24
85z"/>
<path d="M1104 2718 c-5 -8 -16 -18 -24 -21 -12 -4 -11 -6 3 -6 12 -1 17 -9
17 -30 0 -36 19 -51 27 -22 3 14 13 21 29 21 13 0 24 -4 24 -10 0 -5 -9 -10
-20 -10 -11 0 -20 -7 -20 -15 0 -10 -11 -15 -37 -16 -37 -1 -37 -2 -8 -8 l29
-6 -29 -22 c-17 -12 -25 -23 -19 -23 6 0 23 9 38 21 l26 20 0 -25 c0 -14 5
-26 10 -26 6 0 10 11 10 24 0 25 16 36 56 36 13 0 24 5 24 10 0 7 -13 8 -34 5
-20 -4 -36 -2 -40 4 -4 7 1 11 13 11 17 0 21 6 21 30 0 24 4 30 21 30 12 0 17
4 14 11 -4 6 -13 8 -21 5 -8 -3 -14 1 -14 9 0 8 -4 15 -10 15 -5 0 -10 -7 -10
-15 0 -20 -40 -19 -55 2 -11 14 -13 15 -21 1z m76 -38 c0 -5 -11 -10 -25 -10
-14 0 -25 5 -25 10 0 6 11 10 25 10 14 0 25 -4 25 -10z"/>
<path d="M1386 2723 c-3 -3 -6 -15 -6 -25 0 -10 -3 -18 -7 -18 -5 0 -18 -3
-30 -6 -17 -5 -23 -2 -23 9 0 8 6 17 13 20 6 2 9 8 5 12 -4 4 -24 0 -45 -8
-29 -12 -33 -16 -15 -16 25 -1 28 -11 10 -29 -7 -7 -9 -12 -5 -12 4 0 0 -17
-8 -37 -15 -36 -15 -36 5 -18 20 18 20 18 20 -18 0 -21 5 -37 10 -37 6 0 10
18 10 40 0 38 1 40 20 30 11 -6 25 -8 30 -5 6 4 10 -9 10 -29 0 -20 5 -36 10
-36 6 0 10 16 10 36 0 30 3 34 19 29 16 -5 19 0 23 35 3 39 -1 45 -31 40 -9
-1 -12 5 -8 19 5 21 -5 36 -17 24z m-9 -90 c-3 -10 -5 -4 -5 12 0 17 2 24 5
18 2 -7 2 -21 0 -30z m43 11 c0 -14 -4 -23 -10 -19 -5 3 -10 15 -10 26 0 10 5
19 10 19 6 0 10 -12 10 -26z m-75 6 c3 -5 -1 -10 -9 -10 -9 0 -16 5 -16 10 0
6 4 10 9 10 6 0 13 -4 16 -10z"/>
<path d="M2235 2703 c-3 -16 -14 -37 -23 -47 -16 -18 -16 -18 6 -7 22 12 28 6
23 -22 -1 -5 3 -6 9 -2 5 3 10 15 10 27 0 16 3 18 14 9 7 -6 20 -9 28 -6 10 4
17 -1 21 -14 5 -21 27 -30 27 -11 0 6 -5 10 -11 10 -5 0 -7 5 -4 10 5 8 11 7
21 -1 24 -20 29 0 6 24 -12 13 -22 31 -22 40 0 26 -16 20 -32 -12 -10 -22 -18
-27 -28 -21 -10 7 -11 10 -2 10 6 0 12 5 12 10 0 6 -7 10 -16 10 -8 0 -12 5
-9 10 3 6 0 10 -8 10 -8 0 -18 -12 -22 -27z"/>
<path d="M2500 2650 c0 -64 -3 -80 -15 -80 -12 0 -15 13 -15 60 0 33 -4 60
-10 60 -6 0 -10 -26 -10 -59 0 -54 -2 -60 -22 -64 -13 -2 21 -5 75 -6 65 -1
96 2 92 9 -4 6 -21 8 -41 4 l-34 -6 0 41 c0 39 2 41 30 41 17 0 30 5 30 11 0
6 -12 9 -27 7 -26 -3 -28 0 -28 30 0 19 -5 32 -12 32 -9 0 -13 -22 -13 -80z"/>
<path d="M2855 2715 c-20 -10 -24 -14 -12 -15 20 0 18 -11 -9 -77 -7 -18 -9
-33 -3 -33 5 0 9 5 9 10 0 6 5 10 10 10 6 0 10 -13 10 -30 0 -16 5 -30 10 -30
6 0 10 16 10 35 0 32 2 34 30 32 27 -2 30 -6 30 -34 0 -23 5 -33 15 -33 10 0
15 11 15 35 0 25 4 33 14 29 10 -4 15 6 18 35 3 34 1 41 -14 41 -11 0 -18 8
-18 20 0 11 -7 20 -15 20 -8 0 -15 -9 -15 -19 0 -12 -9 -21 -26 -25 -33 -9
-45 2 -22 18 10 7 15 16 11 19 -8 9 -12 8 -48 -8z m82 -72 c-3 -10 -5 -4 -5
12 0 17 2 24 5 18 2 -7 2 -21 0 -30z m40 0 c-3 -10 -5 -4 -5 12 0 17 2 24 5
18 2 -7 2 -21 0 -30z m-72 17 c3 -5 -1 -10 -10 -10 -9 0 -13 5 -10 10 3 6 8
10 10 10 2 0 7 -4 10 -10z"/>
<path d="M4034 2716 c-3 -9 -14 -16 -23 -16 -13 0 -13 -2 -2 -9 10 -7 11 -13
2 -30 -10 -17 -9 -20 4 -15 8 4 15 1 15 -5 0 -6 7 -11 16 -11 8 0 13 4 10 9
-3 5 5 8 19 7 14 0 27 -7 30 -13 2 -7 12 -13 22 -12 11 0 13 3 5 6 -6 2 -9 9
-6 14 4 6 11 6 19 -1 8 -7 19 -9 25 -5 8 5 4 12 -9 22 -26 17 -27 30 -3 36 13
4 12 5 -5 6 -12 0 -24 7 -27 14 -5 10 -7 10 -12 0 -3 -7 -19 -13 -35 -13 -17
0 -28 4 -24 9 3 5 1 12 -5 16 -6 3 -13 -1 -16 -9z m56 -42 c0 -14 -3 -14 -15
-4 -8 7 -15 14 -15 16 0 2 7 4 15 4 8 0 15 -7 15 -16z"/>
<path d="M4450 2716 c0 -8 -8 -17 -17 -19 -17 -4 -17 -5 0 -6 13 -1 17 -10 17
-37 0 -31 2 -35 21 -29 15 5 19 4 15 -4 -4 -6 -24 -12 -44 -12 -32 -2 -33 -3
-8 -6 l28 -5 -23 -24 c-28 -29 -17 -31 22 -3 l29 20 0 -25 c0 -14 5 -26 10
-26 6 0 10 12 10 27 l0 26 24 -23 c17 -15 31 -20 43 -16 15 6 12 10 -17 24
l-35 17 33 3 c17 2 32 8 32 13 0 5 -17 7 -40 3 -27 -4 -40 -3 -40 5 0 6 9 11
20 11 16 0 20 7 20 30 0 24 4 30 21 30 12 0 17 4 14 11 -4 6 -13 8 -21 5 -8
-3 -14 1 -14 9 0 8 -4 15 -10 15 -5 0 -10 -7 -10 -15 0 -9 -9 -15 -24 -15 -13
0 -26 7 -30 15 -7 19 -26 20 -26 1z m75 -36 c4 -6 -5 -10 -19 -10 -14 0 -26 5
-26 10 0 6 9 10 19 10 11 0 23 -4 26 -10z m0 -30 c-3 -5 -15 -10 -26 -10 -10
0 -19 5 -19 10 0 6 12 10 26 10 14 0 23 -4 19 -10z"/>
<path d="M4740 2705 c0 -15 -6 -25 -14 -25 -8 0 -21 -3 -30 -6 -11 -4 -16 -1
-16 10 0 9 5 16 12 16 8 0 9 3 2 10 -7 7 -21 6 -45 -4 -19 -9 -26 -15 -16 -16
18 0 17 -20 -4 -78 -12 -32 -11 -36 6 -22 13 11 15 8 15 -20 0 -21 4 -30 13
-27 6 2 12 17 12 32 0 26 4 29 33 31 30 2 32 0 32 -32 0 -19 5 -34 10 -34 6 0
10 15 10 34 0 30 3 33 21 29 18 -5 20 -2 17 38 -2 35 -6 43 -20 41 -13 -2 -18
4 -18 23 0 14 -4 25 -10 25 -5 0 -10 -11 -10 -25z m-3 -67 c-3 -7 -5 -2 -5 12
0 14 2 19 5 13 2 -7 2 -19 0 -25z m30 -5 c-3 -10 -5 -4 -5 12 0 17 2 24 5 18
2 -7 2 -21 0 -30z m-67 17 c0 -5 -4 -10 -10 -10 -5 0 -10 5 -10 10 0 6 5 10
10 10 6 0 10 -4 10 -10z"/>
<path d="M4280 2640 c0 -66 -3 -80 -16 -80 -13 0 -15 10 -12 60 2 43 -1 60 -9
60 -9 0 -13 -19 -13 -59 0 -54 -2 -60 -22 -64 -13 -2 23 -5 80 -6 72 -1 101 2
96 10 -4 6 -20 8 -40 4 l-34 -6 0 81 c0 64 -3 80 -15 80 -12 0 -15 -16 -15
-80z"/>
<path d="M2355 2700 c3 -5 10 -10 16 -10 5 0 9 5 9 10 0 6 -7 10 -16 10 -8 0
-12 -4 -9 -10z"/>
<path d="M985 2660 c-3 -5 1 -10 9 -10 9 0 16 5 16 10 0 6 -4 10 -9 10 -6 0
-13 -4 -16 -10z"/>
<path d="M4330 2660 c-12 -8 -10 -10 8 -10 13 0 20 4 17 10 -7 12 -6 12 -25 0z"/>
<path d="M5645 2620 c-44 -3 -69 -7 -56 -8 l24 -2 -24 -26 c-23 -25 -23 -26
-2 -15 12 6 29 19 39 28 17 17 17 16 11 -15 -5 -25 -3 -32 9 -32 8 0 17 13 21
30 5 27 9 30 45 30 24 0 37 4 33 10 -3 6 -9 9 -13 8 -4 -1 -43 -5 -87 -8z"/>
<path d="M2275 2610 c-44 -3 -67 -7 -51 -8 l29 -2 -24 -26 c-23 -25 -23 -26
-2 -15 12 6 29 18 38 27 15 15 16 15 13 -7 -2 -13 2 -25 7 -27 6 -1 11 9 13
23 3 22 8 25 43 25 21 0 39 5 39 10 0 6 -6 9 -12 8 -7 -1 -49 -5 -93 -8z"/>
<path d="M720 2600 c-41 -4 -64 -7 -51 -8 l24 -2 -24 -27 -24 -26 33 19 c17
10 32 22 32 26 0 4 5 8 10 8 6 0 10 -7 10 -15 0 -8 -4 -15 -10 -15 -5 0 -10
-4 -10 -10 0 -5 9 -10 20 -10 15 0 20 7 20 27 l0 27 29 -28 c17 -16 31 -23 35
-18 4 6 -4 18 -16 26 l-22 16 27 0 c16 0 26 4 22 10 -3 6 -12 9 -18 8 -7 -1
-46 -4 -87 -8z"/>
<path d="M4070 2600 c-41 -4 -67 -7 -57 -8 9 -1 17 -5 17 -9 0 -3 -8 -15 -17
-26 -22 -25 1 -14 35 16 19 18 22 18 22 4 0 -9 -5 -17 -12 -17 -9 0 -9 -3 -1
-11 17 -17 43 -3 43 23 1 23 1 23 25 -4 27 -32 35 -34 35 -13 0 9 -10 20 -22
25 -22 8 -22 9 5 9 15 1 27 6 27 11 0 6 -6 9 -12 8 -7 -1 -47 -4 -88 -8z"/>
<path d="M5700 2580 c24 -24 30 -25 30 -6 0 8 -7 17 -16 20 -29 11 -34 6 -14
-14z"/>
<path d="M7238 2536 c4 -63 3 -64 -19 -59 -15 4 -20 3 -15 -5 10 -16 46 -15
51 1 2 6 5 38 8 70 3 47 1 57 -12 57 -13 0 -15 -11 -13 -64z"/>
<path d="M7295 2530 c0 -42 4 -70 10 -70 7 0 9 15 7 34 -7 59 4 63 27 11 l23
-50 23 45 c18 35 24 40 27 25 2 -11 1 -30 -4 -42 -6 -19 -4 -23 15 -23 21 0
22 4 22 70 0 86 -14 91 -51 19 l-26 -51 -23 51 c-34 73 -50 67 -50 -19z"/>
<path d="M7481 2539 c-1 -34 -4 -65 -7 -70 -3 -5 3 -9 14 -9 17 0 18 5 12 45
-8 52 4 50 27 -7 18 -44 25 -41 54 19 l19 38 -3 -47 c-2 -42 0 -48 18 -48 18
0 20 5 17 70 -4 85 -19 91 -52 19 l-24 -51 -25 51 c-34 69 -48 66 -50 -10z"/>
<path d="M1180 2580 c0 -15 37 -31 55 -23 14 5 10 9 -15 19 -38 17 -40 17 -40
4z"/>
<path d="M2341 2571 c26 -21 35 -20 26 4 -4 8 -16 15 -28 15 -21 0 -21 0 2
-19z"/>
<path d="M5445 2428 c-12 -41 -13 -43 -14 -27 -1 9 -8 20 -17 23 -12 4 -14 1
-9 -13 4 -14 0 -21 -12 -24 -13 -3 -11 -5 6 -6 l24 -1 -23 -25 c-26 -28 -16
-33 18 -9 21 14 22 14 22 -5 0 -17 -7 -21 -37 -23 -37 -1 -37 -1 -5 -5 17 -2
32 -9 32 -14 0 -5 -15 -18 -32 -29 -18 -11 -26 -20 -18 -20 8 0 30 9 48 20
l33 20 28 -21 c16 -12 34 -18 41 -14 8 5 1 13 -19 22 -39 19 -40 33 -1 33 17
0 30 4 30 9 0 6 -15 7 -34 4 -36 -6 -50 5 -36 27 7 12 12 12 22 2 6 -6 18 -12
26 -12 12 0 12 3 2 15 -7 8 -19 15 -27 15 -13 0 -13 4 2 26 20 30 10 48 -11
20 -14 -19 -14 -19 -14 2 0 23 -18 30 -25 10z"/>
<path d="M5890 2427 c-1 -7 -7 -25 -15 -42 -10 -20 -14 -23 -12 -10 2 16 -3
19 -23 17 -19 -2 -22 0 -12 10 16 16 15 28 -3 28 -8 0 -15 -6 -15 -14 0 -8 -7
-16 -15 -20 -11 -4 -15 -21 -15 -65 0 -57 11 -84 25 -60 4 6 18 8 31 5 22 -6
24 -3 24 28 0 40 19 58 27 27 6 -24 23 -29 23 -6 0 7 -7 18 -16 23 -21 12 -10
32 17 32 16 0 19 -7 19 -39 0 -23 -7 -46 -16 -56 -13 -12 -14 -19 -5 -28 21
-21 39 14 42 78 2 57 1 60 -21 57 -18 -2 -21 2 -17 17 3 12 -1 22 -9 25 -8 3
-14 0 -14 -7z m-52 -64 c-5 -25 -28 -28 -28 -4 0 12 6 21 16 21 9 0 14 -7 12
-17z m2 -53 c0 -11 -7 -20 -15 -20 -8 0 -15 9 -15 20 0 11 7 20 15 20 8 0 15
-9 15 -20z"/>
<path d="M6096 2433 c-3 -3 -6 -39 -6 -80 0 -73 -3 -80 -28 -64 -11 6 -11 17
-2 50 11 42 6 66 -11 55 -5 -3 -9 -11 -8 -17 1 -7 1 -23 0 -36 -1 -21 -3 -22
-18 -10 -15 13 -16 11 -10 -11 4 -16 0 -31 -11 -44 -16 -19 -16 -19 3 -12 25
10 30 10 82 -5 24 -6 51 -8 60 -4 16 7 15 9 -7 14 -21 6 -25 14 -28 49 -2 25
1 42 7 42 6 0 11 -4 11 -10 0 -5 7 -10 15 -10 23 0 18 16 -11 35 -18 11 -24
23 -21 36 5 20 -5 33 -17 22z"/>
<path d="M2080 2404 l0 -26 -19 23 -19 24 1 -28 c1 -15 7 -27 12 -27 6 -1 -3
-12 -20 -25 -34 -28 -28 -32 15 -10 28 15 30 14 30 -5 0 -17 -7 -20 -42 -21
l-43 -2 37 -6 c42 -7 40 -18 -7 -45 l-30 -17 30 6 c17 3 39 15 50 25 19 19 20
19 46 -6 20 -19 33 -24 46 -19 15 6 13 9 -14 21 -46 20 -50 34 -9 34 20 0 36
3 36 8 0 16 -32 52 -47 52 -13 0 -13 3 2 26 19 29 10 49 -9 21 -18 -23 -29
-22 -21 3 5 14 2 20 -9 20 -11 0 -16 -9 -16 -26z m63 -68 c25 -19 21 -26 -13
-26 -23 0 -30 4 -30 20 0 23 17 25 43 6z"/>
<path d="M2355 2417 c-3 -7 -4 -30 -2 -51 2 -20 0 -39 -5 -42 -4 -3 -6 -10 -3
-15 4 -5 -1 -12 -9 -15 -20 -7 -49 21 -44 43 4 22 28 29 28 9 0 -9 5 -16 10
-16 6 0 10 16 10 35 0 19 -4 35 -10 35 -5 0 -10 -7 -10 -15 0 -8 -7 -15 -15
-15 -18 0 -20 27 -2 33 27 9 0 14 -43 7 -25 -4 -39 -8 -32 -9 19 -2 14 -31 -5
-31 -17 -1 -17 -1 0 -11 17 -10 17 -12 2 -36 -13 -19 -13 -24 -3 -21 7 2 19
17 26 32 16 32 17 31 25 -11 6 -29 4 -32 -21 -36 l-27 -4 28 -2 c44 -2 31 -21
-15 -21 -76 0 -33 -10 55 -12 54 -2 85 1 84 7 -1 6 -19 8 -39 7 -23 -2 -38 1
-38 7 0 6 13 11 28 11 35 0 52 31 52 95 0 44 -15 69 -25 42z m-88 -39 c-3 -8
-6 -5 -6 6 -1 11 2 17 5 13 3 -3 4 -12 1 -19z"/>
<path d="M2450 2411 c0 -12 -6 -21 -15 -21 -12 0 -15 -14 -15 -64 0 -62 11
-89 25 -65 4 6 18 8 31 5 22 -6 24 -4 24 34 0 42 14 54 25 20 3 -11 11 -20 16
-20 15 0 10 22 -8 35 -18 13 -10 35 13 35 10 0 14 -13 14 -50 0 -45 -2 -50
-22 -50 -21 0 -21 -1 -6 -16 34 -35 58 6 58 98 0 38 -1 40 -25 34 -24 -6 -25
-4 -19 20 11 44 -19 24 -33 -22 -8 -26 -12 -32 -12 -16 -1 13 -7 22 -16 22 -9
0 -15 7 -13 16 2 10 -3 19 -9 21 -8 3 -13 -4 -13 -16z m20 -61 c0 -11 -4 -20
-10 -20 -5 0 -10 9 -10 20 0 11 5 20 10 20 6 0 10 -9 10 -20z m0 -50 c0 -11
-4 -20 -10 -20 -5 0 -10 9 -10 20 0 11 5 20 10 20 6 0 10 -9 10 -20z"/>
<path d="M2631 2391 c-20 -38 -19 -45 2 -42 11 2 9 -17 -3 -24 -17 -11 -1 -24
21 -18 11 3 16 9 11 12 -7 4 -5 13 4 25 18 26 26 17 18 -21 -5 -24 -13 -32
-36 -37 -16 -3 -27 -10 -23 -16 4 -7 13 -7 26 0 13 8 19 7 19 0 0 -6 5 -8 11
-4 6 3 15 1 19 -6 6 -9 13 -9 28 -1 29 15 42 14 36 -4 -4 -9 0 -15 10 -15 12
0 16 10 16 45 0 61 0 60 -42 57 -37 -4 -38 -3 -38 32 0 20 -4 36 -10 36 -5 0
-10 -6 -10 -12 0 -7 -11 -18 -25 -25 -29 -13 -32 -7 -8 19 12 13 14 21 6 29
-8 8 -17 0 -32 -30z"/>
<path d="M2720 2415 c0 -8 9 -15 20 -15 13 0 20 -7 20 -20 0 -11 7 -20 15 -20
9 0 15 9 15 25 0 18 -5 25 -19 25 -11 0 -23 5 -26 10 -9 15 -25 12 -25 -5z"/>
<path d="M2844 2414 c3 -9 6 -18 6 -20 0 -10 29 -3 33 9 3 9 7 9 20 -2 22 -17
22 -37 0 -50 -24 -14 -7 -14 18 0 19 10 20 9 9 -10 -6 -12 -8 -26 -5 -31 3 -6
-2 -10 -12 -10 -17 -1 -17 -1 0 -11 9 -5 17 -19 17 -29 0 -27 18 -25 22 2 2
14 13 25 28 29 l25 7 -27 1 c-30 1 -40 21 -10 21 9 0 23 9 30 20 11 17 10 20
-7 20 -26 0 -34 15 -16 30 28 23 15 31 -45 29 -33 -1 -63 1 -67 4 -12 13 -25
7 -19 -9z m106 -14 c0 -5 -4 -10 -9 -10 -6 0 -13 5 -16 10 -3 6 1 10 9 10 9 0
16 -4 16 -10z m15 -60 c3 -5 1 -10 -4 -10 -6 0 -11 5 -11 10 0 6 2 10 4 10 3
0 8 -4 11 -10z"/>
<path d="M5615 2420 c-22 -4 -34 -8 -27 -9 15 -1 9 -65 -9 -87 -6 -8 -8 -14
-3 -14 17 0 33 16 43 40 9 24 10 24 10 3 1 -12 4 -28 7 -36 4 -11 -2 -17 -23
-20 l-28 -4 28 -2 c40 -2 33 -21 -8 -21 -19 0 -35 -4 -35 -10 0 -6 37 -10 90
-10 53 0 90 4 90 10 0 6 -18 10 -40 10 -22 0 -40 5 -40 10 0 6 10 10 21 10 12
0 28 8 35 18 16 20 19 122 4 122 -5 0 -10 -20 -10 -44 0 -25 -5 -48 -10 -51
-6 -4 -8 -11 -5 -16 10 -15 -23 -22 -38 -8 -7 7 -11 23 -9 36 5 25 22 32 22 8
0 -30 18 -14 22 20 3 24 0 35 -9 35 -7 0 -13 -7 -13 -15 0 -16 -12 -20 -23 -8
-4 3 0 15 10 25 18 20 17 20 -52 8z m12 -32 c-3 -8 -6 -5 -6 6 -1 11 2 17 5
13 3 -3 4 -12 1 -19z"/>
<path d="M6002 2388 c-7 -24 -16 -50 -19 -58 -5 -13 -4 -13 11 -1 20 17 31 36
40 74 11 46 -18 32 -32 -15z"/>
<path d="M6215 2419 c-16 -4 -24 -7 -17 -8 19 -2 16 -107 -4 -115 -8 -3 -12
-11 -9 -16 5 -7 18 -5 38 7 40 23 77 19 77 -8 0 -10 7 -19 15 -19 8 0 15 9 15
20 0 14 7 20 21 20 11 0 17 4 14 10 -4 6 -15 8 -25 5 -16 -5 -17 0 -15 45 3
65 15 78 15 16 0 -64 24 -57 28 8 l3 47 -63 -3 c-35 -1 -76 -5 -93 -9z m85
-34 c0 -19 -4 -35 -9 -35 -7 0 -8 53 -2 68 5 12 11 -5 11 -33z m-32 2 c2 -12
-3 -17 -17 -17 -12 0 -21 6 -21 13 0 31 32 34 38 4z m2 -54 c0 -13 3 -13 15
-3 12 10 15 10 15 -3 0 -12 -9 -16 -35 -15 -26 1 -35 6 -35 18 0 9 3 19 6 23
10 10 34 -4 34 -20z"/>
<path d="M515 2410 c-3 -5 -4 -14 0 -19 3 -5 1 -12 -4 -15 -5 -3 -11 3 -14 14
-3 11 -10 20 -16 20 -7 0 -7 -8 0 -27 8 -22 6 -30 -13 -50 -21 -22 -21 -24 -3
-17 11 4 25 11 31 15 14 11 24 1 17 -17 -3 -8 -22 -15 -47 -16 l-41 -1 38 -4
c46 -5 47 -17 5 -44 -28 -18 -29 -20 -8 -14 14 4 37 15 53 26 15 11 27 15 27
10 0 -20 48 -43 67 -33 16 9 15 11 -9 17 -15 4 -32 13 -39 21 -9 12 -5 14 25
14 21 0 35 4 32 9 -3 5 -25 7 -48 4 -37 -5 -41 -4 -36 13 3 10 7 26 9 34 2 8
13 22 24 31 11 10 17 21 12 25 -4 4 -14 -1 -22 -12 -14 -18 -14 -18 -15 4 0
23 -14 30 -25 12z"/>
<path d="M800 2370 c0 -27 -4 -50 -8 -50 -4 0 -6 15 -4 34 2 18 -1 37 -7 40
-7 4 -11 -1 -11 -12 0 -10 -7 -19 -15 -19 -18 0 -20 33 -2 41 6 4 1 4 -13 1
-14 -2 -35 -5 -47 -5 -16 0 -20 -5 -16 -19 3 -13 -1 -21 -14 -24 -16 -4 -16
-5 0 -6 20 -1 22 -14 6 -44 -12 -22 -12 -22 10 -3 11 11 21 26 21 34 0 26 13
4 16 -27 3 -26 0 -30 -24 -34 l-27 -4 28 -2 c40 -2 33 -19 -10 -24 -21 -2 4
-4 56 -5 52 -1 91 1 87 5 -4 4 -23 6 -42 4 -19 -1 -34 2 -34 8 0 6 14 11 31
11 16 0 28 4 24 9 -3 5 -1 12 5 16 13 8 13 125 0 125 -5 0 -10 -22 -10 -50z
m-80 5 c0 -8 -4 -15 -10 -15 -5 0 -10 7 -10 15 0 8 5 15 10 15 6 0 10 -7 10
-15z m57 -51 c18 -39 -1 -59 -31 -32 -15 14 -9 58 8 58 6 0 16 -12 23 -26z"/>
<path d="M883 2400 c-3 -11 -9 -20 -14 -20 -5 0 -9 -32 -9 -71 0 -59 2 -69 14
-60 7 6 11 22 8 36 -3 19 0 25 12 25 12 0 16 -7 14 -26 -2 -15 3 -29 10 -31 8
-3 12 6 12 27 0 17 11 45 24 63 32 43 42 77 23 77 -9 0 -17 -14 -21 -35 -4
-19 -12 -37 -17 -41 -7 -4 -9 1 -4 15 5 17 2 21 -13 21 -15 0 -19 5 -15 20 3
12 0 20 -7 20 -6 0 -14 -9 -17 -20z m27 -56 c0 -8 -7 -14 -15 -14 -15 0 -21
21 -9 33 10 9 24 -2 24 -19z"/>
<path d="M1079 2388 c-16 -43 -17 -54 -1 -50 6 1 12 -2 12 -8 0 -5 -4 -10 -10
-10 -5 0 -10 -4 -10 -10 0 -5 9 -10 20 -10 12 0 17 5 14 13 -3 8 2 20 11 27
15 12 16 10 13 -21 -2 -25 -8 -35 -23 -37 -11 -2 -24 -9 -30 -14 -7 -7 -1 -8
19 -4 25 6 28 5 22 -11 -5 -16 -4 -16 9 1 13 17 15 18 15 3 0 -9 5 -17 10 -17
6 0 10 8 10 18 0 12 2 14 8 4 11 -17 42 -5 43 17 0 10 2 12 6 3 3 -7 0 -19 -7
-26 -7 -10 -8 -16 0 -21 20 -12 30 7 30 55 l0 50 -30 -6 c-43 -9 -58 0 -53 30
4 19 11 26 30 26 17 0 23 -5 21 -16 -2 -10 2 -19 8 -21 6 -2 14 8 16 22 4 21
1 25 -18 25 -12 0 -25 6 -28 13 -5 10 -7 10 -12 0 -3 -7 -14 -13 -25 -13 -10
0 -19 -5 -19 -11 0 -12 -29 -38 -43 -39 -5 0 1 13 12 29 19 26 19 41 0 41 -4
0 -13 -15 -20 -32z"/>
<path d="M1280 2413 c0 -5 4 -15 10 -23 11 -18 25 -7 17 15 -6 15 -27 21 -27
8z"/>
<path d="M1365 2409 c-45 -5 -46 -6 -12 -7 20 -1 37 -7 37 -13 0 -6 -9 -9 -20
-6 -17 4 -20 2 -15 -13 4 -11 -1 -20 -11 -24 -9 -4 -14 -9 -11 -12 3 -3 16 0
29 6 19 10 21 10 11 -1 -7 -7 -13 -21 -13 -30 0 -10 -8 -20 -17 -22 -16 -4
-16 -5 -1 -6 9 0 18 -10 20 -21 6 -42 23 -23 26 28 2 30 7 50 13 47 5 -4 7
-11 4 -16 -10 -16 5 -10 27 11 21 20 21 20 2 20 -30 0 -36 11 -19 36 18 28 13
31 -50 23z"/>
<path d="M3859 2393 c-1 -16 -3 -21 -6 -11 -2 9 -11 19 -19 22 -17 6 -18 1 -3
-26 9 -16 6 -25 -13 -45 l-23 -26 33 17 c31 16 32 16 32 -4 0 -17 -7 -20 -42
-22 l-43 -1 38 -4 c46 -5 47 -15 5 -42 -39 -24 -31 -27 17 -7 19 8 35 20 35
26 0 7 14 0 31 -14 32 -27 44 -31 53 -18 3 5 -12 17 -32 28 l-37 19 43 3 c23
2 40 7 37 12 -3 4 -23 6 -45 3 -32 -5 -40 -2 -40 10 0 21 19 32 33 18 13 -13
37 -15 37 -2 0 5 -14 14 -31 20 l-31 11 23 19 c13 11 20 23 16 28 -5 4 -15 -1
-23 -11 -14 -19 -14 -19 -14 2 0 33 -30 28 -31 -5z"/>
<path d="M4144 2405 c-4 -8 -10 -12 -15 -9 -5 3 -13 -5 -18 -18 -8 -21 -10
-21 -16 -4 -5 11 -3 22 6 28 10 7 7 8 -11 4 -14 -3 -35 -6 -47 -6 -16 0 -20
-5 -16 -19 3 -13 -1 -21 -14 -24 -16 -4 -16 -5 0 -6 21 -1 22 -10 1 -39 -9
-13 -11 -22 -4 -22 5 0 19 15 30 33 11 17 20 25 20 17 0 -8 3 -25 6 -37 5 -18
1 -22 -23 -26 l-28 -4 28 -2 c43 -2 32 -19 -15 -24 -24 -2 1 -4 55 -5 59 -1
96 2 92 7 -3 5 -21 7 -40 4 -23 -4 -35 -2 -35 6 0 6 10 11 23 11 29 0 47 39
47 102 0 46 -14 64 -26 33z m-87 -37 c-3 -8 -6 -5 -6 6 -1 11 2 17 5 13 3 -3
4 -12 1 -19z m81 -33 c-2 -25 -9 -47 -16 -50 -20 -7 -39 16 -34 42 5 25 22 32
22 8 0 -8 5 -15 10 -15 6 0 10 14 10 30 0 17 2 30 5 30 3 0 4 -20 3 -45z"/>
<path d="M4230 2402 c0 -11 -7 -23 -15 -26 -13 -4 -15 -19 -13 -68 3 -66 21
-86 26 -30 4 39 19 43 24 5 4 -39 28 -42 28 -3 0 18 10 45 24 63 28 38 36 68
19 74 -7 3 -13 -1 -13 -9 -1 -7 -8 -26 -16 -43 -8 -16 -12 -22 -9 -12 3 13 -1
21 -15 24 -11 3 -19 12 -18 21 2 8 -3 17 -9 19 -8 3 -13 -4 -13 -15z m20 -52
c0 -11 -4 -20 -10 -20 -5 0 -10 9 -10 20 0 11 5 20 10 20 6 0 10 -9 10 -20z"/>
<path d="M4429 2366 c-12 -41 -13 -53 -3 -49 7 2 15 -6 19 -18 6 -17 2 -28
-16 -43 -20 -16 -20 -18 -4 -11 26 11 50 10 100 -4 32 -8 43 -7 55 4 12 13 11
15 -16 15 -28 0 -29 1 -26 40 4 41 10 48 29 29 7 -7 13 -7 17 0 4 5 -5 18 -19
27 -20 13 -25 23 -20 41 4 16 1 23 -10 23 -12 0 -15 -15 -15 -79 0 -75 -1 -79
-21 -74 -16 5 -19 11 -14 31 17 70 18 85 4 80 -8 -3 -15 -21 -17 -42 -3 -30
-6 -35 -17 -26 -12 10 -11 18 1 52 13 38 12 58 -4 58 -4 0 -14 -24 -23 -54z"/>
<path d="M4755 2413 c-94 -9 -139 -16 -127 -20 20 -7 16 -103 -5 -119 -24 -18
3 -18 36 0 12 7 34 11 47 8 25 -5 33 -27 12 -35 -7 -3 8 -6 34 -6 26 -1 50 4
54 10 5 8 -1 10 -20 7 -18 -4 -26 -1 -26 8 0 8 9 14 21 14 12 0 17 4 14 11 -4
6 -13 8 -21 5 -11 -4 -14 6 -12 52 1 50 2 52 5 15 3 -29 9 -43 19 -43 10 0 14
12 14 44 0 50 -3 53 -45 49z m-25 -28 c0 -8 -4 -15 -10 -15 -5 0 -7 7 -4 15 4
8 8 15 10 15 2 0 4 -7 4 -15z m-40 -16 c0 -24 -23 -21 -28 4 -2 10 3 17 12 17
10 0 16 -9 16 -21z m40 -25 c0 -8 -5 -12 -10 -9 -6 4 -8 11 -5 16 9 14 15 11
15 -7z m-40 -20 c0 -11 6 -14 20 -9 15 5 20 2 20 -11 0 -13 -6 -15 -32 -10
-38 8 -42 11 -35 31 8 20 27 20 27 -1z"/>
<path d="M5505 2390 c-3 -5 3 -10 15 -10 12 0 18 5 15 10 -3 6 -10 10 -15 10
-5 0 -12 -4 -15 -10z"/>
<path d="M1005 2384 c-6 -2 -9 -30 -7 -64 4 -57 3 -60 -19 -60 -22 0 -22 -1
-6 -17 27 -27 45 0 49 74 3 63 1 73 -17 67z"/>
<path d="M2145 2380 c-3 -5 3 -10 15 -10 12 0 18 5 15 10 -3 6 -10 10 -15 10
-5 0 -12 -4 -15 -10z"/>
<path d="M580 2370 c0 -5 7 -10 15 -10 8 0 15 5 15 10 0 6 -7 10 -15 10 -8 0
-15 -4 -15 -10z"/>
<path d="M3925 2370 c-3 -5 3 -10 14 -10 12 0 21 5 21 10 0 6 -6 10 -14 10 -8
0 -18 -4 -21 -10z"/>
<path d="M4347 2346 c7 -47 -4 -86 -24 -86 -16 0 -16 -1 0 -17 26 -27 44 0 49
75 4 54 2 62 -13 62 -15 0 -17 -6 -12 -34z"/>
<path d="M2840 2310 c0 -33 3 -60 8 -60 11 1 44 50 32 50 -5 0 -10 16 -10 35
0 24 -5 35 -15 35 -12 0 -15 -13 -15 -60z"/>
<path d="M1278 2300 c4 -65 12 -74 30 -35 8 18 9 25 0 25 -7 0 -9 13 -5 35 5
28 3 35 -11 35 -14 0 -16 -9 -14 -60z"/>
<path d="M564 2335 c22 -17 36 -19 36 -6 0 10 -24 21 -43 21 -7 0 -3 -7 7 -15z"/>
<path d="M960 2317 c0 -19 16 -31 24 -18 3 5 -1 14 -9 21 -12 10 -15 10 -15
-3z"/>
<path d="M4307 2311 c3 -12 10 -21 15 -21 13 0 6 32 -9 37 -7 3 -9 -3 -6 -16z"/>
<path d="M7407 2299 c5 -19 3 -21 -24 -17 -22 3 -34 -1 -42 -13 -7 -12 -7 -20
-1 -24 6 -4 13 1 16 9 4 10 18 16 35 16 27 0 29 -2 29 -41 0 -33 -6 -47 -31
-70 -36 -34 -16 -40 25 -8 l26 20 24 -25 c27 -30 36 -32 36 -11 0 9 -13 21
-28 28 -18 8 -27 19 -27 32 1 11 2 32 3 48 1 17 8 27 17 27 8 0 15 -5 15 -10
0 -6 8 -5 19 2 29 17 15 30 -25 22 -26 -5 -34 -3 -34 9 0 8 -7 18 -16 21 -22
9 -23 8 -17 -15z"/>
<path d="M7160 2290 c0 -11 -4 -20 -10 -20 -6 0 -10 -30 -10 -71 0 -62 2 -70
15 -59 9 8 13 21 9 36 -5 18 -2 24 10 24 11 0 16 -9 16 -30 0 -16 5 -30 10
-30 6 0 10 14 10 30 0 34 36 90 57 90 9 0 13 -15 13 -50 0 -42 -3 -52 -21 -58
-19 -7 -19 -9 -4 -22 26 -21 42 6 47 78 4 60 3 62 -20 62 -19 0 -22 4 -17 20
5 14 2 20 -9 20 -9 0 -16 -8 -16 -17 -1 -10 -7 -29 -16 -43 -14 -23 -14 -23
-9 -2 5 17 2 22 -13 22 -15 0 -19 5 -15 20 4 14 0 20 -11 20 -9 0 -16 -8 -16
-20z m30 -50 c0 -11 -7 -20 -15 -20 -15 0 -21 21 -8 33 12 13 23 7 23 -13z"/>
<path d="M7689 2306 c-2 -2 -35 -7 -73 -10 -63 -6 -104 -16 -64 -16 23 0 22
-97 -1 -109 -30 -18 -3 -23 30 -6 23 12 28 19 19 25 -14 9 -7 40 10 40 5 0 10
-9 10 -19 0 -11 6 -21 13 -24 8 -3 4 -13 -13 -32 -24 -27 -12 -26 21 2 14 12
17 11 22 -7 7 -25 67 -30 67 -4 0 11 -6 14 -20 9 -15 -5 -20 -2 -20 12 0 11 4
23 9 29 23 23 13 132 -10 110z m1 -56 c0 -22 -5 -40 -11 -40 -6 0 -9 13 -7 30
4 40 -15 39 -23 -2 -6 -32 -6 -31 -8 10 -1 39 1 42 24 42 23 0 25 -4 25 -40z
m-70 10 c0 -11 -7 -20 -15 -20 -8 0 -15 9 -15 20 0 11 7 20 15 20 8 0 15 -9
15 -20z"/>
<path d="M1410 2290 c-12 -8 -10 -10 8 -10 13 0 20 4 17 10 -7 12 -6 12 -25 0z"/>
<path d="M6345 2270 c-3 -5 3 -10 15 -10 12 0 18 5 15 10 -3 6 -10 10 -15 10
-5 0 -12 -4 -15 -10z"/>
<path d="M7386 2245 c4 -8 10 -15 15 -15 5 0 9 7 9 15 0 8 -7 15 -15 15 -9 0
-12 -6 -9 -15z"/>
<path d="M7372 2219 c2 -7 10 -15 17 -17 8 -3 12 1 9 9 -2 7 -10 15 -17 17 -8
3 -12 -1 -9 -9z"/>
<path d="M7240 2200 c6 -11 15 -18 21 -14 6 4 6 11 -2 20 -17 21 -31 17 -19
-6z"/>
<path d="M7475 2194 c-18 -13 -17 -14 7 -14 29 0 45 15 25 23 -7 3 -21 -1 -32
-9z"/>
<path d="M876 2123 c-3 -3 -6 -14 -6 -24 0 -9 -6 -20 -12 -22 -10 -4 -10 -6 0
-6 6 -1 12 -10 12 -20 0 -11 -6 -22 -12 -25 -10 -5 -10 -7 0 -12 6 -3 12 -17
12 -30 0 -13 -6 -24 -12 -24 -7 0 -5 -5 5 -11 27 -16 36 -2 38 61 1 30 7 59
13 63 8 6 7 10 -1 14 -7 2 -13 11 -13 18 0 16 -14 27 -24 18z"/>
<path d="M1140 2123 c1 -18 19 -35 29 -28 9 5 9 10 0 21 -12 15 -29 19 -29 7z"/>
<path d="M2700 2110 c0 -11 7 -20 15 -20 8 0 15 6 15 14 0 8 -7 16 -15 20 -10
4 -15 -1 -15 -14z"/>
<path d="M4494 2114 c3 -8 6 -18 6 -20 0 -2 5 -4 10 -4 16 0 11 27 -6 34 -12
5 -15 2 -10 -10z"/>
<path d="M5403 2123 c-17 -3 -23 -11 -23 -29 0 -21 3 -24 25 -18 36 9 31 -9
-12 -52 -21 -21 -32 -34 -25 -30 8 5 12 -1 12 -18 0 -16 6 -26 15 -26 10 0 15
10 15 32 0 23 8 38 27 54 23 18 25 24 15 37 -7 9 -12 23 -10 33 3 19 -6 23
-39 17z m17 -23 c0 -5 -4 -10 -10 -10 -5 0 -10 5 -10 10 0 6 5 10 10 10 6 0
10 -4 10 -10z"/>
<path d="M5488 2122 c-40 -5 -38 -38 1 -44 23 -3 31 0 35 16 7 26 -2 33 -36
28z m22 -22 c0 -5 -7 -10 -15 -10 -8 0 -15 5 -15 10 0 6 7 10 15 10 8 0 15 -4
15 -10z"/>
<path d="M5652 2120 c-38 -9 -54 -20 -29 -20 10 0 17 -7 17 -15 0 -9 -9 -15
-25 -15 -22 0 -25 -4 -25 -40 0 -22 4 -40 9 -40 12 0 18 20 16 48 -1 13 4 22
12 22 9 0 13 -15 13 -50 0 -36 4 -50 14 -50 10 0 13 13 12 50 -1 35 3 50 11
50 8 0 13 -12 13 -29 0 -16 7 -36 15 -44 8 -8 11 -17 8 -21 -4 -3 4 -6 17 -6
20 0 21 2 9 18 -8 9 -16 19 -19 22 -3 3 -5 21 -5 40 0 32 -2 35 -27 32 -22 -3
-26 0 -21 17 3 12 14 21 24 21 11 0 19 5 19 10 0 11 -11 11 -58 0z"/>
<path d="M5800 2085 c0 -34 -4 -45 -16 -45 -9 0 -14 -6 -11 -12 2 -7 10 -12
16 -10 6 1 11 -9 11 -23 0 -14 -5 -25 -11 -25 -5 0 -7 -4 -4 -10 3 -5 13 -10
21 -10 10 0 14 12 14 45 0 31 5 47 18 54 16 10 16 10 0 11 -10 0 -18 5 -18 10
0 6 8 10 18 10 16 1 16 2 -2 15 -10 7 -15 18 -11 24 3 6 -1 11 -9 11 -12 0
-16 -11 -16 -45z"/>
<path d="M5870 2071 c0 -48 -3 -60 -17 -64 -17 -4 -17 -5 0 -6 12 -1 17 -10
17 -32 0 -17 4 -28 10 -24 6 3 10 46 10 96 0 53 -4 89 -10 89 -6 0 -10 -26
-10 -59z"/>
<path d="M5910 2040 c0 -53 4 -90 10 -90 6 0 10 11 10 25 0 16 6 25 15 25 8 0
15 5 15 11 0 6 -7 9 -15 5 -10 -3 -15 1 -15 13 0 11 6 22 13 24 10 4 10 6 0 6
-19 1 -15 29 5 34 16 4 16 5 0 6 -10 0 -18 8 -18 16 0 8 -4 15 -10 15 -6 0
-10 -37 -10 -90z"/>
<path d="M6066 2115 c4 -8 10 -15 15 -15 5 0 9 7 9 15 0 8 -7 15 -15 15 -9 0
-12 -6 -9 -15z"/>
<path d="M455 2111 c-3 -2 -5 -15 -5 -28 0 -20 4 -22 25 -17 15 4 25 2 25 -5
0 -6 -15 -12 -32 -12 -24 -1 -27 -3 -10 -6 27 -5 29 -19 4 -32 -14 -7 -18 -18
-14 -41 5 -32 28 -37 25 -4 -2 24 13 51 36 63 14 8 23 6 37 -10 16 -18 16 -19
1 -13 -14 5 -17 0 -17 -28 0 -32 2 -35 30 -35 23 0 30 5 30 20 0 11 8 26 18
33 16 12 16 13 -4 14 -11 0 -29 7 -40 15 -18 14 -17 14 16 16 l35 1 -29 8
c-16 5 -33 7 -38 4 -13 -8 -39 23 -36 43 2 13 -4 18 -25 18 -15 1 -30 -1 -32
-4z m35 -21 c0 -5 -4 -10 -10 -10 -5 0 -10 5 -10 10 0 6 5 10 10 10 6 0 10 -4
10 -10z m80 -115 c0 -8 -4 -15 -10 -15 -5 0 -10 7 -10 15 0 8 5 15 10 15 6 0
10 -7 10 -15z"/>
<path d="M535 2111 c-3 -2 -5 -13 -5 -23 0 -13 7 -18 25 -18 14 0 28 0 33 0 4
0 7 10 7 22 0 16 -6 22 -28 22 -15 1 -30 0 -32 -3z m45 -21 c0 -5 -7 -10 -15
-10 -8 0 -15 5 -15 10 0 6 7 10 15 10 8 0 15 -4 15 -10z"/>
<path d="M728 2113 c-26 -4 -41 -23 -18 -23 6 0 10 -7 10 -16 0 -10 -7 -14
-22 -12 -20 3 -23 -2 -26 -39 -2 -24 1 -43 6 -43 13 0 20 19 17 48 -1 13 4 22
12 22 9 0 13 -15 13 -50 0 -38 4 -50 15 -50 11 0 15 12 15 50 0 59 24 72 26
15 1 -38 8 -50 21 -42 5 3 7 26 5 51 -4 43 -6 45 -28 40 -20 -5 -24 -2 -24 15
0 14 6 21 20 21 11 0 20 5 20 10 0 10 -12 11 -62 3z"/>
<path d="M940 2086 c0 -19 -6 -37 -12 -39 -10 -4 -10 -6 0 -6 19 -1 14 -39 -5
-44 -17 -4 -17 -5 0 -6 11 -1 17 -9 17 -26 0 -16 6 -25 15 -25 12 0 15 17 15
90 0 73 -3 90 -15 90 -10 0 -15 -10 -15 -34z"/>
<path d="M980 2030 c0 -53 4 -90 10 -90 6 0 10 11 10 25 0 19 5 25 21 25 12 0
17 4 14 11 -4 6 -13 8 -21 5 -9 -3 -14 1 -14 14 0 10 8 21 18 23 16 4 16 5 0
6 -22 1 -24 31 -2 31 8 0 12 5 9 10 -4 6 -11 7 -17 4 -7 -5 -9 -1 -5 9 4 11 1
17 -8 17 -12 0 -15 -18 -15 -90z"/>
<path d="M2020 2088 c0 -21 4 -25 19 -21 10 3 22 0 25 -6 5 -7 -6 -11 -31 -12
-36 -1 -37 -2 -8 -8 l29 -6 -28 -23 c-16 -12 -24 -22 -17 -22 6 0 11 -11 11
-25 0 -14 5 -25 10 -25 6 0 10 13 10 28 0 18 10 38 25 52 l25 24 23 -23 c21
-21 21 -22 2 -19 -16 2 -20 -3 -20 -27 0 -26 3 -30 33 -31 28 -1 32 2 32 22 0
13 5 24 10 24 21 0 9 16 -22 29 l-33 14 35 6 35 7 -34 7 c-18 4 -38 4 -43 1
-13 -8 -28 14 -28 42 0 17 -6 21 -30 20 -25 -1 -30 -5 -30 -28z m40 2 c0 -5
-4 -10 -9 -10 -6 0 -13 5 -16 10 -3 6 1 10 9 10 9 0 16 -4 16 -10z m80 -115
c0 -8 -4 -15 -10 -15 -5 0 -10 7 -10 15 0 8 5 15 10 15 6 0 10 -7 10 -15z"/>
<path d="M2100 2095 c0 -18 7 -24 30 -27 24 -4 30 -1 30 14 0 10 0 21 0 25 0
4 -13 8 -30 9 -25 1 -30 -2 -30 -21z m40 -5 c0 -5 -4 -10 -10 -10 -5 0 -10 5
-10 10 0 6 5 10 10 10 6 0 10 -4 10 -10z"/>
<path d="M2290 2113 c-8 -2 -22 -7 -30 -9 -13 -5 -12 -7 3 -15 26 -15 21 -32
-8 -27 -24 5 -25 3 -25 -40 0 -50 18 -48 22 1 4 50 25 29 23 -23 -1 -41 2 -50
15 -50 13 0 16 9 15 50 -1 36 2 50 12 50 7 0 14 -11 14 -25 2 -44 4 -48 16
-52 6 -2 14 1 18 6 3 6 2 11 -2 11 -5 0 -7 18 -5 41 l4 41 -30 -7 c-27 -5 -31
-4 -29 14 1 15 8 21 24 21 13 0 23 5 23 10 0 10 -34 12 -60 3z"/>
<path d="M2439 2098 c-1 -13 0 -31 0 -41 1 -9 -5 -20 -13 -23 -20 -8 -21 -24
-1 -24 9 0 15 -9 15 -25 0 -14 -5 -25 -12 -25 -9 0 -9 -3 -1 -11 18 -18 33 0
33 41 0 21 5 42 11 46 8 4 7 9 -2 15 -12 8 -11 11 1 20 11 8 12 12 3 16 -7 2
-13 11 -13 19 0 23 -20 16 -21 -8z"/>
<path d="M2509 2103 c-1 -10 -1 -26 0 -35 1 -10 -3 -18 -10 -18 -8 0 -8 -5 2
-16 11 -14 10 -18 -6 -30 -17 -12 -17 -14 -2 -14 11 0 17 -8 17 -25 0 -14 5
-25 10 -25 6 0 10 37 10 90 0 53 -4 90 -10 90 -5 0 -11 -8 -11 -17z"/>
<path d="M2540 2030 c0 -53 4 -90 10 -90 6 0 10 11 10 25 0 18 5 25 20 25 11
0 20 5 20 10 0 6 -9 10 -20 10 -25 0 -26 16 -2 29 16 10 16 10 0 11 -10 0 -18
7 -18 15 0 8 9 15 21 15 12 0 17 4 14 11 -4 6 -14 8 -22 5 -11 -4 -13 -2 -9 9
3 9 0 15 -9 15 -12 0 -15 -18 -15 -90z"/>
<path d="M3800 2090 c0 -24 3 -27 25 -22 15 2 25 0 25 -7 0 -6 -15 -12 -32
-12 -24 -1 -27 -3 -10 -6 27 -5 28 -14 4 -30 -13 -8 -18 -20 -15 -40 4 -25 9
-30 34 -30 24 0 29 5 30 26 l1 26 7 -25 c5 -19 14 -25 39 -26 28 -1 32 2 32
22 0 13 5 24 10 24 21 0 9 16 -22 29 l-33 14 35 7 c35 7 30 10 -30 15 -27 2
-41 16 -38 38 2 18 -3 21 -29 23 -30 1 -33 -1 -33 -26z m40 0 c0 -5 -4 -10
-10 -10 -5 0 -10 5 -10 10 0 6 5 10 10 10 6 0 10 -4 10 -10z m55 -70 c18 -20
18 -20 -18 -16 -34 5 -37 3 -37 -19 0 -14 -4 -25 -10 -25 -16 0 -11 26 11 54
25 31 30 32 54 6z m25 -45 c0 -8 -4 -15 -10 -15 -5 0 -10 7 -10 15 0 8 5 15
10 15 6 0 10 -7 10 -15z"/>
<path d="M3885 2111 c-3 -2 -5 -13 -5 -23 0 -13 7 -18 25 -18 14 0 28 0 33 0
4 0 7 10 7 23 0 17 -6 22 -28 22 -15 1 -30 -1 -32 -4z m35 -21 c0 -5 -4 -10
-10 -10 -5 0 -10 5 -10 10 0 6 5 10 10 10 6 0 10 -4 10 -10z"/>
<path d="M4075 2113 c-28 -7 -43 -23 -22 -23 9 0 17 -7 17 -16 0 -12 -6 -15
-25 -10 -24 6 -25 4 -25 -39 0 -25 4 -45 9 -45 12 0 18 20 16 48 -1 13 4 22
12 22 7 0 12 -3 12 -7 -1 -5 -1 -27 0 -50 1 -31 5 -43 16 -43 11 0 15 12 15
50 0 28 5 50 10 50 6 0 10 -15 10 -34 0 -38 15 -55 33 -37 6 6 7 11 1 11 -5 0
-8 18 -6 41 4 41 4 42 -22 35 -22 -5 -26 -3 -26 14 0 13 7 20 20 20 11 0 20 5
20 10 0 10 -29 11 -65 3z"/>
<path d="M4219 2098 c-1 -13 0 -33 1 -45 1 -15 -4 -23 -14 -23 -9 0 -16 -4
-16 -10 0 -5 7 -10 15 -10 9 0 15 -9 15 -25 0 -14 -5 -25 -11 -25 -5 0 -7 -4
-4 -10 3 -5 12 -10 20 -10 9 0 15 15 17 48 3 40 6 47 26 50 16 3 22 -2 22 -17
0 -11 -8 -22 -17 -24 -17 -4 -17 -5 0 -6 11 -1 17 -9 17 -27 0 -16 5 -24 13
-22 8 3 13 33 15 91 2 73 0 87 -13 87 -14 0 -19 -16 -16 -52 2 -13 -5 -18 -23
-18 -14 0 -26 5 -26 10 0 6 7 10 15 10 8 0 15 5 15 10 0 6 -7 10 -16 10 -10 0
-14 6 -10 15 3 9 0 15 -9 15 -9 0 -15 -10 -16 -22z"/>
<path d="M4330 2030 c0 -53 4 -90 10 -90 6 0 10 11 10 25 0 16 6 25 15 25 8 0
15 5 15 10 0 6 -7 10 -15 10 -18 0 -20 26 -2 33 10 4 10 6 0 6 -19 1 -16 31 3
31 8 0 12 5 9 10 -4 6 -11 8 -16 5 -5 -4 -9 1 -9 9 0 9 -4 16 -10 16 -6 0 -10
-37 -10 -90z"/>
<path d="M6125 2110 c-3 -5 1 -10 10 -10 9 0 13 5 10 10 -3 6 -8 10 -10 10 -2
0 -7 -4 -10 -10z"/>
<path d="M1077 2103 c-2 -5 -5 -29 -5 -55 0 -26 -3 -61 -7 -79 -10 -42 10 -30
25 16 10 29 16 35 41 35 26 0 29 -4 29 -30 0 -22 -5 -30 -17 -30 -15 0 -16 -2
-3 -10 29 -19 40 -11 40 30 0 29 4 40 15 40 8 0 15 -5 15 -10 0 -6 8 -5 19 2
26 16 16 30 -14 22 -16 -4 -30 0 -40 10 -21 21 -42 21 -25 1 11 -13 8 -15 -19
-15 -29 0 -31 3 -31 34 0 33 -13 55 -23 39z"/>
<path d="M1205 2100 c-3 -5 3 -10 15 -10 12 0 18 5 15 10 -3 6 -10 10 -15 10
-5 0 -12 -4 -15 -10z"/>
<path d="M2627 2042 c-2 -37 -8 -76 -13 -87 -7 -18 -6 -18 8 -7 9 7 20 27 23
43 5 24 12 29 36 29 26 0 29 -4 29 -30 0 -16 -5 -30 -11 -30 -5 0 -7 -4 -4
-10 14 -23 35 -8 41 30 6 39 18 52 27 28 3 -10 7 -10 20 1 24 19 11 31 -26 24
-29 -6 -31 -5 -18 10 7 9 20 17 27 17 8 0 14 5 14 10 0 16 -37 12 -44 -5 -3
-9 -12 -12 -22 -8 -13 5 -16 3 -11 -10 5 -14 0 -17 -24 -17 -30 0 -31 2 -27
35 2 20 -1 36 -8 39 -8 3 -13 -17 -17 -62z"/>
<path d="M2760 2100 c0 -5 7 -10 16 -10 8 0 12 5 9 10 -3 6 -10 10 -16 10 -5
0 -9 -4 -9 -10z"/>
<path d="M4426 2103 c-3 -3 -6 -30 -6 -59 0 -29 -5 -65 -10 -81 l-10 -28 20
24 c11 13 20 32 20 42 0 14 7 19 30 19 27 0 30 -3 30 -30 0 -17 -5 -30 -12
-30 -9 0 -9 -3 -1 -11 21 -21 43 -2 43 36 0 25 4 35 16 35 8 0 12 -4 9 -10 -9
-15 11 -12 24 3 15 19 3 28 -25 21 -29 -7 -32 12 -4 21 11 3 20 11 20 16 0 15
-37 10 -44 -6 -3 -9 -12 -12 -22 -8 -13 5 -16 3 -11 -10 5 -14 0 -17 -24 -17
-30 0 -31 1 -25 34 6 32 -3 53 -18 39z"/>
<path d="M4555 2100 c-3 -5 1 -10 9 -10 9 0 16 5 16 10 0 6 -4 10 -9 10 -6 0
-13 -4 -16 -10z"/>
<path d="M5990 2056 c0 -30 -5 -67 -11 -82 -10 -28 -10 -28 10 -9 12 10 21 29
21 42 0 19 5 23 30 23 27 0 30 -3 30 -30 0 -17 -5 -30 -12 -30 -9 0 -9 -3 -1
-11 21 -21 43 -2 43 36 0 24 5 35 15 35 9 0 12 -6 8 -17 -6 -16 -4 -16 15 1
26 23 19 38 -14 30 -13 -3 -24 -2 -24 4 0 5 -9 12 -21 15 -15 4 -19 2 -15 -9
4 -10 -3 -14 -25 -14 -29 0 -30 1 -23 35 5 28 3 35 -10 35 -13 0 -16 -11 -16
-54z"/>
<path d="M795 2090 c-3 -5 3 -10 15 -10 12 0 18 5 15 10 -3 6 -10 10 -15 10
-5 0 -12 -4 -15 -10z"/>
<path d="M2355 2090 c-4 -6 3 -10 14 -10 25 0 27 6 6 13 -8 4 -17 2 -20 -3z"/>
<path d="M4145 2090 c-4 -6 3 -10 14 -10 25 0 27 6 6 13 -8 4 -17 2 -20 -3z"/>
<path d="M5718 2088 c9 -9 15 -9 24 0 9 9 7 12 -12 12 -19 0 -21 -3 -12 -12z"/>
<path d="M4008 2083 c7 -3 16 -2 19 1 4 3 -2 6 -13 5 -11 0 -14 -3 -6 -6z"/>
<path d="M6105 2079 c-4 -6 -5 -12 -2 -15 7 -7 37 7 37 17 0 13 -27 11 -35 -2z"/>
<path d="M1180 2064 c0 -11 5 -14 16 -10 9 3 20 6 25 6 6 0 7 5 4 10 -10 16
-45 12 -45 -6z"/>
<path d="M5474 2062 c4 -7 2 -12 -5 -12 -7 0 -5 -8 6 -20 16 -18 16 -20 2 -20
-12 0 -17 -9 -17 -28 0 -25 4 -29 30 -29 22 0 30 5 30 18 0 10 5 21 10 24 17
11 11 23 -15 29 -14 4 -25 11 -25 16 0 6 11 8 25 4 15 -4 25 -2 25 5 0 6 -6
11 -12 11 -7 0 -24 3 -37 7 -17 4 -22 3 -17 -5z m26 -77 c0 -8 -4 -15 -10 -15
-5 0 -10 7 -10 15 0 8 5 15 10 15 6 0 10 -7 10 -15z"/>
<path d="M5426 2013 c-3 -3 -6 -19 -6 -35 0 -37 22 -33 26 5 3 27 -7 42 -20
30z"/>
<path d="M494 1996 c-8 -20 -1 -47 11 -47 12 1 14 50 3 57 -5 3 -11 -2 -14
-10z"/>
<path d="M2058 2003 c-8 -19 -2 -57 10 -60 8 -3 12 7 12 31 0 32 -13 49 -22
29z"/>
<path d="M795 1960 c-3 -5 3 -10 15 -10 12 0 18 5 15 10 -3 6 -10 10 -15 10
-5 0 -12 -4 -15 -10z"/>
<path d="M2355 1960 c-3 -5 3 -10 15 -10 12 0 18 5 15 10 -3 6 -10 10 -15 10
-5 0 -12 -4 -15 -10z"/>
<path d="M4145 1960 c-3 -5 3 -10 15 -10 12 0 18 5 15 10 -3 6 -10 10 -15 10
-5 0 -12 -4 -15 -10z"/>
<path d="M912 1733 c-18 -34 -32 -64 -32 -67 0 -3 11 -6 25 -6 l25 0 0 -315 0
-315 -347 -3 c-192 -1 -34 -3 350 -5 l697 -2 0 -370 0 -370 -697 -3 -698 -2
703 -3 702 -2 0 380 0 380 -345 0 -345 0 0 315 0 315 25 0 c30 0 30 0 -4 74
l-27 59 -32 -60z"/>
<path d="M2481 1732 c-31 -61 -31 -72 1 -72 17 0 18 -16 18 -305 l0 -305 -350
0 -350 0 0 -425 0 -425 708 2 707 3 -702 2 -703 3 0 415 0 415 700 -2 c385 -2
700 0 700 5 0 4 -157 7 -350 7 l-350 0 0 305 0 305 30 0 c17 0 30 2 30 4 0 2
-13 32 -29 66 l-30 62 -30 -60z"/>
<path d="M3952 1783 l346 -3 -29 -53 c-16 -28 -29 -55 -29 -59 0 -5 14 -8 30
-8 l30 0 -2 -292 -3 -293 -350 -5 c-234 -4 -115 -5 360 -5 391 0 554 1 364 2
l-346 3 -6 122 c-4 66 -7 199 -7 295 l0 173 25 0 c31 0 31 8 0 70 l-25 50 342
3 c189 1 30 2 -352 2 -382 0 -539 -1 -348 -2z"/>
<path d="M6830 1162 c0 -4 9 -13 20 -20 19 -11 20 -23 20 -200 0 -164 2 -192
19 -225 10 -20 15 -37 10 -37 -19 0 -29 -85 -29 -252 0 -167 -1 -179 -21 -199
-27 -27 -18 -35 12 -10 24 19 24 23 29 226 5 196 6 208 26 224 l21 17 -23 21
c-24 21 -24 24 -24 216 0 181 -1 196 -21 221 -20 25 -39 34 -39 18z"/>
<path d="M7238 1014 c4 -64 4 -66 -17 -59 -23 7 -30 -10 -7 -18 28 -11 44 17
48 81 4 52 2 62 -12 62 -13 0 -15 -10 -12 -66z"/>
<path d="M7295 1010 c0 -40 4 -70 10 -70 6 0 9 20 7 48 l-2 47 25 -47 c14 -27
28 -48 30 -48 3 0 13 18 21 41 19 45 37 36 27 -13 -4 -23 -2 -28 13 -28 17 0
19 8 18 67 -1 40 -7 69 -13 71 -6 2 -21 -19 -34 -47 -12 -28 -24 -51 -27 -51
-3 0 -15 23 -27 50 -32 73 -48 66 -48 -20z"/>
<path d="M7481 1019 c-1 -33 -4 -65 -7 -70 -3 -5 3 -9 14 -9 17 0 18 5 12 45
-8 52 0 51 25 -5 10 -22 21 -40 25 -40 4 0 17 21 29 48 l21 47 -3 -47 c-2 -42
0 -48 18 -48 18 0 20 5 17 71 -4 82 -15 85 -52 17 l-24 -47 -26 46 c-36 67
-47 65 -49 -8z"/>
<path d="M5670 829 c0 -71 -2 -80 -17 -77 -18 4 -20 15 -12 73 2 17 0 31 -6
33 -5 1 -11 -13 -13 -33 -2 -19 -7 -35 -12 -35 -14 0 -23 40 -12 53 16 21 21
57 8 57 -12 0 -50 -100 -41 -109 3 -2 5 1 5 7 0 21 17 13 23 -10 4 -14 0 -29
-10 -40 -17 -19 -5 -26 13 -8 7 7 24 5 51 -6 28 -11 51 -14 70 -9 l28 8 -25 6
c-22 6 -25 13 -28 56 -2 39 0 46 8 33 13 -22 30 -23 30 -4 0 8 -9 18 -20 21
-14 4 -20 15 -20 36 0 16 -4 29 -10 29 -6 0 -10 -34 -10 -81z"/>
<path d="M5790 889 c-19 -3 -27 -7 -18 -8 23 -1 24 -106 2 -115 -9 -3 -12 -11
-9 -16 4 -7 18 -4 38 8 39 22 77 18 77 -9 0 -10 6 -19 14 -19 9 0 12 7 9 20
-4 15 0 20 16 20 11 0 21 5 21 11 0 6 -8 8 -18 5 -16 -6 -18 0 -18 43 1 27 4
53 9 57 4 4 7 -14 7 -39 0 -26 5 -47 10 -47 6 0 10 15 10 34 0 19 3 42 6 51 6
14 -2 16 -57 13 -35 -1 -80 -5 -99 -9z m90 -34 c0 -19 -4 -35 -9 -35 -9 0 -12
49 -4 63 9 15 13 6 13 -28z m-40 5 c0 -11 -7 -20 -15 -20 -8 0 -15 9 -15 20 0
11 7 20 15 20 8 0 15 -9 15 -20z m14 -62 c10 17 26 15 26 -3 0 -10 -10 -14
-35 -13 -26 1 -35 6 -35 19 0 25 24 30 30 5 4 -15 8 -17 14 -8z"/>
<path d="M5990 871 c0 -25 3 -28 25 -23 15 2 25 0 25 -7 0 -6 -17 -12 -37 -12
-37 -1 -37 -2 -8 -8 l29 -6 -29 -22 c-17 -12 -24 -23 -17 -23 6 0 12 -12 12
-26 0 -16 5 -24 13 -21 6 2 12 18 12 35 0 19 7 37 20 46 25 19 30 19 45 1 10
-12 9 -15 -4 -15 -13 0 -17 -7 -14 -32 3 -28 7 -32 33 -32 23 0 31 5 33 22 2
12 8 22 13 22 21 0 7 19 -23 31 l-33 12 35 6 c44 8 26 22 -20 16 -37 -5 -50 6
-50 43 0 18 -6 22 -30 22 -26 0 -30 -3 -30 -29z m40 4 c0 -8 -4 -15 -10 -15
-5 0 -10 7 -10 15 0 8 5 15 10 15 6 0 10 -7 10 -15z m72 -127 c-9 -9 -12 -7
-12 12 0 19 3 21 12 12 9 -9 9 -15 0 -24z"/>
<path d="M6072 873 c2 -23 7 -27 28 -25 29 5 26 2 34 30 7 20 4 22 -29 22 -34
0 -36 -2 -33 -27z m38 2 c0 -8 -4 -15 -10 -15 -5 0 -10 7 -10 15 0 8 5 15 10
15 6 0 10 -7 10 -15z"/>
<path d="M6250 890 c-14 -4 -18 -8 -9 -9 13 -1 16 -13 17 -58 0 -89 1 -93 15
-93 8 0 12 21 12 75 -1 72 0 75 22 75 13 0 23 5 23 10 0 12 -44 12 -80 0z"/>
<path d="M4020 849 c-6 -22 -14 -47 -17 -55 -3 -10 0 -12 10 -8 8 3 17 14 20
25 6 22 27 26 27 5 0 -24 -12 -46 -21 -40 -5 3 -9 -6 -9 -19 0 -14 -7 -28 -16
-31 -9 -4 -14 -9 -11 -12 3 -3 14 -1 24 5 14 7 34 5 72 -6 48 -14 55 -14 69 1
15 15 14 16 -13 16 -30 0 -30 1 -26 47 2 35 6 42 13 30 5 -9 13 -17 18 -17 17
0 11 25 -10 38 -11 7 -20 23 -20 37 0 14 -4 25 -10 25 -6 0 -10 -31 -10 -73 0
-81 -4 -91 -30 -77 -16 9 -17 13 -4 50 16 47 11 64 -18 54 -17 -5 -18 -3 -9
14 8 15 7 21 -4 26 -10 4 -18 -6 -25 -35z"/>
<path d="M4700 875 c-25 -7 -37 -13 -27 -14 28 -2 20 -31 -9 -31 -23 0 -25 -3
-22 -42 2 -34 7 -43 23 -45 11 -2 15 0 8 3 -8 3 -9 13 -4 27 4 12 6 28 4 35
-3 6 0 12 6 12 7 0 11 -22 11 -55 l0 -55 55 0 c30 0 55 5 55 10 0 6 -15 8 -40
4 -27 -4 -40 -3 -40 5 0 6 13 11 28 11 27 0 28 1 26 50 -2 38 1 50 12 50 8 0
14 5 14 10 0 15 -26 12 -40 -5 -17 -20 -39 -19 -36 3 2 9 13 18 25 20 12 2 19
8 16 13 -7 11 -7 11 -65 -6z m47 -67 c-2 -7 0 -23 4 -35 7 -19 5 -23 -11 -23
-16 0 -19 7 -18 35 1 23 6 35 15 35 8 0 13 -6 10 -12z"/>
<path d="M4225 871 c-21 -5 -25 -8 -15 -13 21 -8 20 -96 0 -108 -27 -17 1 -25
29 -8 32 17 81 13 81 -8 0 -7 -12 -15 -27 -17 -16 -2 0 -5 35 -6 39 0 62 3 62
10 0 7 -10 9 -25 5 -18 -5 -25 -2 -25 9 0 8 9 15 20 15 11 0 20 5 20 11 0 6
-9 8 -20 4 -14 -5 -20 -2 -20 9 0 9 8 16 19 16 15 0 20 9 23 45 l3 45 -65 -1
c-36 -1 -78 -4 -95 -8z m95 -16 c0 -8 -4 -15 -10 -15 -5 0 -10 7 -10 15 0 8 5
15 10 15 6 0 10 -7 10 -15z m40 0 c0 -8 -4 -15 -10 -15 -5 0 -10 7 -10 15 0 8
5 15 10 15 6 0 10 -7 10 -15z m-80 -15 c0 -11 -7 -20 -15 -20 -8 0 -15 9 -15
20 0 11 7 20 15 20 8 0 15 -9 15 -20z m40 -25 c0 -8 -4 -15 -10 -15 -5 0 -10
7 -10 15 0 8 5 15 10 15 6 0 10 -7 10 -15z m40 0 c0 -8 -4 -15 -10 -15 -5 0
-10 7 -10 15 0 8 5 15 10 15 6 0 10 -7 10 -15z m-80 -21 c0 -11 6 -14 20 -9
14 5 20 2 20 -9 0 -17 -12 -19 -47 -10 -26 7 -32 44 -8 44 8 0 15 -7 15 -16z"/>
<path d="M4420 855 c0 -16 6 -25 16 -25 11 0 14 6 9 20 -5 14 -2 20 10 20 12
0 15 -6 10 -20 -4 -12 -2 -20 5 -20 27 0 -4 -20 -33 -21 -32 -2 -32 -2 -4 -6
l29 -5 -33 -24 c-18 -13 -28 -24 -21 -24 7 0 12 -9 12 -19 0 -23 16 -36 25
-21 4 6 15 8 26 5 16 -5 19 -1 19 24 0 22 -5 31 -16 31 -14 0 -14 3 -4 15 7 8
20 15 30 15 10 0 20 -7 24 -15 3 -9 0 -15 -9 -15 -10 0 -15 -10 -15 -29 0 -26
3 -29 35 -29 26 0 35 4 35 17 0 9 5 22 11 28 9 9 3 16 -22 27 l-34 14 33 1
c21 1 31 5 27 12 -4 6 -13 8 -20 5 -7 -2 -18 1 -24 7 -14 14 -14 47 0 47 6 0
8 -9 4 -20 -4 -14 -2 -20 8 -20 8 0 17 11 19 25 5 23 2 25 -30 25 -34 0 -35
-1 -29 -35 3 -19 2 -35 -3 -35 -10 0 -20 25 -20 51 0 15 -7 19 -35 19 -31 0
-35 -3 -35 -25z m50 -104 c0 -6 -4 -13 -10 -16 -5 -3 -10 1 -10 9 0 9 5 16 10
16 6 0 10 -4 10 -9z m67 -13 c-3 -8 -6 -5 -6 6 -1 11 2 17 5 13 3 -3 4 -12 1
-19z"/>
<path d="M6195 870 c-3 -5 1 -10 10 -10 9 0 13 5 10 10 -3 6 -8 10 -10 10 -2
0 -7 -4 -10 -10z"/>
<path d="M6335 870 c-3 -5 3 -10 15 -10 12 0 18 5 15 10 -3 6 -10 10 -15 10
-5 0 -12 -4 -15 -10z"/>
<path d="M2310 858 c0 -18 18 -34 28 -24 3 4 -2 14 -11 23 -16 16 -17 16 -17
1z"/>
<path d="M740 852 c0 -7 -9 -12 -20 -12 -11 0 -20 -5 -20 -11 0 -12 -29 -38
-43 -39 -5 0 -1 10 7 22 18 26 20 38 6 38 -5 0 -17 -16 -25 -36 -19 -45 -19
-44 1 -44 14 0 14 -3 4 -15 -15 -18 -7 -30 14 -22 9 4 13 12 10 20 -3 8 2 20
11 27 15 12 16 10 13 -20 -2 -28 -9 -35 -37 -45 -39 -13 -32 -23 14 -20 17 1
35 -5 42 -14 11 -14 13 -12 14 14 1 19 3 23 6 12 3 -11 11 -16 19 -13 8 3 14
-1 14 -10 0 -9 7 -14 18 -12 13 2 18 15 20 51 l3 47 -45 0 c-43 0 -45 1 -43
28 2 22 7 27 27 27 18 0 25 -6 25 -19 0 -11 6 -21 13 -24 8 -2 12 7 12 27 0
23 -5 31 -18 31 -10 0 -23 5 -30 12 -9 9 -12 9 -12 0z m47 -154 c-3 -8 -6 -5
-6 6 -1 11 2 17 5 13 3 -3 4 -12 1 -19z"/>
<path d="M2219 828 c-7 -18 -14 -36 -17 -40 -2 -5 3 -8 12 -8 9 0 16 -4 16
-10 0 -5 -4 -10 -10 -10 -5 0 -10 -4 -10 -10 0 -5 9 -10 21 -10 13 0 19 5 16
13 -5 13 19 54 27 46 2 -2 1 -18 -1 -36 -4 -25 -11 -33 -34 -38 -16 -4 -29
-11 -29 -16 0 -5 12 -6 26 -3 22 6 25 4 19 -7 -7 -12 -6 -12 7 -1 13 10 17 10
21 -2 9 -22 47 -8 48 18 1 17 2 17 6 3 3 -10 9 -14 16 -10 7 4 6 -1 -2 -10 -9
-11 -10 -17 -2 -17 6 0 14 -1 19 -2 4 -2 9 21 12 50 l6 52 -42 0 c-38 0 -41 2
-41 26 0 14 -6 31 -12 37 -8 8 -11 7 -11 -6 0 -9 -6 -17 -14 -17 -8 0 -16 -6
-19 -12 -2 -7 -8 -10 -12 -6 -5 5 -1 16 8 26 21 23 21 32 3 32 -8 0 -20 -15
-27 -32z"/>
<path d="M2427 840 c5 -20 15 -25 26 -14 9 9 -4 34 -18 34 -8 0 -11 -8 -8 -20z"/>
<path d="M2470 850 c0 -11 13 -14 44 -10 11 1 16 -3 11 -9 -3 -6 -11 -9 -16
-6 -5 4 -9 1 -9 -6 0 -7 -7 -20 -16 -30 -15 -16 -14 -17 3 -13 16 4 19 1 18
-18 -1 -18 -8 -23 -28 -24 -24 -1 -27 3 -27 31 0 35 -6 46 -23 39 -13 -5 -11
-124 2 -124 4 0 13 11 19 24 8 18 16 22 36 19 17 -4 26 -12 26 -24 0 -11 5
-19 10 -19 6 0 10 9 10 20 0 15 7 20 25 20 14 0 25 5 25 11 0 7 -10 9 -25 5
-22 -6 -25 -3 -25 19 0 14 5 25 11 25 5 0 7 -4 4 -10 -9 -14 7 -12 29 5 18 13
17 14 -8 21 -30 7 -33 16 -11 34 8 7 12 16 9 21 -7 12 -94 11 -94 -1z"/>
<path d="M2630 829 c0 -26 3 -29 25 -23 15 4 25 2 25 -5 0 -6 -15 -12 -32 -12
-24 -1 -27 -3 -10 -6 27 -5 29 -19 4 -32 -14 -7 -18 -18 -14 -41 6 -39 25 -34
32 10 3 18 14 39 26 46 18 13 23 12 39 -6 17 -18 17 -20 2 -14 -14 5 -17 0
-17 -29 0 -33 2 -35 33 -33 25 1 33 6 35 24 2 12 8 22 13 22 5 0 9 5 9 10 0 6
-8 10 -18 10 -10 0 -27 7 -38 15 -18 13 -16 14 21 16 l40 1 -35 8 c-19 5 -38
6 -42 4 -13 -8 -39 24 -36 43 2 13 -5 17 -29 19 -30 1 -33 -1 -33 -27z m40 1
c0 -5 -4 -10 -10 -10 -5 0 -10 5 -10 10 0 6 5 10 10 10 6 0 10 -4 10 -10z m80
-115 c0 -8 -4 -15 -10 -15 -5 0 -10 7 -10 15 0 8 5 15 10 15 6 0 10 -7 10 -15z"/>
<path d="M2714 851 c-2 -2 -4 -12 -4 -22 0 -11 10 -18 30 -21 35 -5 40 -2 40
27 0 18 -5 22 -31 21 -17 -1 -32 -3 -35 -5z m46 -21 c0 -5 -7 -10 -15 -10 -8
0 -15 5 -15 10 0 6 7 10 15 10 8 0 15 -4 15 -10z"/>
<path d="M2905 853 c-11 -2 -29 -8 -40 -13 -11 -5 -27 -11 -35 -14 -8 -4 2 -4
23 -2 28 4 37 1 37 -10 0 -10 -8 -14 -22 -12 -20 3 -23 -2 -26 -41 -2 -32 0
-42 10 -39 7 3 14 19 16 36 5 51 22 37 22 -18 0 -38 4 -50 15 -50 11 0 15 12
15 50 0 35 4 50 13 50 8 0 13 -9 12 -22 -3 -30 25 -78 45 -78 13 1 13 2 -1 13
-10 8 -16 28 -16 57 0 43 -2 45 -27 42 -20 -2 -26 2 -26 18 0 13 7 20 20 20
11 0 20 5 20 10 0 10 -19 11 -55 3z"/>
<path d="M862 830 c7 -11 16 -16 21 -11 12 12 0 31 -19 31 -12 0 -12 -3 -2
-20z"/>
<path d="M918 830 c27 -25 27 -29 5 -46 -17 -13 -17 -13 0 -14 19 0 24 -20 5
-20 -10 0 -9 -3 1 -9 11 -7 10 -11 -5 -20 -17 -9 -17 -10 -1 -11 10 0 17 -8
17 -20 0 -11 5 -20 11 -20 6 0 13 9 16 20 3 11 14 20 24 20 10 0 21 5 25 11 5
8 -1 10 -20 7 -22 -4 -26 -2 -26 18 0 13 5 24 11 24 5 0 7 -4 4 -10 -9 -14 8
-13 23 2 17 17 15 28 -7 28 -28 0 -33 14 -11 30 28 20 15 30 -42 30 l-52 0 22
-20z m52 -4 c0 -11 -19 -15 -25 -6 -3 5 1 10 9 10 9 0 16 -2 16 -4z"/>
<path d="M1060 825 c0 -20 5 -25 25 -25 37 0 30 -20 -7 -21 -24 -1 -27 -3 -10
-6 29 -6 28 -15 -5 -35 -16 -10 -22 -18 -15 -18 6 0 12 -12 12 -26 0 -34 25
-26 25 9 1 26 30 67 47 67 15 0 47 -43 48 -62 0 -10 -4 -18 -10 -18 -5 0 -10
11 -10 25 0 14 -4 25 -10 25 -5 0 -10 -15 -10 -33 0 -31 3 -34 30 -34 23 0 30
5 30 20 0 11 8 25 17 32 15 11 13 13 -15 20 -43 9 -51 25 -12 25 17 0 29 4 25
10 -3 5 -12 7 -19 4 -8 -3 -17 0 -21 6 -4 7 0 10 11 8 14 -2 20 4 22 25 2 19
-1 27 -13 27 -9 0 -15 -7 -13 -16 2 -10 -3 -19 -11 -22 -10 -3 -11 2 -6 18 5
16 4 21 -6 18 -19 -6 -24 -39 -8 -49 7 -4 10 -11 7 -15 -11 -10 -39 24 -36 42
2 9 -3 19 -9 21 -8 3 -13 -4 -13 -16 0 -12 -4 -21 -10 -21 -5 0 -10 9 -10 20
0 11 -4 20 -10 20 -5 0 -10 -11 -10 -25z"/>
<path d="M1325 840 c-16 -4 -23 -8 -14 -9 12 -1 17 -11 17 -33 1 -108 2 -118
17 -118 11 0 14 12 14 48 -2 94 0 102 21 102 11 0 20 5 20 10 0 11 -31 11 -75
0z"/>
<path d="M2350 831 c0 -13 -7 -21 -17 -22 -13 0 -11 -3 6 -10 28 -11 28 -11
33 20 1 13 -3 26 -9 28 -8 3 -13 -4 -13 -16z"/>
<path d="M6210 804 c0 -31 3 -45 10 -38 15 15 17 77 3 81 -9 3 -13 -9 -13 -43z"/>
<path d="M6311 805 c2 -36 6 -45 21 -45 13 0 17 4 12 12 -5 7 -7 27 -5 45 2
25 -1 33 -14 33 -13 0 -15 -9 -14 -45z"/>
<path d="M2970 830 c-12 -8 -10 -10 8 -10 13 0 20 4 17 10 -7 12 -6 12 -25 0z"/>
<path d="M1405 820 c-3 -5 3 -10 15 -10 12 0 18 5 15 10 -3 6 -10 10 -15 10
-5 0 -12 -4 -15 -10z"/>
<path d="M1268 813 c7 -3 16 -2 19 1 4 3 -2 6 -13 5 -11 0 -14 -3 -6 -6z"/>
<path d="M860 798 c-5 -34 -3 -121 2 -124 4 -3 14 9 23 27 10 18 12 28 5 24
-8 -5 -11 4 -8 31 2 23 -2 39 -10 42 -6 2 -12 2 -12 0z"/>
<path d="M1280 756 c0 -43 12 -62 22 -33 9 24 3 70 -9 75 -9 2 -13 -10 -13
-42z"/>
<path d="M1385 763 c2 -21 3 -41 4 -45 1 -5 7 -8 14 -8 8 0 11 14 9 45 -3 29
-9 45 -17 45 -9 0 -12 -12 -10 -37z"/>
<path d="M6030 754 c0 -21 4 -33 10 -29 6 3 10 19 10 36 0 16 -4 29 -10 29 -5
0 -10 -16 -10 -36z"/>
<path d="M7206 776 c5 -12 -1 -16 -24 -16 -40 0 -61 -25 -34 -39 16 -9 19 -7
18 7 -1 14 9 18 58 20 53 3 58 1 46 -13 -7 -8 -10 -18 -7 -21 10 -10 39 5 32
16 -3 5 -1 10 4 10 6 0 11 5 11 10 0 6 -18 10 -40 10 -26 0 -39 4 -37 12 1 6
-6 14 -15 16 -13 2 -16 -1 -12 -12z"/>
<path d="M7580 770 c0 -11 -7 -20 -15 -20 -12 0 -15 -14 -15 -70 0 -64 9 -86
25 -60 3 6 17 7 31 4 22 -6 24 -3 24 25 0 38 26 81 49 81 13 0 15 -9 13 -50
-3 -38 -8 -50 -20 -50 -15 0 -15 -2 1 -17 26 -26 40 -3 45 73 l5 67 -27 -7
c-24 -6 -26 -5 -20 19 10 42 -13 28 -29 -17 -12 -32 -16 -37 -16 -19 -1 18 -5
22 -21 18 -16 -4 -18 -2 -10 13 9 17 4 30 -12 30 -4 0 -8 -9 -8 -20z m20 -60
c0 -11 -4 -20 -10 -20 -5 0 -10 9 -10 20 0 11 5 20 10 20 6 0 10 -9 10 -20z
m0 -50 c0 -11 -4 -20 -10 -20 -5 0 -10 9 -10 20 0 11 5 20 10 20 6 0 10 -9 10
-20z"/>
<path d="M7400 772 c0 -19 12 -42 22 -42 14 0 5 43 -9 48 -7 2 -13 -1 -13 -6z"/>
<path d="M7455 767 c-2 -6 -9 -29 -15 -49 -6 -21 -16 -38 -21 -38 -4 0 -17 17
-28 38 -24 44 -28 27 -6 -25 19 -45 20 -40 -17 -63 -39 -23 -20 -27 23 -5 27
14 32 14 51 0 24 -16 68 -20 68 -6 0 5 -10 12 -22 15 -48 13 -50 19 -24 78 21
47 23 57 10 62 -8 3 -16 0 -19 -7z"/>
<path d="M2676 743 c-3 -3 -6 -19 -6 -35 0 -37 24 -32 27 5 2 27 -9 42 -21 30z"/>
<path d="M5925 740 c-3 -5 1 -10 9 -10 9 0 16 5 16 10 0 6 -4 10 -9 10 -6 0
-13 -4 -16 -10z"/>
<path d="M6335 740 c-3 -5 1 -10 9 -10 9 0 16 5 16 10 0 6 -4 10 -9 10 -6 0
-13 -4 -16 -10z"/>
<path d="M1100 711 c0 -16 5 -33 10 -36 6 -4 10 5 10 19 0 14 0 29 1 33 0 4
-4 9 -10 11 -6 2 -11 -9 -11 -27z"/>
<path d="M4643 713 c9 -2 23 -2 30 0 6 3 -1 5 -18 5 -16 0 -22 -2 -12 -5z"/>
<path d="M7209 678 c3 -37 2 -41 -12 -30 -8 7 -13 21 -10 32 7 25 -16 27 -23
3 -3 -10 -11 -30 -19 -45 -15 -30 -6 -38 15 -13 10 12 15 12 33 0 12 -7 38
-14 57 -15 51 -3 60 -1 60 10 0 6 -18 10 -40 10 -39 0 -39 0 -38 38 1 20 6 40
12 44 6 4 0 8 -14 8 -24 0 -25 -3 -21 -42z"/>
<path d="M1405 690 c-3 -5 3 -10 15 -10 12 0 18 5 15 10 -3 6 -10 10 -15 10
-5 0 -12 -4 -15 -10z"/>
<path d="M7650 693 c0 -5 4 -15 10 -23 11 -18 25 -7 17 15 -6 15 -27 21 -27 8z"/>
<path d="M7255 680 c-3 -5 3 -10 14 -10 12 0 21 5 21 10 0 6 -6 10 -14 10 -8
0 -18 -4 -21 -10z"/>
<path d="M5370 559 c0 -28 -6 -46 -17 -55 -17 -13 -17 -13 0 -14 11 0 17 -8
17 -25 0 -14 -5 -25 -11 -25 -5 0 -7 -4 -4 -10 3 -5 13 -10 21 -10 10 0 14 12
14 45 0 31 5 47 18 54 16 10 15 10 -3 11 -20 1 -20 1 -1 15 18 13 18 15 2 21
-9 4 -15 13 -12 20 3 8 -1 14 -9 14 -11 0 -15 -12 -15 -41z"/>
<path d="M5439 558 c-1 -24 -1 -51 0 -60 1 -9 -6 -18 -16 -21 -17 -4 -17 -5 0
-6 12 -1 17 -10 17 -32 0 -20 4 -29 13 -27 8 3 13 34 15 96 2 77 0 92 -13 92
-11 0 -15 -11 -16 -42z"/>
<path d="M5480 510 c0 -53 4 -90 10 -90 6 0 10 11 10 25 0 16 6 25 15 25 8 0
15 5 15 11 0 6 -7 9 -15 5 -18 -7 -20 15 -3 32 9 9 9 12 0 12 -19 0 -14 28 6
33 15 4 15 5 -2 6 -12 1 -16 6 -12 16 3 9 0 15 -9 15 -12 0 -15 -18 -15 -90z"/>
<path d="M5646 585 c4 -8 10 -15 15 -15 5 0 9 7 9 15 0 8 -7 15 -15 15 -9 0
-12 -6 -9 -15z"/>
<path d="M5790 581 c0 -11 -6 -22 -12 -24 -10 -4 -10 -6 0 -6 15 -1 16 -74 2
-102 -14 -26 2 -24 19 2 10 16 15 19 21 9 4 -7 14 -10 21 -8 10 3 7 10 -9 23
-27 24 -28 35 -2 35 11 0 20 -6 20 -14 0 -8 5 -16 11 -18 6 -2 1 -16 -13 -33
l-23 -30 27 18 c33 21 38 21 38 1 0 -11 8 -14 33 -12 17 2 31 8 29 13 -2 6
-12 9 -23 8 -20 -3 -27 25 -10 43 5 5 11 30 14 57 3 36 1 47 -9 47 -10 0 -14
-15 -16 -52 -1 -44 -2 -46 -5 -15 -4 39 -18 50 -26 20 -2 -10 -3 -3 -1 15 2
23 -1 32 -12 32 -8 0 -14 -7 -14 -15 0 -9 -6 -12 -15 -9 -8 4 -15 12 -15 20 0
8 -7 14 -15 14 -8 0 -15 -9 -15 -19z m60 -40 c0 -5 -7 -11 -15 -15 -9 -3 -15
0 -15 9 0 8 7 15 15 15 8 0 15 -4 15 -9z"/>
<path d="M6120 520 c0 -52 -4 -80 -11 -80 -8 0 -7 -5 2 -16 23 -28 39 10 39
98 0 63 -3 78 -15 78 -12 0 -15 -16 -15 -80z"/>
<path d="M3816 583 c-3 -3 -6 -25 -6 -49 0 -24 -5 -44 -12 -47 -10 -4 -10 -8
1 -15 8 -6 12 -20 9 -36 -6 -28 7 -45 22 -30 5 5 10 34 11 64 1 30 7 59 13 63
8 6 7 10 -1 14 -7 2 -13 11 -13 18 0 16 -14 27 -24 18z"/>
<path d="M3926 583 c-10 -11 -7 -183 4 -183 6 0 10 11 10 24 0 16 8 26 23 31
l22 8 -22 4 c-27 5 -29 18 -5 32 16 9 16 10 0 16 -24 10 -23 25 3 25 12 0 17
4 14 11 -4 6 -14 8 -22 5 -11 -4 -13 -2 -10 9 6 15 -6 29 -17 18z"/>
<path d="M4080 570 c0 -11 7 -20 15 -20 8 0 15 6 15 14 0 8 -7 16 -15 20 -10
4 -15 -1 -15 -14z"/>
<path d="M4236 583 c-3 -3 -6 -15 -6 -25 0 -10 -6 -18 -12 -18 -9 0 -9 -3 1
-9 14 -9 12 -59 -4 -106 -6 -17 -4 -17 14 4 l21 24 19 -21 c14 -17 20 -19 30
-9 10 9 14 8 22 -5 13 -23 69 -25 69 -3 0 9 -8 14 -22 12 -19 -2 -21 3 -23 53
-2 30 -1 40 2 23 6 -49 23 -40 23 12 0 25 -1 48 -2 53 -4 10 -72 2 -76 -9 -6
-15 -32 -10 -32 5 0 17 -14 28 -24 19z m114 -33 c0 -5 -9 -10 -20 -10 -11 0
-20 5 -20 10 0 6 9 10 20 10 11 0 20 -4 20 -10z m-60 -30 c0 -5 -7 -10 -15
-10 -8 0 -15 5 -15 10 0 6 7 10 15 10 8 0 15 -4 15 -10z m0 -45 c0 -7 5 -15
11 -17 7 -2 5 -9 -5 -17 -12 -11 -16 -11 -16 -1 0 7 -7 18 -17 25 -9 7 -13 17
-9 23 9 14 36 4 36 -13z"/>
<path d="M5705 580 c-3 -5 1 -10 10 -10 9 0 13 5 10 10 -3 6 -8 10 -10 10 -2
0 -7 -4 -10 -10z"/>
<path d="M5980 531 c0 -34 4 -61 10 -61 6 0 10 23 10 50 0 28 0 53 1 57 0 4
-4 9 -10 11 -7 2 -11 -18 -11 -57z"/>
<path d="M6049 586 c-8 -8 3 -116 12 -116 5 0 9 27 9 60 0 53 -7 70 -21 56z"/>
<path d="M3880 546 c0 -19 -6 -37 -12 -39 -10 -4 -10 -6 0 -6 8 -1 12 -18 12
-51 0 -38 4 -50 15 -50 12 0 15 17 15 90 0 73 -3 90 -15 90 -10 0 -15 -10 -15
-34z"/>
<path d="M4560 501 c0 -54 -4 -81 -12 -84 -9 -3 -7 -7 6 -12 27 -12 36 11 36
98 0 62 -3 77 -15 77 -12 0 -15 -15 -15 -79z"/>
<path d="M5568 518 c-3 -35 -8 -72 -12 -83 -7 -17 -5 -17 13 4 12 13 21 32 21
42 0 14 7 19 30 19 27 0 30 -3 30 -30 0 -17 -5 -30 -12 -30 -9 0 -9 -3 -1 -11
21 -21 43 -2 43 36 0 34 14 48 23 23 3 -10 7 -10 20 1 24 19 11 31 -26 25 -30
-5 -31 -5 -13 10 11 9 23 16 28 16 4 0 8 5 8 10 0 16 -37 11 -44 -6 -4 -10
-12 -14 -22 -10 -12 4 -15 2 -10 -9 4 -11 -2 -15 -26 -15 -29 0 -30 1 -25 35
4 25 2 35 -7 35 -9 0 -15 -20 -18 -62z"/>
<path d="M4009 563 c-1 -4 -2 -30 -3 -58 -1 -27 -5 -60 -10 -72 -4 -14 -3 -23
3 -23 5 0 15 16 22 35 11 29 18 35 41 35 24 0 28 -4 28 -30 0 -17 -5 -30 -12
-30 -9 0 -9 -3 -1 -11 18 -18 33 -1 33 37 0 24 5 34 15 34 8 0 15 -5 15 -10 0
-6 8 -5 19 2 28 17 16 28 -22 21 -29 -6 -31 -5 -18 10 7 9 20 17 27 17 8 0 14
5 14 10 0 6 -14 10 -31 10 -17 0 -28 -4 -24 -10 3 -5 -4 -10 -16 -10 -18 0
-19 -2 -9 -15 11 -13 8 -15 -20 -15 -30 0 -31 1 -28 37 2 22 -2 38 -10 41 -6
2 -13 0 -13 -5z"/>
<path d="M4135 560 c-3 -5 3 -10 14 -10 12 0 21 5 21 10 0 6 -6 10 -14 10 -8
0 -18 -4 -21 -10z"/>
<path d="M4420 510 c0 -78 17 -78 22 0 2 43 -1 60 -9 60 -9 0 -13 -19 -13 -60z"/>
<path d="M4480 555 c0 -8 -7 -15 -15 -15 -11 0 -15 -12 -15 -44 0 -30 -7 -52
-22 -72 -22 -27 -10 -26 25 4 15 13 19 13 35 -1 21 -19 32 -22 32 -7 0 6 -11
16 -25 22 -14 6 -25 16 -25 21 0 5 6 5 13 -2 21 -16 27 -3 27 56 0 40 -4 53
-15 53 -8 0 -15 -7 -15 -15z"/>
<path d="M6080 514 c0 -72 22 -69 24 4 1 36 -3 52 -11 52 -9 0 -13 -18 -13
-56z"/>
<path d="M2018 538 c0 -13 -1 -30 0 -40 1 -9 -5 -22 -13 -28 -19 -16 -19 -30
0 -30 18 0 20 -36 3 -43 -7 -2 -10 -8 -6 -12 17 -18 38 6 38 43 0 45 4 52 31
45 24 -7 25 -30 2 -36 -17 -4 -17 -5 0 -6 12 -1 17 -10 17 -32 0 -17 4 -28 10
-24 6 3 10 46 10 96 0 53 -4 89 -10 89 -9 0 -12 -8 -14 -55 -1 -13 -8 -20 -23
-21 -24 -1 -32 21 -10 29 10 4 10 6 0 6 -7 1 -13 10 -13 21 0 28 -20 25 -22
-2z"/>
<path d="M2120 471 c0 -50 5 -93 10 -96 6 -4 10 7 10 24 0 25 4 31 21 31 11 0
18 4 14 10 -3 5 -12 7 -20 3 -9 -3 -15 1 -15 11 0 9 7 16 15 16 8 0 15 5 15
10 0 6 -7 10 -15 10 -8 0 -15 5 -15 10 0 6 7 10 15 10 8 0 15 5 15 10 0 6 -7
10 -16 10 -10 0 -14 6 -10 15 3 9 0 15 -9 15 -12 0 -15 -17 -15 -89z"/>
<path d="M2286 545 c4 -9 11 -14 16 -13 15 5 11 23 -6 26 -11 2 -14 -2 -10
-13z"/>
<path d="M2430 541 c0 -11 -6 -22 -12 -24 -10 -4 -10 -6 0 -6 6 -1 12 -7 12
-15 0 -8 -6 -17 -12 -19 -10 -4 -10 -6 0 -6 17 -1 15 -42 -5 -70 -12 -18 -13
-22 -2 -16 8 5 20 17 27 27 13 18 14 18 27 1 10 -14 11 -21 2 -32 -10 -12 -9
-13 3 -6 8 4 23 15 33 23 15 13 17 13 17 -1 0 -9 8 -18 19 -22 20 -6 51 3 51
15 0 14 -18 21 -25 10 -4 -6 -11 -8 -16 -5 -14 10 -11 42 6 49 22 8 21 106 -1
106 -10 0 -14 -6 -10 -15 4 -10 -1 -15 -14 -15 -11 0 -20 7 -20 15 0 8 -4 15
-10 15 -5 0 -10 -6 -10 -13 0 -7 -9 -13 -20 -14 -16 -1 -20 2 -15 18 4 13 2
19 -9 19 -9 0 -16 -8 -16 -19z m60 -40 c0 -10 -30 -24 -37 -17 -3 3 -2 9 2 15
8 13 35 15 35 2z m56 -49 c-12 -11 -17 7 -9 34 l8 29 3 -28 c2 -16 1 -31 -2
-35z m-56 3 c0 -8 5 -15 10 -15 7 0 7 -8 -1 -22 l-12 -22 -8 21 c-4 11 -12 24
-18 28 -18 10 -12 25 9 25 11 0 20 -7 20 -15z"/>
<path d="M2770 480 c0 -69 -2 -80 -17 -80 -16 0 -16 -1 -1 -16 9 -9 21 -13 27
-10 14 9 15 186 1 186 -6 0 -10 -33 -10 -80z"/>
<path d="M4520 505 c0 -30 5 -55 10 -55 6 0 10 25 10 55 0 30 -4 55 -10 55 -5
0 -10 -25 -10 -55z"/>
<path d="M6010 512 c0 -28 -7 -57 -16 -71 -16 -22 -16 -23 4 -12 11 6 23 16
25 23 4 9 12 6 25 -9 24 -27 32 -29 32 -8 0 9 -11 20 -24 25 -21 8 -23 13 -19
54 5 38 3 46 -11 46 -12 0 -16 -10 -16 -48z"/>
<path d="M449 528 c-1 -13 0 -33 0 -44 1 -12 -5 -24 -14 -28 -9 -3 -13 -10
-10 -16 4 -6 11 -8 16 -5 5 4 9 -5 9 -19 0 -14 -5 -26 -11 -26 -5 0 -7 -4 -4
-10 3 -5 13 -10 21 -10 10 0 14 12 14 44 0 48 8 60 34 50 21 -8 20 -31 -1 -37
-17 -4 -17 -5 0 -6 12 -1 17 -10 17 -31 0 -16 5 -30 10 -30 6 0 10 38 10 95 0
57 -4 95 -10 95 -5 0 -10 -18 -10 -41 0 -33 -3 -40 -16 -35 -9 3 -20 6 -25 6
-17 0 -9 20 9 20 16 1 16 2 -2 15 -10 7 -15 18 -11 24 3 6 -1 11 -9 11 -10 0
-16 -9 -17 -22z"/>
<path d="M560 460 c0 -53 4 -90 10 -90 6 0 10 11 10 25 0 19 5 25 21 25 12 0
17 4 14 11 -4 6 -13 8 -21 5 -17 -7 -19 20 -1 28 10 5 10 7 0 12 -19 8 -16 32
5 37 16 4 16 5 0 6 -10 0 -18 8 -18 16 0 8 -4 15 -10 15 -6 0 -10 -37 -10 -90z"/>
<path d="M716 535 c4 -8 10 -15 15 -15 5 0 9 7 9 15 0 8 -7 15 -15 15 -9 0
-12 -6 -9 -15z"/>
<path d="M870 530 c0 -12 -7 -20 -17 -20 -17 -1 -17 -1 -1 -11 14 -8 17 -19
13 -51 -3 -22 -11 -50 -17 -62 -10 -19 -10 -20 5 -8 9 8 19 23 23 34 6 19 6
19 19 1 7 -10 17 -15 21 -11 4 5 0 16 -9 26 -21 23 -21 32 -2 32 8 0 15 -6 15
-14 0 -8 6 -16 13 -19 9 -3 7 -9 -5 -24 -27 -30 -21 -40 7 -13 l25 23 0 -21
c0 -19 6 -22 36 -22 24 0 34 4 31 13 -2 6 -14 11 -25 9 -16 -2 -22 2 -22 16 0
11 7 22 15 26 11 4 15 20 15 56 0 38 -4 50 -15 50 -8 0 -15 -7 -15 -15 0 -8
-6 -15 -14 -15 -8 0 -17 -8 -19 -17 -2 -10 -3 -3 -1 15 3 35 -9 41 -34 15 -16
-16 -17 -15 -20 5 -4 28 -22 29 -22 2z m50 -39 c0 -5 -7 -11 -15 -15 -9 -3
-15 0 -15 9 0 8 7 15 15 15 8 0 15 -4 15 -9z m70 -13 c0 -7 -5 -20 -10 -28 -8
-12 -10 -9 -10 13 0 15 5 27 10 27 6 0 10 -6 10 -12z"/>
<path d="M1200 475 c0 -57 -4 -76 -16 -83 -14 -8 -14 -10 0 -21 8 -7 20 -10
26 -6 13 8 14 185 0 185 -6 0 -10 -32 -10 -75z"/>
<path d="M2630 492 c0 -39 4 -62 13 -65 8 -3 7 -10 -7 -26 -26 -29 -5 -27 22
2 16 17 22 36 22 70 0 56 -17 63 -23 10 -3 -29 -4 -26 -3 11 0 30 -5 51 -12
54 -8 2 -12 -14 -12 -56z"/>
<path d="M2690 490 c0 -45 3 -61 13 -57 7 2 12 23 12 57 0 34 -5 55 -12 58
-10 3 -13 -13 -13 -58z"/>
<path d="M775 530 c-3 -5 1 -10 9 -10 9 0 16 5 16 10 0 6 -4 10 -9 10 -6 0
-13 -4 -16 -10z"/>
<path d="M1060 480 c0 -33 4 -60 10 -60 6 0 10 27 10 60 0 33 -4 60 -10 60 -6
0 -10 -27 -10 -60z"/>
<path d="M1120 481 c0 -34 4 -61 10 -61 6 0 10 23 10 50 0 28 0 53 1 57 0 4
-4 9 -10 11 -7 2 -11 -18 -11 -57z"/>
<path d="M2220 533 c-3 -53 -10 -118 -16 -135 -9 -28 14 -14 26 16 14 38 16
119 2 124 -7 2 -12 0 -12 -5z"/>
<path d="M2358 533 c7 -3 16 -2 19 1 4 3 -2 6 -13 5 -11 0 -14 -3 -6 -6z"/>
<path d="M640 473 c0 -32 -3 -69 -7 -82 -4 -17 -3 -22 5 -17 7 4 15 21 20 39
7 27 13 32 38 32 24 0 30 -4 32 -27 2 -21 -1 -28 -13 -28 -9 0 -13 -4 -10 -10
3 -5 15 -10 26 -10 16 0 19 7 19 40 0 29 4 40 15 40 8 0 15 -4 15 -10 0 -5 7
-7 15 -3 26 9 11 28 -19 25 -33 -4 -27 14 8 28 20 8 20 8 2 16 -13 5 -23 2
-32 -11 -8 -11 -19 -15 -30 -11 -12 4 -15 2 -10 -9 4 -11 -2 -15 -24 -15 -27
0 -28 2 -23 35 4 28 2 35 -11 35 -13 0 -16 -11 -16 -57z"/>
<path d="M2730 475 c0 -30 5 -55 10 -55 6 0 10 25 10 55 0 30 -4 55 -10 55 -5
0 -10 -25 -10 -55z"/>
<path d="M1160 465 c0 -30 5 -55 10 -55 6 0 10 25 10 55 0 30 -4 55 -10 55 -5
0 -10 -25 -10 -55z"/>
<path d="M2326 505 c-8 -8 -23 -15 -33 -15 -10 0 -14 -3 -7 -8 5 -4 11 -24 12
-44 2 -30 -1 -38 -15 -38 -16 0 -16 -1 0 -17 23 -23 35 -9 39 51 4 37 9 51 27
60 12 7 18 15 15 19 -11 11 -21 8 -38 -8z"/>
<path d="M1090 466 c0 -29 -7 -52 -21 -70 -24 -30 -11 -36 16 -6 l18 20 24
-22 c20 -19 23 -20 23 -4 0 10 -9 20 -20 23 -17 4 -20 14 -20 54 0 27 -4 49
-10 49 -5 0 -10 -20 -10 -44z"/>
<path d="M7260 461 c0 -11 -8 -22 -17 -24 -16 -4 -16 -5 -1 -6 13 -1 16 -9 13
-40 -2 -22 -9 -49 -15 -60 -7 -15 -7 -21 0 -21 6 0 16 11 22 25 10 23 12 23
24 7 7 -9 16 -14 20 -10 4 5 0 16 -9 26 -21 23 -22 43 -2 36 8 -4 15 -12 15
-19 0 -7 6 -15 13 -18 8 -3 4 -13 -13 -32 -25 -28 -11 -26 23 3 15 14 17 13
17 -6 0 -19 6 -22 36 -22 24 0 34 4 31 13 -2 6 -14 11 -26 10 -15 -2 -21 3
-21 17 0 12 7 23 15 26 10 4 15 21 15 54 0 51 -17 77 -27 41 -3 -12 -11 -21
-19 -21 -7 0 -15 -12 -17 -27 -2 -16 -3 -9 -2 15 2 30 -1 42 -11 42 -8 0 -14
-4 -14 -10 0 -5 -7 -10 -15 -10 -8 0 -15 7 -15 15 0 8 -4 15 -10 15 -5 0 -10
-9 -10 -19z m50 -41 c0 -5 -7 -10 -15 -10 -8 0 -15 5 -15 10 0 6 7 10 15 10 8
0 15 -4 15 -10z m57 -37 c-3 -10 -5 -2 -5 17 0 19 2 27 5 18 2 -10 2 -26 0
-35z"/>
<path d="M7590 405 c0 -58 -4 -76 -16 -83 -15 -8 -15 -10 1 -16 9 -3 21 -4 26
0 12 7 12 174 -1 174 -6 0 -10 -32 -10 -75z"/>
<path d="M2350 448 c0 -20 1 -21 20 -3 11 10 20 20 20 22 0 1 -9 3 -20 3 -14
0 -20 -7 -20 -22z"/>
<path d="M7449 438 c-2 -55 2 -83 14 -90 8 -5 5 -13 -7 -27 -11 -12 -15 -21
-9 -21 5 0 18 9 28 20 l18 20 24 -22 c19 -18 23 -19 23 -5 0 9 -9 21 -20 27
-15 8 -20 21 -20 55 0 57 -18 59 -23 3 -3 -37 -4 -35 -5 15 -2 60 -21 81 -23
25z"/>
<path d="M7510 410 c0 -33 4 -60 10 -60 6 0 10 20 10 44 0 24 3 51 6 60 4 11
1 16 -10 16 -13 0 -16 -12 -16 -60z"/>
<path d="M7550 399 c0 -37 4 -58 10 -54 6 3 10 31 10 61 0 30 -4 54 -10 54 -6
0 -10 -27 -10 -61z"/>
<path d="M2692 400 c15 -23 28 -26 28 -6 0 8 -7 17 -16 20 -24 9 -25 8 -12
-14z"/>
<path d="M3600 208 c0 -5 318 -7 708 -6 389 2 595 4 457 5 -649 7 -1165 7
-1165 1z"/>
<path d="M5518 203 c195 -2 510 -2 700 0 191 1 32 2 -353 2 -385 0 -541 -1
-347 -2z"/>
</g>
</svg>
